<svg width="448" height="254" viewBox="0 0 448 254" fill="none" xmlns="http://www.w3.org/2000/svg">
<g filter="url(#filter0_d_725_1930)">
<rect x="24" y="10" width="400" height="206" rx="8" fill="white"/>
<rect x="24.25" y="10.25" width="399.5" height="205.5" rx="7.75" stroke="#CCCCD6" stroke-width="0.5"/>
<g clip-path="url(#clip0_725_1930)">
<path d="M50 52.0001C49.8013 52.0012 49.6069 51.9432 49.4413 51.8334C49.2758 51.7236 49.1468 51.567 49.0706 51.3835C48.9944 51.2001 48.9746 50.9981 49.0137 50.8034C49.0527 50.6086 49.1489 50.4299 49.29 50.2901L54.29 45.2901C54.4607 45.1195 54.6874 45.0165 54.9281 44.9999C55.1689 44.9834 55.4075 45.0545 55.6 45.2001L58.91 47.6801L66.29 40.2901C66.3829 40.1963 66.4935 40.1219 66.6154 40.0712C66.7372 40.0204 66.8679 39.9943 67 39.9943C67.132 39.9943 67.2627 40.0204 67.3845 40.0712C67.5064 40.1219 67.617 40.1963 67.71 40.2901L71.05 43.6401L77.35 38.2401C77.4952 38.1158 77.6731 38.0358 77.8624 38.0095C78.0518 37.9832 78.2447 38.0117 78.4183 38.0917C78.5919 38.1717 78.739 38.2998 78.8421 38.4608C78.9452 38.6217 79 38.8089 79 39.0001V45.0001C79 45.2653 78.8946 45.5196 78.7071 45.7072C78.5195 45.8947 78.2652 46.0001 78 46.0001C77.7347 46.0001 77.4804 45.8947 77.2928 45.7072C77.1053 45.5196 77 45.2653 77 45.0001V41.1701L71.65 45.7601C71.465 45.9316 71.2222 46.0269 70.97 46.0269C70.7178 46.0269 70.4749 45.9316 70.29 45.7601L67 42.4101L59.71 49.7101C59.5392 49.8806 59.3126 49.9837 59.0718 50.0002C58.831 50.0167 58.5924 49.9457 58.4 49.8001L55.09 47.3201L50.71 51.7101C50.6165 51.8027 50.5057 51.8761 50.3839 51.9258C50.262 51.9756 50.1316 52.0008 50 52.0001Z" fill="#100FA8"/>
<path d="M80 62H79V45C79.0012 44.8014 78.9431 44.6069 78.8333 44.4414C78.7235 44.2759 78.5669 44.1468 78.3835 44.0706C78.2 43.9945 77.9981 43.9747 77.8033 44.0137C77.6086 44.0528 77.4299 44.149 77.29 44.29L71 50.59L67.71 47.29C67.617 47.1963 67.5064 47.1219 67.3846 47.0711C67.2627 47.0203 67.132 46.9942 67 46.9942C66.868 46.9942 66.7373 47.0203 66.6154 47.0711C66.4936 47.1219 66.383 47.1963 66.29 47.29L59 54.59L55.71 51.29C55.617 51.1963 55.5064 51.1219 55.3846 51.0711C55.2627 51.0203 55.132 50.9942 55 50.9942C54.868 50.9942 54.7373 51.0203 54.6154 51.0711C54.4936 51.1219 54.383 51.1963 54.29 51.29L51 54.59V43C51 42.7348 50.8946 42.4804 50.7071 42.2929C50.5196 42.1054 50.2652 42 50 42C49.7348 42 49.4804 42.1054 49.2929 42.2929C49.1054 42.4804 49 42.7348 49 43V61C49 61.7956 49.3161 62.5587 49.8787 63.1213C50.4413 63.6839 51.2044 64 52 64H80C80.2652 64 80.5196 63.8946 80.7071 63.7071C80.8946 63.5196 81 63.2652 81 63C81 62.7348 80.8946 62.4804 80.7071 62.2929C80.5196 62.1054 80.2652 62 80 62ZM51 61V57.41L55 53.41L58.29 56.71C58.383 56.8037 58.4936 56.8781 58.6154 56.9289C58.7373 56.9797 58.868 57.0058 59 57.0058C59.132 57.0058 59.2627 56.9797 59.3846 56.9289C59.5064 56.8781 59.617 56.8037 59.71 56.71L67 49.41L70.29 52.71C70.383 52.8037 70.4936 52.8781 70.6154 52.9289C70.7373 52.9797 70.868 53.0058 71 53.0058C71.132 53.0058 71.2627 52.9797 71.3846 52.9289C71.5064 52.8781 71.617 52.8037 71.71 52.71L77 47.41V62H52C51.7348 62 51.4804 61.8946 51.2929 61.7071C51.1054 61.5196 51 61.2652 51 61Z" fill="#000033"/>
<path d="M50 45C50.2652 45 50.5196 44.8946 50.7071 44.7071C50.8946 44.5196 51 44.2652 51 44V33C51 32.7348 50.8946 32.4804 50.7071 32.2929C50.5196 32.1054 50.2652 32 50 32C49.7348 32 49.4804 32.1054 49.2929 32.2929C49.1054 32.4804 49 32.7348 49 33V44C49 44.2652 49.1054 44.5196 49.2929 44.7071C49.4804 44.8946 49.7348 45 50 45Z" fill="#000033"/>
</g>
<path d="M96.82 43L103.06 29H106.26L112.52 43H109.12L104 30.64H105.28L100.14 43H96.82ZM99.94 40L100.8 37.54H108L108.88 40H99.94ZM120.293 32.08C121.146 32.08 121.906 32.2533 122.573 32.6C123.253 32.9333 123.786 33.4533 124.173 34.16C124.559 34.8533 124.753 35.7467 124.753 36.84V43H121.633V37.32C121.633 36.4533 121.439 35.8133 121.053 35.4C120.679 34.9867 120.146 34.78 119.453 34.78C118.959 34.78 118.513 34.8867 118.113 35.1C117.726 35.3 117.419 35.6133 117.193 36.04C116.979 36.4667 116.873 37.0133 116.873 37.68V43H113.753V32.24H116.733V35.22L116.173 34.32C116.559 33.6 117.113 33.0467 117.833 32.66C118.553 32.2733 119.373 32.08 120.293 32.08ZM134.181 43V40.9L133.981 40.44V36.68C133.981 36.0133 133.774 35.4933 133.361 35.12C132.961 34.7467 132.341 34.56 131.501 34.56C130.927 34.56 130.361 34.6533 129.801 34.84C129.254 35.0133 128.787 35.2533 128.401 35.56L127.281 33.38C127.867 32.9667 128.574 32.6467 129.401 32.42C130.227 32.1933 131.067 32.08 131.921 32.08C133.561 32.08 134.834 32.4667 135.741 33.24C136.647 34.0133 137.101 35.22 137.101 36.86V43H134.181ZM130.901 43.16C130.061 43.16 129.341 43.02 128.741 42.74C128.141 42.4467 127.681 42.0533 127.361 41.56C127.041 41.0667 126.881 40.5133 126.881 39.9C126.881 39.26 127.034 38.7 127.341 38.22C127.661 37.74 128.161 37.3667 128.841 37.1C129.521 36.82 130.407 36.68 131.501 36.68H134.361V38.5H131.841C131.107 38.5 130.601 38.62 130.321 38.86C130.054 39.1 129.921 39.4 129.921 39.76C129.921 40.16 130.074 40.48 130.381 40.72C130.701 40.9467 131.134 41.06 131.681 41.06C132.201 41.06 132.667 40.94 133.081 40.7C133.494 40.4467 133.794 40.08 133.981 39.6L134.461 41.04C134.234 41.7333 133.821 42.26 133.221 42.62C132.621 42.98 131.847 43.16 130.901 43.16ZM139.924 43V28.16H143.044V43H139.924ZM145.94 43V32.24H149.06V43H145.94ZM145.68 30.86L148.38 27.98H151.74L148.12 30.86H145.68ZM156.356 43.16C155.089 43.16 154.102 42.84 153.396 42.2C152.689 41.5467 152.336 40.58 152.336 39.3V29.86H155.456V39.26C155.456 39.7133 155.576 40.0667 155.816 40.32C156.056 40.56 156.382 40.68 156.796 40.68C157.289 40.68 157.709 40.5467 158.056 40.28L158.896 42.48C158.576 42.7067 158.189 42.88 157.736 43C157.296 43.1067 156.836 43.16 156.356 43.16ZM150.676 34.88V32.48H158.136V34.88H150.676ZM160.647 43V32.24H163.767V43H160.647ZM162.207 30.74C161.634 30.74 161.167 30.5733 160.807 30.24C160.447 29.9067 160.267 29.4933 160.267 29C160.267 28.5067 160.447 28.0933 160.807 27.76C161.167 27.4267 161.634 27.26 162.207 27.26C162.78 27.26 163.247 27.42 163.607 27.74C163.967 28.0467 164.147 28.4467 164.147 28.94C164.147 29.46 163.967 29.8933 163.607 30.24C163.26 30.5733 162.794 30.74 162.207 30.74ZM171.863 43.16C170.703 43.16 169.669 42.9267 168.763 42.46C167.856 41.98 167.143 41.32 166.623 40.48C166.116 39.64 165.863 38.6867 165.863 37.62C165.863 36.54 166.116 35.5867 166.623 34.76C167.143 33.92 167.856 33.2667 168.763 32.8C169.669 32.32 170.703 32.08 171.863 32.08C172.996 32.08 173.983 32.32 174.823 32.8C175.663 33.2667 176.283 33.94 176.683 34.82L174.263 36.12C173.983 35.6133 173.629 35.24 173.203 35C172.789 34.76 172.336 34.64 171.843 34.64C171.309 34.64 170.829 34.76 170.403 35C169.976 35.24 169.636 35.58 169.383 36.02C169.143 36.46 169.023 36.9933 169.023 37.62C169.023 38.2467 169.143 38.78 169.383 39.22C169.636 39.66 169.976 40 170.403 40.24C170.829 40.48 171.309 40.6 171.843 40.6C172.336 40.6 172.789 40.4867 173.203 40.26C173.629 40.02 173.983 39.64 174.263 39.12L176.683 40.44C176.283 41.3067 175.663 41.98 174.823 42.46C173.983 42.9267 172.996 43.16 171.863 43.16ZM185.079 43V40.9L184.879 40.44V36.68C184.879 36.0133 184.672 35.4933 184.259 35.12C183.859 34.7467 183.239 34.56 182.399 34.56C181.826 34.56 181.259 34.6533 180.699 34.84C180.152 35.0133 179.686 35.2533 179.299 35.56L178.179 33.38C178.766 32.9667 179.472 32.6467 180.299 32.42C181.126 32.1933 181.966 32.08 182.819 32.08C184.459 32.08 185.732 32.4667 186.639 33.24C187.546 34.0133 187.999 35.22 187.999 36.86V43H185.079ZM181.799 43.16C180.959 43.16 180.239 43.02 179.639 42.74C179.039 42.4467 178.579 42.0533 178.259 41.56C177.939 41.0667 177.779 40.5133 177.779 39.9C177.779 39.26 177.932 38.7 178.239 38.22C178.559 37.74 179.059 37.3667 179.739 37.1C180.419 36.82 181.306 36.68 182.399 36.68H185.259V38.5H182.739C182.006 38.5 181.499 38.62 181.219 38.86C180.952 39.1 180.819 39.4 180.819 39.76C180.819 40.16 180.972 40.48 181.279 40.72C181.599 40.9467 182.032 41.06 182.579 41.06C183.099 41.06 183.566 40.94 183.979 40.7C184.392 40.4467 184.692 40.08 184.879 39.6L185.359 41.04C185.132 41.7333 184.719 42.26 184.119 42.62C183.519 42.98 182.746 43.16 181.799 43.16ZM196.707 43V29H203.067C204.587 29 205.927 29.2933 207.087 29.88C208.247 30.4533 209.154 31.26 209.807 32.3C210.46 33.34 210.787 34.5733 210.787 36C210.787 37.4133 210.46 38.6467 209.807 39.7C209.154 40.74 208.247 41.5533 207.087 42.14C205.927 42.7133 204.587 43 203.067 43H196.707ZM199.947 40.34H202.907C203.84 40.34 204.647 40.1667 205.327 39.82C206.02 39.46 206.554 38.9533 206.927 38.3C207.314 37.6467 207.507 36.88 207.507 36C207.507 35.1067 207.314 34.34 206.927 33.7C206.554 33.0467 206.02 32.5467 205.327 32.2C204.647 31.84 203.84 31.66 202.907 31.66H199.947V40.34ZM213.01 43V32.24H216.13V43H213.01ZM214.57 30.74C213.997 30.74 213.53 30.5733 213.17 30.24C212.81 29.9067 212.63 29.4933 212.63 29C212.63 28.5067 212.81 28.0933 213.17 27.76C213.53 27.4267 213.997 27.26 214.57 27.26C215.144 27.26 215.61 27.42 215.97 27.74C216.33 28.0467 216.51 28.4467 216.51 28.94C216.51 29.46 216.33 29.8933 215.97 30.24C215.624 30.5733 215.157 30.74 214.57 30.74ZM224.086 47.04C223.073 47.04 222.093 46.9133 221.146 46.66C220.213 46.42 219.433 46.0533 218.806 45.56L220.046 43.32C220.499 43.6933 221.073 43.9867 221.766 44.2C222.473 44.4267 223.166 44.54 223.846 44.54C224.953 44.54 225.753 44.2933 226.246 43.8C226.753 43.3067 227.006 42.5733 227.006 41.6V39.98L227.206 37.28L227.166 34.56V32.24H230.126V41.2C230.126 43.2 229.606 44.6733 228.566 45.62C227.526 46.5667 226.033 47.04 224.086 47.04ZM223.606 42.48C222.606 42.48 221.699 42.2667 220.886 41.84C220.086 41.4 219.439 40.7933 218.946 40.02C218.466 39.2333 218.226 38.32 218.226 37.28C218.226 36.2267 218.466 35.3133 218.946 34.54C219.439 33.7533 220.086 33.1467 220.886 32.72C221.699 32.2933 222.606 32.08 223.606 32.08C224.513 32.08 225.313 32.2667 226.006 32.64C226.699 33 227.239 33.5667 227.626 34.34C228.013 35.1 228.206 36.08 228.206 37.28C228.206 38.4667 228.013 39.4467 227.626 40.22C227.239 40.98 226.699 41.5467 226.006 41.92C225.313 42.2933 224.513 42.48 223.606 42.48ZM224.226 39.92C224.773 39.92 225.259 39.8133 225.686 39.6C226.113 39.3733 226.446 39.06 226.686 38.66C226.926 38.26 227.046 37.8 227.046 37.28C227.046 36.7467 226.926 36.2867 226.686 35.9C226.446 35.5 226.113 35.1933 225.686 34.98C225.259 34.7533 224.773 34.64 224.226 34.64C223.679 34.64 223.193 34.7533 222.766 34.98C222.339 35.1933 221.999 35.5 221.746 35.9C221.506 36.2867 221.386 36.7467 221.386 37.28C221.386 37.8 221.506 38.26 221.746 38.66C221.999 39.06 222.339 39.3733 222.766 39.6C223.193 39.8133 223.679 39.92 224.226 39.92ZM233.03 43V32.24H236.15V43H233.03ZM234.59 30.74C234.017 30.74 233.55 30.5733 233.19 30.24C232.83 29.9067 232.65 29.4933 232.65 29C232.65 28.5067 232.83 28.0933 233.19 27.76C233.55 27.4267 234.017 27.26 234.59 27.26C235.163 27.26 235.63 27.42 235.99 27.74C236.35 28.0467 236.53 28.4467 236.53 28.94C236.53 29.46 236.35 29.8933 235.99 30.24C235.643 30.5733 235.177 30.74 234.59 30.74ZM243.445 43.16C242.179 43.16 241.192 42.84 240.485 42.2C239.779 41.5467 239.425 40.58 239.425 39.3V29.86H242.545V39.26C242.545 39.7133 242.665 40.0667 242.905 40.32C243.145 40.56 243.472 40.68 243.885 40.68C244.379 40.68 244.799 40.5467 245.145 40.28L245.985 42.48C245.665 42.7067 245.279 42.88 244.825 43C244.385 43.1067 243.925 43.16 243.445 43.16ZM237.765 34.88V32.48H245.225V34.88H237.765ZM254.337 43V40.9L254.137 40.44V36.68C254.137 36.0133 253.93 35.4933 253.517 35.12C253.117 34.7467 252.497 34.56 251.657 34.56C251.084 34.56 250.517 34.6533 249.957 34.84C249.41 35.0133 248.944 35.2533 248.557 35.56L247.437 33.38C248.024 32.9667 248.73 32.6467 249.557 32.42C250.384 32.1933 251.224 32.08 252.077 32.08C253.717 32.08 254.99 32.4667 255.897 33.24C256.804 34.0133 257.257 35.22 257.257 36.86V43H254.337ZM251.057 43.16C250.217 43.16 249.497 43.02 248.897 42.74C248.297 42.4467 247.837 42.0533 247.517 41.56C247.197 41.0667 247.037 40.5133 247.037 39.9C247.037 39.26 247.19 38.7 247.497 38.22C247.817 37.74 248.317 37.3667 248.997 37.1C249.677 36.82 250.564 36.68 251.657 36.68H254.517V38.5H251.997C251.264 38.5 250.757 38.62 250.477 38.86C250.21 39.1 250.077 39.4 250.077 39.76C250.077 40.16 250.23 40.48 250.537 40.72C250.857 40.9467 251.29 41.06 251.837 41.06C252.357 41.06 252.824 40.94 253.237 40.7C253.65 40.4467 253.95 40.08 254.137 39.6L254.617 41.04C254.39 41.7333 253.977 42.26 253.377 42.62C252.777 42.98 252.004 43.16 251.057 43.16ZM260.081 43V28.16H263.201V43H260.081ZM277.1 43.16C275.874 43.16 274.794 42.92 273.86 42.44C272.94 41.96 272.227 41.3067 271.72 40.48C271.214 39.64 270.96 38.6867 270.96 37.62C270.96 36.54 271.207 35.5867 271.7 34.76C272.207 33.92 272.894 33.2667 273.76 32.8C274.627 32.32 275.607 32.08 276.7 32.08C277.754 32.08 278.7 32.3067 279.54 32.76C280.394 33.2 281.067 33.84 281.56 34.68C282.054 35.5067 282.3 36.5 282.3 37.66C282.3 37.78 282.294 37.92 282.28 38.08C282.267 38.2267 282.254 38.3667 282.24 38.5H273.5V36.68H280.6L279.4 37.22C279.4 36.66 279.287 36.1733 279.06 35.76C278.834 35.3467 278.52 35.0267 278.12 34.8C277.72 34.56 277.254 34.44 276.72 34.44C276.187 34.44 275.714 34.56 275.3 34.8C274.9 35.0267 274.587 35.3533 274.36 35.78C274.134 36.1933 274.02 36.6867 274.02 37.26V37.74C274.02 38.3267 274.147 38.8467 274.4 39.3C274.667 39.74 275.034 40.08 275.5 40.32C275.98 40.5467 276.54 40.66 277.18 40.66C277.754 40.66 278.254 40.5733 278.68 40.4C279.12 40.2267 279.52 39.9667 279.88 39.62L281.54 41.42C281.047 41.98 280.427 42.4133 279.68 42.72C278.934 43.0133 278.074 43.16 277.1 43.16ZM98.66 67V53H101.9V67H98.66ZM111.543 56.08C112.396 56.08 113.156 56.2533 113.823 56.6C114.503 56.9333 115.036 57.4533 115.423 58.16C115.809 58.8533 116.003 59.7467 116.003 60.84V67H112.883V61.32C112.883 60.4533 112.689 59.8133 112.303 59.4C111.929 58.9867 111.396 58.78 110.703 58.78C110.209 58.78 109.763 58.8867 109.363 59.1C108.976 59.3 108.669 59.6133 108.443 60.04C108.229 60.4667 108.123 61.0133 108.123 61.68V67H105.003V56.24H107.983V59.22L107.423 58.32C107.809 57.6 108.363 57.0467 109.083 56.66C109.803 56.2733 110.623 56.08 111.543 56.08ZM123.231 67.16C121.964 67.16 120.977 66.84 120.271 66.2C119.564 65.5467 119.211 64.58 119.211 63.3V53.86H122.331V63.26C122.331 63.7133 122.451 64.0667 122.691 64.32C122.931 64.56 123.257 64.68 123.671 64.68C124.164 64.68 124.584 64.5467 124.931 64.28L125.771 66.48C125.451 66.7067 125.064 66.88 124.611 67C124.171 67.1067 123.711 67.16 123.231 67.16ZM117.551 58.88V56.48H125.011V58.88H117.551ZM132.53 67.16C131.303 67.16 130.223 66.92 129.29 66.44C128.37 65.96 127.657 65.3067 127.15 64.48C126.643 63.64 126.39 62.6867 126.39 61.62C126.39 60.54 126.637 59.5867 127.13 58.76C127.637 57.92 128.323 57.2667 129.19 56.8C130.057 56.32 131.037 56.08 132.13 56.08C133.183 56.08 134.13 56.3067 134.97 56.76C135.823 57.2 136.497 57.84 136.99 58.68C137.483 59.5067 137.73 60.5 137.73 61.66C137.73 61.78 137.723 61.92 137.71 62.08C137.697 62.2267 137.683 62.3667 137.67 62.5H128.93V60.68H136.03L134.83 61.22C134.83 60.66 134.717 60.1733 134.49 59.76C134.263 59.3467 133.95 59.0267 133.55 58.8C133.15 58.56 132.683 58.44 132.15 58.44C131.617 58.44 131.143 58.56 130.73 58.8C130.33 59.0267 130.017 59.3533 129.79 59.78C129.563 60.1933 129.45 60.6867 129.45 61.26V61.74C129.45 62.3267 129.577 62.8467 129.83 63.3C130.097 63.74 130.463 64.08 130.93 64.32C131.41 64.5467 131.97 64.66 132.61 64.66C133.183 64.66 133.683 64.5733 134.11 64.4C134.55 64.2267 134.95 63.9667 135.31 63.62L136.97 65.42C136.477 65.98 135.857 66.4133 135.11 66.72C134.363 67.0133 133.503 67.16 132.53 67.16ZM139.807 67V52.16H142.927V67H139.807ZM145.823 67V56.24H148.943V67H145.823ZM147.383 54.74C146.809 54.74 146.343 54.5733 145.983 54.24C145.623 53.9067 145.443 53.4933 145.443 53C145.443 52.5067 145.623 52.0933 145.983 51.76C146.343 51.4267 146.809 51.26 147.383 51.26C147.956 51.26 148.423 51.42 148.783 51.74C149.143 52.0467 149.323 52.4467 149.323 52.94C149.323 53.46 149.143 53.8933 148.783 54.24C148.436 54.5733 147.969 54.74 147.383 54.74ZM156.898 71.04C155.885 71.04 154.905 70.9133 153.958 70.66C153.025 70.42 152.245 70.0533 151.618 69.56L152.858 67.32C153.312 67.6933 153.885 67.9867 154.578 68.2C155.285 68.4267 155.978 68.54 156.658 68.54C157.765 68.54 158.565 68.2933 159.058 67.8C159.565 67.3067 159.818 66.5733 159.818 65.6V63.98L160.018 61.28L159.978 58.56V56.24H162.938V65.2C162.938 67.2 162.418 68.6733 161.378 69.62C160.338 70.5667 158.845 71.04 156.898 71.04ZM156.418 66.48C155.418 66.48 154.512 66.2667 153.698 65.84C152.898 65.4 152.252 64.7933 151.758 64.02C151.278 63.2333 151.038 62.32 151.038 61.28C151.038 60.2267 151.278 59.3133 151.758 58.54C152.252 57.7533 152.898 57.1467 153.698 56.72C154.512 56.2933 155.418 56.08 156.418 56.08C157.325 56.08 158.125 56.2667 158.818 56.64C159.512 57 160.052 57.5667 160.438 58.34C160.825 59.1 161.018 60.08 161.018 61.28C161.018 62.4667 160.825 63.4467 160.438 64.22C160.052 64.98 159.512 65.5467 158.818 65.92C158.125 66.2933 157.325 66.48 156.418 66.48ZM157.038 63.92C157.585 63.92 158.072 63.8133 158.498 63.6C158.925 63.3733 159.258 63.06 159.498 62.66C159.738 62.26 159.858 61.8 159.858 61.28C159.858 60.7467 159.738 60.2867 159.498 59.9C159.258 59.5 158.925 59.1933 158.498 58.98C158.072 58.7533 157.585 58.64 157.038 58.64C156.492 58.64 156.005 58.7533 155.578 58.98C155.152 59.1933 154.812 59.5 154.558 59.9C154.318 60.2867 154.198 60.7467 154.198 61.28C154.198 61.8 154.318 62.26 154.558 62.66C154.812 63.06 155.152 63.3733 155.578 63.6C156.005 63.8133 156.492 63.92 157.038 63.92ZM171.182 67.16C169.956 67.16 168.876 66.92 167.942 66.44C167.022 65.96 166.309 65.3067 165.802 64.48C165.296 63.64 165.042 62.6867 165.042 61.62C165.042 60.54 165.289 59.5867 165.782 58.76C166.289 57.92 166.976 57.2667 167.842 56.8C168.709 56.32 169.689 56.08 170.782 56.08C171.836 56.08 172.782 56.3067 173.622 56.76C174.476 57.2 175.149 57.84 175.642 58.68C176.136 59.5067 176.382 60.5 176.382 61.66C176.382 61.78 176.376 61.92 176.362 62.08C176.349 62.2267 176.336 62.3667 176.322 62.5H167.582V60.68H174.682L173.482 61.22C173.482 60.66 173.369 60.1733 173.142 59.76C172.916 59.3467 172.602 59.0267 172.202 58.8C171.802 58.56 171.336 58.44 170.802 58.44C170.269 58.44 169.796 58.56 169.382 58.8C168.982 59.0267 168.669 59.3533 168.442 59.78C168.216 60.1933 168.102 60.6867 168.102 61.26V61.74C168.102 62.3267 168.229 62.8467 168.482 63.3C168.749 63.74 169.116 64.08 169.582 64.32C170.062 64.5467 170.622 64.66 171.262 64.66C171.836 64.66 172.336 64.5733 172.762 64.4C173.202 64.2267 173.602 63.9667 173.962 63.62L175.622 65.42C175.129 65.98 174.509 66.4133 173.762 66.72C173.016 67.0133 172.156 67.16 171.182 67.16ZM185 56.08C185.853 56.08 186.613 56.2533 187.28 56.6C187.96 56.9333 188.493 57.4533 188.88 58.16C189.266 58.8533 189.46 59.7467 189.46 60.84V67H186.34V61.32C186.34 60.4533 186.146 59.8133 185.76 59.4C185.386 58.9867 184.853 58.78 184.16 58.78C183.666 58.78 183.22 58.8867 182.82 59.1C182.433 59.3 182.126 59.6133 181.9 60.04C181.686 60.4667 181.58 61.0133 181.58 61.68V67H178.46V56.24H181.44V59.22L180.88 58.32C181.266 57.6 181.82 57.0467 182.54 56.66C183.26 56.2733 184.08 56.08 185 56.08ZM197.566 67.16C196.406 67.16 195.372 66.9267 194.466 66.46C193.559 65.98 192.846 65.32 192.326 64.48C191.819 63.64 191.566 62.6867 191.566 61.62C191.566 60.54 191.819 59.5867 192.326 58.76C192.846 57.92 193.559 57.2667 194.466 56.8C195.372 56.32 196.406 56.08 197.566 56.08C198.699 56.08 199.686 56.32 200.526 56.8C201.366 57.2667 201.986 57.94 202.386 58.82L199.966 60.12C199.686 59.6133 199.332 59.24 198.906 59C198.492 58.76 198.039 58.64 197.546 58.64C197.012 58.64 196.532 58.76 196.106 59C195.679 59.24 195.339 59.58 195.086 60.02C194.846 60.46 194.726 60.9933 194.726 61.62C194.726 62.2467 194.846 62.78 195.086 63.22C195.339 63.66 195.679 64 196.106 64.24C196.532 64.48 197.012 64.6 197.546 64.6C198.039 64.6 198.492 64.4867 198.906 64.26C199.332 64.02 199.686 63.64 199.966 63.12L202.386 64.44C201.986 65.3067 201.366 65.98 200.526 66.46C199.686 66.9267 198.699 67.16 197.566 67.16ZM204.124 67V56.24H207.244V67H204.124ZM205.684 54.74C205.11 54.74 204.644 54.5733 204.284 54.24C203.924 53.9067 203.744 53.4933 203.744 53C203.744 52.5067 203.924 52.0933 204.284 51.76C204.644 51.4267 205.11 51.26 205.684 51.26C206.257 51.26 206.724 51.42 207.084 51.74C207.444 52.0467 207.624 52.4467 207.624 52.94C207.624 53.46 207.444 53.8933 207.084 54.24C206.737 54.5733 206.27 54.74 205.684 54.74ZM216.739 67V64.9L216.539 64.44V60.68C216.539 60.0133 216.333 59.4933 215.919 59.12C215.519 58.7467 214.899 58.56 214.059 58.56C213.486 58.56 212.919 58.6533 212.359 58.84C211.813 59.0133 211.346 59.2533 210.959 59.56L209.839 57.38C210.426 56.9667 211.133 56.6467 211.959 56.42C212.786 56.1933 213.626 56.08 214.479 56.08C216.119 56.08 217.393 56.4667 218.299 57.24C219.206 58.0133 219.659 59.22 219.659 60.86V67H216.739ZM213.459 67.16C212.619 67.16 211.899 67.02 211.299 66.74C210.699 66.4467 210.239 66.0533 209.919 65.56C209.599 65.0667 209.439 64.5133 209.439 63.9C209.439 63.26 209.593 62.7 209.899 62.22C210.219 61.74 210.719 61.3667 211.399 61.1C212.079 60.82 212.966 60.68 214.059 60.68H216.919V62.5H214.399C213.666 62.5 213.159 62.62 212.879 62.86C212.613 63.1 212.479 63.4 212.479 63.76C212.479 64.16 212.633 64.48 212.939 64.72C213.259 64.9467 213.693 65.06 214.239 65.06C214.759 65.06 215.226 64.94 215.639 64.7C216.053 64.4467 216.353 64.08 216.539 63.6L217.019 65.04C216.793 65.7333 216.379 66.26 215.779 66.62C215.179 66.98 214.406 67.16 213.459 67.16ZM226.527 67L232.767 53H235.967L242.227 67H238.827L233.707 54.64H234.987L229.847 67H226.527ZM229.647 64L230.507 61.54H237.707L238.587 64H229.647ZM243.46 67V56.24H246.44V59.28L246.02 58.4C246.34 57.64 246.853 57.0667 247.56 56.68C248.266 56.28 249.126 56.08 250.14 56.08V58.96C250.006 58.9467 249.886 58.94 249.78 58.94C249.673 58.9267 249.56 58.92 249.44 58.92C248.586 58.92 247.893 59.1667 247.36 59.66C246.84 60.14 246.58 60.8933 246.58 61.92V67H243.46ZM256.766 67.16C255.499 67.16 254.512 66.84 253.806 66.2C253.099 65.5467 252.746 64.58 252.746 63.3V53.86H255.866V63.26C255.866 63.7133 255.986 64.0667 256.226 64.32C256.466 64.56 256.792 64.68 257.206 64.68C257.699 64.68 258.119 64.5467 258.466 64.28L259.306 66.48C258.986 66.7067 258.599 66.88 258.146 67C257.706 67.1067 257.246 67.16 256.766 67.16ZM251.086 58.88V56.48H258.546V58.88H251.086ZM261.057 67V56.24H264.177V67H261.057ZM262.617 54.74C262.044 54.74 261.577 54.5733 261.217 54.24C260.857 53.9067 260.677 53.4933 260.677 53C260.677 52.5067 260.857 52.0933 261.217 51.76C261.577 51.4267 262.044 51.26 262.617 51.26C263.191 51.26 263.657 51.42 264.017 51.74C264.377 52.0467 264.557 52.4467 264.557 52.94C264.557 53.46 264.377 53.8933 264.017 54.24C263.671 54.5733 263.204 54.74 262.617 54.74ZM267.453 67V56C267.453 54.7867 267.813 53.82 268.533 53.1C269.253 52.3667 270.279 52 271.613 52C272.066 52 272.499 52.0467 272.913 52.14C273.339 52.2333 273.699 52.38 273.993 52.58L273.173 54.84C272.999 54.72 272.806 54.6267 272.593 54.56C272.379 54.4933 272.153 54.46 271.913 54.46C271.459 54.46 271.106 54.5933 270.853 54.86C270.613 55.1133 270.493 55.5 270.493 56.02V57.02L270.573 58.36V67H267.453ZM265.793 58.88V56.48H273.253V58.88H265.793ZM275.003 67V56.24H278.123V67H275.003ZM276.563 54.74C275.989 54.74 275.523 54.5733 275.163 54.24C274.803 53.9067 274.623 53.4933 274.623 53C274.623 52.5067 274.803 52.0933 275.163 51.76C275.523 51.4267 275.989 51.26 276.563 51.26C277.136 51.26 277.603 51.42 277.963 51.74C278.323 52.0467 278.503 52.4467 278.503 52.94C278.503 53.46 278.323 53.8933 277.963 54.24C277.616 54.5733 277.149 54.74 276.563 54.74ZM286.218 67.16C285.058 67.16 284.025 66.9267 283.118 66.46C282.211 65.98 281.498 65.32 280.978 64.48C280.471 63.64 280.218 62.6867 280.218 61.62C280.218 60.54 280.471 59.5867 280.978 58.76C281.498 57.92 282.211 57.2667 283.118 56.8C284.025 56.32 285.058 56.08 286.218 56.08C287.351 56.08 288.338 56.32 289.178 56.8C290.018 57.2667 290.638 57.94 291.038 58.82L288.618 60.12C288.338 59.6133 287.985 59.24 287.558 59C287.145 58.76 286.691 58.64 286.198 58.64C285.665 58.64 285.185 58.76 284.758 59C284.331 59.24 283.991 59.58 283.738 60.02C283.498 60.46 283.378 60.9933 283.378 61.62C283.378 62.2467 283.498 62.78 283.738 63.22C283.991 63.66 284.331 64 284.758 64.24C285.185 64.48 285.665 64.6 286.198 64.6C286.691 64.6 287.145 64.4867 287.558 64.26C287.985 64.02 288.338 63.64 288.618 63.12L291.038 64.44C290.638 65.3067 290.018 65.98 289.178 66.46C288.338 66.9267 287.351 67.16 286.218 67.16ZM292.776 67V56.24H295.896V67H292.776ZM294.336 54.74C293.763 54.74 293.296 54.5733 292.936 54.24C292.576 53.9067 292.396 53.4933 292.396 53C292.396 52.5067 292.576 52.0933 292.936 51.76C293.296 51.4267 293.763 51.26 294.336 51.26C294.909 51.26 295.376 51.42 295.736 51.74C296.096 52.0467 296.276 52.4467 296.276 52.94C296.276 53.46 296.096 53.8933 295.736 54.24C295.389 54.5733 294.923 54.74 294.336 54.74ZM305.392 67V64.9L305.192 64.44V60.68C305.192 60.0133 304.985 59.4933 304.572 59.12C304.172 58.7467 303.552 58.56 302.712 58.56C302.138 58.56 301.572 58.6533 301.012 58.84C300.465 59.0133 299.998 59.2533 299.612 59.56L298.492 57.38C299.078 56.9667 299.785 56.6467 300.612 56.42C301.438 56.1933 302.278 56.08 303.132 56.08C304.772 56.08 306.045 56.4667 306.952 57.24C307.858 58.0133 308.312 59.22 308.312 60.86V67H305.392ZM302.112 67.16C301.272 67.16 300.552 67.02 299.952 66.74C299.352 66.4467 298.892 66.0533 298.572 65.56C298.252 65.0667 298.092 64.5133 298.092 63.9C298.092 63.26 298.245 62.7 298.552 62.22C298.872 61.74 299.372 61.3667 300.052 61.1C300.732 60.82 301.618 60.68 302.712 60.68H305.572V62.5H303.052C302.318 62.5 301.812 62.62 301.532 62.86C301.265 63.1 301.132 63.4 301.132 63.76C301.132 64.16 301.285 64.48 301.592 64.72C301.912 64.9467 302.345 65.06 302.892 65.06C303.412 65.06 303.878 64.94 304.292 64.7C304.705 64.4467 305.005 64.08 305.192 63.6L305.672 65.04C305.445 65.7333 305.032 66.26 304.432 66.62C303.832 66.98 303.058 67.16 302.112 67.16ZM311.135 67V52.16H314.255V67H311.135Z" fill="#000033"/>
<path d="M50.89 104V91.4H52.366L58.018 100.922H57.226L62.806 91.4H64.282L64.3 104H62.572L62.554 94.118H62.968L58 102.47H57.172L52.168 94.118H52.618V104H50.89ZM67.8294 104V94.46H69.5574V104H67.8294ZM68.6934 92.624C68.3574 92.624 68.0754 92.516 67.8474 92.3C67.6314 92.084 67.5234 91.82 67.5234 91.508C67.5234 91.184 67.6314 90.914 67.8474 90.698C68.0754 90.482 68.3574 90.374 68.6934 90.374C69.0294 90.374 69.3054 90.482 69.5214 90.698C69.7494 90.902 69.8634 91.16 69.8634 91.472C69.8634 91.796 69.7554 92.072 69.5394 92.3C69.3234 92.516 69.0414 92.624 68.6934 92.624ZM76.7988 104.108C75.8748 104.108 75.0468 103.904 74.3148 103.496C73.5948 103.088 73.0248 102.518 72.6048 101.786C72.1848 101.054 71.9748 100.202 71.9748 99.23C71.9748 98.258 72.1848 97.412 72.6048 96.692C73.0248 95.96 73.5948 95.39 74.3148 94.982C75.0468 94.574 75.8748 94.37 76.7988 94.37C77.6028 94.37 78.3288 94.55 78.9768 94.91C79.6248 95.27 80.1408 95.81 80.5248 96.53C80.9208 97.25 81.1188 98.15 81.1188 99.23C81.1188 100.31 80.9268 101.21 80.5428 101.93C80.1708 102.65 79.6608 103.196 79.0128 103.568C78.3648 103.928 77.6268 104.108 76.7988 104.108ZM76.9428 102.596C77.5428 102.596 78.0828 102.458 78.5628 102.182C79.0548 101.906 79.4388 101.516 79.7148 101.012C80.0028 100.496 80.1468 99.902 80.1468 99.23C80.1468 98.546 80.0028 97.958 79.7148 97.466C79.4388 96.962 79.0548 96.572 78.5628 96.296C78.0828 96.02 77.5428 95.882 76.9428 95.882C76.3308 95.882 75.7848 96.02 75.3048 96.296C74.8248 96.572 74.4408 96.962 74.1528 97.466C73.8648 97.958 73.7208 98.546 73.7208 99.23C73.7208 99.902 73.8648 100.496 74.1528 101.012C74.4408 101.516 74.8248 101.906 75.3048 102.182C75.7848 102.458 76.3308 102.596 76.9428 102.596ZM80.2008 104V101.426L80.3087 99.212L80.1288 96.998V90.644H81.8568V104H80.2008ZM89.3743 104.108C88.3543 104.108 87.4543 103.898 86.6743 103.478C85.9063 103.058 85.3063 102.482 84.8743 101.75C84.4543 101.018 84.2443 100.178 84.2443 99.23C84.2443 98.282 84.4483 97.442 84.8563 96.71C85.2763 95.978 85.8463 95.408 86.5663 95C87.2983 94.58 88.1203 94.37 89.0323 94.37C89.9563 94.37 90.7723 94.574 91.4803 94.982C92.1883 95.39 92.7403 95.966 93.1363 96.71C93.5443 97.442 93.7483 98.3 93.7483 99.284C93.7483 99.356 93.7423 99.44 93.7303 99.536C93.7303 99.632 93.7243 99.722 93.7123 99.806H85.5943V98.564H92.8123L92.1103 98.996C92.1223 98.384 91.9963 97.838 91.7323 97.358C91.4683 96.878 91.1023 96.506 90.6343 96.242C90.1783 95.966 89.6443 95.828 89.0323 95.828C88.4323 95.828 87.8983 95.966 87.4303 96.242C86.9623 96.506 86.5963 96.884 86.3323 97.376C86.0683 97.856 85.9363 98.408 85.9363 99.032V99.32C85.9363 99.956 86.0803 100.526 86.3683 101.03C86.6683 101.522 87.0823 101.906 87.6103 102.182C88.1383 102.458 88.7443 102.596 89.4283 102.596C89.9923 102.596 90.5023 102.5 90.9583 102.308C91.4263 102.116 91.8343 101.828 92.1823 101.444L93.1363 102.56C92.7043 103.064 92.1643 103.448 91.5163 103.712C90.8803 103.976 90.1663 104.108 89.3743 104.108ZM95.4638 106.664L96.3638 103.028L96.5978 104.072C96.2498 104.072 95.9558 103.964 95.7158 103.748C95.4878 103.532 95.3738 103.238 95.3738 102.866C95.3738 102.506 95.4878 102.212 95.7158 101.984C95.9558 101.756 96.2438 101.642 96.5798 101.642C96.9278 101.642 97.2098 101.762 97.4258 102.002C97.6418 102.23 97.7498 102.518 97.7498 102.866C97.7498 102.986 97.7378 103.106 97.7138 103.226C97.7018 103.334 97.6718 103.466 97.6238 103.622C97.5878 103.766 97.5278 103.946 97.4438 104.162L96.5978 106.664H95.4638ZM107.562 104L103.386 94.46H105.186L108.894 103.1H108.03L111.81 94.46H113.502L109.326 104H107.562ZM115.115 104V94.46H116.843V104H115.115ZM115.979 92.624C115.643 92.624 115.361 92.516 115.133 92.3C114.917 92.084 114.809 91.82 114.809 91.508C114.809 91.184 114.917 90.914 115.133 90.698C115.361 90.482 115.643 90.374 115.979 90.374C116.315 90.374 116.591 90.482 116.807 90.698C117.035 90.902 117.149 91.16 117.149 91.472C117.149 91.796 117.041 92.072 116.825 92.3C116.609 92.516 116.327 92.624 115.979 92.624ZM122.878 104.108C122.086 104.108 121.33 104 120.61 103.784C119.902 103.568 119.344 103.304 118.936 102.992L119.656 101.624C120.064 101.9 120.568 102.134 121.168 102.326C121.768 102.518 122.38 102.614 123.004 102.614C123.808 102.614 124.384 102.5 124.732 102.272C125.092 102.044 125.272 101.726 125.272 101.318C125.272 101.018 125.164 100.784 124.948 100.616C124.732 100.448 124.444 100.322 124.084 100.238C123.736 100.154 123.346 100.082 122.914 100.022C122.482 99.95 122.05 99.866 121.618 99.77C121.186 99.662 120.79 99.518 120.43 99.338C120.07 99.146 119.782 98.888 119.566 98.564C119.35 98.228 119.242 97.784 119.242 97.232C119.242 96.656 119.404 96.152 119.728 95.72C120.052 95.288 120.508 94.958 121.096 94.73C121.696 94.49 122.404 94.37 123.22 94.37C123.844 94.37 124.474 94.448 125.11 94.604C125.758 94.748 126.286 94.958 126.694 95.234L125.956 96.602C125.524 96.314 125.074 96.116 124.606 96.008C124.138 95.9 123.67 95.846 123.202 95.846C122.446 95.846 121.882 95.972 121.51 96.224C121.138 96.464 120.952 96.776 120.952 97.16C120.952 97.484 121.06 97.736 121.276 97.916C121.504 98.084 121.792 98.216 122.14 98.312C122.5 98.408 122.896 98.492 123.328 98.564C123.76 98.624 124.192 98.708 124.624 98.816C125.056 98.912 125.446 99.05 125.794 99.23C126.154 99.41 126.442 99.662 126.658 99.986C126.886 100.31 127 100.742 127 101.282C127 101.858 126.832 102.356 126.496 102.776C126.16 103.196 125.686 103.526 125.074 103.766C124.462 103.994 123.73 104.108 122.878 104.108ZM133.173 104.108C132.357 104.108 131.637 103.958 131.013 103.658C130.401 103.358 129.921 102.902 129.573 102.29C129.237 101.666 129.069 100.886 129.069 99.95V94.46H130.797V99.752C130.797 100.688 131.019 101.39 131.463 101.858C131.919 102.326 132.555 102.56 133.371 102.56C133.971 102.56 134.493 102.44 134.937 102.2C135.381 101.948 135.723 101.588 135.963 101.12C136.203 100.64 136.323 100.064 136.323 99.392V94.46H138.051V104H136.413V101.426L136.683 102.11C136.371 102.746 135.903 103.238 135.279 103.586C134.655 103.934 133.953 104.108 133.173 104.108ZM147.263 104V101.984L147.173 101.606V98.168C147.173 97.436 146.957 96.872 146.525 96.476C146.105 96.068 145.469 95.864 144.617 95.864C144.053 95.864 143.501 95.96 142.961 96.152C142.421 96.332 141.965 96.578 141.593 96.89L140.873 95.594C141.365 95.198 141.953 94.898 142.637 94.694C143.333 94.478 144.059 94.37 144.815 94.37C146.123 94.37 147.131 94.688 147.839 95.324C148.547 95.96 148.901 96.932 148.901 98.24V104H147.263ZM144.131 104.108C143.423 104.108 142.799 103.988 142.259 103.748C141.731 103.508 141.323 103.178 141.035 102.758C140.747 102.326 140.603 101.84 140.603 101.3C140.603 100.784 140.723 100.316 140.963 99.896C141.215 99.476 141.617 99.14 142.169 98.888C142.733 98.636 143.489 98.51 144.437 98.51H147.461V99.752H144.509C143.645 99.752 143.063 99.896 142.763 100.184C142.463 100.472 142.313 100.82 142.313 101.228C142.313 101.696 142.499 102.074 142.871 102.362C143.243 102.638 143.759 102.776 144.419 102.776C145.067 102.776 145.631 102.632 146.111 102.344C146.603 102.056 146.957 101.636 147.173 101.084L147.515 102.272C147.287 102.836 146.885 103.286 146.309 103.622C145.733 103.946 145.007 104.108 144.131 104.108ZM152.099 104V90.644H153.827V104H152.099ZM157.126 104V94.46H158.854V104H157.126ZM157.99 92.624C157.654 92.624 157.372 92.516 157.144 92.3C156.928 92.084 156.82 91.82 156.82 91.508C156.82 91.184 156.928 90.914 157.144 90.698C157.372 90.482 157.654 90.374 157.99 90.374C158.326 90.374 158.602 90.482 158.818 90.698C159.046 90.902 159.16 91.16 159.16 91.472C159.16 91.796 159.052 92.072 158.836 92.3C158.62 92.516 158.338 92.624 157.99 92.624ZM161.236 104V102.884L167.356 95.288L167.698 95.882H161.344V94.46H169.084V95.594L162.964 103.172L162.568 102.578H169.228V104H161.236ZM177.462 104V101.984L177.372 101.606V98.168C177.372 97.436 177.156 96.872 176.724 96.476C176.304 96.068 175.668 95.864 174.816 95.864C174.252 95.864 173.7 95.96 173.16 96.152C172.62 96.332 172.164 96.578 171.792 96.89L171.072 95.594C171.564 95.198 172.152 94.898 172.836 94.694C173.532 94.478 174.258 94.37 175.014 94.37C176.322 94.37 177.33 94.688 178.038 95.324C178.746 95.96 179.1 96.932 179.1 98.24V104H177.462ZM174.33 104.108C173.622 104.108 172.998 103.988 172.458 103.748C171.93 103.508 171.522 103.178 171.234 102.758C170.946 102.326 170.802 101.84 170.802 101.3C170.802 100.784 170.922 100.316 171.162 99.896C171.414 99.476 171.816 99.14 172.368 98.888C172.932 98.636 173.688 98.51 174.636 98.51H177.66V99.752H174.708C173.844 99.752 173.262 99.896 172.962 100.184C172.662 100.472 172.512 100.82 172.512 101.228C172.512 101.696 172.698 102.074 173.07 102.362C173.442 102.638 173.958 102.776 174.618 102.776C175.266 102.776 175.83 102.632 176.31 102.344C176.802 102.056 177.156 101.636 177.372 101.084L177.714 102.272C177.486 102.836 177.084 103.286 176.508 103.622C175.932 103.946 175.206 104.108 174.33 104.108ZM187.546 107.6C187.09 107.6 186.646 107.522 186.214 107.366C185.782 107.222 185.41 107.006 185.098 106.718L185.836 105.422C186.076 105.65 186.34 105.824 186.628 105.944C186.916 106.064 187.222 106.124 187.546 106.124C187.966 106.124 188.314 106.016 188.59 105.8C188.866 105.584 189.124 105.2 189.364 104.648L189.958 103.334L190.138 103.118L193.882 94.46H195.574L190.948 104.954C190.672 105.626 190.36 106.154 190.012 106.538C189.676 106.922 189.304 107.192 188.896 107.348C188.488 107.516 188.038 107.6 187.546 107.6ZM189.814 104.306L185.458 94.46H187.258L190.966 102.956L189.814 104.306ZM206.179 104.108C205.207 104.108 204.337 103.898 203.569 103.478C202.813 103.058 202.219 102.482 201.787 101.75C201.355 101.018 201.139 100.178 201.139 99.23C201.139 98.282 201.355 97.442 201.787 96.71C202.219 95.978 202.813 95.408 203.569 95C204.337 94.58 205.207 94.37 206.179 94.37C207.043 94.37 207.811 94.544 208.483 94.892C209.167 95.228 209.695 95.732 210.067 96.404L208.753 97.25C208.441 96.782 208.057 96.44 207.601 96.224C207.157 95.996 206.677 95.882 206.161 95.882C205.537 95.882 204.979 96.02 204.487 96.296C203.995 96.572 203.605 96.962 203.317 97.466C203.029 97.958 202.885 98.546 202.885 99.23C202.885 99.914 203.029 100.508 203.317 101.012C203.605 101.516 203.995 101.906 204.487 102.182C204.979 102.458 205.537 102.596 206.161 102.596C206.677 102.596 207.157 102.488 207.601 102.272C208.057 102.044 208.441 101.696 208.753 101.228L210.067 102.056C209.695 102.716 209.167 103.226 208.483 103.586C207.811 103.934 207.043 104.108 206.179 104.108ZM218.226 104V101.984L218.136 101.606V98.168C218.136 97.436 217.92 96.872 217.488 96.476C217.068 96.068 216.432 95.864 215.58 95.864C215.016 95.864 214.464 95.96 213.924 96.152C213.384 96.332 212.928 96.578 212.556 96.89L211.836 95.594C212.328 95.198 212.916 94.898 213.6 94.694C214.296 94.478 215.022 94.37 215.778 94.37C217.086 94.37 218.094 94.688 218.802 95.324C219.51 95.96 219.864 96.932 219.864 98.24V104H218.226ZM215.094 104.108C214.386 104.108 213.762 103.988 213.222 103.748C212.694 103.508 212.286 103.178 211.998 102.758C211.71 102.326 211.566 101.84 211.566 101.3C211.566 100.784 211.686 100.316 211.926 99.896C212.178 99.476 212.58 99.14 213.132 98.888C213.696 98.636 214.452 98.51 215.4 98.51H218.424V99.752H215.472C214.608 99.752 214.026 99.896 213.726 100.184C213.426 100.472 213.276 100.82 213.276 101.228C213.276 101.696 213.462 102.074 213.834 102.362C214.206 102.638 214.722 102.776 215.382 102.776C216.03 102.776 216.594 102.632 217.074 102.344C217.566 102.056 217.92 101.636 218.136 101.084L218.478 102.272C218.25 102.836 217.848 103.286 217.272 103.622C216.696 103.946 215.97 104.108 215.094 104.108ZM228.12 104.108C227.328 104.108 226.602 103.928 225.942 103.568C225.294 103.196 224.772 102.65 224.376 101.93C223.992 101.21 223.8 100.31 223.8 99.23C223.8 98.15 223.986 97.25 224.358 96.53C224.742 95.81 225.258 95.27 225.906 94.91C226.566 94.55 227.304 94.37 228.12 94.37C229.056 94.37 229.884 94.574 230.604 94.982C231.324 95.39 231.894 95.96 232.314 96.692C232.734 97.412 232.944 98.258 232.944 99.23C232.944 100.202 232.734 101.054 232.314 101.786C231.894 102.518 231.324 103.088 230.604 103.496C229.884 103.904 229.056 104.108 228.12 104.108ZM223.062 107.492V94.46H224.718V97.034L224.61 99.248L224.79 101.462V107.492H223.062ZM227.976 102.596C228.588 102.596 229.134 102.458 229.614 102.182C230.106 101.906 230.49 101.516 230.766 101.012C231.054 100.496 231.198 99.902 231.198 99.23C231.198 98.546 231.054 97.958 230.766 97.466C230.49 96.962 230.106 96.572 229.614 96.296C229.134 96.02 228.588 95.882 227.976 95.882C227.376 95.882 226.83 96.02 226.338 96.296C225.858 96.572 225.474 96.962 225.186 97.466C224.91 97.958 224.772 98.546 224.772 99.23C224.772 99.902 224.91 100.496 225.186 101.012C225.474 101.516 225.858 101.906 226.338 102.182C226.83 102.458 227.376 102.596 227.976 102.596ZM235.331 104V94.46H237.059V104H235.331ZM236.195 92.624C235.859 92.624 235.577 92.516 235.349 92.3C235.133 92.084 235.025 91.82 235.025 91.508C235.025 91.184 235.133 90.914 235.349 90.698C235.577 90.482 235.859 90.374 236.195 90.374C236.531 90.374 236.807 90.482 237.023 90.698C237.251 90.902 237.365 91.16 237.365 91.472C237.365 91.796 237.257 92.072 237.041 92.3C236.825 92.516 236.543 92.624 236.195 92.624ZM243.635 104.108C242.675 104.108 241.931 103.85 241.403 103.334C240.875 102.818 240.611 102.08 240.611 101.12V92.372H242.339V101.048C242.339 101.564 242.465 101.96 242.717 102.236C242.981 102.512 243.353 102.65 243.833 102.65C244.373 102.65 244.823 102.5 245.183 102.2L245.723 103.442C245.459 103.67 245.141 103.838 244.769 103.946C244.409 104.054 244.031 104.108 243.635 104.108ZM238.991 95.882V94.46H245.075V95.882H238.991ZM253.734 104V101.984L253.644 101.606V98.168C253.644 97.436 253.428 96.872 252.996 96.476C252.576 96.068 251.94 95.864 251.088 95.864C250.524 95.864 249.972 95.96 249.432 96.152C248.892 96.332 248.436 96.578 248.064 96.89L247.344 95.594C247.836 95.198 248.424 94.898 249.108 94.694C249.804 94.478 250.53 94.37 251.286 94.37C252.594 94.37 253.602 94.688 254.31 95.324C255.018 95.96 255.372 96.932 255.372 98.24V104H253.734ZM250.602 104.108C249.894 104.108 249.27 103.988 248.73 103.748C248.202 103.508 247.794 103.178 247.506 102.758C247.218 102.326 247.074 101.84 247.074 101.3C247.074 100.784 247.194 100.316 247.434 99.896C247.686 99.476 248.088 99.14 248.64 98.888C249.204 98.636 249.96 98.51 250.908 98.51H253.932V99.752H250.98C250.116 99.752 249.534 99.896 249.234 100.184C248.934 100.472 248.784 100.82 248.784 101.228C248.784 101.696 248.97 102.074 249.342 102.362C249.714 102.638 250.23 102.776 250.89 102.776C251.538 102.776 252.102 102.632 252.582 102.344C253.074 102.056 253.428 101.636 253.644 101.084L253.986 102.272C253.758 102.836 253.356 103.286 252.78 103.622C252.204 103.946 251.478 104.108 250.602 104.108ZM258.57 104V90.644H260.298V104H258.57ZM263.597 104V94.46H265.325V104H263.597ZM264.461 92.624C264.125 92.624 263.843 92.516 263.615 92.3C263.399 92.084 263.291 91.82 263.291 91.508C263.291 91.184 263.399 90.914 263.615 90.698C263.843 90.482 264.125 90.374 264.461 90.374C264.797 90.374 265.073 90.482 265.289 90.698C265.517 90.902 265.631 91.16 265.631 91.472C265.631 91.796 265.523 92.072 265.307 92.3C265.091 92.516 264.809 92.624 264.461 92.624ZM267.706 104V102.884L273.826 95.288L274.168 95.882H267.814V94.46H275.554V95.594L269.434 103.172L269.038 102.578H275.698V104H267.706ZM283.933 104V101.984L283.843 101.606V98.168C283.843 97.436 283.627 96.872 283.195 96.476C282.775 96.068 282.139 95.864 281.287 95.864C280.723 95.864 280.171 95.96 279.631 96.152C279.091 96.332 278.635 96.578 278.263 96.89L277.543 95.594C278.035 95.198 278.623 94.898 279.307 94.694C280.003 94.478 280.729 94.37 281.485 94.37C282.793 94.37 283.801 94.688 284.509 95.324C285.217 95.96 285.571 96.932 285.571 98.24V104H283.933ZM280.801 104.108C280.093 104.108 279.469 103.988 278.929 103.748C278.401 103.508 277.993 103.178 277.705 102.758C277.417 102.326 277.273 101.84 277.273 101.3C277.273 100.784 277.393 100.316 277.633 99.896C277.885 99.476 278.287 99.14 278.839 98.888C279.403 98.636 280.159 98.51 281.107 98.51H284.131V99.752H281.179C280.315 99.752 279.733 99.896 279.433 100.184C279.133 100.472 278.983 100.82 278.983 101.228C278.983 101.696 279.169 102.074 279.541 102.362C279.913 102.638 280.429 102.776 281.089 102.776C281.737 102.776 282.301 102.632 282.781 102.344C283.273 102.056 283.627 101.636 283.843 101.084L284.185 102.272C283.957 102.836 283.555 103.286 282.979 103.622C282.403 103.946 281.677 104.108 280.801 104.108ZM293.603 104V90.644H295.331V104H293.603ZM304.552 104V101.984L304.462 101.606V98.168C304.462 97.436 304.246 96.872 303.814 96.476C303.394 96.068 302.758 95.864 301.906 95.864C301.342 95.864 300.79 95.96 300.25 96.152C299.71 96.332 299.254 96.578 298.882 96.89L298.162 95.594C298.654 95.198 299.242 94.898 299.926 94.694C300.622 94.478 301.348 94.37 302.104 94.37C303.412 94.37 304.42 94.688 305.128 95.324C305.836 95.96 306.19 96.932 306.19 98.24V104H304.552ZM301.42 104.108C300.712 104.108 300.088 103.988 299.548 103.748C299.02 103.508 298.612 103.178 298.324 102.758C298.036 102.326 297.892 101.84 297.892 101.3C297.892 100.784 298.012 100.316 298.252 99.896C298.504 99.476 298.906 99.14 299.458 98.888C300.022 98.636 300.778 98.51 301.726 98.51H304.75V99.752H301.798C300.934 99.752 300.352 99.896 300.052 100.184C299.752 100.472 299.602 100.82 299.602 101.228C299.602 101.696 299.788 102.074 300.16 102.362C300.532 102.638 301.048 102.776 301.708 102.776C302.356 102.776 302.92 102.632 303.4 102.344C303.892 102.056 304.246 101.636 304.462 101.084L304.804 102.272C304.576 102.836 304.174 103.286 303.598 103.622C303.022 103.946 302.296 104.108 301.42 104.108ZM318.164 104.108C317.24 104.108 316.412 103.904 315.68 103.496C314.96 103.088 314.39 102.518 313.97 101.786C313.55 101.054 313.34 100.202 313.34 99.23C313.34 98.258 313.55 97.412 313.97 96.692C314.39 95.96 314.96 95.39 315.68 94.982C316.412 94.574 317.24 94.37 318.164 94.37C318.968 94.37 319.694 94.55 320.342 94.91C320.99 95.27 321.506 95.81 321.89 96.53C322.286 97.25 322.484 98.15 322.484 99.23C322.484 100.31 322.292 101.21 321.908 101.93C321.536 102.65 321.026 103.196 320.378 103.568C319.73 103.928 318.992 104.108 318.164 104.108ZM318.308 102.596C318.908 102.596 319.448 102.458 319.928 102.182C320.42 101.906 320.804 101.516 321.08 101.012C321.368 100.496 321.512 99.902 321.512 99.23C321.512 98.546 321.368 97.958 321.08 97.466C320.804 96.962 320.42 96.572 319.928 96.296C319.448 96.02 318.908 95.882 318.308 95.882C317.696 95.882 317.15 96.02 316.67 96.296C316.19 96.572 315.806 96.962 315.518 97.466C315.23 97.958 315.086 98.546 315.086 99.23C315.086 99.902 315.23 100.496 315.518 101.012C315.806 101.516 316.19 101.906 316.67 102.182C317.15 102.458 317.696 102.596 318.308 102.596ZM321.566 104V101.426L321.674 99.212L321.494 96.998V90.644H323.222V104H321.566ZM332.414 104V101.984L332.324 101.606V98.168C332.324 97.436 332.108 96.872 331.676 96.476C331.256 96.068 330.62 95.864 329.768 95.864C329.204 95.864 328.652 95.96 328.112 96.152C327.572 96.332 327.116 96.578 326.744 96.89L326.024 95.594C326.516 95.198 327.104 94.898 327.788 94.694C328.484 94.478 329.21 94.37 329.966 94.37C331.274 94.37 332.282 94.688 332.99 95.324C333.698 95.96 334.052 96.932 334.052 98.24V104H332.414ZM329.282 104.108C328.574 104.108 327.95 103.988 327.41 103.748C326.882 103.508 326.474 103.178 326.186 102.758C325.898 102.326 325.754 101.84 325.754 101.3C325.754 100.784 325.874 100.316 326.114 99.896C326.366 99.476 326.768 99.14 327.32 98.888C327.884 98.636 328.64 98.51 329.588 98.51H332.612V99.752H329.66C328.796 99.752 328.214 99.896 327.914 100.184C327.614 100.472 327.464 100.82 327.464 101.228C327.464 101.696 327.65 102.074 328.022 102.362C328.394 102.638 328.91 102.776 329.57 102.776C330.218 102.776 330.782 102.632 331.262 102.344C331.754 102.056 332.108 101.636 332.324 101.084L332.666 102.272C332.438 102.836 332.036 103.286 331.46 103.622C330.884 103.946 330.158 104.108 329.282 104.108ZM340.525 104.108C339.565 104.108 338.821 103.85 338.293 103.334C337.765 102.818 337.501 102.08 337.501 101.12V92.372H339.229V101.048C339.229 101.564 339.355 101.96 339.607 102.236C339.871 102.512 340.243 102.65 340.723 102.65C341.263 102.65 341.713 102.5 342.073 102.2L342.613 103.442C342.349 103.67 342.031 103.838 341.659 103.946C341.299 104.054 340.921 104.108 340.525 104.108ZM335.881 95.882V94.46H341.965V95.882H335.881ZM350.624 104V101.984L350.534 101.606V98.168C350.534 97.436 350.318 96.872 349.886 96.476C349.466 96.068 348.83 95.864 347.978 95.864C347.414 95.864 346.862 95.96 346.322 96.152C345.782 96.332 345.326 96.578 344.954 96.89L344.234 95.594C344.726 95.198 345.314 94.898 345.998 94.694C346.694 94.478 347.42 94.37 348.176 94.37C349.484 94.37 350.492 94.688 351.2 95.324C351.908 95.96 352.262 96.932 352.262 98.24V104H350.624ZM347.492 104.108C346.784 104.108 346.16 103.988 345.62 103.748C345.092 103.508 344.684 103.178 344.396 102.758C344.108 102.326 343.964 101.84 343.964 101.3C343.964 100.784 344.084 100.316 344.324 99.896C344.576 99.476 344.978 99.14 345.53 98.888C346.094 98.636 346.85 98.51 347.798 98.51H350.822V99.752H347.87C347.006 99.752 346.424 99.896 346.124 100.184C345.824 100.472 345.674 100.82 345.674 101.228C345.674 101.696 345.86 102.074 346.232 102.362C346.604 102.638 347.12 102.776 347.78 102.776C348.428 102.776 348.992 102.632 349.472 102.344C349.964 102.056 350.318 101.636 350.534 101.084L350.876 102.272C350.648 102.836 350.246 103.286 349.67 103.622C349.094 103.946 348.368 104.108 347.492 104.108ZM364.236 104.108C363.312 104.108 362.484 103.904 361.752 103.496C361.032 103.088 360.462 102.518 360.042 101.786C359.622 101.054 359.412 100.202 359.412 99.23C359.412 98.258 359.622 97.412 360.042 96.692C360.462 95.96 361.032 95.39 361.752 94.982C362.484 94.574 363.312 94.37 364.236 94.37C365.04 94.37 365.766 94.55 366.414 94.91C367.062 95.27 367.578 95.81 367.962 96.53C368.358 97.25 368.556 98.15 368.556 99.23C368.556 100.31 368.364 101.21 367.98 101.93C367.608 102.65 367.098 103.196 366.45 103.568C365.802 103.928 365.064 104.108 364.236 104.108ZM364.38 102.596C364.98 102.596 365.52 102.458 366 102.182C366.492 101.906 366.876 101.516 367.152 101.012C367.44 100.496 367.584 99.902 367.584 99.23C367.584 98.546 367.44 97.958 367.152 97.466C366.876 96.962 366.492 96.572 366 96.296C365.52 96.02 364.98 95.882 364.38 95.882C363.768 95.882 363.222 96.02 362.742 96.296C362.262 96.572 361.878 96.962 361.59 97.466C361.302 97.958 361.158 98.546 361.158 99.23C361.158 99.902 361.302 100.496 361.59 101.012C361.878 101.516 362.262 101.906 362.742 102.182C363.222 102.458 363.768 102.596 364.38 102.596ZM367.638 104V101.426L367.746 99.212L367.566 96.998V90.644H369.294V104H367.638ZM376.812 104.108C375.792 104.108 374.892 103.898 374.112 103.478C373.344 103.058 372.744 102.482 372.312 101.75C371.892 101.018 371.682 100.178 371.682 99.23C371.682 98.282 371.886 97.442 372.294 96.71C372.714 95.978 373.284 95.408 374.004 95C374.736 94.58 375.558 94.37 376.47 94.37C377.394 94.37 378.21 94.574 378.918 94.982C379.626 95.39 380.178 95.966 380.574 96.71C380.982 97.442 381.186 98.3 381.186 99.284C381.186 99.356 381.18 99.44 381.168 99.536C381.168 99.632 381.162 99.722 381.15 99.806H373.032V98.564H380.25L379.548 98.996C379.56 98.384 379.434 97.838 379.17 97.358C378.906 96.878 378.54 96.506 378.072 96.242C377.616 95.966 377.082 95.828 376.47 95.828C375.87 95.828 375.336 95.966 374.868 96.242C374.4 96.506 374.034 96.884 373.77 97.376C373.506 97.856 373.374 98.408 373.374 99.032V99.32C373.374 99.956 373.518 100.526 373.806 101.03C374.106 101.522 374.52 101.906 375.048 102.182C375.576 102.458 376.182 102.596 376.866 102.596C377.43 102.596 377.94 102.5 378.396 102.308C378.864 102.116 379.272 101.828 379.62 101.444L380.574 102.56C380.142 103.064 379.602 103.448 378.954 103.712C378.318 103.976 377.604 104.108 376.812 104.108ZM53.914 128.108C52.954 128.108 52.21 127.85 51.682 127.334C51.154 126.818 50.89 126.08 50.89 125.12V116.372H52.618V125.048C52.618 125.564 52.744 125.96 52.996 126.236C53.26 126.512 53.632 126.65 54.112 126.65C54.652 126.65 55.102 126.5 55.462 126.2L56.002 127.442C55.738 127.67 55.42 127.838 55.048 127.946C54.688 128.054 54.31 128.108 53.914 128.108ZM49.27 119.882V118.46H55.354V119.882H49.27ZM62.1051 128.108C61.2891 128.108 60.5691 127.958 59.9451 127.658C59.3331 127.358 58.8531 126.902 58.5051 126.29C58.1691 125.666 58.0011 124.886 58.0011 123.95V118.46H59.7291V123.752C59.7291 124.688 59.9511 125.39 60.3951 125.858C60.8511 126.326 61.4871 126.56 62.3031 126.56C62.9031 126.56 63.4251 126.44 63.8691 126.2C64.3131 125.948 64.6551 125.588 64.8951 125.12C65.1351 124.64 65.2551 124.064 65.2551 123.392V118.46H66.9831V128H65.3451V125.426L65.6151 126.11C65.3031 126.746 64.8351 127.238 64.2111 127.586C63.5871 127.934 62.8851 128.108 62.1051 128.108ZM79.3548 128.108C78.3348 128.108 77.4348 127.898 76.6548 127.478C75.8868 127.058 75.2868 126.482 74.8548 125.75C74.4348 125.018 74.2248 124.178 74.2248 123.23C74.2248 122.282 74.4288 121.442 74.8368 120.71C75.2568 119.978 75.8268 119.408 76.5468 119C77.2788 118.58 78.1008 118.37 79.0128 118.37C79.9368 118.37 80.7528 118.574 81.4608 118.982C82.1688 119.39 82.7208 119.966 83.1168 120.71C83.5248 121.442 83.7288 122.3 83.7288 123.284C83.7288 123.356 83.7228 123.44 83.7108 123.536C83.7108 123.632 83.7048 123.722 83.6928 123.806H75.5748V122.564H82.7928L82.0908 122.996C82.1028 122.384 81.9768 121.838 81.7128 121.358C81.4488 120.878 81.0828 120.506 80.6148 120.242C80.1588 119.966 79.6248 119.828 79.0128 119.828C78.4128 119.828 77.8788 119.966 77.4108 120.242C76.9428 120.506 76.5768 120.884 76.3128 121.376C76.0488 121.856 75.9168 122.408 75.9168 123.032V123.32C75.9168 123.956 76.0608 124.526 76.3488 125.03C76.6488 125.522 77.0628 125.906 77.5908 126.182C78.1188 126.458 78.7248 126.596 79.4088 126.596C79.9728 126.596 80.4828 126.5 80.9388 126.308C81.4068 126.116 81.8148 125.828 82.1628 125.444L83.1168 126.56C82.6848 127.064 82.1448 127.448 81.4968 127.712C80.8608 127.976 80.1468 128.108 79.3548 128.108ZM98.0622 118.37C98.8302 118.37 99.5082 118.52 100.096 118.82C100.684 119.12 101.14 119.576 101.464 120.188C101.8 120.8 101.968 121.574 101.968 122.51V128H100.24V122.708C100.24 121.784 100.024 121.088 99.5922 120.62C99.1602 120.152 98.5542 119.918 97.7742 119.918C97.1982 119.918 96.6942 120.038 96.2622 120.278C95.8302 120.518 95.4942 120.872 95.2542 121.34C95.0262 121.808 94.9122 122.39 94.9122 123.086V128H93.1842V122.708C93.1842 121.784 92.9682 121.088 92.5362 120.62C92.1162 120.152 91.5102 119.918 90.7182 119.918C90.1542 119.918 89.6562 120.038 89.2242 120.278C88.7922 120.518 88.4562 120.872 88.2162 121.34C87.9762 121.808 87.8562 122.39 87.8562 123.086V128H86.1282V118.46H87.7842V120.998L87.5142 120.35C87.8142 119.726 88.2762 119.24 88.9002 118.892C89.5242 118.544 90.2502 118.37 91.0782 118.37C91.9902 118.37 92.7762 118.598 93.4362 119.054C94.0962 119.498 94.5282 120.176 94.7322 121.088L94.0302 120.8C94.3182 120.068 94.8222 119.48 95.5422 119.036C96.2622 118.592 97.1022 118.37 98.0622 118.37ZM110.206 128.108C109.414 128.108 108.688 127.928 108.028 127.568C107.38 127.196 106.858 126.65 106.462 125.93C106.078 125.21 105.886 124.31 105.886 123.23C105.886 122.15 106.072 121.25 106.444 120.53C106.828 119.81 107.344 119.27 107.992 118.91C108.652 118.55 109.39 118.37 110.206 118.37C111.142 118.37 111.97 118.574 112.69 118.982C113.41 119.39 113.98 119.96 114.4 120.692C114.82 121.412 115.03 122.258 115.03 123.23C115.03 124.202 114.82 125.054 114.4 125.786C113.98 126.518 113.41 127.088 112.69 127.496C111.97 127.904 111.142 128.108 110.206 128.108ZM105.148 131.492V118.46H106.804V121.034L106.696 123.248L106.876 125.462V131.492H105.148ZM110.062 126.596C110.674 126.596 111.22 126.458 111.7 126.182C112.192 125.906 112.576 125.516 112.852 125.012C113.14 124.496 113.284 123.902 113.284 123.23C113.284 122.546 113.14 121.958 112.852 121.466C112.576 120.962 112.192 120.572 111.7 120.296C111.22 120.02 110.674 119.882 110.062 119.882C109.462 119.882 108.916 120.02 108.424 120.296C107.944 120.572 107.56 120.962 107.272 121.466C106.996 121.958 106.858 122.546 106.858 123.23C106.858 123.902 106.996 124.496 107.272 125.012C107.56 125.516 107.944 125.906 108.424 126.182C108.916 126.458 109.462 126.596 110.062 126.596ZM117.417 128V118.46H119.073V121.052L118.911 120.404C119.175 119.744 119.619 119.24 120.243 118.892C120.867 118.544 121.635 118.37 122.547 118.37V120.044C122.475 120.032 122.403 120.026 122.331 120.026C122.271 120.026 122.211 120.026 122.151 120.026C121.227 120.026 120.495 120.302 119.955 120.854C119.415 121.406 119.145 122.204 119.145 123.248V128H117.417ZM128.837 128.108C127.817 128.108 126.917 127.898 126.137 127.478C125.369 127.058 124.769 126.482 124.337 125.75C123.917 125.018 123.707 124.178 123.707 123.23C123.707 122.282 123.911 121.442 124.319 120.71C124.739 119.978 125.309 119.408 126.029 119C126.761 118.58 127.583 118.37 128.495 118.37C129.419 118.37 130.235 118.574 130.943 118.982C131.651 119.39 132.203 119.966 132.599 120.71C133.007 121.442 133.211 122.3 133.211 123.284C133.211 123.356 133.205 123.44 133.193 123.536C133.193 123.632 133.187 123.722 133.175 123.806H125.057V122.564H132.275L131.573 122.996C131.585 122.384 131.459 121.838 131.195 121.358C130.931 120.878 130.565 120.506 130.097 120.242C129.641 119.966 129.107 119.828 128.495 119.828C127.895 119.828 127.361 119.966 126.893 120.242C126.425 120.506 126.059 120.884 125.795 121.376C125.531 121.856 125.399 122.408 125.399 123.032V123.32C125.399 123.956 125.543 124.526 125.831 125.03C126.131 125.522 126.545 125.906 127.073 126.182C127.601 126.458 128.207 126.596 128.891 126.596C129.455 126.596 129.965 126.5 130.421 126.308C130.889 126.116 131.297 125.828 131.645 125.444L132.599 126.56C132.167 127.064 131.627 127.448 130.979 127.712C130.343 127.976 129.629 128.108 128.837 128.108ZM138.347 128.108C137.555 128.108 136.799 128 136.079 127.784C135.371 127.568 134.813 127.304 134.405 126.992L135.125 125.624C135.533 125.9 136.037 126.134 136.637 126.326C137.237 126.518 137.849 126.614 138.473 126.614C139.277 126.614 139.853 126.5 140.201 126.272C140.561 126.044 140.741 125.726 140.741 125.318C140.741 125.018 140.633 124.784 140.417 124.616C140.201 124.448 139.913 124.322 139.553 124.238C139.205 124.154 138.815 124.082 138.383 124.022C137.951 123.95 137.519 123.866 137.087 123.77C136.655 123.662 136.259 123.518 135.899 123.338C135.539 123.146 135.251 122.888 135.035 122.564C134.819 122.228 134.711 121.784 134.711 121.232C134.711 120.656 134.873 120.152 135.197 119.72C135.521 119.288 135.977 118.958 136.565 118.73C137.165 118.49 137.873 118.37 138.689 118.37C139.313 118.37 139.943 118.448 140.579 118.604C141.227 118.748 141.755 118.958 142.163 119.234L141.425 120.602C140.993 120.314 140.543 120.116 140.075 120.008C139.607 119.9 139.139 119.846 138.671 119.846C137.915 119.846 137.351 119.972 136.979 120.224C136.607 120.464 136.421 120.776 136.421 121.16C136.421 121.484 136.529 121.736 136.745 121.916C136.973 122.084 137.261 122.216 137.609 122.312C137.969 122.408 138.365 122.492 138.797 122.564C139.229 122.624 139.661 122.708 140.093 122.816C140.525 122.912 140.915 123.05 141.263 123.23C141.623 123.41 141.911 123.662 142.127 123.986C142.355 124.31 142.469 124.742 142.469 125.282C142.469 125.858 142.301 126.356 141.965 126.776C141.629 127.196 141.155 127.526 140.543 127.766C139.931 127.994 139.199 128.108 138.347 128.108ZM150.55 128V125.984L150.46 125.606V122.168C150.46 121.436 150.244 120.872 149.812 120.476C149.392 120.068 148.756 119.864 147.904 119.864C147.34 119.864 146.788 119.96 146.248 120.152C145.708 120.332 145.252 120.578 144.88 120.89L144.16 119.594C144.652 119.198 145.24 118.898 145.924 118.694C146.62 118.478 147.346 118.37 148.102 118.37C149.41 118.37 150.418 118.688 151.126 119.324C151.834 119.96 152.188 120.932 152.188 122.24V128H150.55ZM147.418 128.108C146.71 128.108 146.086 127.988 145.546 127.748C145.018 127.508 144.61 127.178 144.322 126.758C144.034 126.326 143.89 125.84 143.89 125.3C143.89 124.784 144.01 124.316 144.25 123.896C144.502 123.476 144.904 123.14 145.456 122.888C146.02 122.636 146.776 122.51 147.724 122.51H150.748V123.752H147.796C146.932 123.752 146.35 123.896 146.05 124.184C145.75 124.472 145.6 124.82 145.6 125.228C145.6 125.696 145.786 126.074 146.158 126.362C146.53 126.638 147.046 126.776 147.706 126.776C148.354 126.776 148.918 126.632 149.398 126.344C149.89 126.056 150.244 125.636 150.46 125.084L150.802 126.272C150.574 126.836 150.172 127.286 149.596 127.622C149.02 127.946 148.294 128.108 147.418 128.108ZM155.8 128.108C155.464 128.108 155.176 127.994 154.936 127.766C154.696 127.526 154.576 127.226 154.576 126.866C154.576 126.506 154.696 126.212 154.936 125.984C155.176 125.756 155.464 125.642 155.8 125.642C156.124 125.642 156.4 125.756 156.628 125.984C156.868 126.212 156.988 126.506 156.988 126.866C156.988 127.226 156.868 127.526 156.628 127.766C156.4 127.994 156.124 128.108 155.8 128.108Z" fill="#4D4D70"/>
<path d="M54.7926 190L49.2486 177.4H51.1926L56.2866 189.028H55.1706L60.3006 177.4H62.1006L56.5746 190H54.7926ZM66.9827 190.108C65.9627 190.108 65.0627 189.898 64.2827 189.478C63.5147 189.058 62.9147 188.482 62.4827 187.75C62.0627 187.018 61.8527 186.178 61.8527 185.23C61.8527 184.282 62.0567 183.442 62.4647 182.71C62.8847 181.978 63.4547 181.408 64.1747 181C64.9067 180.58 65.7287 180.37 66.6407 180.37C67.5647 180.37 68.3807 180.574 69.0887 180.982C69.7967 181.39 70.3487 181.966 70.7447 182.71C71.1527 183.442 71.3567 184.3 71.3567 185.284C71.3567 185.356 71.3507 185.44 71.3387 185.536C71.3387 185.632 71.3327 185.722 71.3207 185.806H63.2027V184.564H70.4207L69.7187 184.996C69.7307 184.384 69.6047 183.838 69.3407 183.358C69.0767 182.878 68.7107 182.506 68.2427 182.242C67.7867 181.966 67.2527 181.828 66.6407 181.828C66.0407 181.828 65.5067 181.966 65.0387 182.242C64.5707 182.506 64.2047 182.884 63.9407 183.376C63.6767 183.856 63.5447 184.408 63.5447 185.032V185.32C63.5447 185.956 63.6887 186.526 63.9767 187.03C64.2767 187.522 64.6907 187.906 65.2187 188.182C65.7467 188.458 66.3527 188.596 67.0367 188.596C67.6007 188.596 68.1107 188.5 68.5667 188.308C69.0347 188.116 69.4427 187.828 69.7907 187.444L70.7447 188.56C70.3127 189.064 69.7727 189.448 69.1247 189.712C68.4887 189.976 67.7747 190.108 66.9827 190.108ZM73.7562 190V180.46H75.4122V183.052L75.2502 182.404C75.5142 181.744 75.9582 181.24 76.5822 180.892C77.2062 180.544 77.9742 180.37 78.8862 180.37V182.044C78.8142 182.032 78.7422 182.026 78.6702 182.026C78.6102 182.026 78.5502 182.026 78.4902 182.026C77.5662 182.026 76.8342 182.302 76.2942 182.854C75.7542 183.406 75.4842 184.204 75.4842 185.248V190H73.7562ZM88.709 190.108C87.917 190.108 87.161 190 86.441 189.784C85.733 189.568 85.175 189.304 84.767 188.992L85.487 187.624C85.895 187.9 86.399 188.134 86.999 188.326C87.599 188.518 88.211 188.614 88.835 188.614C89.639 188.614 90.215 188.5 90.563 188.272C90.923 188.044 91.103 187.726 91.103 187.318C91.103 187.018 90.995 186.784 90.779 186.616C90.563 186.448 90.275 186.322 89.915 186.238C89.567 186.154 89.177 186.082 88.745 186.022C88.313 185.95 87.881 185.866 87.449 185.77C87.017 185.662 86.621 185.518 86.261 185.338C85.901 185.146 85.613 184.888 85.397 184.564C85.181 184.228 85.073 183.784 85.073 183.232C85.073 182.656 85.235 182.152 85.559 181.72C85.883 181.288 86.339 180.958 86.927 180.73C87.527 180.49 88.235 180.37 89.051 180.37C89.675 180.37 90.305 180.448 90.941 180.604C91.589 180.748 92.117 180.958 92.525 181.234L91.787 182.602C91.355 182.314 90.905 182.116 90.437 182.008C89.969 181.9 89.501 181.846 89.033 181.846C88.277 181.846 87.713 181.972 87.341 182.224C86.969 182.464 86.783 182.776 86.783 183.16C86.783 183.484 86.891 183.736 87.107 183.916C87.335 184.084 87.623 184.216 87.971 184.312C88.331 184.408 88.727 184.492 89.159 184.564C89.591 184.624 90.023 184.708 90.455 184.816C90.887 184.912 91.277 185.05 91.625 185.23C91.985 185.41 92.273 185.662 92.489 185.986C92.717 186.31 92.831 186.742 92.831 187.282C92.831 187.858 92.663 188.356 92.327 188.776C91.991 189.196 91.517 189.526 90.905 189.766C90.293 189.994 89.561 190.108 88.709 190.108ZM99.2385 190.108C98.2185 190.108 97.3185 189.898 96.5385 189.478C95.7705 189.058 95.1705 188.482 94.7385 187.75C94.3185 187.018 94.1085 186.178 94.1085 185.23C94.1085 184.282 94.3125 183.442 94.7205 182.71C95.1405 181.978 95.7105 181.408 96.4305 181C97.1625 180.58 97.9845 180.37 98.8965 180.37C99.8205 180.37 100.637 180.574 101.345 180.982C102.053 181.39 102.605 181.966 103.001 182.71C103.409 183.442 103.613 184.3 103.613 185.284C103.613 185.356 103.607 185.44 103.595 185.536C103.595 185.632 103.589 185.722 103.577 185.806H95.4585V184.564H102.677L101.975 184.996C101.987 184.384 101.861 183.838 101.597 183.358C101.333 182.878 100.967 182.506 100.499 182.242C100.043 181.966 99.5085 181.828 98.8965 181.828C98.2965 181.828 97.7625 181.966 97.2945 182.242C96.8265 182.506 96.4605 182.884 96.1965 183.376C95.9325 183.856 95.8005 184.408 95.8005 185.032V185.32C95.8005 185.956 95.9445 186.526 96.2325 187.03C96.5325 187.522 96.9465 187.906 97.4745 188.182C98.0025 188.458 98.6085 188.596 99.2925 188.596C99.8565 188.596 100.367 188.5 100.823 188.308C101.291 188.116 101.699 187.828 102.047 187.444L103.001 188.56C102.569 189.064 102.029 189.448 101.381 189.712C100.745 189.976 100.031 190.108 99.2385 190.108ZM106.012 190V180.46H107.668V183.052L107.506 182.404C107.77 181.744 108.214 181.24 108.838 180.892C109.462 180.544 110.23 180.37 111.142 180.37V182.044C111.07 182.032 110.998 182.026 110.926 182.026C110.866 182.026 110.806 182.026 110.746 182.026C109.822 182.026 109.09 182.302 108.55 182.854C108.01 183.406 107.74 184.204 107.74 185.248V190H106.012ZM116.161 190L111.985 180.46H113.785L117.493 189.1H116.629L120.409 180.46H122.101L117.925 190H116.161ZM123.713 190V180.46H125.441V190H123.713ZM124.577 178.624C124.241 178.624 123.959 178.516 123.731 178.3C123.515 178.084 123.407 177.82 123.407 177.508C123.407 177.184 123.515 176.914 123.731 176.698C123.959 176.482 124.241 176.374 124.577 176.374C124.913 176.374 125.189 176.482 125.405 176.698C125.633 176.902 125.747 177.16 125.747 177.472C125.747 177.796 125.639 178.072 125.423 178.3C125.207 178.516 124.925 178.624 124.577 178.624ZM132.899 190.108C131.927 190.108 131.057 189.898 130.289 189.478C129.533 189.058 128.939 188.482 128.507 187.75C128.075 187.018 127.859 186.178 127.859 185.23C127.859 184.282 128.075 183.442 128.507 182.71C128.939 181.978 129.533 181.408 130.289 181C131.057 180.58 131.927 180.37 132.899 180.37C133.763 180.37 134.531 180.544 135.203 180.892C135.887 181.228 136.415 181.732 136.787 182.404L135.473 183.25C135.161 182.782 134.777 182.44 134.321 182.224C133.877 181.996 133.397 181.882 132.881 181.882C132.257 181.882 131.699 182.02 131.207 182.296C130.715 182.572 130.325 182.962 130.037 183.466C129.749 183.958 129.605 184.546 129.605 185.23C129.605 185.914 129.749 186.508 130.037 187.012C130.325 187.516 130.715 187.906 131.207 188.182C131.699 188.458 132.257 188.596 132.881 188.596C133.397 188.596 133.877 188.488 134.321 188.272C134.777 188.044 135.161 187.696 135.473 187.228L136.787 188.056C136.415 188.716 135.887 189.226 135.203 189.586C134.531 189.934 133.763 190.108 132.899 190.108ZM138.901 190V180.46H140.629V190H138.901ZM139.765 178.624C139.429 178.624 139.147 178.516 138.919 178.3C138.703 178.084 138.595 177.82 138.595 177.508C138.595 177.184 138.703 176.914 138.919 176.698C139.147 176.482 139.429 176.374 139.765 176.374C140.101 176.374 140.377 176.482 140.593 176.698C140.821 176.902 140.935 177.16 140.935 177.472C140.935 177.796 140.827 178.072 140.611 178.3C140.395 178.516 140.113 178.624 139.765 178.624ZM148.014 190.108C147.054 190.108 146.202 189.898 145.458 189.478C144.714 189.058 144.126 188.482 143.694 187.75C143.262 187.006 143.046 186.166 143.046 185.23C143.046 184.282 143.262 183.442 143.694 182.71C144.126 181.978 144.714 181.408 145.458 181C146.202 180.58 147.054 180.37 148.014 180.37C148.962 180.37 149.808 180.58 150.552 181C151.308 181.408 151.896 181.978 152.316 182.71C152.748 183.43 152.964 184.27 152.964 185.23C152.964 186.178 152.748 187.018 152.316 187.75C151.896 188.482 151.308 189.058 150.552 189.478C149.808 189.898 148.962 190.108 148.014 190.108ZM148.014 188.596C148.626 188.596 149.172 188.458 149.652 188.182C150.144 187.906 150.528 187.516 150.804 187.012C151.08 186.496 151.218 185.902 151.218 185.23C151.218 184.546 151.08 183.958 150.804 183.466C150.528 182.962 150.144 182.572 149.652 182.296C149.172 182.02 148.626 181.882 148.014 181.882C147.402 181.882 146.856 182.02 146.376 182.296C145.896 182.572 145.512 182.962 145.224 183.466C144.936 183.958 144.792 184.546 144.792 185.23C144.792 185.902 144.936 186.496 145.224 187.012C145.512 187.516 145.896 187.906 146.376 188.182C146.856 188.458 147.402 188.596 148.014 188.596ZM158.09 190.108C157.298 190.108 156.542 190 155.822 189.784C155.114 189.568 154.556 189.304 154.148 188.992L154.868 187.624C155.276 187.9 155.78 188.134 156.38 188.326C156.98 188.518 157.592 188.614 158.216 188.614C159.02 188.614 159.596 188.5 159.944 188.272C160.304 188.044 160.484 187.726 160.484 187.318C160.484 187.018 160.376 186.784 160.16 186.616C159.944 186.448 159.656 186.322 159.296 186.238C158.948 186.154 158.558 186.082 158.126 186.022C157.694 185.95 157.262 185.866 156.83 185.77C156.398 185.662 156.002 185.518 155.642 185.338C155.282 185.146 154.994 184.888 154.778 184.564C154.562 184.228 154.454 183.784 154.454 183.232C154.454 182.656 154.616 182.152 154.94 181.72C155.264 181.288 155.72 180.958 156.308 180.73C156.908 180.49 157.616 180.37 158.432 180.37C159.056 180.37 159.686 180.448 160.322 180.604C160.97 180.748 161.498 180.958 161.906 181.234L161.168 182.602C160.736 182.314 160.286 182.116 159.818 182.008C159.35 181.9 158.882 181.846 158.414 181.846C157.658 181.846 157.094 181.972 156.722 182.224C156.35 182.464 156.164 182.776 156.164 183.16C156.164 183.484 156.272 183.736 156.488 183.916C156.716 184.084 157.004 184.216 157.352 184.312C157.712 184.408 158.108 184.492 158.54 184.564C158.972 184.624 159.404 184.708 159.836 184.816C160.268 184.912 160.658 185.05 161.006 185.23C161.366 185.41 161.654 185.662 161.87 185.986C162.098 186.31 162.212 186.742 162.212 187.282C162.212 187.858 162.044 188.356 161.708 188.776C161.372 189.196 160.898 189.526 160.286 189.766C159.674 189.994 158.942 190.108 158.09 190.108Z" fill="#000033"/>
<g clip-path="url(#clip1_725_1930)">
<path d="M181.781 183.333L178.205 179.757L179.148 178.815L184.333 184L179.148 189.185L178.205 188.243L181.781 184.667H173.667V183.333H181.781Z" fill="#000033"/>
</g>
<path d="M24 209H424C424 212.866 420.866 216 417 216H31C27.134 216 24 212.866 24 209Z" fill="#100FA8"/>
</g>
<defs>
<filter id="filter0_d_725_1930" x="0" y="0" width="448" height="254" filterUnits="userSpaceOnUse" color-interpolation-filters="sRGB">
<feFlood flood-opacity="0" result="BackgroundImageFix"/>
<feColorMatrix in="SourceAlpha" type="matrix" values="0 0 0 0 0 0 0 0 0 0 0 0 0 0 0 0 0 0 127 0" result="hardAlpha"/>
<feOffset dy="14"/>
<feGaussianBlur stdDeviation="12"/>
<feColorMatrix type="matrix" values="0 0 0 0 0 0 0 0 0 0 0 0 0 0 0.2 0 0 0 0.04 0"/>
<feBlend mode="normal" in2="BackgroundImageFix" result="effect1_dropShadow_725_1930"/>
<feBlend mode="normal" in="SourceGraphic" in2="effect1_dropShadow_725_1930" result="shape"/>
</filter>
<clipPath id="clip0_725_1930">
<rect width="32" height="32" fill="white" transform="translate(49 32)"/>
</clipPath>
<clipPath id="clip1_725_1930">
<rect width="16" height="16" fill="white" transform="translate(171 176)"/>
</clipPath>
</defs>
</svg>
