<svg width="25" height="24" viewBox="0 0 25 24" fill="none" xmlns="http://www.w3.org/2000/svg">
<path d="M20.0823 8.29624C19.7257 7.92433 19.1212 7.89921 18.7321 8.24013L12.3335 13.848L5.93485 8.24013C5.57823 7.92762 5.04056 7.92268 4.67874 8.2105L4.58468 8.29624C4.22805 8.66816 4.25434 9.24603 4.64338 9.58695L11.6878 15.7599C11.6923 15.7638 11.6968 15.7677 11.7013 15.7715L11.6291 15.7038C11.6692 15.7456 11.7124 15.783 11.7581 15.8161C11.7751 15.8282 11.7923 15.8397 11.8097 15.8507C11.8273 15.8619 11.8456 15.8725 11.8641 15.8825C11.881 15.8915 11.8978 15.9 11.9147 15.9079C11.9347 15.9172 11.9554 15.926 11.9764 15.934C11.9949 15.9412 12.0137 15.9478 12.0326 15.9538C12.0513 15.9596 12.0701 15.9649 12.0889 15.9697C12.1098 15.975 12.131 15.9796 12.1522 15.9835C12.174 15.9875 12.196 15.9908 12.2181 15.9933C12.2341 15.9952 12.2504 15.9967 12.2668 15.9978C12.2893 15.9993 12.3117 16 12.3341 16C12.356 16 12.378 15.9992 12.4 15.9978C12.4166 15.9967 12.4329 15.9952 12.4492 15.9933C12.471 15.9908 12.4929 15.9875 12.5148 15.9835C12.536 15.9796 12.5572 15.975 12.5782 15.9697C12.5969 15.9649 12.6156 15.9596 12.6342 15.9538C12.6533 15.9478 12.6721 15.9412 12.6907 15.934C12.7116 15.926 12.7323 15.9172 12.7527 15.9077C12.7692 15.9 12.786 15.8915 12.8025 15.8826C12.8214 15.8725 12.8397 15.8619 12.8576 15.8506C12.8747 15.8397 12.8919 15.8282 12.9087 15.816C12.9546 15.783 12.9978 15.7456 13.0379 15.7038L12.9657 15.7715C12.9702 15.7677 12.9747 15.7638 12.9792 15.7599L20.0236 9.58695C20.4127 9.24603 20.4389 8.66816 20.0823 8.29624Z" fill="#F4F2FA"/>
</svg>
