<svg width="448" height="254" viewBox="0 0 448 254" fill="none" xmlns="http://www.w3.org/2000/svg">
<g filter="url(#filter0_d_725_1929)">
<rect x="24" y="10" width="400" height="206" rx="8" fill="white"/>
<rect x="24.25" y="10.25" width="399.5" height="205.5" rx="7.75" stroke="#CCCCD6" stroke-width="0.5"/>
<g clip-path="url(#clip0_725_1929)">
<path d="M60.3 53.72C61.0636 53.0491 61.6046 52.1615 61.8509 51.1754C62.0973 50.1892 62.0372 49.1515 61.6788 48.2003C61.3203 47.2492 60.6805 46.4299 59.8446 45.8517C59.0087 45.2734 58.0164 44.9636 57 44.9636C55.9836 44.9636 54.9913 45.2734 54.1554 45.8517C53.3195 46.4299 52.6797 47.2492 52.3212 48.2003C51.9628 49.1515 51.9027 50.1892 52.1491 51.1754C52.3954 52.1615 52.9364 53.0491 53.7 53.72C52.3001 54.3538 51.1125 55.3775 50.279 56.6685C49.4455 57.9595 49.0015 59.4633 49 61V62C49 62.2652 49.1054 62.5195 49.2929 62.7071C49.4804 62.8946 49.7348 63 50 63H53C53.2652 63 53.5196 62.8946 53.7071 62.7071C53.8946 62.5195 54 62.2652 54 62C54 61.7347 53.8946 61.4804 53.7071 61.2928C53.5196 61.1053 53.2652 61 53 61H51C51 59.4087 51.6321 57.8825 52.7574 56.7573C53.8826 55.6321 55.4087 55 57 55C58.5913 55 60.1174 55.6321 61.2426 56.7573C62.3679 57.8825 63 59.4087 63 61H52.8333C52.5681 61 52.3138 61.1053 52.1262 61.2928C51.9387 61.4804 51.8333 61.7347 51.8333 62C51.8333 62.2652 51.9387 62.5195 52.1262 62.7071C52.3138 62.8946 52.5681 63 52.8333 63H64C64.2652 63 64.5196 62.8946 64.7071 62.7071C64.8946 62.5195 65 62.2652 65 62V61C64.9985 59.4633 64.5545 57.9595 63.721 56.6685C62.8875 55.3775 61.6999 54.3538 60.3 53.72ZM54 50C54 49.4066 54.1759 48.8266 54.5056 48.3332C54.8352 47.8399 55.3038 47.4554 55.8519 47.2283C56.4001 47.0012 57.0033 46.9418 57.5853 47.0576C58.1672 47.1734 58.7018 47.4591 59.1213 47.8786C59.5409 48.2982 59.8266 48.8327 59.9424 49.4147C60.0581 49.9966 59.9987 50.5998 59.7716 51.148C59.5446 51.6962 59.1601 52.1647 58.6667 52.4944C58.1734 52.824 57.5933 53 57 53C56.2044 53 55.4413 52.6839 54.8787 52.1213C54.3161 51.5587 54 50.7956 54 50Z" fill="#000033"/>
<path d="M78 33H66C65.2044 33 64.4413 33.3161 63.8787 33.8787C63.3161 34.4413 63 35.2044 63 36V42C63 42.7956 63.3161 43.5587 63.8787 44.1213C64.4413 44.6839 65.2044 45 66 45V47C66 47.1857 66.0517 47.3678 66.1493 47.5257C66.247 47.6837 66.3867 47.8114 66.5528 47.8944C66.7189 47.9775 66.9048 48.0126 67.0898 47.996C67.2748 47.9793 67.4514 47.9114 67.6 47.8L71.33 45H78C78.7956 45 79.5587 44.6839 80.1213 44.1213C80.6839 43.5587 81 42.7956 81 42V36C81 35.2044 80.6839 34.4413 80.1213 33.8787C79.5587 33.3161 78.7956 33 78 33ZM79 42C79 42.2652 78.8946 42.5196 78.7071 42.7071C78.5196 42.8946 78.2652 43 78 43H71C70.56 43 70.62 43 68 45V44C68 43.7348 67.8946 43.4804 67.7071 43.2929C67.5196 43.1054 67.2652 43 67 43H66C65.7348 43 65.4804 42.8946 65.2929 42.7071C65.1054 42.5196 65 42.2652 65 42V36C65 35.7348 65.1054 35.4804 65.2929 35.2929C65.4804 35.1054 65.7348 35 66 35H78C78.2652 35 78.5196 35.1054 78.7071 35.2929C78.8946 35.4804 79 35.7348 79 36V42Z" fill="#000033"/>
<path d="M68 40C67.8022 40 67.6089 39.9414 67.4444 39.8315C67.28 39.7216 67.1518 39.5654 67.0761 39.3827C67.0004 39.2 66.9806 38.9989 67.0192 38.8049C67.0578 38.6109 67.153 38.4327 67.2929 38.2929C67.4327 38.153 67.6109 38.0578 67.8049 38.0192C67.9989 37.9806 68.2 38.0004 68.3827 38.0761C68.5654 38.1518 68.7216 38.28 68.8315 38.4444C68.9414 38.6089 69 38.8022 69 39C69 39.2652 68.8946 39.5196 68.7071 39.7071C68.5196 39.8946 68.2652 40 68 40Z" fill="#100FA8"/>
<path d="M72 40C71.8022 40 71.6089 39.9414 71.4444 39.8315C71.28 39.7216 71.1518 39.5654 71.0761 39.3827C71.0004 39.2 70.9806 38.9989 71.0192 38.8049C71.0578 38.6109 71.153 38.4327 71.2929 38.2929C71.4327 38.153 71.6109 38.0578 71.8049 38.0192C71.9989 37.9806 72.2 38.0004 72.3827 38.0761C72.5654 38.1518 72.7216 38.28 72.8315 38.4444C72.9414 38.6089 73 38.8022 73 39C73 39.2652 72.8946 39.5196 72.7071 39.7071C72.5196 39.8946 72.2652 40 72 40Z" fill="#100FA8"/>
<path d="M76 40C75.8022 40 75.6089 39.9414 75.4444 39.8315C75.28 39.7216 75.1518 39.5654 75.0761 39.3827C75.0004 39.2 74.9806 38.9989 75.0192 38.8049C75.0578 38.6109 75.153 38.4327 75.2929 38.2929C75.4327 38.153 75.6109 38.0578 75.8049 38.0192C75.9989 37.9806 76.2 38.0004 76.3827 38.0761C76.5654 38.1518 76.7216 38.28 76.8315 38.4444C76.9414 38.6089 77 38.8022 77 39C77 39.2652 76.8946 39.5196 76.7071 39.7071C76.5196 39.8946 76.2652 40 76 40Z" fill="#100FA8"/>
</g>
<path d="M105.36 55.24C104.28 55.24 103.273 55.0667 102.34 54.72C101.42 54.36 100.62 53.8533 99.94 53.2C99.26 52.5467 98.7267 51.78 98.34 50.9C97.9667 50.02 97.78 49.0533 97.78 48C97.78 46.9467 97.9667 45.98 98.34 45.1C98.7267 44.22 99.26 43.4533 99.94 42.8C100.633 42.1467 101.44 41.6467 102.36 41.3C103.28 40.94 104.287 40.76 105.38 40.76C106.593 40.76 107.687 40.9733 108.66 41.4C109.647 41.8133 110.473 42.4267 111.14 43.24L109.06 45.16C108.58 44.6133 108.047 44.2067 107.46 43.94C106.873 43.66 106.233 43.52 105.54 43.52C104.887 43.52 104.287 43.6267 103.74 43.84C103.193 44.0533 102.72 44.36 102.32 44.76C101.92 45.16 101.607 45.6333 101.38 46.18C101.167 46.7267 101.06 47.3333 101.06 48C101.06 48.6667 101.167 49.2733 101.38 49.82C101.607 50.3667 101.92 50.84 102.32 51.24C102.72 51.64 103.193 51.9467 103.74 52.16C104.287 52.3733 104.887 52.48 105.54 52.48C106.233 52.48 106.873 52.3467 107.46 52.08C108.047 51.8 108.58 51.38 109.06 50.82L111.14 52.74C110.473 53.5533 109.647 54.1733 108.66 54.6C107.687 55.0267 106.587 55.24 105.36 55.24ZM117.857 55.16C116.71 55.16 115.69 54.92 114.797 54.44C113.917 53.96 113.217 53.3067 112.697 52.48C112.19 51.64 111.937 50.6867 111.937 49.62C111.937 48.54 112.19 47.5867 112.697 46.76C113.217 45.92 113.917 45.2667 114.797 44.8C115.69 44.32 116.71 44.08 117.857 44.08C118.99 44.08 120.004 44.32 120.897 44.8C121.79 45.2667 122.49 45.9133 122.997 46.74C123.504 47.5667 123.757 48.5267 123.757 49.62C123.757 50.6867 123.504 51.64 122.997 52.48C122.49 53.3067 121.79 53.96 120.897 54.44C120.004 54.92 118.99 55.16 117.857 55.16ZM117.857 52.6C118.377 52.6 118.844 52.48 119.257 52.24C119.67 52 119.997 51.66 120.237 51.22C120.477 50.7667 120.597 50.2333 120.597 49.62C120.597 48.9933 120.477 48.46 120.237 48.02C119.997 47.58 119.67 47.24 119.257 47C118.844 46.76 118.377 46.64 117.857 46.64C117.337 46.64 116.87 46.76 116.457 47C116.044 47.24 115.71 47.58 115.457 48.02C115.217 48.46 115.097 48.9933 115.097 49.62C115.097 50.2333 115.217 50.7667 115.457 51.22C115.71 51.66 116.044 52 116.457 52.24C116.87 52.48 117.337 52.6 117.857 52.6ZM132.382 44.08C133.236 44.08 133.996 44.2533 134.662 44.6C135.342 44.9333 135.876 45.4533 136.262 46.16C136.649 46.8533 136.842 47.7467 136.842 48.84V55H133.722V49.32C133.722 48.4533 133.529 47.8133 133.142 47.4C132.769 46.9867 132.236 46.78 131.542 46.78C131.049 46.78 130.602 46.8867 130.202 47.1C129.816 47.3 129.509 47.6133 129.282 48.04C129.069 48.4667 128.962 49.0133 128.962 49.68V55H125.842V44.24H128.822V47.22L128.262 46.32C128.649 45.6 129.202 45.0467 129.922 44.66C130.642 44.2733 131.462 44.08 132.382 44.08ZM143.29 55.16C142.37 55.16 141.484 55.0533 140.63 54.84C139.79 54.6133 139.124 54.3333 138.63 54L139.67 51.76C140.164 52.0667 140.744 52.32 141.41 52.52C142.09 52.7067 142.757 52.8 143.41 52.8C144.13 52.8 144.637 52.7133 144.93 52.54C145.237 52.3667 145.39 52.1267 145.39 51.82C145.39 51.5667 145.27 51.38 145.03 51.26C144.804 51.1267 144.497 51.0267 144.11 50.96C143.724 50.8933 143.297 50.8267 142.83 50.76C142.377 50.6933 141.917 50.6067 141.45 50.5C140.984 50.38 140.557 50.2067 140.17 49.98C139.784 49.7533 139.47 49.4467 139.23 49.06C139.004 48.6733 138.89 48.1733 138.89 47.56C138.89 46.88 139.084 46.28 139.47 45.76C139.87 45.24 140.444 44.8333 141.19 44.54C141.937 44.2333 142.83 44.08 143.87 44.08C144.604 44.08 145.35 44.16 146.11 44.32C146.87 44.48 147.504 44.7133 148.01 45.02L146.97 47.24C146.45 46.9333 145.924 46.7267 145.39 46.62C144.87 46.5 144.364 46.44 143.87 46.44C143.177 46.44 142.67 46.5333 142.35 46.72C142.03 46.9067 141.87 47.1467 141.87 47.44C141.87 47.7067 141.984 47.9067 142.21 48.04C142.45 48.1733 142.764 48.28 143.15 48.36C143.537 48.44 143.957 48.5133 144.41 48.58C144.877 48.6333 145.344 48.72 145.81 48.84C146.277 48.96 146.697 49.1333 147.07 49.36C147.457 49.5733 147.77 49.8733 148.01 50.26C148.25 50.6333 148.37 51.1267 148.37 51.74C148.37 52.4067 148.17 53 147.77 53.52C147.37 54.0267 146.79 54.4267 146.03 54.72C145.284 55.0133 144.37 55.16 143.29 55.16ZM154.835 55.16C153.942 55.16 153.142 54.9867 152.435 54.64C151.742 54.2933 151.202 53.7667 150.815 53.06C150.429 52.34 150.235 51.4267 150.235 50.32V44.24H153.355V49.86C153.355 50.7533 153.542 51.4133 153.915 51.84C154.302 52.2533 154.842 52.46 155.535 52.46C156.015 52.46 156.442 52.36 156.815 52.16C157.189 51.9467 157.482 51.6267 157.695 51.2C157.909 50.76 158.015 50.2133 158.015 49.56V44.24H161.135V55H158.175V52.04L158.715 52.9C158.355 53.6467 157.822 54.2133 157.115 54.6C156.422 54.9733 155.662 55.16 154.835 55.16ZM164.026 55V40.16H167.146V55H164.026ZM175.242 55.16C173.976 55.16 172.989 54.84 172.282 54.2C171.576 53.5467 171.222 52.58 171.222 51.3V41.86H174.342V51.26C174.342 51.7133 174.462 52.0667 174.702 52.32C174.942 52.56 175.269 52.68 175.682 52.68C176.176 52.68 176.596 52.5467 176.942 52.28L177.782 54.48C177.462 54.7067 177.076 54.88 176.622 55C176.182 55.1067 175.722 55.16 175.242 55.16ZM169.562 46.88V44.48H177.022V46.88H169.562ZM184.322 55.16C183.175 55.16 182.155 54.92 181.262 54.44C180.382 53.96 179.682 53.3067 179.162 52.48C178.655 51.64 178.402 50.6867 178.402 49.62C178.402 48.54 178.655 47.5867 179.162 46.76C179.682 45.92 180.382 45.2667 181.262 44.8C182.155 44.32 183.175 44.08 184.322 44.08C185.455 44.08 186.468 44.32 187.362 44.8C188.255 45.2667 188.955 45.9133 189.462 46.74C189.968 47.5667 190.222 48.5267 190.222 49.62C190.222 50.6867 189.968 51.64 189.462 52.48C188.955 53.3067 188.255 53.96 187.362 54.44C186.468 54.92 185.455 55.16 184.322 55.16ZM184.322 52.6C184.842 52.6 185.308 52.48 185.722 52.24C186.135 52 186.462 51.66 186.702 51.22C186.942 50.7667 187.062 50.2333 187.062 49.62C187.062 48.9933 186.942 48.46 186.702 48.02C186.462 47.58 186.135 47.24 185.722 47C185.308 46.76 184.842 46.64 184.322 46.64C183.802 46.64 183.335 46.76 182.922 47C182.508 47.24 182.175 47.58 181.922 48.02C181.682 48.46 181.562 48.9933 181.562 49.62C181.562 50.2333 181.682 50.7667 181.922 51.22C182.175 51.66 182.508 52 182.922 52.24C183.335 52.48 183.802 52.6 184.322 52.6ZM192.307 55V44.24H195.287V47.28L194.867 46.4C195.187 45.64 195.701 45.0667 196.407 44.68C197.114 44.28 197.974 44.08 198.987 44.08V46.96C198.854 46.9467 198.734 46.94 198.627 46.94C198.521 46.9267 198.407 46.92 198.287 46.92C197.434 46.92 196.741 47.1667 196.207 47.66C195.687 48.14 195.427 48.8933 195.427 49.92V55H192.307ZM200.862 55V44.24H203.982V55H200.862ZM200.602 42.86L203.302 39.98H206.662L203.042 42.86H200.602ZM213.478 55V52.9L213.278 52.44V48.68C213.278 48.0133 213.071 47.4933 212.658 47.12C212.258 46.7467 211.638 46.56 210.798 46.56C210.224 46.56 209.658 46.6533 209.098 46.84C208.551 47.0133 208.084 47.2533 207.698 47.56L206.578 45.38C207.164 44.9667 207.871 44.6467 208.698 44.42C209.524 44.1933 210.364 44.08 211.218 44.08C212.858 44.08 214.131 44.4667 215.038 45.24C215.944 46.0133 216.398 47.22 216.398 48.86V55H213.478ZM210.198 55.16C209.358 55.16 208.638 55.02 208.038 54.74C207.438 54.4467 206.978 54.0533 206.658 53.56C206.338 53.0667 206.178 52.5133 206.178 51.9C206.178 51.26 206.331 50.7 206.638 50.22C206.958 49.74 207.458 49.3667 208.138 49.1C208.818 48.82 209.704 48.68 210.798 48.68H213.658V50.5H211.138C210.404 50.5 209.898 50.62 209.618 50.86C209.351 51.1 209.218 51.4 209.218 51.76C209.218 52.16 209.371 52.48 209.678 52.72C209.998 52.9467 210.431 53.06 210.978 53.06C211.498 53.06 211.964 52.94 212.378 52.7C212.791 52.4467 213.091 52.08 213.278 51.6L213.758 53.04C213.531 53.7333 213.118 54.26 212.518 54.62C211.918 54.98 211.144 55.16 210.198 55.16ZM231.805 55.24C230.725 55.24 229.719 55.0667 228.785 54.72C227.865 54.36 227.065 53.8533 226.385 53.2C225.705 52.5467 225.172 51.78 224.785 50.9C224.412 50.02 224.225 49.0533 224.225 48C224.225 46.9467 224.412 45.98 224.785 45.1C225.172 44.22 225.705 43.4533 226.385 42.8C227.079 42.1467 227.885 41.6467 228.805 41.3C229.725 40.94 230.732 40.76 231.825 40.76C233.039 40.76 234.132 40.9733 235.105 41.4C236.092 41.8133 236.919 42.4267 237.585 43.24L235.505 45.16C235.025 44.6133 234.492 44.2067 233.905 43.94C233.319 43.66 232.679 43.52 231.985 43.52C231.332 43.52 230.732 43.6267 230.185 43.84C229.639 44.0533 229.165 44.36 228.765 44.76C228.365 45.16 228.052 45.6333 227.825 46.18C227.612 46.7267 227.505 47.3333 227.505 48C227.505 48.6667 227.612 49.2733 227.825 49.82C228.052 50.3667 228.365 50.84 228.765 51.24C229.165 51.64 229.639 51.9467 230.185 52.16C230.732 52.3733 231.332 52.48 231.985 52.48C232.679 52.48 233.319 52.3467 233.905 52.08C234.492 51.8 235.025 51.38 235.505 50.82L237.585 52.74C236.919 53.5533 236.092 54.1733 235.105 54.6C234.132 55.0267 233.032 55.24 231.805 55.24ZM239.773 55V41H245.833C247.087 41 248.167 41.2067 249.073 41.62C249.98 42.02 250.68 42.6 251.173 43.36C251.667 44.12 251.913 45.0267 251.913 46.08C251.913 47.12 251.667 48.02 251.173 48.78C250.68 49.5267 249.98 50.1 249.073 50.5C248.167 50.9 247.087 51.1 245.833 51.1H241.573L243.013 49.68V55H239.773ZM248.673 55L245.173 49.92H248.633L252.173 55H248.673ZM243.013 50.04L241.573 48.52H245.653C246.653 48.52 247.4 48.3067 247.893 47.88C248.387 47.44 248.633 46.84 248.633 46.08C248.633 45.3067 248.387 44.7067 247.893 44.28C247.4 43.8533 246.653 43.64 245.653 43.64H241.573L243.013 42.1V50.04ZM254.48 55V41H257.16L263.12 50.88H261.7L267.56 41H270.22L270.26 55H267.22L267.2 45.66H267.76L263.08 53.52H261.62L256.84 45.66H257.52V55H254.48Z" fill="#000033"/>
<path d="M56.524 104.144C55.564 104.144 54.676 103.988 53.86 103.676C53.056 103.352 52.354 102.902 51.754 102.326C51.166 101.738 50.704 101.054 50.368 100.274C50.032 99.494 49.864 98.636 49.864 97.7C49.864 96.764 50.032 95.906 50.368 95.126C50.704 94.346 51.172 93.668 51.772 93.092C52.372 92.504 53.074 92.054 53.878 91.742C54.694 91.418 55.582 91.256 56.542 91.256C57.514 91.256 58.408 91.424 59.224 91.76C60.052 92.084 60.754 92.57 61.33 93.218L60.16 94.352C59.68 93.848 59.14 93.476 58.54 93.236C57.94 92.984 57.298 92.858 56.614 92.858C55.906 92.858 55.246 92.978 54.634 93.218C54.034 93.458 53.512 93.794 53.068 94.226C52.624 94.658 52.276 95.174 52.024 95.774C51.784 96.362 51.664 97.004 51.664 97.7C51.664 98.396 51.784 99.044 52.024 99.644C52.276 100.232 52.624 100.742 53.068 101.174C53.512 101.606 54.034 101.942 54.634 102.182C55.246 102.422 55.906 102.542 56.614 102.542C57.298 102.542 57.94 102.422 58.54 102.182C59.14 101.93 59.68 101.546 60.16 101.03L61.33 102.164C60.754 102.812 60.052 103.304 59.224 103.64C58.408 103.976 57.508 104.144 56.524 104.144ZM63.6458 104V94.46H65.3018V97.052L65.1398 96.404C65.4038 95.744 65.8478 95.24 66.4718 94.892C67.0958 94.544 67.8638 94.37 68.7758 94.37V96.044C68.7038 96.032 68.6318 96.026 68.5598 96.026C68.4998 96.026 68.4398 96.026 68.3798 96.026C67.4558 96.026 66.7238 96.302 66.1838 96.854C65.6438 97.406 65.3738 98.204 65.3738 99.248V104H63.6458ZM75.0657 104.108C74.0457 104.108 73.1457 103.898 72.3657 103.478C71.5977 103.058 70.9977 102.482 70.5657 101.75C70.1457 101.018 69.9357 100.178 69.9357 99.23C69.9357 98.282 70.1397 97.442 70.5477 96.71C70.9677 95.978 71.5377 95.408 72.2577 95C72.9897 94.58 73.8117 94.37 74.7237 94.37C75.6477 94.37 76.4637 94.574 77.1717 94.982C77.8797 95.39 78.4317 95.966 78.8277 96.71C79.2357 97.442 79.4397 98.3 79.4397 99.284C79.4397 99.356 79.4337 99.44 79.4217 99.536C79.4217 99.632 79.4157 99.722 79.4037 99.806H71.2857V98.564H78.5037L77.8017 98.996C77.8137 98.384 77.6877 97.838 77.4237 97.358C77.1597 96.878 76.7937 96.506 76.3257 96.242C75.8697 95.966 75.3357 95.828 74.7237 95.828C74.1237 95.828 73.5897 95.966 73.1217 96.242C72.6537 96.506 72.2877 96.884 72.0237 97.376C71.7597 97.856 71.6277 98.408 71.6277 99.032V99.32C71.6277 99.956 71.7717 100.526 72.0597 101.03C72.3597 101.522 72.7737 101.906 73.3017 102.182C73.8297 102.458 74.4357 102.596 75.1197 102.596C75.6837 102.596 76.1937 102.5 76.6497 102.308C77.1177 102.116 77.5257 101.828 77.8737 101.444L78.8277 102.56C78.3957 103.064 77.8557 103.448 77.2077 103.712C76.5717 103.976 75.8577 104.108 75.0657 104.108ZM87.4975 104V101.984L87.4075 101.606V98.168C87.4075 97.436 87.1915 96.872 86.7595 96.476C86.3395 96.068 85.7035 95.864 84.8515 95.864C84.2875 95.864 83.7355 95.96 83.1955 96.152C82.6555 96.332 82.1995 96.578 81.8275 96.89L81.1075 95.594C81.5995 95.198 82.1875 94.898 82.8715 94.694C83.5675 94.478 84.2935 94.37 85.0495 94.37C86.3575 94.37 87.3655 94.688 88.0735 95.324C88.7815 95.96 89.1355 96.932 89.1355 98.24V104H87.4975ZM84.3655 104.108C83.6575 104.108 83.0335 103.988 82.4935 103.748C81.9655 103.508 81.5575 103.178 81.2695 102.758C80.9815 102.326 80.8375 101.84 80.8375 101.3C80.8375 100.784 80.9575 100.316 81.1975 99.896C81.4495 99.476 81.8515 99.14 82.4035 98.888C82.9675 98.636 83.7235 98.51 84.6715 98.51H87.6955V99.752H84.7435C83.8795 99.752 83.2975 99.896 82.9975 100.184C82.6975 100.472 82.5475 100.82 82.5475 101.228C82.5475 101.696 82.7335 102.074 83.1055 102.362C83.4775 102.638 83.9935 102.776 84.6535 102.776C85.3015 102.776 85.8655 102.632 86.3455 102.344C86.8375 102.056 87.1915 101.636 87.4075 101.084L87.7495 102.272C87.5215 102.836 87.1195 103.286 86.5435 103.622C85.9675 103.946 85.2415 104.108 84.3655 104.108ZM91.6493 106.664L92.5493 103.028L92.7833 104.072C92.4353 104.072 92.1413 103.964 91.9013 103.748C91.6733 103.532 91.5593 103.238 91.5593 102.866C91.5593 102.506 91.6733 102.212 91.9013 101.984C92.1413 101.756 92.4293 101.642 92.7653 101.642C93.1133 101.642 93.3953 101.762 93.6113 102.002C93.8273 102.23 93.9353 102.518 93.9353 102.866C93.9353 102.986 93.9233 103.106 93.8993 103.226C93.8873 103.334 93.8573 103.466 93.8093 103.622C93.7733 103.766 93.7133 103.946 93.6293 104.162L92.7833 106.664H91.6493ZM105.187 104.108C104.263 104.108 103.435 103.904 102.703 103.496C101.983 103.088 101.413 102.518 100.993 101.786C100.573 101.054 100.363 100.202 100.363 99.23C100.363 98.258 100.573 97.412 100.993 96.692C101.413 95.96 101.983 95.39 102.703 94.982C103.435 94.574 104.263 94.37 105.187 94.37C105.991 94.37 106.717 94.55 107.365 94.91C108.013 95.27 108.529 95.81 108.913 96.53C109.309 97.25 109.507 98.15 109.507 99.23C109.507 100.31 109.315 101.21 108.931 101.93C108.559 102.65 108.049 103.196 107.401 103.568C106.753 103.928 106.015 104.108 105.187 104.108ZM105.331 102.596C105.931 102.596 106.471 102.458 106.951 102.182C107.443 101.906 107.827 101.516 108.103 101.012C108.391 100.496 108.535 99.902 108.535 99.23C108.535 98.546 108.391 97.958 108.103 97.466C107.827 96.962 107.443 96.572 106.951 96.296C106.471 96.02 105.931 95.882 105.331 95.882C104.719 95.882 104.173 96.02 103.693 96.296C103.213 96.572 102.829 96.962 102.541 97.466C102.253 97.958 102.109 98.546 102.109 99.23C102.109 99.902 102.253 100.496 102.541 101.012C102.829 101.516 103.213 101.906 103.693 102.182C104.173 102.458 104.719 102.596 105.331 102.596ZM108.589 104V101.426L108.697 99.212L108.517 96.998V90.644H110.245V104H108.589ZM117.763 104.108C116.743 104.108 115.843 103.898 115.063 103.478C114.295 103.058 113.695 102.482 113.263 101.75C112.843 101.018 112.633 100.178 112.633 99.23C112.633 98.282 112.837 97.442 113.245 96.71C113.665 95.978 114.235 95.408 114.955 95C115.687 94.58 116.509 94.37 117.421 94.37C118.345 94.37 119.161 94.574 119.869 94.982C120.577 95.39 121.129 95.966 121.525 96.71C121.933 97.442 122.137 98.3 122.137 99.284C122.137 99.356 122.131 99.44 122.119 99.536C122.119 99.632 122.113 99.722 122.101 99.806H113.983V98.564H121.201L120.499 98.996C120.511 98.384 120.385 97.838 120.121 97.358C119.857 96.878 119.491 96.506 119.023 96.242C118.567 95.966 118.033 95.828 117.421 95.828C116.821 95.828 116.287 95.966 115.819 96.242C115.351 96.506 114.985 96.884 114.721 97.376C114.457 97.856 114.325 98.408 114.325 99.032V99.32C114.325 99.956 114.469 100.526 114.757 101.03C115.057 101.522 115.471 101.906 115.999 102.182C116.527 102.458 117.133 102.596 117.817 102.596C118.381 102.596 118.891 102.5 119.347 102.308C119.815 102.116 120.223 101.828 120.571 101.444L121.525 102.56C121.093 103.064 120.553 103.448 119.905 103.712C119.269 103.976 118.555 104.108 117.763 104.108ZM127.272 104.108C126.48 104.108 125.724 104 125.004 103.784C124.296 103.568 123.738 103.304 123.33 102.992L124.05 101.624C124.458 101.9 124.962 102.134 125.562 102.326C126.162 102.518 126.774 102.614 127.398 102.614C128.202 102.614 128.778 102.5 129.126 102.272C129.486 102.044 129.666 101.726 129.666 101.318C129.666 101.018 129.558 100.784 129.342 100.616C129.126 100.448 128.838 100.322 128.478 100.238C128.13 100.154 127.74 100.082 127.308 100.022C126.876 99.95 126.444 99.866 126.012 99.77C125.58 99.662 125.184 99.518 124.824 99.338C124.464 99.146 124.176 98.888 123.96 98.564C123.744 98.228 123.636 97.784 123.636 97.232C123.636 96.656 123.798 96.152 124.122 95.72C124.446 95.288 124.902 94.958 125.49 94.73C126.09 94.49 126.798 94.37 127.614 94.37C128.238 94.37 128.868 94.448 129.504 94.604C130.152 94.748 130.68 94.958 131.088 95.234L130.35 96.602C129.918 96.314 129.468 96.116 129 96.008C128.532 95.9 128.064 95.846 127.596 95.846C126.84 95.846 126.276 95.972 125.904 96.224C125.532 96.464 125.346 96.776 125.346 97.16C125.346 97.484 125.454 97.736 125.67 97.916C125.898 98.084 126.186 98.216 126.534 98.312C126.894 98.408 127.29 98.492 127.722 98.564C128.154 98.624 128.586 98.708 129.018 98.816C129.45 98.912 129.84 99.05 130.188 99.23C130.548 99.41 130.836 99.662 131.052 99.986C131.28 100.31 131.394 100.742 131.394 101.282C131.394 101.858 131.226 102.356 130.89 102.776C130.554 103.196 130.08 103.526 129.468 103.766C128.856 103.994 128.124 104.108 127.272 104.108ZM139.476 104V101.984L139.386 101.606V98.168C139.386 97.436 139.17 96.872 138.738 96.476C138.318 96.068 137.682 95.864 136.83 95.864C136.266 95.864 135.714 95.96 135.174 96.152C134.634 96.332 134.178 96.578 133.806 96.89L133.086 95.594C133.578 95.198 134.166 94.898 134.85 94.694C135.546 94.478 136.272 94.37 137.028 94.37C138.336 94.37 139.344 94.688 140.052 95.324C140.76 95.96 141.114 96.932 141.114 98.24V104H139.476ZM136.344 104.108C135.636 104.108 135.012 103.988 134.472 103.748C133.944 103.508 133.536 103.178 133.248 102.758C132.96 102.326 132.816 101.84 132.816 101.3C132.816 100.784 132.936 100.316 133.176 99.896C133.428 99.476 133.83 99.14 134.382 98.888C134.946 98.636 135.702 98.51 136.65 98.51H139.674V99.752H136.722C135.858 99.752 135.276 99.896 134.976 100.184C134.676 100.472 134.526 100.82 134.526 101.228C134.526 101.696 134.712 102.074 135.084 102.362C135.456 102.638 135.972 102.776 136.632 102.776C137.28 102.776 137.844 102.632 138.324 102.344C138.816 102.056 139.17 101.636 139.386 101.084L139.728 102.272C139.5 102.836 139.098 103.286 138.522 103.622C137.946 103.946 137.22 104.108 136.344 104.108ZM144.312 104V94.46H145.968V97.052L145.806 96.404C146.07 95.744 146.514 95.24 147.138 94.892C147.762 94.544 148.53 94.37 149.442 94.37V96.044C149.37 96.032 149.298 96.026 149.226 96.026C149.166 96.026 149.106 96.026 149.046 96.026C148.122 96.026 147.39 96.302 146.85 96.854C146.31 97.406 146.04 98.204 146.04 99.248V104H144.312ZM151.572 104V94.46H153.228V97.052L153.066 96.404C153.33 95.744 153.774 95.24 154.398 94.892C155.022 94.544 155.79 94.37 156.702 94.37V96.044C156.63 96.032 156.558 96.026 156.486 96.026C156.426 96.026 156.366 96.026 156.306 96.026C155.382 96.026 154.65 96.302 154.11 96.854C153.57 97.406 153.3 98.204 153.3 99.248V104H151.572ZM162.829 104.108C161.869 104.108 161.017 103.898 160.273 103.478C159.529 103.058 158.941 102.482 158.509 101.75C158.077 101.006 157.861 100.166 157.861 99.23C157.861 98.282 158.077 97.442 158.509 96.71C158.941 95.978 159.529 95.408 160.273 95C161.017 94.58 161.869 94.37 162.829 94.37C163.777 94.37 164.623 94.58 165.367 95C166.123 95.408 166.711 95.978 167.131 96.71C167.563 97.43 167.779 98.27 167.779 99.23C167.779 100.178 167.563 101.018 167.131 101.75C166.711 102.482 166.123 103.058 165.367 103.478C164.623 103.898 163.777 104.108 162.829 104.108ZM162.829 102.596C163.441 102.596 163.987 102.458 164.467 102.182C164.959 101.906 165.343 101.516 165.619 101.012C165.895 100.496 166.033 99.902 166.033 99.23C166.033 98.546 165.895 97.958 165.619 97.466C165.343 96.962 164.959 96.572 164.467 96.296C163.987 96.02 163.441 95.882 162.829 95.882C162.217 95.882 161.671 96.02 161.191 96.296C160.711 96.572 160.327 96.962 160.039 97.466C159.751 97.958 159.607 98.546 159.607 99.23C159.607 99.902 159.751 100.496 160.039 101.012C160.327 101.516 160.711 101.906 161.191 102.182C161.671 102.458 162.217 102.596 162.829 102.596ZM170.169 104V90.644H171.897V104H170.169ZM175.197 104V90.644H176.925V104H175.197ZM186.146 104V101.984L186.056 101.606V98.168C186.056 97.436 185.84 96.872 185.408 96.476C184.988 96.068 184.352 95.864 183.5 95.864C182.936 95.864 182.384 95.96 181.844 96.152C181.304 96.332 180.848 96.578 180.476 96.89L179.756 95.594C180.248 95.198 180.836 94.898 181.52 94.694C182.216 94.478 182.942 94.37 183.698 94.37C185.006 94.37 186.014 94.688 186.722 95.324C187.43 95.96 187.784 96.932 187.784 98.24V104H186.146ZM183.014 104.108C182.306 104.108 181.682 103.988 181.142 103.748C180.614 103.508 180.206 103.178 179.918 102.758C179.63 102.326 179.486 101.84 179.486 101.3C179.486 100.784 179.606 100.316 179.846 99.896C180.098 99.476 180.5 99.14 181.052 98.888C181.616 98.636 182.372 98.51 183.32 98.51H186.344V99.752H183.392C182.528 99.752 181.946 99.896 181.646 100.184C181.346 100.472 181.196 100.82 181.196 101.228C181.196 101.696 181.382 102.074 181.754 102.362C182.126 102.638 182.642 102.776 183.302 102.776C183.95 102.776 184.514 102.632 184.994 102.344C185.486 102.056 185.84 101.636 186.056 101.084L186.398 102.272C186.17 102.836 185.768 103.286 185.192 103.622C184.616 103.946 183.89 104.108 183.014 104.108ZM196.23 107.6C195.774 107.6 195.33 107.522 194.898 107.366C194.466 107.222 194.094 107.006 193.782 106.718L194.52 105.422C194.76 105.65 195.024 105.824 195.312 105.944C195.6 106.064 195.906 106.124 196.23 106.124C196.65 106.124 196.998 106.016 197.274 105.8C197.55 105.584 197.808 105.2 198.048 104.648L198.642 103.334L198.822 103.118L202.566 94.46H204.258L199.632 104.954C199.356 105.626 199.044 106.154 198.696 106.538C198.36 106.922 197.988 107.192 197.58 107.348C197.172 107.516 196.722 107.6 196.23 107.6ZM198.498 104.306L194.142 94.46H195.942L199.65 102.956L198.498 104.306ZM222.638 94.37C223.406 94.37 224.084 94.52 224.672 94.82C225.26 95.12 225.716 95.576 226.04 96.188C226.376 96.8 226.544 97.574 226.544 98.51V104H224.816V98.708C224.816 97.784 224.6 97.088 224.168 96.62C223.736 96.152 223.13 95.918 222.35 95.918C221.774 95.918 221.27 96.038 220.838 96.278C220.406 96.518 220.07 96.872 219.83 97.34C219.602 97.808 219.488 98.39 219.488 99.086V104H217.76V98.708C217.76 97.784 217.544 97.088 217.112 96.62C216.692 96.152 216.086 95.918 215.294 95.918C214.73 95.918 214.232 96.038 213.8 96.278C213.368 96.518 213.032 96.872 212.792 97.34C212.552 97.808 212.432 98.39 212.432 99.086V104H210.704V94.46H212.36V96.998L212.09 96.35C212.39 95.726 212.852 95.24 213.476 94.892C214.1 94.544 214.826 94.37 215.654 94.37C216.566 94.37 217.352 94.598 218.012 95.054C218.672 95.498 219.104 96.176 219.308 97.088L218.606 96.8C218.894 96.068 219.398 95.48 220.118 95.036C220.838 94.592 221.678 94.37 222.638 94.37ZM233.972 104.108C232.952 104.108 232.052 103.898 231.272 103.478C230.504 103.058 229.904 102.482 229.472 101.75C229.052 101.018 228.842 100.178 228.842 99.23C228.842 98.282 229.046 97.442 229.454 96.71C229.874 95.978 230.444 95.408 231.164 95C231.896 94.58 232.718 94.37 233.63 94.37C234.554 94.37 235.37 94.574 236.078 94.982C236.786 95.39 237.338 95.966 237.734 96.71C238.142 97.442 238.346 98.3 238.346 99.284C238.346 99.356 238.34 99.44 238.328 99.536C238.328 99.632 238.322 99.722 238.31 99.806H230.192V98.564H237.41L236.708 98.996C236.72 98.384 236.594 97.838 236.33 97.358C236.066 96.878 235.7 96.506 235.232 96.242C234.776 95.966 234.242 95.828 233.63 95.828C233.03 95.828 232.496 95.966 232.028 96.242C231.56 96.506 231.194 96.884 230.93 97.376C230.666 97.856 230.534 98.408 230.534 99.032V99.32C230.534 99.956 230.678 100.526 230.966 101.03C231.266 101.522 231.68 101.906 232.208 102.182C232.736 102.458 233.342 102.596 234.026 102.596C234.59 102.596 235.1 102.5 235.556 102.308C236.024 102.116 236.432 101.828 236.78 101.444L237.734 102.56C237.302 103.064 236.762 103.448 236.114 103.712C235.478 103.976 234.764 104.108 233.972 104.108ZM239.521 107.6C239.125 107.6 238.747 107.552 238.387 107.456C238.015 107.36 237.703 107.216 237.451 107.024L238.009 105.692C238.369 105.992 238.837 106.142 239.413 106.142C239.869 106.142 240.217 105.998 240.457 105.71C240.709 105.434 240.835 105.02 240.835 104.468V94.46H242.563V104.432C242.563 105.404 242.299 106.172 241.771 106.736C241.255 107.312 240.505 107.6 239.521 107.6ZM241.699 92.624C241.363 92.624 241.081 92.516 240.853 92.3C240.637 92.084 240.529 91.82 240.529 91.508C240.529 91.184 240.637 90.914 240.853 90.698C241.081 90.482 241.363 90.374 241.699 90.374C242.035 90.374 242.311 90.482 242.527 90.698C242.755 90.902 242.869 91.16 242.869 91.472C242.869 91.796 242.761 92.072 242.545 92.3C242.329 92.516 242.047 92.624 241.699 92.624ZM249.947 104.108C248.987 104.108 248.135 103.898 247.391 103.478C246.647 103.058 246.059 102.482 245.627 101.75C245.195 101.006 244.979 100.166 244.979 99.23C244.979 98.282 245.195 97.442 245.627 96.71C246.059 95.978 246.647 95.408 247.391 95C248.135 94.58 248.987 94.37 249.947 94.37C250.895 94.37 251.741 94.58 252.485 95C253.241 95.408 253.829 95.978 254.249 96.71C254.681 97.43 254.897 98.27 254.897 99.23C254.897 100.178 254.681 101.018 254.249 101.75C253.829 102.482 253.241 103.058 252.485 103.478C251.741 103.898 250.895 104.108 249.947 104.108ZM249.947 102.596C250.559 102.596 251.105 102.458 251.585 102.182C252.077 101.906 252.461 101.516 252.737 101.012C253.013 100.496 253.151 99.902 253.151 99.23C253.151 98.546 253.013 97.958 252.737 97.466C252.461 96.962 252.077 96.572 251.585 96.296C251.105 96.02 250.559 95.882 249.947 95.882C249.335 95.882 248.789 96.02 248.309 96.296C247.829 96.572 247.445 96.962 247.157 97.466C246.869 97.958 246.725 98.546 246.725 99.23C246.725 99.902 246.869 100.496 247.157 101.012C247.445 101.516 247.829 101.906 248.309 102.182C248.789 102.458 249.335 102.596 249.947 102.596ZM257.286 104V94.46H258.942V97.052L258.78 96.404C259.044 95.744 259.488 95.24 260.112 94.892C260.736 94.544 261.504 94.37 262.416 94.37V96.044C262.344 96.032 262.272 96.026 262.2 96.026C262.14 96.026 262.08 96.026 262.02 96.026C261.096 96.026 260.364 96.302 259.824 96.854C259.284 97.406 259.014 98.204 259.014 99.248V104H257.286ZM269.765 104V101.984L269.675 101.606V98.168C269.675 97.436 269.459 96.872 269.027 96.476C268.607 96.068 267.971 95.864 267.119 95.864C266.555 95.864 266.003 95.96 265.463 96.152C264.923 96.332 264.467 96.578 264.095 96.89L263.375 95.594C263.867 95.198 264.455 94.898 265.139 94.694C265.835 94.478 266.561 94.37 267.317 94.37C268.625 94.37 269.633 94.688 270.341 95.324C271.049 95.96 271.403 96.932 271.403 98.24V104H269.765ZM266.633 104.108C265.925 104.108 265.301 103.988 264.761 103.748C264.233 103.508 263.825 103.178 263.537 102.758C263.249 102.326 263.105 101.84 263.105 101.3C263.105 100.784 263.225 100.316 263.465 99.896C263.717 99.476 264.119 99.14 264.671 98.888C265.235 98.636 265.991 98.51 266.939 98.51H269.963V99.752H267.011C266.147 99.752 265.565 99.896 265.265 100.184C264.965 100.472 264.815 100.82 264.815 101.228C264.815 101.696 265.001 102.074 265.373 102.362C265.745 102.638 266.261 102.776 266.921 102.776C267.569 102.776 268.133 102.632 268.613 102.344C269.105 102.056 269.459 101.636 269.675 101.084L270.017 102.272C269.789 102.836 269.387 103.286 268.811 103.622C268.235 103.946 267.509 104.108 266.633 104.108ZM279.435 104V90.644H281.163V104H279.435ZM290.384 104V101.984L290.294 101.606V98.168C290.294 97.436 290.078 96.872 289.646 96.476C289.226 96.068 288.59 95.864 287.738 95.864C287.174 95.864 286.622 95.96 286.082 96.152C285.542 96.332 285.086 96.578 284.714 96.89L283.994 95.594C284.486 95.198 285.074 94.898 285.758 94.694C286.454 94.478 287.18 94.37 287.936 94.37C289.244 94.37 290.252 94.688 290.96 95.324C291.668 95.96 292.022 96.932 292.022 98.24V104H290.384ZM287.252 104.108C286.544 104.108 285.92 103.988 285.38 103.748C284.852 103.508 284.444 103.178 284.156 102.758C283.868 102.326 283.724 101.84 283.724 101.3C283.724 100.784 283.844 100.316 284.084 99.896C284.336 99.476 284.738 99.14 285.29 98.888C285.854 98.636 286.61 98.51 287.558 98.51H290.582V99.752H287.63C286.766 99.752 286.184 99.896 285.884 100.184C285.584 100.472 285.434 100.82 285.434 101.228C285.434 101.696 285.62 102.074 285.992 102.362C286.364 102.638 286.88 102.776 287.54 102.776C288.188 102.776 288.752 102.632 289.232 102.344C289.724 102.056 290.078 101.636 290.294 101.084L290.636 102.272C290.408 102.836 290.006 103.286 289.43 103.622C288.854 103.946 288.128 104.108 287.252 104.108ZM300.054 104V94.46H301.71V97.052L301.548 96.404C301.812 95.744 302.256 95.24 302.88 94.892C303.504 94.544 304.272 94.37 305.184 94.37V96.044C305.112 96.032 305.04 96.026 304.968 96.026C304.908 96.026 304.848 96.026 304.788 96.026C303.864 96.026 303.132 96.302 302.592 96.854C302.052 97.406 301.782 98.204 301.782 99.248V104H300.054ZM311.474 104.108C310.454 104.108 309.554 103.898 308.774 103.478C308.006 103.058 307.406 102.482 306.974 101.75C306.554 101.018 306.344 100.178 306.344 99.23C306.344 98.282 306.548 97.442 306.956 96.71C307.376 95.978 307.946 95.408 308.666 95C309.398 94.58 310.22 94.37 311.132 94.37C312.056 94.37 312.872 94.574 313.58 94.982C314.288 95.39 314.84 95.966 315.236 96.71C315.644 97.442 315.848 98.3 315.848 99.284C315.848 99.356 315.842 99.44 315.83 99.536C315.83 99.632 315.824 99.722 315.812 99.806H307.694V98.564H314.912L314.21 98.996C314.222 98.384 314.096 97.838 313.832 97.358C313.568 96.878 313.202 96.506 312.734 96.242C312.278 95.966 311.744 95.828 311.132 95.828C310.532 95.828 309.998 95.966 309.53 96.242C309.062 96.506 308.696 96.884 308.432 97.376C308.168 97.856 308.036 98.408 308.036 99.032V99.32C308.036 99.956 308.18 100.526 308.468 101.03C308.768 101.522 309.182 101.906 309.71 102.182C310.238 102.458 310.844 102.596 311.528 102.596C312.092 102.596 312.602 102.5 313.058 102.308C313.526 102.116 313.934 101.828 314.282 101.444L315.236 102.56C314.804 103.064 314.264 103.448 313.616 103.712C312.98 103.976 312.266 104.108 311.474 104.108ZM318.247 104V90.644H319.975V104H318.247ZM329.197 104V101.984L329.107 101.606V98.168C329.107 97.436 328.891 96.872 328.459 96.476C328.039 96.068 327.403 95.864 326.551 95.864C325.987 95.864 325.435 95.96 324.895 96.152C324.355 96.332 323.899 96.578 323.527 96.89L322.807 95.594C323.299 95.198 323.887 94.898 324.571 94.694C325.267 94.478 325.993 94.37 326.749 94.37C328.057 94.37 329.065 94.688 329.773 95.324C330.481 95.96 330.835 96.932 330.835 98.24V104H329.197ZM326.065 104.108C325.357 104.108 324.733 103.988 324.193 103.748C323.665 103.508 323.257 103.178 322.969 102.758C322.681 102.326 322.537 101.84 322.537 101.3C322.537 100.784 322.657 100.316 322.897 99.896C323.149 99.476 323.551 99.14 324.103 98.888C324.667 98.636 325.423 98.51 326.371 98.51H329.395V99.752H326.443C325.579 99.752 324.997 99.896 324.697 100.184C324.397 100.472 324.247 100.82 324.247 101.228C324.247 101.696 324.433 102.074 324.805 102.362C325.177 102.638 325.693 102.776 326.353 102.776C327.001 102.776 327.565 102.632 328.045 102.344C328.537 102.056 328.891 101.636 329.107 101.084L329.449 102.272C329.221 102.836 328.819 103.286 328.243 103.622C327.667 103.946 326.941 104.108 326.065 104.108ZM338.191 104.108C337.219 104.108 336.349 103.898 335.581 103.478C334.825 103.058 334.231 102.482 333.799 101.75C333.367 101.018 333.151 100.178 333.151 99.23C333.151 98.282 333.367 97.442 333.799 96.71C334.231 95.978 334.825 95.408 335.581 95C336.349 94.58 337.219 94.37 338.191 94.37C339.055 94.37 339.823 94.544 340.495 94.892C341.179 95.228 341.707 95.732 342.079 96.404L340.765 97.25C340.453 96.782 340.069 96.44 339.613 96.224C339.169 95.996 338.689 95.882 338.173 95.882C337.549 95.882 336.991 96.02 336.499 96.296C336.007 96.572 335.617 96.962 335.329 97.466C335.041 97.958 334.897 98.546 334.897 99.23C334.897 99.914 335.041 100.508 335.329 101.012C335.617 101.516 336.007 101.906 336.499 102.182C336.991 102.458 337.549 102.596 338.173 102.596C338.689 102.596 339.169 102.488 339.613 102.272C340.069 102.044 340.453 101.696 340.765 101.228L342.079 102.056C341.707 102.716 341.179 103.226 340.495 103.586C339.823 103.934 339.055 104.108 338.191 104.108ZM344.193 104V94.46H345.921V104H344.193ZM345.057 92.624C344.721 92.624 344.439 92.516 344.211 92.3C343.995 92.084 343.887 91.82 343.887 91.508C343.887 91.184 343.995 90.914 344.211 90.698C344.439 90.482 344.721 90.374 345.057 90.374C345.393 90.374 345.669 90.482 345.885 90.698C346.113 90.902 346.227 91.16 346.227 91.472C346.227 91.796 346.119 92.072 345.903 92.3C345.687 92.516 345.405 92.624 345.057 92.624ZM353.306 104.108C352.346 104.108 351.494 103.898 350.75 103.478C350.006 103.058 349.418 102.482 348.986 101.75C348.554 101.006 348.338 100.166 348.338 99.23C348.338 98.282 348.554 97.442 348.986 96.71C349.418 95.978 350.006 95.408 350.75 95C351.494 94.58 352.346 94.37 353.306 94.37C354.254 94.37 355.1 94.58 355.844 95C356.6 95.408 357.188 95.978 357.608 96.71C358.04 97.43 358.256 98.27 358.256 99.23C358.256 100.178 358.04 101.018 357.608 101.75C357.188 102.482 356.6 103.058 355.844 103.478C355.1 103.898 354.254 104.108 353.306 104.108ZM353.306 102.596C353.918 102.596 354.464 102.458 354.944 102.182C355.436 101.906 355.82 101.516 356.096 101.012C356.372 100.496 356.51 99.902 356.51 99.23C356.51 98.546 356.372 97.958 356.096 97.466C355.82 96.962 355.436 96.572 354.944 96.296C354.464 96.02 353.918 95.882 353.306 95.882C352.694 95.882 352.148 96.02 351.668 96.296C351.188 96.572 350.804 96.962 350.516 97.466C350.228 97.958 350.084 98.546 350.084 99.23C350.084 99.902 350.228 100.496 350.516 101.012C350.804 101.516 351.188 101.906 351.668 102.182C352.148 102.458 352.694 102.596 353.306 102.596ZM351.938 93.074L354.386 90.734H356.582L353.558 93.074H351.938ZM365.74 94.37C366.52 94.37 367.204 94.52 367.792 94.82C368.392 95.12 368.86 95.576 369.196 96.188C369.532 96.8 369.7 97.574 369.7 98.51V104H367.972V98.708C367.972 97.784 367.744 97.088 367.288 96.62C366.844 96.152 366.214 95.918 365.398 95.918C364.786 95.918 364.252 96.038 363.796 96.278C363.34 96.518 362.986 96.872 362.734 97.34C362.494 97.808 362.374 98.39 362.374 99.086V104H360.646V94.46H362.302V97.034L362.032 96.35C362.344 95.726 362.824 95.24 363.472 94.892C364.12 94.544 364.876 94.37 365.74 94.37ZM54.796 128.108C53.824 128.108 52.954 127.898 52.186 127.478C51.43 127.058 50.836 126.482 50.404 125.75C49.972 125.018 49.756 124.178 49.756 123.23C49.756 122.282 49.972 121.442 50.404 120.71C50.836 119.978 51.43 119.408 52.186 119C52.954 118.58 53.824 118.37 54.796 118.37C55.66 118.37 56.428 118.544 57.1 118.892C57.784 119.228 58.312 119.732 58.684 120.404L57.37 121.25C57.058 120.782 56.674 120.44 56.218 120.224C55.774 119.996 55.294 119.882 54.778 119.882C54.154 119.882 53.596 120.02 53.104 120.296C52.612 120.572 52.222 120.962 51.934 121.466C51.646 121.958 51.502 122.546 51.502 123.23C51.502 123.914 51.646 124.508 51.934 125.012C52.222 125.516 52.612 125.906 53.104 126.182C53.596 126.458 54.154 126.596 54.778 126.596C55.294 126.596 55.774 126.488 56.218 126.272C56.674 126.044 57.058 125.696 57.37 125.228L58.684 126.056C58.312 126.716 57.784 127.226 57.1 127.586C56.428 127.934 55.66 128.108 54.796 128.108ZM64.8666 128.108C63.9066 128.108 63.0546 127.898 62.3106 127.478C61.5666 127.058 60.9786 126.482 60.5466 125.75C60.1146 125.006 59.8986 124.166 59.8986 123.23C59.8986 122.282 60.1146 121.442 60.5466 120.71C60.9786 119.978 61.5666 119.408 62.3106 119C63.0546 118.58 63.9066 118.37 64.8666 118.37C65.8146 118.37 66.6606 118.58 67.4046 119C68.1606 119.408 68.7486 119.978 69.1686 120.71C69.6006 121.43 69.8166 122.27 69.8166 123.23C69.8166 124.178 69.6006 125.018 69.1686 125.75C68.7486 126.482 68.1606 127.058 67.4046 127.478C66.6606 127.898 65.8146 128.108 64.8666 128.108ZM64.8666 126.596C65.4786 126.596 66.0246 126.458 66.5046 126.182C66.9966 125.906 67.3806 125.516 67.6566 125.012C67.9326 124.496 68.0706 123.902 68.0706 123.23C68.0706 122.546 67.9326 121.958 67.6566 121.466C67.3806 120.962 66.9966 120.572 66.5046 120.296C66.0246 120.02 65.4786 119.882 64.8666 119.882C64.2546 119.882 63.7086 120.02 63.2286 120.296C62.7486 120.572 62.3646 120.962 62.0766 121.466C61.7886 121.958 61.6446 122.546 61.6446 123.23C61.6446 123.902 61.7886 124.496 62.0766 125.012C62.3646 125.516 62.7486 125.906 63.2286 126.182C63.7086 126.458 64.2546 126.596 64.8666 126.596ZM77.3004 118.37C78.0804 118.37 78.7644 118.52 79.3524 118.82C79.9524 119.12 80.4204 119.576 80.7564 120.188C81.0924 120.8 81.2604 121.574 81.2604 122.51V128H79.5324V122.708C79.5324 121.784 79.3044 121.088 78.8484 120.62C78.4044 120.152 77.7744 119.918 76.9584 119.918C76.3464 119.918 75.8124 120.038 75.3564 120.278C74.9004 120.518 74.5464 120.872 74.2944 121.34C74.0544 121.808 73.9344 122.39 73.9344 123.086V128H72.2064V118.46H73.8624V121.034L73.5924 120.35C73.9044 119.726 74.3844 119.24 75.0324 118.892C75.6804 118.544 76.4364 118.37 77.3004 118.37ZM92.5683 128.108C91.6083 128.108 90.8643 127.85 90.3363 127.334C89.8083 126.818 89.5443 126.08 89.5443 125.12V116.372H91.2723V125.048C91.2723 125.564 91.3983 125.96 91.6503 126.236C91.9143 126.512 92.2863 126.65 92.7663 126.65C93.3063 126.65 93.7563 126.5 94.1163 126.2L94.6563 127.442C94.3923 127.67 94.0743 127.838 93.7023 127.946C93.3423 128.054 92.9643 128.108 92.5683 128.108ZM87.9243 119.882V118.46H94.0083V119.882H87.9243ZM100.759 128.108C99.9434 128.108 99.2234 127.958 98.5994 127.658C97.9874 127.358 97.5074 126.902 97.1594 126.29C96.8234 125.666 96.6554 124.886 96.6554 123.95V118.46H98.3834V123.752C98.3834 124.688 98.6054 125.39 99.0494 125.858C99.5054 126.326 100.141 126.56 100.957 126.56C101.557 126.56 102.079 126.44 102.523 126.2C102.967 125.948 103.309 125.588 103.549 125.12C103.789 124.64 103.909 124.064 103.909 123.392V118.46H105.637V128H103.999V125.426L104.269 126.11C103.957 126.746 103.489 127.238 102.865 127.586C102.241 127.934 101.539 128.108 100.759 128.108ZM111.663 128.108C110.871 128.108 110.115 128 109.395 127.784C108.687 127.568 108.129 127.304 107.721 126.992L108.441 125.624C108.849 125.9 109.353 126.134 109.953 126.326C110.553 126.518 111.165 126.614 111.789 126.614C112.593 126.614 113.169 126.5 113.517 126.272C113.877 126.044 114.057 125.726 114.057 125.318C114.057 125.018 113.949 124.784 113.733 124.616C113.517 124.448 113.229 124.322 112.869 124.238C112.521 124.154 112.131 124.082 111.699 124.022C111.267 123.95 110.835 123.866 110.403 123.77C109.971 123.662 109.575 123.518 109.215 123.338C108.855 123.146 108.567 122.888 108.351 122.564C108.135 122.228 108.027 121.784 108.027 121.232C108.027 120.656 108.189 120.152 108.513 119.72C108.837 119.288 109.293 118.958 109.881 118.73C110.481 118.49 111.189 118.37 112.005 118.37C112.629 118.37 113.259 118.448 113.895 118.604C114.543 118.748 115.071 118.958 115.479 119.234L114.741 120.602C114.309 120.314 113.859 120.116 113.391 120.008C112.923 119.9 112.455 119.846 111.987 119.846C111.231 119.846 110.667 119.972 110.295 120.224C109.923 120.464 109.737 120.776 109.737 121.16C109.737 121.484 109.845 121.736 110.061 121.916C110.289 122.084 110.577 122.216 110.925 122.312C111.285 122.408 111.681 122.492 112.113 122.564C112.545 122.624 112.977 122.708 113.409 122.816C113.841 122.912 114.231 123.05 114.579 123.23C114.939 123.41 115.227 123.662 115.443 123.986C115.671 124.31 115.785 124.742 115.785 125.282C115.785 125.858 115.617 126.356 115.281 126.776C114.945 127.196 114.471 127.526 113.859 127.766C113.247 127.994 112.515 128.108 111.663 128.108ZM126.937 128.108C125.965 128.108 125.095 127.898 124.327 127.478C123.571 127.058 122.977 126.482 122.545 125.75C122.113 125.018 121.897 124.178 121.897 123.23C121.897 122.282 122.113 121.442 122.545 120.71C122.977 119.978 123.571 119.408 124.327 119C125.095 118.58 125.965 118.37 126.937 118.37C127.801 118.37 128.569 118.544 129.241 118.892C129.925 119.228 130.453 119.732 130.825 120.404L129.511 121.25C129.199 120.782 128.815 120.44 128.359 120.224C127.915 119.996 127.435 119.882 126.919 119.882C126.295 119.882 125.737 120.02 125.245 120.296C124.753 120.572 124.363 120.962 124.075 121.466C123.787 121.958 123.643 122.546 123.643 123.23C123.643 123.914 123.787 124.508 124.075 125.012C124.363 125.516 124.753 125.906 125.245 126.182C125.737 126.458 126.295 126.596 126.919 126.596C127.435 126.596 127.915 126.488 128.359 126.272C128.815 126.044 129.199 125.696 129.511 125.228L130.825 126.056C130.453 126.716 129.925 127.226 129.241 127.586C128.569 127.934 127.801 128.108 126.937 128.108ZM132.939 128V114.644H134.667V128H132.939ZM137.966 128V118.46H139.694V128H137.966ZM138.83 116.624C138.494 116.624 138.212 116.516 137.984 116.3C137.768 116.084 137.66 115.82 137.66 115.508C137.66 115.184 137.768 114.914 137.984 114.698C138.212 114.482 138.494 114.374 138.83 114.374C139.166 114.374 139.442 114.482 139.658 114.698C139.886 114.902 140 115.16 140 115.472C140 115.796 139.892 116.072 139.676 116.3C139.46 116.516 139.178 116.624 138.83 116.624ZM147.241 128.108C146.221 128.108 145.321 127.898 144.541 127.478C143.773 127.058 143.173 126.482 142.741 125.75C142.321 125.018 142.111 124.178 142.111 123.23C142.111 122.282 142.315 121.442 142.723 120.71C143.143 119.978 143.713 119.408 144.433 119C145.165 118.58 145.987 118.37 146.899 118.37C147.823 118.37 148.639 118.574 149.347 118.982C150.055 119.39 150.607 119.966 151.003 120.71C151.411 121.442 151.615 122.3 151.615 123.284C151.615 123.356 151.609 123.44 151.597 123.536C151.597 123.632 151.591 123.722 151.579 123.806H143.461V122.564H150.679L149.977 122.996C149.989 122.384 149.863 121.838 149.599 121.358C149.335 120.878 148.969 120.506 148.501 120.242C148.045 119.966 147.511 119.828 146.899 119.828C146.299 119.828 145.765 119.966 145.297 120.242C144.829 120.506 144.463 120.884 144.199 121.376C143.935 121.856 143.803 122.408 143.803 123.032V123.32C143.803 123.956 143.947 124.526 144.235 125.03C144.535 125.522 144.949 125.906 145.477 126.182C146.005 126.458 146.611 126.596 147.295 126.596C147.859 126.596 148.369 126.5 148.825 126.308C149.293 126.116 149.701 125.828 150.049 125.444L151.003 126.56C150.571 127.064 150.031 127.448 149.383 127.712C148.747 127.976 148.033 128.108 147.241 128.108ZM159.109 118.37C159.889 118.37 160.573 118.52 161.161 118.82C161.761 119.12 162.229 119.576 162.565 120.188C162.901 120.8 163.069 121.574 163.069 122.51V128H161.341V122.708C161.341 121.784 161.113 121.088 160.657 120.62C160.213 120.152 159.583 119.918 158.767 119.918C158.155 119.918 157.621 120.038 157.165 120.278C156.709 120.518 156.355 120.872 156.103 121.34C155.863 121.808 155.743 122.39 155.743 123.086V128H154.015V118.46H155.671V121.034L155.401 120.35C155.713 119.726 156.193 119.24 156.841 118.892C157.489 118.544 158.245 118.37 159.109 118.37ZM169.543 128.108C168.583 128.108 167.839 127.85 167.311 127.334C166.783 126.818 166.519 126.08 166.519 125.12V116.372H168.247V125.048C168.247 125.564 168.373 125.96 168.625 126.236C168.889 126.512 169.261 126.65 169.741 126.65C170.281 126.65 170.731 126.5 171.091 126.2L171.631 127.442C171.367 127.67 171.049 127.838 170.677 127.946C170.317 128.054 169.939 128.108 169.543 128.108ZM164.899 119.882V118.46H170.983V119.882H164.899ZM177.652 128.108C176.632 128.108 175.732 127.898 174.952 127.478C174.184 127.058 173.584 126.482 173.152 125.75C172.732 125.018 172.522 124.178 172.522 123.23C172.522 122.282 172.726 121.442 173.134 120.71C173.554 119.978 174.124 119.408 174.844 119C175.576 118.58 176.398 118.37 177.31 118.37C178.234 118.37 179.05 118.574 179.758 118.982C180.466 119.39 181.018 119.966 181.414 120.71C181.822 121.442 182.026 122.3 182.026 123.284C182.026 123.356 182.02 123.44 182.008 123.536C182.008 123.632 182.002 123.722 181.99 123.806H173.872V122.564H181.09L180.388 122.996C180.4 122.384 180.274 121.838 180.01 121.358C179.746 120.878 179.38 120.506 178.912 120.242C178.456 119.966 177.922 119.828 177.31 119.828C176.71 119.828 176.176 119.966 175.708 120.242C175.24 120.506 174.874 120.884 174.61 121.376C174.346 121.856 174.214 122.408 174.214 123.032V123.32C174.214 123.956 174.358 124.526 174.646 125.03C174.946 125.522 175.36 125.906 175.888 126.182C176.416 126.458 177.022 126.596 177.706 126.596C178.27 126.596 178.78 126.5 179.236 126.308C179.704 126.116 180.112 125.828 180.46 125.444L181.414 126.56C180.982 127.064 180.442 127.448 179.794 127.712C179.158 127.976 178.444 128.108 177.652 128.108ZM187.161 128.108C186.369 128.108 185.613 128 184.893 127.784C184.185 127.568 183.627 127.304 183.219 126.992L183.939 125.624C184.347 125.9 184.851 126.134 185.451 126.326C186.051 126.518 186.663 126.614 187.287 126.614C188.091 126.614 188.667 126.5 189.015 126.272C189.375 126.044 189.555 125.726 189.555 125.318C189.555 125.018 189.447 124.784 189.231 124.616C189.015 124.448 188.727 124.322 188.367 124.238C188.019 124.154 187.629 124.082 187.197 124.022C186.765 123.95 186.333 123.866 185.901 123.77C185.469 123.662 185.073 123.518 184.713 123.338C184.353 123.146 184.065 122.888 183.849 122.564C183.633 122.228 183.525 121.784 183.525 121.232C183.525 120.656 183.687 120.152 184.011 119.72C184.335 119.288 184.791 118.958 185.379 118.73C185.979 118.49 186.687 118.37 187.503 118.37C188.127 118.37 188.757 118.448 189.393 118.604C190.041 118.748 190.569 118.958 190.977 119.234L190.239 120.602C189.807 120.314 189.357 120.116 188.889 120.008C188.421 119.9 187.953 119.846 187.485 119.846C186.729 119.846 186.165 119.972 185.793 120.224C185.421 120.464 185.235 120.776 185.235 121.16C185.235 121.484 185.343 121.736 185.559 121.916C185.787 122.084 186.075 122.216 186.423 122.312C186.783 122.408 187.179 122.492 187.611 122.564C188.043 122.624 188.475 122.708 188.907 122.816C189.339 122.912 189.729 123.05 190.077 123.23C190.437 123.41 190.725 123.662 190.941 123.986C191.169 124.31 191.283 124.742 191.283 125.282C191.283 125.858 191.115 126.356 190.779 126.776C190.443 127.196 189.969 127.526 189.357 127.766C188.745 127.994 188.013 128.108 187.161 128.108ZM193.857 128.108C193.521 128.108 193.233 127.994 192.993 127.766C192.753 127.526 192.633 127.226 192.633 126.866C192.633 126.506 192.753 126.212 192.993 125.984C193.233 125.756 193.521 125.642 193.857 125.642C194.181 125.642 194.457 125.756 194.685 125.984C194.925 126.212 195.045 126.506 195.045 126.866C195.045 127.226 194.925 127.526 194.685 127.766C194.457 127.994 194.181 128.108 193.857 128.108Z" fill="#4D4D70"/>
<path d="M54.7926 190L49.2486 177.4H51.1926L56.2866 189.028H55.1706L60.3006 177.4H62.1006L56.5746 190H54.7926ZM66.9827 190.108C65.9627 190.108 65.0627 189.898 64.2827 189.478C63.5147 189.058 62.9147 188.482 62.4827 187.75C62.0627 187.018 61.8527 186.178 61.8527 185.23C61.8527 184.282 62.0567 183.442 62.4647 182.71C62.8847 181.978 63.4547 181.408 64.1747 181C64.9067 180.58 65.7287 180.37 66.6407 180.37C67.5647 180.37 68.3807 180.574 69.0887 180.982C69.7967 181.39 70.3487 181.966 70.7447 182.71C71.1527 183.442 71.3567 184.3 71.3567 185.284C71.3567 185.356 71.3507 185.44 71.3387 185.536C71.3387 185.632 71.3327 185.722 71.3207 185.806H63.2027V184.564H70.4207L69.7187 184.996C69.7307 184.384 69.6047 183.838 69.3407 183.358C69.0767 182.878 68.7107 182.506 68.2427 182.242C67.7867 181.966 67.2527 181.828 66.6407 181.828C66.0407 181.828 65.5067 181.966 65.0387 182.242C64.5707 182.506 64.2047 182.884 63.9407 183.376C63.6767 183.856 63.5447 184.408 63.5447 185.032V185.32C63.5447 185.956 63.6887 186.526 63.9767 187.03C64.2767 187.522 64.6907 187.906 65.2187 188.182C65.7467 188.458 66.3527 188.596 67.0367 188.596C67.6007 188.596 68.1107 188.5 68.5667 188.308C69.0347 188.116 69.4427 187.828 69.7907 187.444L70.7447 188.56C70.3127 189.064 69.7727 189.448 69.1247 189.712C68.4887 189.976 67.7747 190.108 66.9827 190.108ZM73.7562 190V180.46H75.4122V183.052L75.2502 182.404C75.5142 181.744 75.9582 181.24 76.5822 180.892C77.2062 180.544 77.9742 180.37 78.8862 180.37V182.044C78.8142 182.032 78.7422 182.026 78.6702 182.026C78.6102 182.026 78.5502 182.026 78.4902 182.026C77.5662 182.026 76.8342 182.302 76.2942 182.854C75.7542 183.406 75.4842 184.204 75.4842 185.248V190H73.7562ZM88.709 190.108C87.917 190.108 87.161 190 86.441 189.784C85.733 189.568 85.175 189.304 84.767 188.992L85.487 187.624C85.895 187.9 86.399 188.134 86.999 188.326C87.599 188.518 88.211 188.614 88.835 188.614C89.639 188.614 90.215 188.5 90.563 188.272C90.923 188.044 91.103 187.726 91.103 187.318C91.103 187.018 90.995 186.784 90.779 186.616C90.563 186.448 90.275 186.322 89.915 186.238C89.567 186.154 89.177 186.082 88.745 186.022C88.313 185.95 87.881 185.866 87.449 185.77C87.017 185.662 86.621 185.518 86.261 185.338C85.901 185.146 85.613 184.888 85.397 184.564C85.181 184.228 85.073 183.784 85.073 183.232C85.073 182.656 85.235 182.152 85.559 181.72C85.883 181.288 86.339 180.958 86.927 180.73C87.527 180.49 88.235 180.37 89.051 180.37C89.675 180.37 90.305 180.448 90.941 180.604C91.589 180.748 92.117 180.958 92.525 181.234L91.787 182.602C91.355 182.314 90.905 182.116 90.437 182.008C89.969 181.9 89.501 181.846 89.033 181.846C88.277 181.846 87.713 181.972 87.341 182.224C86.969 182.464 86.783 182.776 86.783 183.16C86.783 183.484 86.891 183.736 87.107 183.916C87.335 184.084 87.623 184.216 87.971 184.312C88.331 184.408 88.727 184.492 89.159 184.564C89.591 184.624 90.023 184.708 90.455 184.816C90.887 184.912 91.277 185.05 91.625 185.23C91.985 185.41 92.273 185.662 92.489 185.986C92.717 186.31 92.831 186.742 92.831 187.282C92.831 187.858 92.663 188.356 92.327 188.776C91.991 189.196 91.517 189.526 90.905 189.766C90.293 189.994 89.561 190.108 88.709 190.108ZM99.2385 190.108C98.2185 190.108 97.3185 189.898 96.5385 189.478C95.7705 189.058 95.1705 188.482 94.7385 187.75C94.3185 187.018 94.1085 186.178 94.1085 185.23C94.1085 184.282 94.3125 183.442 94.7205 182.71C95.1405 181.978 95.7105 181.408 96.4305 181C97.1625 180.58 97.9845 180.37 98.8965 180.37C99.8205 180.37 100.637 180.574 101.345 180.982C102.053 181.39 102.605 181.966 103.001 182.71C103.409 183.442 103.613 184.3 103.613 185.284C103.613 185.356 103.607 185.44 103.595 185.536C103.595 185.632 103.589 185.722 103.577 185.806H95.4585V184.564H102.677L101.975 184.996C101.987 184.384 101.861 183.838 101.597 183.358C101.333 182.878 100.967 182.506 100.499 182.242C100.043 181.966 99.5085 181.828 98.8965 181.828C98.2965 181.828 97.7625 181.966 97.2945 182.242C96.8265 182.506 96.4605 182.884 96.1965 183.376C95.9325 183.856 95.8005 184.408 95.8005 185.032V185.32C95.8005 185.956 95.9445 186.526 96.2325 187.03C96.5325 187.522 96.9465 187.906 97.4745 188.182C98.0025 188.458 98.6085 188.596 99.2925 188.596C99.8565 188.596 100.367 188.5 100.823 188.308C101.291 188.116 101.699 187.828 102.047 187.444L103.001 188.56C102.569 189.064 102.029 189.448 101.381 189.712C100.745 189.976 100.031 190.108 99.2385 190.108ZM106.012 190V180.46H107.668V183.052L107.506 182.404C107.77 181.744 108.214 181.24 108.838 180.892C109.462 180.544 110.23 180.37 111.142 180.37V182.044C111.07 182.032 110.998 182.026 110.926 182.026C110.866 182.026 110.806 182.026 110.746 182.026C109.822 182.026 109.09 182.302 108.55 182.854C108.01 183.406 107.74 184.204 107.74 185.248V190H106.012ZM116.161 190L111.985 180.46H113.785L117.493 189.1H116.629L120.409 180.46H122.101L117.925 190H116.161ZM123.713 190V180.46H125.441V190H123.713ZM124.577 178.624C124.241 178.624 123.959 178.516 123.731 178.3C123.515 178.084 123.407 177.82 123.407 177.508C123.407 177.184 123.515 176.914 123.731 176.698C123.959 176.482 124.241 176.374 124.577 176.374C124.913 176.374 125.189 176.482 125.405 176.698C125.633 176.902 125.747 177.16 125.747 177.472C125.747 177.796 125.639 178.072 125.423 178.3C125.207 178.516 124.925 178.624 124.577 178.624ZM132.899 190.108C131.927 190.108 131.057 189.898 130.289 189.478C129.533 189.058 128.939 188.482 128.507 187.75C128.075 187.018 127.859 186.178 127.859 185.23C127.859 184.282 128.075 183.442 128.507 182.71C128.939 181.978 129.533 181.408 130.289 181C131.057 180.58 131.927 180.37 132.899 180.37C133.763 180.37 134.531 180.544 135.203 180.892C135.887 181.228 136.415 181.732 136.787 182.404L135.473 183.25C135.161 182.782 134.777 182.44 134.321 182.224C133.877 181.996 133.397 181.882 132.881 181.882C132.257 181.882 131.699 182.02 131.207 182.296C130.715 182.572 130.325 182.962 130.037 183.466C129.749 183.958 129.605 184.546 129.605 185.23C129.605 185.914 129.749 186.508 130.037 187.012C130.325 187.516 130.715 187.906 131.207 188.182C131.699 188.458 132.257 188.596 132.881 188.596C133.397 188.596 133.877 188.488 134.321 188.272C134.777 188.044 135.161 187.696 135.473 187.228L136.787 188.056C136.415 188.716 135.887 189.226 135.203 189.586C134.531 189.934 133.763 190.108 132.899 190.108ZM138.901 190V180.46H140.629V190H138.901ZM139.765 178.624C139.429 178.624 139.147 178.516 138.919 178.3C138.703 178.084 138.595 177.82 138.595 177.508C138.595 177.184 138.703 176.914 138.919 176.698C139.147 176.482 139.429 176.374 139.765 176.374C140.101 176.374 140.377 176.482 140.593 176.698C140.821 176.902 140.935 177.16 140.935 177.472C140.935 177.796 140.827 178.072 140.611 178.3C140.395 178.516 140.113 178.624 139.765 178.624ZM148.014 190.108C147.054 190.108 146.202 189.898 145.458 189.478C144.714 189.058 144.126 188.482 143.694 187.75C143.262 187.006 143.046 186.166 143.046 185.23C143.046 184.282 143.262 183.442 143.694 182.71C144.126 181.978 144.714 181.408 145.458 181C146.202 180.58 147.054 180.37 148.014 180.37C148.962 180.37 149.808 180.58 150.552 181C151.308 181.408 151.896 181.978 152.316 182.71C152.748 183.43 152.964 184.27 152.964 185.23C152.964 186.178 152.748 187.018 152.316 187.75C151.896 188.482 151.308 189.058 150.552 189.478C149.808 189.898 148.962 190.108 148.014 190.108ZM148.014 188.596C148.626 188.596 149.172 188.458 149.652 188.182C150.144 187.906 150.528 187.516 150.804 187.012C151.08 186.496 151.218 185.902 151.218 185.23C151.218 184.546 151.08 183.958 150.804 183.466C150.528 182.962 150.144 182.572 149.652 182.296C149.172 182.02 148.626 181.882 148.014 181.882C147.402 181.882 146.856 182.02 146.376 182.296C145.896 182.572 145.512 182.962 145.224 183.466C144.936 183.958 144.792 184.546 144.792 185.23C144.792 185.902 144.936 186.496 145.224 187.012C145.512 187.516 145.896 187.906 146.376 188.182C146.856 188.458 147.402 188.596 148.014 188.596ZM158.09 190.108C157.298 190.108 156.542 190 155.822 189.784C155.114 189.568 154.556 189.304 154.148 188.992L154.868 187.624C155.276 187.9 155.78 188.134 156.38 188.326C156.98 188.518 157.592 188.614 158.216 188.614C159.02 188.614 159.596 188.5 159.944 188.272C160.304 188.044 160.484 187.726 160.484 187.318C160.484 187.018 160.376 186.784 160.16 186.616C159.944 186.448 159.656 186.322 159.296 186.238C158.948 186.154 158.558 186.082 158.126 186.022C157.694 185.95 157.262 185.866 156.83 185.77C156.398 185.662 156.002 185.518 155.642 185.338C155.282 185.146 154.994 184.888 154.778 184.564C154.562 184.228 154.454 183.784 154.454 183.232C154.454 182.656 154.616 182.152 154.94 181.72C155.264 181.288 155.72 180.958 156.308 180.73C156.908 180.49 157.616 180.37 158.432 180.37C159.056 180.37 159.686 180.448 160.322 180.604C160.97 180.748 161.498 180.958 161.906 181.234L161.168 182.602C160.736 182.314 160.286 182.116 159.818 182.008C159.35 181.9 158.882 181.846 158.414 181.846C157.658 181.846 157.094 181.972 156.722 182.224C156.35 182.464 156.164 182.776 156.164 183.16C156.164 183.484 156.272 183.736 156.488 183.916C156.716 184.084 157.004 184.216 157.352 184.312C157.712 184.408 158.108 184.492 158.54 184.564C158.972 184.624 159.404 184.708 159.836 184.816C160.268 184.912 160.658 185.05 161.006 185.23C161.366 185.41 161.654 185.662 161.87 185.986C162.098 186.31 162.212 186.742 162.212 187.282C162.212 187.858 162.044 188.356 161.708 188.776C161.372 189.196 160.898 189.526 160.286 189.766C159.674 189.994 158.942 190.108 158.09 190.108Z" fill="#000033"/>
<g clip-path="url(#clip1_725_1929)">
<path d="M181.781 183.333L178.205 179.757L179.148 178.815L184.333 184L179.148 189.185L178.205 188.243L181.781 184.667H173.667V183.333H181.781Z" fill="#000033"/>
</g>
<path d="M24 209H424C424 212.866 420.866 216 417 216H31C27.134 216 24 212.866 24 209Z" fill="#100FA8"/>
</g>
<defs>
<filter id="filter0_d_725_1929" x="0" y="0" width="448" height="254" filterUnits="userSpaceOnUse" color-interpolation-filters="sRGB">
<feFlood flood-opacity="0" result="BackgroundImageFix"/>
<feColorMatrix in="SourceAlpha" type="matrix" values="0 0 0 0 0 0 0 0 0 0 0 0 0 0 0 0 0 0 127 0" result="hardAlpha"/>
<feOffset dy="14"/>
<feGaussianBlur stdDeviation="12"/>
<feColorMatrix type="matrix" values="0 0 0 0 0 0 0 0 0 0 0 0 0 0 0.2 0 0 0 0.04 0"/>
<feBlend mode="normal" in2="BackgroundImageFix" result="effect1_dropShadow_725_1929"/>
<feBlend mode="normal" in="SourceGraphic" in2="effect1_dropShadow_725_1929" result="shape"/>
</filter>
<clipPath id="clip0_725_1929">
<rect width="32" height="32" fill="white" transform="translate(49 32)"/>
</clipPath>
<clipPath id="clip1_725_1929">
<rect width="16" height="16" fill="white" transform="translate(171 176)"/>
</clipPath>
</defs>
</svg>
