<svg width="448" height="254" viewBox="0 0 448 254" fill="none" xmlns="http://www.w3.org/2000/svg">
<g filter="url(#filter0_d_725_1926)">
<rect x="24" y="10" width="400" height="206" rx="8" fill="white"/>
<rect x="24.25" y="10.25" width="399.5" height="205.5" rx="7.75" stroke="#CCCCD6" stroke-width="0.5"/>
<g clip-path="url(#clip0_725_1926)">
<path d="M80 43H74.57L68.86 33.49C68.7144 33.2898 68.4997 33.1507 68.2575 33.0996C68.0152 33.0486 67.7627 33.0892 67.5486 33.2136C67.3346 33.338 67.1744 33.5374 67.0989 33.7732C67.0234 34.009 67.038 34.2644 67.14 34.49L72.23 43H57.77L62.86 34.51C62.962 34.2844 62.9766 34.029 62.9011 33.7932C62.8256 33.5574 62.6654 33.358 62.4514 33.2336C62.2373 33.1092 61.9848 33.0686 61.7425 33.1196C61.5003 33.1707 61.2856 33.3098 61.14 33.51L55.43 43H50C49.7348 43 49.4804 43.1053 49.2929 43.2929C49.1054 43.4804 49 43.7347 49 44V48C49 48.2652 49.1054 48.5195 49.2929 48.7071C49.4804 48.8946 49.7348 49 50 49C50.19 49 49.95 47.73 51.76 60.42C51.8619 61.1408 52.2224 61.8 52.7744 62.2747C53.3263 62.7493 54.032 63.0071 54.76 63H60C60.2652 63 60.5196 62.8946 60.7071 62.7071C60.8946 62.5195 61 62.2652 61 62C61 61.7347 60.8946 61.4804 60.7071 61.2929C60.5196 61.1053 60.2652 61 60 61H54.73C54.4873 61.0024 54.2521 60.9164 54.0681 60.7582C53.8841 60.6 53.764 60.3802 53.73 60.14L52.15 49H77.85L76.25 60.14C76.216 60.3802 76.0959 60.6 75.9119 60.7582C75.7279 60.9164 75.4927 61.0024 75.25 61H64C63.7348 61 63.4804 61.1053 63.2929 61.2929C63.1054 61.4804 63 61.7347 63 62C63 62.2652 63.1054 62.5195 63.2929 62.7071C63.4804 62.8946 63.7348 63 64 63H75.27C75.998 63.0071 76.7037 62.7493 77.2556 62.2747C77.8076 61.8 78.1681 61.1408 78.27 60.42L79.87 49C80.0118 49.0186 80.1559 49.0065 80.2927 48.9647C80.4295 48.9228 80.5556 48.8521 80.6628 48.7573C80.7699 48.6625 80.8554 48.5459 80.9136 48.4152C80.9717 48.2846 81.0012 48.143 81 48V44C81 43.7347 80.8946 43.4804 80.7071 43.2929C80.5196 43.1053 80.2652 43 80 43ZM51 47V45H79V47H51Z" fill="#000033"/>
<path d="M65 59C64.7348 59 64.4804 58.8946 64.2929 58.7071C64.1054 58.5196 64 58.2652 64 58V52C64 51.7348 64.1054 51.4804 64.2929 51.2929C64.4804 51.1054 64.7348 51 65 51C65.2652 51 65.5196 51.1054 65.7071 51.2929C65.8946 51.4804 66 51.7348 66 52V58C66 58.2652 65.8946 58.5196 65.7071 58.7071C65.5196 58.8946 65.2652 59 65 59Z" fill="#100FA8"/>
<path d="M59 59C58.7603 59.0031 58.5275 58.92 58.344 58.7658C58.1604 58.6116 58.0384 58.3966 58 58.16L57 52.16C56.979 52.0287 56.9841 51.8945 57.0149 51.7652C57.0458 51.6358 57.1018 51.5138 57.1798 51.4061C57.2578 51.2983 57.3562 51.207 57.4695 51.1374C57.5828 51.0677 57.7087 51.021 57.84 51C57.9713 50.979 58.1055 50.9841 58.2349 51.0149C58.3643 51.0458 58.4863 51.1018 58.594 51.1798C58.7017 51.2578 58.793 51.3562 58.8627 51.4695C58.9323 51.5828 58.979 51.7087 59 51.84L60 57.84C60.0234 57.9841 60.0149 58.1315 59.9753 58.272C59.9356 58.4124 59.8656 58.5425 59.7703 58.653C59.675 58.7636 59.5567 58.8519 59.4236 58.9119C59.2905 58.9718 59.146 59.0019 59 59Z" fill="#100FA8"/>
<path d="M71.0002 59C70.8543 59.0019 70.7097 58.9718 70.5766 58.9119C70.4435 58.8519 70.3252 58.7636 70.2299 58.653C70.1346 58.5425 70.0647 58.4124 70.025 58.272C69.9853 58.1315 69.9768 57.9841 70.0002 57.84L71.0002 51.84C71.0426 51.5748 71.1887 51.3373 71.4062 51.1798C71.6238 51.0223 71.895 50.9576 72.1602 51C72.4254 51.0425 72.6629 51.1885 72.8204 51.4061C72.978 51.6236 73.0426 51.8948 73.0002 52.16L72.0002 58.16C71.9619 58.3967 71.8398 58.6116 71.6563 58.7658C71.4727 58.92 71.2399 59.0031 71.0002 59Z" fill="#100FA8"/>
</g>
<path d="M101.64 46.64H108.38V49.16H101.64V46.64ZM101.88 52.4H109.5V55H98.66V41H109.24V43.6H101.88V52.4ZM111.067 50.62V48.12H116.727V50.62H111.067ZM124.578 55.16C123.418 55.16 122.384 54.9267 121.478 54.46C120.571 53.98 119.858 53.32 119.338 52.48C118.831 51.64 118.578 50.6867 118.578 49.62C118.578 48.54 118.831 47.5867 119.338 46.76C119.858 45.92 120.571 45.2667 121.478 44.8C122.384 44.32 123.418 44.08 124.578 44.08C125.711 44.08 126.698 44.32 127.538 44.8C128.378 45.2667 128.998 45.94 129.398 46.82L126.978 48.12C126.698 47.6133 126.344 47.24 125.918 47C125.504 46.76 125.051 46.64 124.558 46.64C124.024 46.64 123.544 46.76 123.118 47C122.691 47.24 122.351 47.58 122.098 48.02C121.858 48.46 121.738 48.9933 121.738 49.62C121.738 50.2467 121.858 50.78 122.098 51.22C122.351 51.66 122.691 52 123.118 52.24C123.544 52.48 124.024 52.6 124.558 52.6C125.051 52.6 125.504 52.4867 125.918 52.26C126.344 52.02 126.698 51.64 126.978 51.12L129.398 52.44C128.998 53.3067 128.378 53.98 127.538 54.46C126.698 54.9267 125.711 55.16 124.578 55.16ZM136.177 55.16C135.031 55.16 134.011 54.92 133.117 54.44C132.237 53.96 131.537 53.3067 131.017 52.48C130.511 51.64 130.257 50.6867 130.257 49.62C130.257 48.54 130.511 47.5867 131.017 46.76C131.537 45.92 132.237 45.2667 133.117 44.8C134.011 44.32 135.031 44.08 136.177 44.08C137.311 44.08 138.324 44.32 139.217 44.8C140.111 45.2667 140.811 45.9133 141.317 46.74C141.824 47.5667 142.077 48.5267 142.077 49.62C142.077 50.6867 141.824 51.64 141.317 52.48C140.811 53.3067 140.111 53.96 139.217 54.44C138.324 54.92 137.311 55.16 136.177 55.16ZM136.177 52.6C136.697 52.6 137.164 52.48 137.577 52.24C137.991 52 138.317 51.66 138.557 51.22C138.797 50.7667 138.917 50.2333 138.917 49.62C138.917 48.9933 138.797 48.46 138.557 48.02C138.317 47.58 137.991 47.24 137.577 47C137.164 46.76 136.697 46.64 136.177 46.64C135.657 46.64 135.191 46.76 134.777 47C134.364 47.24 134.031 47.58 133.777 48.02C133.537 48.46 133.417 48.9933 133.417 49.62C133.417 50.2333 133.537 50.7667 133.777 51.22C134.031 51.66 134.364 52 134.777 52.24C135.191 52.48 135.657 52.6 136.177 52.6ZM157.943 44.08C158.796 44.08 159.549 44.2533 160.203 44.6C160.869 44.9333 161.389 45.4533 161.763 46.16C162.149 46.8533 162.343 47.7467 162.343 48.84V55H159.223V49.32C159.223 48.4533 159.043 47.8133 158.683 47.4C158.323 46.9867 157.816 46.78 157.163 46.78C156.709 46.78 156.303 46.8867 155.943 47.1C155.583 47.3 155.303 47.6067 155.103 48.02C154.903 48.4333 154.803 48.96 154.803 49.6V55H151.683V49.32C151.683 48.4533 151.503 47.8133 151.143 47.4C150.796 46.9867 150.296 46.78 149.643 46.78C149.189 46.78 148.783 46.8867 148.423 47.1C148.063 47.3 147.783 47.6067 147.583 48.02C147.383 48.4333 147.283 48.96 147.283 49.6V55H144.163V44.24H147.143V47.18L146.583 46.32C146.956 45.5867 147.483 45.0333 148.163 44.66C148.856 44.2733 149.643 44.08 150.523 44.08C151.509 44.08 152.369 44.3333 153.103 44.84C153.849 45.3333 154.343 46.0933 154.583 47.12L153.483 46.82C153.843 45.98 154.416 45.3133 155.203 44.82C156.003 44.3267 156.916 44.08 157.943 44.08ZM178.919 44.08C179.773 44.08 180.526 44.2533 181.179 44.6C181.846 44.9333 182.366 45.4533 182.739 46.16C183.126 46.8533 183.319 47.7467 183.319 48.84V55H180.199V49.32C180.199 48.4533 180.019 47.8133 179.659 47.4C179.299 46.9867 178.793 46.78 178.139 46.78C177.686 46.78 177.279 46.8867 176.919 47.1C176.559 47.3 176.279 47.6067 176.079 48.02C175.879 48.4333 175.779 48.96 175.779 49.6V55H172.659V49.32C172.659 48.4533 172.479 47.8133 172.119 47.4C171.773 46.9867 171.273 46.78 170.619 46.78C170.166 46.78 169.759 46.8867 169.399 47.1C169.039 47.3 168.759 47.6067 168.559 48.02C168.359 48.4333 168.259 48.96 168.259 49.6V55H165.139V44.24H168.119V47.18L167.559 46.32C167.933 45.5867 168.459 45.0333 169.139 44.66C169.833 44.2733 170.619 44.08 171.499 44.08C172.486 44.08 173.346 44.3333 174.079 44.84C174.826 45.3333 175.319 46.0933 175.559 47.12L174.459 46.82C174.819 45.98 175.393 45.3133 176.179 44.82C176.979 44.3267 177.893 44.08 178.919 44.08ZM191.534 55.16C190.307 55.16 189.227 54.92 188.294 54.44C187.374 53.96 186.661 53.3067 186.154 52.48C185.647 51.64 185.394 50.6867 185.394 49.62C185.394 48.54 185.641 47.5867 186.134 46.76C186.641 45.92 187.327 45.2667 188.194 44.8C189.061 44.32 190.041 44.08 191.134 44.08C192.187 44.08 193.134 44.3067 193.974 44.76C194.827 45.2 195.501 45.84 195.994 46.68C196.487 47.5067 196.734 48.5 196.734 49.66C196.734 49.78 196.727 49.92 196.714 50.08C196.701 50.2267 196.687 50.3667 196.674 50.5H187.934V48.68H195.034L193.834 49.22C193.834 48.66 193.721 48.1733 193.494 47.76C193.267 47.3467 192.954 47.0267 192.554 46.8C192.154 46.56 191.687 46.44 191.154 46.44C190.621 46.44 190.147 46.56 189.734 46.8C189.334 47.0267 189.021 47.3533 188.794 47.78C188.567 48.1933 188.454 48.6867 188.454 49.26V49.74C188.454 50.3267 188.581 50.8467 188.834 51.3C189.101 51.74 189.467 52.08 189.934 52.32C190.414 52.5467 190.974 52.66 191.614 52.66C192.187 52.66 192.687 52.5733 193.114 52.4C193.554 52.2267 193.954 51.9667 194.314 51.62L195.974 53.42C195.481 53.98 194.861 54.4133 194.114 54.72C193.367 55.0133 192.507 55.16 191.534 55.16ZM198.811 55V44.24H201.791V47.28L201.371 46.4C201.691 45.64 202.204 45.0667 202.911 44.68C203.618 44.28 204.478 44.08 205.491 44.08V46.96C205.358 46.9467 205.238 46.94 205.131 46.94C205.024 46.9267 204.911 46.92 204.791 46.92C203.938 46.92 203.244 47.1667 202.711 47.66C202.191 48.14 201.931 48.8933 201.931 49.92V55H198.811ZM212.468 55.16C211.308 55.16 210.275 54.9267 209.368 54.46C208.461 53.98 207.748 53.32 207.228 52.48C206.721 51.64 206.468 50.6867 206.468 49.62C206.468 48.54 206.721 47.5867 207.228 46.76C207.748 45.92 208.461 45.2667 209.368 44.8C210.275 44.32 211.308 44.08 212.468 44.08C213.601 44.08 214.588 44.32 215.428 44.8C216.268 45.2667 216.888 45.94 217.288 46.82L214.868 48.12C214.588 47.6133 214.235 47.24 213.808 47C213.395 46.76 212.941 46.64 212.448 46.64C211.915 46.64 211.435 46.76 211.008 47C210.581 47.24 210.241 47.58 209.988 48.02C209.748 48.46 209.628 48.9933 209.628 49.62C209.628 50.2467 209.748 50.78 209.988 51.22C210.241 51.66 210.581 52 211.008 52.24C211.435 52.48 211.915 52.6 212.448 52.6C212.941 52.6 213.395 52.4867 213.808 52.26C214.235 52.02 214.588 51.64 214.868 51.12L217.288 52.44C216.888 53.3067 216.268 53.98 215.428 54.46C214.588 54.9267 213.601 55.16 212.468 55.16ZM224.288 55.16C223.061 55.16 221.981 54.92 221.048 54.44C220.128 53.96 219.414 53.3067 218.908 52.48C218.401 51.64 218.148 50.6867 218.148 49.62C218.148 48.54 218.394 47.5867 218.888 46.76C219.394 45.92 220.081 45.2667 220.948 44.8C221.814 44.32 222.794 44.08 223.888 44.08C224.941 44.08 225.888 44.3067 226.728 44.76C227.581 45.2 228.254 45.84 228.748 46.68C229.241 47.5067 229.488 48.5 229.488 49.66C229.488 49.78 229.481 49.92 229.468 50.08C229.454 50.2267 229.441 50.3667 229.428 50.5H220.688V48.68H227.788L226.588 49.22C226.588 48.66 226.474 48.1733 226.248 47.76C226.021 47.3467 225.708 47.0267 225.308 46.8C224.908 46.56 224.441 46.44 223.908 46.44C223.374 46.44 222.901 46.56 222.488 46.8C222.088 47.0267 221.774 47.3533 221.548 47.78C221.321 48.1933 221.208 48.6867 221.208 49.26V49.74C221.208 50.3267 221.334 50.8467 221.588 51.3C221.854 51.74 222.221 52.08 222.688 52.32C223.168 52.5467 223.728 52.66 224.368 52.66C224.941 52.66 225.441 52.5733 225.868 52.4C226.308 52.2267 226.708 51.9667 227.068 51.62L228.728 53.42C228.234 53.98 227.614 54.4133 226.868 54.72C226.121 55.0133 225.261 55.16 224.288 55.16Z" fill="#000033"/>
<path d="M50.89 104V91.4H56.2C57.544 91.4 58.726 91.664 59.746 92.192C60.778 92.72 61.576 93.458 62.14 94.406C62.716 95.354 63.004 96.452 63.004 97.7C63.004 98.948 62.716 100.046 62.14 100.994C61.576 101.942 60.778 102.68 59.746 103.208C58.726 103.736 57.544 104 56.2 104H50.89ZM52.69 102.434H56.092C57.136 102.434 58.036 102.236 58.792 101.84C59.56 101.444 60.154 100.892 60.574 100.184C60.994 99.464 61.204 98.636 61.204 97.7C61.204 96.752 60.994 95.924 60.574 95.216C60.154 94.508 59.56 93.956 58.792 93.56C58.036 93.164 57.136 92.966 56.092 92.966H52.69V102.434ZM69.7571 104.108C68.7371 104.108 67.8371 103.898 67.0571 103.478C66.2891 103.058 65.6891 102.482 65.2571 101.75C64.8371 101.018 64.6271 100.178 64.6271 99.23C64.6271 98.282 64.8311 97.442 65.2391 96.71C65.6591 95.978 66.2291 95.408 66.9491 95C67.6811 94.58 68.5031 94.37 69.4151 94.37C70.3391 94.37 71.1551 94.574 71.8631 94.982C72.5711 95.39 73.1231 95.966 73.5191 96.71C73.9271 97.442 74.1311 98.3 74.1311 99.284C74.1311 99.356 74.1251 99.44 74.1131 99.536C74.1131 99.632 74.1071 99.722 74.0951 99.806H65.9771V98.564H73.1951L72.4931 98.996C72.5051 98.384 72.3791 97.838 72.1151 97.358C71.8511 96.878 71.4851 96.506 71.0171 96.242C70.5611 95.966 70.0271 95.828 69.4151 95.828C68.8151 95.828 68.2811 95.966 67.8131 96.242C67.3451 96.506 66.9791 96.884 66.7151 97.376C66.4511 97.856 66.3191 98.408 66.3191 99.032V99.32C66.3191 99.956 66.4631 100.526 66.7511 101.03C67.0511 101.522 67.4651 101.906 67.9931 102.182C68.5211 102.458 69.1271 102.596 69.8111 102.596C70.3751 102.596 70.8851 102.5 71.3411 102.308C71.8091 102.116 72.2171 101.828 72.5651 101.444L73.5191 102.56C73.0871 103.064 72.5471 103.448 71.8991 103.712C71.2631 103.976 70.5491 104.108 69.7571 104.108ZM79.2666 104.108C78.4746 104.108 77.7186 104 76.9986 103.784C76.2906 103.568 75.7326 103.304 75.3246 102.992L76.0446 101.624C76.4526 101.9 76.9566 102.134 77.5566 102.326C78.1566 102.518 78.7686 102.614 79.3926 102.614C80.1966 102.614 80.7726 102.5 81.1206 102.272C81.4806 102.044 81.6606 101.726 81.6606 101.318C81.6606 101.018 81.5526 100.784 81.3366 100.616C81.1206 100.448 80.8326 100.322 80.4726 100.238C80.1246 100.154 79.7346 100.082 79.3026 100.022C78.8706 99.95 78.4386 99.866 78.0066 99.77C77.5746 99.662 77.1786 99.518 76.8186 99.338C76.4586 99.146 76.1706 98.888 75.9546 98.564C75.7386 98.228 75.6306 97.784 75.6306 97.232C75.6306 96.656 75.7926 96.152 76.1166 95.72C76.4406 95.288 76.8966 94.958 77.4846 94.73C78.0846 94.49 78.7926 94.37 79.6086 94.37C80.2326 94.37 80.8626 94.448 81.4986 94.604C82.1466 94.748 82.6746 94.958 83.0826 95.234L82.3446 96.602C81.9126 96.314 81.4626 96.116 80.9946 96.008C80.5266 95.9 80.0586 95.846 79.5906 95.846C78.8346 95.846 78.2706 95.972 77.8986 96.224C77.5266 96.464 77.3406 96.776 77.3406 97.16C77.3406 97.484 77.4486 97.736 77.6646 97.916C77.8926 98.084 78.1806 98.216 78.5286 98.312C78.8886 98.408 79.2846 98.492 79.7166 98.564C80.1486 98.624 80.5806 98.708 81.0126 98.816C81.4446 98.912 81.8346 99.05 82.1826 99.23C82.5426 99.41 82.8306 99.662 83.0466 99.986C83.2746 100.31 83.3886 100.742 83.3886 101.282C83.3886 101.858 83.2206 102.356 82.8846 102.776C82.5486 103.196 82.0746 103.526 81.4626 103.766C80.8506 103.994 80.1186 104.108 79.2666 104.108ZM91.4702 104V101.984L91.3802 101.606V98.168C91.3802 97.436 91.1642 96.872 90.7322 96.476C90.3122 96.068 89.6762 95.864 88.8242 95.864C88.2602 95.864 87.7082 95.96 87.1682 96.152C86.6282 96.332 86.1722 96.578 85.8002 96.89L85.0802 95.594C85.5722 95.198 86.1602 94.898 86.8442 94.694C87.5402 94.478 88.2662 94.37 89.0222 94.37C90.3302 94.37 91.3382 94.688 92.0462 95.324C92.7542 95.96 93.1082 96.932 93.1082 98.24V104H91.4702ZM88.3382 104.108C87.6302 104.108 87.0062 103.988 86.4662 103.748C85.9382 103.508 85.5302 103.178 85.2422 102.758C84.9542 102.326 84.8102 101.84 84.8102 101.3C84.8102 100.784 84.9302 100.316 85.1702 99.896C85.4222 99.476 85.8242 99.14 86.3762 98.888C86.9402 98.636 87.6962 98.51 88.6442 98.51H91.6682V99.752H88.7162C87.8522 99.752 87.2702 99.896 86.9702 100.184C86.6702 100.472 86.5202 100.82 86.5202 101.228C86.5202 101.696 86.7062 102.074 87.0782 102.362C87.4502 102.638 87.9662 102.776 88.6262 102.776C89.2742 102.776 89.8382 102.632 90.3182 102.344C90.8102 102.056 91.1642 101.636 91.3802 101.084L91.7222 102.272C91.4942 102.836 91.0922 103.286 90.5162 103.622C89.9402 103.946 89.2142 104.108 88.3382 104.108ZM96.306 104V94.46H97.962V97.052L97.8 96.404C98.064 95.744 98.508 95.24 99.132 94.892C99.756 94.544 100.524 94.37 101.436 94.37V96.044C101.364 96.032 101.292 96.026 101.22 96.026C101.16 96.026 101.1 96.026 101.04 96.026C100.116 96.026 99.384 96.302 98.844 96.854C98.304 97.406 98.034 98.204 98.034 99.248V104H96.306ZM103.566 104V94.46H105.222V97.052L105.06 96.404C105.324 95.744 105.768 95.24 106.392 94.892C107.016 94.544 107.784 94.37 108.696 94.37V96.044C108.624 96.032 108.552 96.026 108.48 96.026C108.42 96.026 108.36 96.026 108.3 96.026C107.376 96.026 106.644 96.302 106.104 96.854C105.564 97.406 105.294 98.204 105.294 99.248V104H103.566ZM114.824 104.108C113.864 104.108 113.012 103.898 112.268 103.478C111.524 103.058 110.936 102.482 110.504 101.75C110.072 101.006 109.856 100.166 109.856 99.23C109.856 98.282 110.072 97.442 110.504 96.71C110.936 95.978 111.524 95.408 112.268 95C113.012 94.58 113.864 94.37 114.824 94.37C115.772 94.37 116.618 94.58 117.362 95C118.118 95.408 118.706 95.978 119.126 96.71C119.558 97.43 119.774 98.27 119.774 99.23C119.774 100.178 119.558 101.018 119.126 101.75C118.706 102.482 118.118 103.058 117.362 103.478C116.618 103.898 115.772 104.108 114.824 104.108ZM114.824 102.596C115.436 102.596 115.982 102.458 116.462 102.182C116.954 101.906 117.338 101.516 117.614 101.012C117.89 100.496 118.028 99.902 118.028 99.23C118.028 98.546 117.89 97.958 117.614 97.466C117.338 96.962 116.954 96.572 116.462 96.296C115.982 96.02 115.436 95.882 114.824 95.882C114.212 95.882 113.666 96.02 113.186 96.296C112.706 96.572 112.322 96.962 112.034 97.466C111.746 97.958 111.602 98.546 111.602 99.23C111.602 99.902 111.746 100.496 112.034 101.012C112.322 101.516 112.706 101.906 113.186 102.182C113.666 102.458 114.212 102.596 114.824 102.596ZM122.163 104V90.644H123.891V104H122.163ZM127.191 104V90.644H128.919V104H127.191ZM138.14 104V101.984L138.05 101.606V98.168C138.05 97.436 137.834 96.872 137.402 96.476C136.982 96.068 136.346 95.864 135.494 95.864C134.93 95.864 134.378 95.96 133.838 96.152C133.298 96.332 132.842 96.578 132.47 96.89L131.75 95.594C132.242 95.198 132.83 94.898 133.514 94.694C134.21 94.478 134.936 94.37 135.692 94.37C137 94.37 138.008 94.688 138.716 95.324C139.424 95.96 139.778 96.932 139.778 98.24V104H138.14ZM135.008 104.108C134.3 104.108 133.676 103.988 133.136 103.748C132.608 103.508 132.2 103.178 131.912 102.758C131.624 102.326 131.48 101.84 131.48 101.3C131.48 100.784 131.6 100.316 131.84 99.896C132.092 99.476 132.494 99.14 133.046 98.888C133.61 98.636 134.366 98.51 135.314 98.51H138.338V99.752H135.386C134.522 99.752 133.94 99.896 133.64 100.184C133.34 100.472 133.19 100.82 133.19 101.228C133.19 101.696 133.376 102.074 133.748 102.362C134.12 102.638 134.636 102.776 135.296 102.776C135.944 102.776 136.508 102.632 136.988 102.344C137.48 102.056 137.834 101.636 138.05 101.084L138.392 102.272C138.164 102.836 137.762 103.286 137.186 103.622C136.61 103.946 135.884 104.108 135.008 104.108ZM152.058 104.108C151.038 104.108 150.138 103.898 149.358 103.478C148.59 103.058 147.99 102.482 147.558 101.75C147.138 101.018 146.928 100.178 146.928 99.23C146.928 98.282 147.132 97.442 147.54 96.71C147.96 95.978 148.53 95.408 149.25 95C149.982 94.58 150.804 94.37 151.716 94.37C152.64 94.37 153.456 94.574 154.164 94.982C154.872 95.39 155.424 95.966 155.82 96.71C156.228 97.442 156.432 98.3 156.432 99.284C156.432 99.356 156.426 99.44 156.414 99.536C156.414 99.632 156.408 99.722 156.396 99.806H148.278V98.564H155.496L154.794 98.996C154.806 98.384 154.68 97.838 154.416 97.358C154.152 96.878 153.786 96.506 153.318 96.242C152.862 95.966 152.328 95.828 151.716 95.828C151.116 95.828 150.582 95.966 150.114 96.242C149.646 96.506 149.28 96.884 149.016 97.376C148.752 97.856 148.62 98.408 148.62 99.032V99.32C148.62 99.956 148.764 100.526 149.052 101.03C149.352 101.522 149.766 101.906 150.294 102.182C150.822 102.458 151.428 102.596 152.112 102.596C152.676 102.596 153.186 102.5 153.642 102.308C154.11 102.116 154.518 101.828 154.866 101.444L155.82 102.56C155.388 103.064 154.848 103.448 154.2 103.712C153.564 103.976 152.85 104.108 152.058 104.108ZM161.567 104.108C160.775 104.108 160.019 104 159.299 103.784C158.591 103.568 158.033 103.304 157.625 102.992L158.345 101.624C158.753 101.9 159.257 102.134 159.857 102.326C160.457 102.518 161.069 102.614 161.693 102.614C162.497 102.614 163.073 102.5 163.421 102.272C163.781 102.044 163.961 101.726 163.961 101.318C163.961 101.018 163.853 100.784 163.637 100.616C163.421 100.448 163.133 100.322 162.773 100.238C162.425 100.154 162.035 100.082 161.603 100.022C161.171 99.95 160.739 99.866 160.307 99.77C159.875 99.662 159.479 99.518 159.119 99.338C158.759 99.146 158.471 98.888 158.255 98.564C158.039 98.228 157.931 97.784 157.931 97.232C157.931 96.656 158.093 96.152 158.417 95.72C158.741 95.288 159.197 94.958 159.785 94.73C160.385 94.49 161.093 94.37 161.909 94.37C162.533 94.37 163.163 94.448 163.799 94.604C164.447 94.748 164.975 94.958 165.383 95.234L164.645 96.602C164.213 96.314 163.763 96.116 163.295 96.008C162.827 95.9 162.359 95.846 161.891 95.846C161.135 95.846 160.571 95.972 160.199 96.224C159.827 96.464 159.641 96.776 159.641 97.16C159.641 97.484 159.749 97.736 159.965 97.916C160.193 98.084 160.481 98.216 160.829 98.312C161.189 98.408 161.585 98.492 162.017 98.564C162.449 98.624 162.881 98.708 163.313 98.816C163.745 98.912 164.135 99.05 164.483 99.23C164.843 99.41 165.131 99.662 165.347 99.986C165.575 100.31 165.689 100.742 165.689 101.282C165.689 101.858 165.521 102.356 165.185 102.776C164.849 103.196 164.375 103.526 163.763 103.766C163.151 103.994 162.419 104.108 161.567 104.108ZM171.125 104.108C170.165 104.108 169.421 103.85 168.893 103.334C168.365 102.818 168.101 102.08 168.101 101.12V92.372H169.829V101.048C169.829 101.564 169.955 101.96 170.207 102.236C170.471 102.512 170.843 102.65 171.323 102.65C171.863 102.65 172.313 102.5 172.673 102.2L173.213 103.442C172.949 103.67 172.631 103.838 172.259 103.946C171.899 104.054 171.521 104.108 171.125 104.108ZM166.481 95.882V94.46H172.565V95.882H166.481ZM175.302 104V94.46H176.958V97.052L176.796 96.404C177.06 95.744 177.504 95.24 178.128 94.892C178.752 94.544 179.52 94.37 180.432 94.37V96.044C180.36 96.032 180.288 96.026 180.216 96.026C180.156 96.026 180.096 96.026 180.036 96.026C179.112 96.026 178.38 96.302 177.84 96.854C177.3 97.406 177.03 98.204 177.03 99.248V104H175.302ZM187.781 104V101.984L187.691 101.606V98.168C187.691 97.436 187.475 96.872 187.043 96.476C186.623 96.068 185.987 95.864 185.135 95.864C184.571 95.864 184.019 95.96 183.479 96.152C182.939 96.332 182.483 96.578 182.111 96.89L181.391 95.594C181.883 95.198 182.471 94.898 183.155 94.694C183.851 94.478 184.577 94.37 185.333 94.37C186.641 94.37 187.649 94.688 188.357 95.324C189.065 95.96 189.419 96.932 189.419 98.24V104H187.781ZM184.649 104.108C183.941 104.108 183.317 103.988 182.777 103.748C182.249 103.508 181.841 103.178 181.553 102.758C181.265 102.326 181.121 101.84 181.121 101.3C181.121 100.784 181.241 100.316 181.481 99.896C181.733 99.476 182.135 99.14 182.687 98.888C183.251 98.636 184.007 98.51 184.955 98.51H187.979V99.752H185.027C184.163 99.752 183.581 99.896 183.281 100.184C182.981 100.472 182.831 100.82 182.831 101.228C182.831 101.696 183.017 102.074 183.389 102.362C183.761 102.638 184.277 102.776 184.937 102.776C185.585 102.776 186.149 102.632 186.629 102.344C187.121 102.056 187.475 101.636 187.691 101.084L188.033 102.272C187.805 102.836 187.403 103.286 186.827 103.622C186.251 103.946 185.525 104.108 184.649 104.108ZM195.893 104.108C194.933 104.108 194.189 103.85 193.661 103.334C193.133 102.818 192.869 102.08 192.869 101.12V92.372H194.597V101.048C194.597 101.564 194.723 101.96 194.975 102.236C195.239 102.512 195.611 102.65 196.091 102.65C196.631 102.65 197.081 102.5 197.441 102.2L197.981 103.442C197.717 103.67 197.399 103.838 197.027 103.946C196.667 104.054 196.289 104.108 195.893 104.108ZM191.249 95.882V94.46H197.333V95.882H191.249ZM204.001 104.108C202.981 104.108 202.081 103.898 201.301 103.478C200.533 103.058 199.933 102.482 199.501 101.75C199.081 101.018 198.871 100.178 198.871 99.23C198.871 98.282 199.075 97.442 199.483 96.71C199.903 95.978 200.473 95.408 201.193 95C201.925 94.58 202.747 94.37 203.659 94.37C204.583 94.37 205.399 94.574 206.107 94.982C206.815 95.39 207.367 95.966 207.763 96.71C208.171 97.442 208.375 98.3 208.375 99.284C208.375 99.356 208.369 99.44 208.357 99.536C208.357 99.632 208.351 99.722 208.339 99.806H200.221V98.564H207.439L206.737 98.996C206.749 98.384 206.623 97.838 206.359 97.358C206.095 96.878 205.729 96.506 205.261 96.242C204.805 95.966 204.271 95.828 203.659 95.828C203.059 95.828 202.525 95.966 202.057 96.242C201.589 96.506 201.223 96.884 200.959 97.376C200.695 97.856 200.563 98.408 200.563 99.032V99.32C200.563 99.956 200.707 100.526 200.995 101.03C201.295 101.522 201.709 101.906 202.237 102.182C202.765 102.458 203.371 102.596 204.055 102.596C204.619 102.596 205.129 102.5 205.585 102.308C206.053 102.116 206.461 101.828 206.809 101.444L207.763 102.56C207.331 103.064 206.791 103.448 206.143 103.712C205.507 103.976 204.793 104.108 204.001 104.108ZM214.951 107.6C214.075 107.6 213.223 107.474 212.395 107.222C211.579 106.982 210.913 106.634 210.397 106.178L211.225 104.846C211.669 105.23 212.215 105.53 212.863 105.746C213.511 105.974 214.189 106.088 214.897 106.088C216.025 106.088 216.853 105.824 217.381 105.296C217.909 104.768 218.173 103.964 218.173 102.884V100.868L218.353 98.978L218.263 97.07V94.46H219.901V102.704C219.901 104.384 219.481 105.62 218.641 106.412C217.801 107.204 216.571 107.6 214.951 107.6ZM214.735 103.604C213.811 103.604 212.983 103.412 212.251 103.028C211.531 102.632 210.955 102.086 210.523 101.39C210.103 100.694 209.893 99.89 209.893 98.978C209.893 98.054 210.103 97.25 210.523 96.566C210.955 95.87 211.531 95.33 212.251 94.946C212.983 94.562 213.811 94.37 214.735 94.37C215.551 94.37 216.295 94.538 216.967 94.874C217.639 95.198 218.173 95.702 218.569 96.386C218.977 97.07 219.181 97.934 219.181 98.978C219.181 100.01 218.977 100.868 218.569 101.552C218.173 102.236 217.639 102.752 216.967 103.1C216.295 103.436 215.551 103.604 214.735 103.604ZM214.933 102.092C215.569 102.092 216.133 101.96 216.625 101.696C217.117 101.432 217.501 101.066 217.777 100.598C218.065 100.13 218.209 99.59 218.209 98.978C218.209 98.366 218.065 97.826 217.777 97.358C217.501 96.89 217.117 96.53 216.625 96.278C216.133 96.014 215.569 95.882 214.933 95.882C214.297 95.882 213.727 96.014 213.223 96.278C212.731 96.53 212.341 96.89 212.053 97.358C211.777 97.826 211.639 98.366 211.639 98.978C211.639 99.59 211.777 100.13 212.053 100.598C212.341 101.066 212.731 101.432 213.223 101.696C213.727 101.96 214.297 102.092 214.933 102.092ZM223.202 104V94.46H224.93V104H223.202ZM224.066 92.624C223.73 92.624 223.448 92.516 223.22 92.3C223.004 92.084 222.896 91.82 222.896 91.508C222.896 91.184 223.004 90.914 223.22 90.698C223.448 90.482 223.73 90.374 224.066 90.374C224.402 90.374 224.678 90.482 224.894 90.698C225.122 90.902 225.236 91.16 225.236 91.472C225.236 91.796 225.128 92.072 224.912 92.3C224.696 92.516 224.414 92.624 224.066 92.624ZM234.152 104V101.984L234.062 101.606V98.168C234.062 97.436 233.846 96.872 233.414 96.476C232.994 96.068 232.358 95.864 231.506 95.864C230.942 95.864 230.39 95.96 229.85 96.152C229.31 96.332 228.854 96.578 228.482 96.89L227.762 95.594C228.254 95.198 228.842 94.898 229.526 94.694C230.222 94.478 230.948 94.37 231.704 94.37C233.012 94.37 234.02 94.688 234.728 95.324C235.436 95.96 235.79 96.932 235.79 98.24V104H234.152ZM231.02 104.108C230.312 104.108 229.688 103.988 229.148 103.748C228.62 103.508 228.212 103.178 227.924 102.758C227.636 102.326 227.492 101.84 227.492 101.3C227.492 100.784 227.612 100.316 227.852 99.896C228.104 99.476 228.506 99.14 229.058 98.888C229.622 98.636 230.378 98.51 231.326 98.51H234.35V99.752H231.398C230.534 99.752 229.952 99.896 229.652 100.184C229.352 100.472 229.202 100.82 229.202 101.228C229.202 101.696 229.388 102.074 229.76 102.362C230.132 102.638 230.648 102.776 231.308 102.776C231.956 102.776 232.52 102.632 233 102.344C233.492 102.056 233.846 101.636 234.062 101.084L234.404 102.272C234.176 102.836 233.774 103.286 233.198 103.622C232.622 103.946 231.896 104.108 231.02 104.108ZM241.724 104.108C240.932 104.108 240.176 104 239.456 103.784C238.748 103.568 238.19 103.304 237.782 102.992L238.502 101.624C238.91 101.9 239.414 102.134 240.014 102.326C240.614 102.518 241.226 102.614 241.85 102.614C242.654 102.614 243.23 102.5 243.578 102.272C243.938 102.044 244.118 101.726 244.118 101.318C244.118 101.018 244.01 100.784 243.794 100.616C243.578 100.448 243.29 100.322 242.93 100.238C242.582 100.154 242.192 100.082 241.76 100.022C241.328 99.95 240.896 99.866 240.464 99.77C240.032 99.662 239.636 99.518 239.276 99.338C238.916 99.146 238.628 98.888 238.412 98.564C238.196 98.228 238.088 97.784 238.088 97.232C238.088 96.656 238.25 96.152 238.574 95.72C238.898 95.288 239.354 94.958 239.942 94.73C240.542 94.49 241.25 94.37 242.066 94.37C242.69 94.37 243.32 94.448 243.956 94.604C244.604 94.748 245.132 94.958 245.54 95.234L244.802 96.602C244.37 96.314 243.92 96.116 243.452 96.008C242.984 95.9 242.516 95.846 242.048 95.846C241.292 95.846 240.728 95.972 240.356 96.224C239.984 96.464 239.798 96.776 239.798 97.16C239.798 97.484 239.906 97.736 240.122 97.916C240.35 98.084 240.638 98.216 240.986 98.312C241.346 98.408 241.742 98.492 242.174 98.564C242.606 98.624 243.038 98.708 243.47 98.816C243.902 98.912 244.292 99.05 244.64 99.23C245 99.41 245.288 99.662 245.504 99.986C245.732 100.31 245.846 100.742 245.846 101.282C245.846 101.858 245.678 102.356 245.342 102.776C245.006 103.196 244.532 103.526 243.92 103.766C243.308 103.994 242.576 104.108 241.724 104.108ZM256.781 104.108C255.857 104.108 255.029 103.904 254.297 103.496C253.577 103.088 253.007 102.518 252.587 101.786C252.167 101.054 251.957 100.202 251.957 99.23C251.957 98.258 252.167 97.412 252.587 96.692C253.007 95.96 253.577 95.39 254.297 94.982C255.029 94.574 255.857 94.37 256.781 94.37C257.609 94.37 258.347 94.55 258.995 94.91C259.643 95.27 260.153 95.81 260.525 96.53C260.909 97.25 261.101 98.15 261.101 99.23C261.101 100.31 260.903 101.21 260.507 101.93C260.123 102.65 259.607 103.196 258.959 103.568C258.311 103.928 257.585 104.108 256.781 104.108ZM256.925 102.596C257.525 102.596 258.065 102.458 258.545 102.182C259.037 101.906 259.421 101.516 259.697 101.012C259.985 100.496 260.129 99.902 260.129 99.23C260.129 98.546 259.985 97.958 259.697 97.466C259.421 96.962 259.037 96.572 258.545 96.296C258.065 96.02 257.525 95.882 256.925 95.882C256.313 95.882 255.767 96.02 255.287 96.296C254.807 96.572 254.423 96.962 254.135 97.466C253.847 97.958 253.703 98.546 253.703 99.23C253.703 99.902 253.847 100.496 254.135 101.012C254.423 101.516 254.807 101.906 255.287 102.182C255.767 102.458 256.313 102.596 256.925 102.596ZM260.111 107.492V101.462L260.291 99.248L260.183 97.034V94.46H261.839V107.492H260.111ZM269.123 104.108C268.307 104.108 267.587 103.958 266.963 103.658C266.351 103.358 265.871 102.902 265.523 102.29C265.187 101.666 265.019 100.886 265.019 99.95V94.46H266.747V99.752C266.747 100.688 266.969 101.39 267.413 101.858C267.869 102.326 268.505 102.56 269.321 102.56C269.921 102.56 270.443 102.44 270.887 102.2C271.331 101.948 271.673 101.588 271.913 101.12C272.153 100.64 272.273 100.064 272.273 99.392V94.46H274.001V104H272.363V101.426L272.633 102.11C272.321 102.746 271.853 103.238 271.229 103.586C270.605 103.934 269.903 104.108 269.123 104.108ZM281.538 104.108C280.518 104.108 279.618 103.898 278.838 103.478C278.07 103.058 277.47 102.482 277.038 101.75C276.618 101.018 276.408 100.178 276.408 99.23C276.408 98.282 276.612 97.442 277.02 96.71C277.44 95.978 278.01 95.408 278.73 95C279.462 94.58 280.284 94.37 281.196 94.37C282.12 94.37 282.936 94.574 283.644 94.982C284.352 95.39 284.904 95.966 285.3 96.71C285.708 97.442 285.912 98.3 285.912 99.284C285.912 99.356 285.906 99.44 285.894 99.536C285.894 99.632 285.888 99.722 285.876 99.806H277.758V98.564H284.976L284.274 98.996C284.286 98.384 284.16 97.838 283.896 97.358C283.632 96.878 283.266 96.506 282.798 96.242C282.342 95.966 281.808 95.828 281.196 95.828C280.596 95.828 280.062 95.966 279.594 96.242C279.126 96.506 278.76 96.884 278.496 97.376C278.232 97.856 278.1 98.408 278.1 99.032V99.32C278.1 99.956 278.244 100.526 278.532 101.03C278.832 101.522 279.246 101.906 279.774 102.182C280.302 102.458 280.908 102.596 281.592 102.596C282.156 102.596 282.666 102.5 283.122 102.308C283.59 102.116 283.998 101.828 284.346 101.444L285.3 102.56C284.868 103.064 284.328 103.448 283.68 103.712C283.044 103.976 282.33 104.108 281.538 104.108ZM293.146 104V94.46H294.874V104H293.146ZM294.01 92.624C293.674 92.624 293.392 92.516 293.164 92.3C292.948 92.084 292.84 91.82 292.84 91.508C292.84 91.184 292.948 90.914 293.164 90.698C293.392 90.482 293.674 90.374 294.01 90.374C294.346 90.374 294.622 90.482 294.838 90.698C295.066 90.902 295.18 91.16 295.18 91.472C295.18 91.796 295.072 92.072 294.856 92.3C294.64 92.516 294.358 92.624 294.01 92.624ZM310.107 94.37C310.875 94.37 311.553 94.52 312.141 94.82C312.729 95.12 313.185 95.576 313.509 96.188C313.845 96.8 314.013 97.574 314.013 98.51V104H312.285V98.708C312.285 97.784 312.069 97.088 311.637 96.62C311.205 96.152 310.599 95.918 309.819 95.918C309.243 95.918 308.739 96.038 308.307 96.278C307.875 96.518 307.539 96.872 307.299 97.34C307.071 97.808 306.957 98.39 306.957 99.086V104H305.229V98.708C305.229 97.784 305.013 97.088 304.581 96.62C304.161 96.152 303.555 95.918 302.763 95.918C302.199 95.918 301.701 96.038 301.269 96.278C300.837 96.518 300.501 96.872 300.261 97.34C300.021 97.808 299.901 98.39 299.901 99.086V104H298.173V94.46H299.829V96.998L299.559 96.35C299.859 95.726 300.321 95.24 300.945 94.892C301.569 94.544 302.295 94.37 303.123 94.37C304.035 94.37 304.821 94.598 305.481 95.054C306.141 95.498 306.573 96.176 306.777 97.088L306.075 96.8C306.363 96.068 306.867 95.48 307.587 95.036C308.307 94.592 309.147 94.37 310.107 94.37ZM322.251 104.108C321.459 104.108 320.733 103.928 320.073 103.568C319.425 103.196 318.903 102.65 318.507 101.93C318.123 101.21 317.931 100.31 317.931 99.23C317.931 98.15 318.117 97.25 318.489 96.53C318.873 95.81 319.389 95.27 320.037 94.91C320.697 94.55 321.435 94.37 322.251 94.37C323.187 94.37 324.015 94.574 324.735 94.982C325.455 95.39 326.025 95.96 326.445 96.692C326.865 97.412 327.075 98.258 327.075 99.23C327.075 100.202 326.865 101.054 326.445 101.786C326.025 102.518 325.455 103.088 324.735 103.496C324.015 103.904 323.187 104.108 322.251 104.108ZM317.193 107.492V94.46H318.849V97.034L318.741 99.248L318.921 101.462V107.492H317.193ZM322.107 102.596C322.719 102.596 323.265 102.458 323.745 102.182C324.237 101.906 324.621 101.516 324.897 101.012C325.185 100.496 325.329 99.902 325.329 99.23C325.329 98.546 325.185 97.958 324.897 97.466C324.621 96.962 324.237 96.572 323.745 96.296C323.265 96.02 322.719 95.882 322.107 95.882C321.507 95.882 320.961 96.02 320.469 96.296C319.989 96.572 319.605 96.962 319.317 97.466C319.041 97.958 318.903 98.546 318.903 99.23C318.903 99.902 319.041 100.496 319.317 101.012C319.605 101.516 319.989 101.906 320.469 102.182C320.961 102.458 321.507 102.596 322.107 102.596ZM333.476 104.108C332.66 104.108 331.94 103.958 331.316 103.658C330.704 103.358 330.224 102.902 329.876 102.29C329.54 101.666 329.372 100.886 329.372 99.95V94.46H331.1V99.752C331.1 100.688 331.322 101.39 331.766 101.858C332.222 102.326 332.858 102.56 333.674 102.56C334.274 102.56 334.796 102.44 335.24 102.2C335.684 101.948 336.026 101.588 336.266 101.12C336.506 100.64 336.626 100.064 336.626 99.392V94.46H338.354V104H336.716V101.426L336.986 102.11C336.674 102.746 336.206 103.238 335.582 103.586C334.958 103.934 334.256 104.108 333.476 104.108ZM341.644 104V90.644H343.372V104H341.644ZM349.407 104.108C348.615 104.108 347.859 104 347.139 103.784C346.431 103.568 345.873 103.304 345.465 102.992L346.185 101.624C346.593 101.9 347.097 102.134 347.697 102.326C348.297 102.518 348.909 102.614 349.533 102.614C350.337 102.614 350.913 102.5 351.261 102.272C351.621 102.044 351.801 101.726 351.801 101.318C351.801 101.018 351.693 100.784 351.477 100.616C351.261 100.448 350.973 100.322 350.613 100.238C350.265 100.154 349.875 100.082 349.443 100.022C349.011 99.95 348.579 99.866 348.147 99.77C347.715 99.662 347.319 99.518 346.959 99.338C346.599 99.146 346.311 98.888 346.095 98.564C345.879 98.228 345.771 97.784 345.771 97.232C345.771 96.656 345.933 96.152 346.257 95.72C346.581 95.288 347.037 94.958 347.625 94.73C348.225 94.49 348.933 94.37 349.749 94.37C350.373 94.37 351.003 94.448 351.639 94.604C352.287 94.748 352.815 94.958 353.223 95.234L352.485 96.602C352.053 96.314 351.603 96.116 351.135 96.008C350.667 95.9 350.199 95.846 349.731 95.846C348.975 95.846 348.411 95.972 348.039 96.224C347.667 96.464 347.481 96.776 347.481 97.16C347.481 97.484 347.589 97.736 347.805 97.916C348.033 98.084 348.321 98.216 348.669 98.312C349.029 98.408 349.425 98.492 349.857 98.564C350.289 98.624 350.721 98.708 351.153 98.816C351.585 98.912 351.975 99.05 352.323 99.23C352.683 99.41 352.971 99.662 353.187 99.986C353.415 100.31 353.529 100.742 353.529 101.282C353.529 101.858 353.361 102.356 353.025 102.776C352.689 103.196 352.215 103.526 351.603 103.766C350.991 103.994 350.259 104.108 349.407 104.108ZM359.937 104.108C358.917 104.108 358.017 103.898 357.237 103.478C356.469 103.058 355.869 102.482 355.437 101.75C355.017 101.018 354.807 100.178 354.807 99.23C354.807 98.282 355.011 97.442 355.419 96.71C355.839 95.978 356.409 95.408 357.129 95C357.861 94.58 358.683 94.37 359.595 94.37C360.519 94.37 361.335 94.574 362.043 94.982C362.751 95.39 363.303 95.966 363.699 96.71C364.107 97.442 364.311 98.3 364.311 99.284C364.311 99.356 364.305 99.44 364.293 99.536C364.293 99.632 364.287 99.722 364.275 99.806H356.157V98.564H363.375L362.673 98.996C362.685 98.384 362.559 97.838 362.295 97.358C362.031 96.878 361.665 96.506 361.197 96.242C360.741 95.966 360.207 95.828 359.595 95.828C358.995 95.828 358.461 95.966 357.993 96.242C357.525 96.506 357.159 96.884 356.895 97.376C356.631 97.856 356.499 98.408 356.499 99.032V99.32C356.499 99.956 356.643 100.526 356.931 101.03C357.231 101.522 357.645 101.906 358.173 102.182C358.701 102.458 359.307 102.596 359.991 102.596C360.555 102.596 361.065 102.5 361.521 102.308C361.989 102.116 362.397 101.828 362.745 101.444L363.699 102.56C363.267 103.064 362.727 103.448 362.079 103.712C361.443 103.976 360.729 104.108 359.937 104.108ZM371.804 94.37C372.584 94.37 373.268 94.52 373.856 94.82C374.456 95.12 374.924 95.576 375.26 96.188C375.596 96.8 375.764 97.574 375.764 98.51V104H374.036V98.708C374.036 97.784 373.808 97.088 373.352 96.62C372.908 96.152 372.278 95.918 371.462 95.918C370.85 95.918 370.316 96.038 369.86 96.278C369.404 96.518 369.05 96.872 368.798 97.34C368.558 97.808 368.438 98.39 368.438 99.086V104H366.71V94.46H368.366V97.034L368.096 96.35C368.408 95.726 368.888 95.24 369.536 94.892C370.184 94.544 370.94 94.37 371.804 94.37ZM53.914 128.108C52.954 128.108 52.21 127.85 51.682 127.334C51.154 126.818 50.89 126.08 50.89 125.12V116.372H52.618V125.048C52.618 125.564 52.744 125.96 52.996 126.236C53.26 126.512 53.632 126.65 54.112 126.65C54.652 126.65 55.102 126.5 55.462 126.2L56.002 127.442C55.738 127.67 55.42 127.838 55.048 127.946C54.688 128.054 54.31 128.108 53.914 128.108ZM49.27 119.882V118.46H55.354V119.882H49.27ZM62.1051 128.108C61.2891 128.108 60.5691 127.958 59.9451 127.658C59.3331 127.358 58.8531 126.902 58.5051 126.29C58.1691 125.666 58.0011 124.886 58.0011 123.95V118.46H59.7291V123.752C59.7291 124.688 59.9511 125.39 60.3951 125.858C60.8511 126.326 61.4871 126.56 62.3031 126.56C62.9031 126.56 63.4251 126.44 63.8691 126.2C64.3131 125.948 64.6551 125.588 64.8951 125.12C65.1351 124.64 65.2551 124.064 65.2551 123.392V118.46H66.9831V128H65.3451V125.426L65.6151 126.11C65.3031 126.746 64.8351 127.238 64.2111 127.586C63.5871 127.934 62.8851 128.108 62.1051 128.108ZM79.3548 128.108C78.3348 128.108 77.4348 127.898 76.6548 127.478C75.8868 127.058 75.2868 126.482 74.8548 125.75C74.4348 125.018 74.2248 124.178 74.2248 123.23C74.2248 122.282 74.4288 121.442 74.8368 120.71C75.2568 119.978 75.8268 119.408 76.5468 119C77.2788 118.58 78.1008 118.37 79.0128 118.37C79.9368 118.37 80.7528 118.574 81.4608 118.982C82.1688 119.39 82.7208 119.966 83.1168 120.71C83.5248 121.442 83.7288 122.3 83.7288 123.284C83.7288 123.356 83.7228 123.44 83.7108 123.536C83.7108 123.632 83.7048 123.722 83.6928 123.806H75.5748V122.564H82.7928L82.0908 122.996C82.1028 122.384 81.9768 121.838 81.7128 121.358C81.4488 120.878 81.0828 120.506 80.6148 120.242C80.1588 119.966 79.6248 119.828 79.0128 119.828C78.4128 119.828 77.8788 119.966 77.4108 120.242C76.9428 120.506 76.5768 120.884 76.3128 121.376C76.0488 121.856 75.9168 122.408 75.9168 123.032V123.32C75.9168 123.956 76.0608 124.526 76.3488 125.03C76.6488 125.522 77.0628 125.906 77.5908 126.182C78.1188 126.458 78.7248 126.596 79.4088 126.596C79.9728 126.596 80.4828 126.5 80.9388 126.308C81.4068 126.116 81.8148 125.828 82.1628 125.444L83.1168 126.56C82.6848 127.064 82.1448 127.448 81.4968 127.712C80.8608 127.976 80.1468 128.108 79.3548 128.108ZM85.692 123.806V122.312H90.534V123.806H85.692ZM97.5284 128.108C96.5564 128.108 95.6864 127.898 94.9184 127.478C94.1624 127.058 93.5684 126.482 93.1364 125.75C92.7044 125.018 92.4884 124.178 92.4884 123.23C92.4884 122.282 92.7044 121.442 93.1364 120.71C93.5684 119.978 94.1624 119.408 94.9184 119C95.6864 118.58 96.5564 118.37 97.5284 118.37C98.3924 118.37 99.1604 118.544 99.8324 118.892C100.516 119.228 101.044 119.732 101.416 120.404L100.102 121.25C99.7904 120.782 99.4064 120.44 98.9504 120.224C98.5064 119.996 98.0264 119.882 97.5104 119.882C96.8864 119.882 96.3284 120.02 95.8364 120.296C95.3444 120.572 94.9544 120.962 94.6664 121.466C94.3784 121.958 94.2344 122.546 94.2344 123.23C94.2344 123.914 94.3784 124.508 94.6664 125.012C94.9544 125.516 95.3444 125.906 95.8364 126.182C96.3284 126.458 96.8864 126.596 97.5104 126.596C98.0264 126.596 98.5064 126.488 98.9504 126.272C99.4064 126.044 99.7904 125.696 100.102 125.228L101.416 126.056C101.044 126.716 100.516 127.226 99.8324 127.586C99.1604 127.934 98.3924 128.108 97.5284 128.108ZM107.599 128.108C106.639 128.108 105.787 127.898 105.043 127.478C104.299 127.058 103.711 126.482 103.279 125.75C102.847 125.006 102.631 124.166 102.631 123.23C102.631 122.282 102.847 121.442 103.279 120.71C103.711 119.978 104.299 119.408 105.043 119C105.787 118.58 106.639 118.37 107.599 118.37C108.547 118.37 109.393 118.58 110.137 119C110.893 119.408 111.481 119.978 111.901 120.71C112.333 121.43 112.549 122.27 112.549 123.23C112.549 124.178 112.333 125.018 111.901 125.75C111.481 126.482 110.893 127.058 110.137 127.478C109.393 127.898 108.547 128.108 107.599 128.108ZM107.599 126.596C108.211 126.596 108.757 126.458 109.237 126.182C109.729 125.906 110.113 125.516 110.389 125.012C110.665 124.496 110.803 123.902 110.803 123.23C110.803 122.546 110.665 121.958 110.389 121.466C110.113 120.962 109.729 120.572 109.237 120.296C108.757 120.02 108.211 119.882 107.599 119.882C106.987 119.882 106.441 120.02 105.961 120.296C105.481 120.572 105.097 120.962 104.809 121.466C104.521 121.958 104.377 122.546 104.377 123.23C104.377 123.902 104.521 124.496 104.809 125.012C105.097 125.516 105.481 125.906 105.961 126.182C106.441 126.458 106.987 126.596 107.599 126.596ZM126.873 118.37C127.641 118.37 128.319 118.52 128.907 118.82C129.495 119.12 129.951 119.576 130.275 120.188C130.611 120.8 130.779 121.574 130.779 122.51V128H129.051V122.708C129.051 121.784 128.835 121.088 128.403 120.62C127.971 120.152 127.365 119.918 126.585 119.918C126.009 119.918 125.505 120.038 125.073 120.278C124.641 120.518 124.305 120.872 124.065 121.34C123.837 121.808 123.723 122.39 123.723 123.086V128H121.995V122.708C121.995 121.784 121.779 121.088 121.347 120.62C120.927 120.152 120.321 119.918 119.529 119.918C118.965 119.918 118.467 120.038 118.035 120.278C117.603 120.518 117.267 120.872 117.027 121.34C116.787 121.808 116.667 122.39 116.667 123.086V128H114.939V118.46H116.595V120.998L116.325 120.35C116.625 119.726 117.087 119.24 117.711 118.892C118.335 118.544 119.061 118.37 119.889 118.37C120.801 118.37 121.587 118.598 122.247 119.054C122.907 119.498 123.339 120.176 123.543 121.088L122.841 120.8C123.129 120.068 123.633 119.48 124.353 119.036C125.073 118.592 125.913 118.37 126.873 118.37ZM145.892 118.37C146.66 118.37 147.338 118.52 147.926 118.82C148.514 119.12 148.97 119.576 149.294 120.188C149.63 120.8 149.798 121.574 149.798 122.51V128H148.07V122.708C148.07 121.784 147.854 121.088 147.422 120.62C146.99 120.152 146.384 119.918 145.604 119.918C145.028 119.918 144.524 120.038 144.092 120.278C143.66 120.518 143.324 120.872 143.084 121.34C142.856 121.808 142.742 122.39 142.742 123.086V128H141.014V122.708C141.014 121.784 140.798 121.088 140.366 120.62C139.946 120.152 139.34 119.918 138.548 119.918C137.984 119.918 137.486 120.038 137.054 120.278C136.622 120.518 136.286 120.872 136.046 121.34C135.806 121.808 135.686 122.39 135.686 123.086V128H133.958V118.46H135.614V120.998L135.344 120.35C135.644 119.726 136.106 119.24 136.73 118.892C137.354 118.544 138.08 118.37 138.908 118.37C139.82 118.37 140.606 118.598 141.266 119.054C141.926 119.498 142.358 120.176 142.562 121.088L141.86 120.8C142.148 120.068 142.652 119.48 143.372 119.036C144.092 118.592 144.932 118.37 145.892 118.37ZM157.226 128.108C156.206 128.108 155.306 127.898 154.526 127.478C153.758 127.058 153.158 126.482 152.726 125.75C152.306 125.018 152.096 124.178 152.096 123.23C152.096 122.282 152.3 121.442 152.708 120.71C153.128 119.978 153.698 119.408 154.418 119C155.15 118.58 155.972 118.37 156.884 118.37C157.808 118.37 158.624 118.574 159.332 118.982C160.04 119.39 160.592 119.966 160.988 120.71C161.396 121.442 161.6 122.3 161.6 123.284C161.6 123.356 161.594 123.44 161.582 123.536C161.582 123.632 161.576 123.722 161.564 123.806H153.446V122.564H160.664L159.962 122.996C159.974 122.384 159.848 121.838 159.584 121.358C159.32 120.878 158.954 120.506 158.486 120.242C158.03 119.966 157.496 119.828 156.884 119.828C156.284 119.828 155.75 119.966 155.282 120.242C154.814 120.506 154.448 120.884 154.184 121.376C153.92 121.856 153.788 122.408 153.788 123.032V123.32C153.788 123.956 153.932 124.526 154.22 125.03C154.52 125.522 154.934 125.906 155.462 126.182C155.99 126.458 156.596 126.596 157.28 126.596C157.844 126.596 158.354 126.5 158.81 126.308C159.278 126.116 159.686 125.828 160.034 125.444L160.988 126.56C160.556 127.064 160.016 127.448 159.368 127.712C158.732 127.976 158.018 128.108 157.226 128.108ZM163.999 128V118.46H165.655V121.052L165.493 120.404C165.757 119.744 166.201 119.24 166.825 118.892C167.449 118.544 168.217 118.37 169.129 118.37V120.044C169.057 120.032 168.985 120.026 168.913 120.026C168.853 120.026 168.793 120.026 168.733 120.026C167.809 120.026 167.077 120.302 166.537 120.854C165.997 121.406 165.727 122.204 165.727 123.248V128H163.999ZM175.329 128.108C174.357 128.108 173.487 127.898 172.719 127.478C171.963 127.058 171.369 126.482 170.937 125.75C170.505 125.018 170.289 124.178 170.289 123.23C170.289 122.282 170.505 121.442 170.937 120.71C171.369 119.978 171.963 119.408 172.719 119C173.487 118.58 174.357 118.37 175.329 118.37C176.193 118.37 176.961 118.544 177.633 118.892C178.317 119.228 178.845 119.732 179.217 120.404L177.903 121.25C177.591 120.782 177.207 120.44 176.751 120.224C176.307 119.996 175.827 119.882 175.311 119.882C174.687 119.882 174.129 120.02 173.637 120.296C173.145 120.572 172.755 120.962 172.467 121.466C172.179 121.958 172.035 122.546 172.035 123.23C172.035 123.914 172.179 124.508 172.467 125.012C172.755 125.516 173.145 125.906 173.637 126.182C174.129 126.458 174.687 126.596 175.311 126.596C175.827 126.596 176.307 126.488 176.751 126.272C177.207 126.044 177.591 125.696 177.903 125.228L179.217 126.056C178.845 126.716 178.317 127.226 177.633 127.586C176.961 127.934 176.193 128.108 175.329 128.108ZM185.562 128.108C184.542 128.108 183.642 127.898 182.862 127.478C182.094 127.058 181.494 126.482 181.062 125.75C180.642 125.018 180.432 124.178 180.432 123.23C180.432 122.282 180.636 121.442 181.044 120.71C181.464 119.978 182.034 119.408 182.754 119C183.486 118.58 184.308 118.37 185.22 118.37C186.144 118.37 186.96 118.574 187.668 118.982C188.376 119.39 188.928 119.966 189.324 120.71C189.732 121.442 189.936 122.3 189.936 123.284C189.936 123.356 189.93 123.44 189.918 123.536C189.918 123.632 189.912 123.722 189.9 123.806H181.782V122.564H189L188.298 122.996C188.31 122.384 188.184 121.838 187.92 121.358C187.656 120.878 187.29 120.506 186.822 120.242C186.366 119.966 185.832 119.828 185.22 119.828C184.62 119.828 184.086 119.966 183.618 120.242C183.15 120.506 182.784 120.884 182.52 121.376C182.256 121.856 182.124 122.408 182.124 123.032V123.32C182.124 123.956 182.268 124.526 182.556 125.03C182.856 125.522 183.27 125.906 183.798 126.182C184.326 126.458 184.932 126.596 185.616 126.596C186.18 126.596 186.69 126.5 187.146 126.308C187.614 126.116 188.022 125.828 188.37 125.444L189.324 126.56C188.892 127.064 188.352 127.448 187.704 127.712C187.068 127.976 186.354 128.108 185.562 128.108ZM192.749 128.108C192.413 128.108 192.125 127.994 191.885 127.766C191.645 127.526 191.525 127.226 191.525 126.866C191.525 126.506 191.645 126.212 191.885 125.984C192.125 125.756 192.413 125.642 192.749 125.642C193.073 125.642 193.349 125.756 193.577 125.984C193.817 126.212 193.937 126.506 193.937 126.866C193.937 127.226 193.817 127.526 193.577 127.766C193.349 127.994 193.073 128.108 192.749 128.108Z" fill="#4D4D70"/>
<path d="M54.7926 190L49.2486 177.4H51.1926L56.2866 189.028H55.1706L60.3006 177.4H62.1006L56.5746 190H54.7926ZM66.9827 190.108C65.9627 190.108 65.0627 189.898 64.2827 189.478C63.5147 189.058 62.9147 188.482 62.4827 187.75C62.0627 187.018 61.8527 186.178 61.8527 185.23C61.8527 184.282 62.0567 183.442 62.4647 182.71C62.8847 181.978 63.4547 181.408 64.1747 181C64.9067 180.58 65.7287 180.37 66.6407 180.37C67.5647 180.37 68.3807 180.574 69.0887 180.982C69.7967 181.39 70.3487 181.966 70.7447 182.71C71.1527 183.442 71.3567 184.3 71.3567 185.284C71.3567 185.356 71.3507 185.44 71.3387 185.536C71.3387 185.632 71.3327 185.722 71.3207 185.806H63.2027V184.564H70.4207L69.7187 184.996C69.7307 184.384 69.6047 183.838 69.3407 183.358C69.0767 182.878 68.7107 182.506 68.2427 182.242C67.7867 181.966 67.2527 181.828 66.6407 181.828C66.0407 181.828 65.5067 181.966 65.0387 182.242C64.5707 182.506 64.2047 182.884 63.9407 183.376C63.6767 183.856 63.5447 184.408 63.5447 185.032V185.32C63.5447 185.956 63.6887 186.526 63.9767 187.03C64.2767 187.522 64.6907 187.906 65.2187 188.182C65.7467 188.458 66.3527 188.596 67.0367 188.596C67.6007 188.596 68.1107 188.5 68.5667 188.308C69.0347 188.116 69.4427 187.828 69.7907 187.444L70.7447 188.56C70.3127 189.064 69.7727 189.448 69.1247 189.712C68.4887 189.976 67.7747 190.108 66.9827 190.108ZM73.7562 190V180.46H75.4122V183.052L75.2502 182.404C75.5142 181.744 75.9582 181.24 76.5822 180.892C77.2062 180.544 77.9742 180.37 78.8862 180.37V182.044C78.8142 182.032 78.7422 182.026 78.6702 182.026C78.6102 182.026 78.5502 182.026 78.4902 182.026C77.5662 182.026 76.8342 182.302 76.2942 182.854C75.7542 183.406 75.4842 184.204 75.4842 185.248V190H73.7562ZM88.709 190.108C87.917 190.108 87.161 190 86.441 189.784C85.733 189.568 85.175 189.304 84.767 188.992L85.487 187.624C85.895 187.9 86.399 188.134 86.999 188.326C87.599 188.518 88.211 188.614 88.835 188.614C89.639 188.614 90.215 188.5 90.563 188.272C90.923 188.044 91.103 187.726 91.103 187.318C91.103 187.018 90.995 186.784 90.779 186.616C90.563 186.448 90.275 186.322 89.915 186.238C89.567 186.154 89.177 186.082 88.745 186.022C88.313 185.95 87.881 185.866 87.449 185.77C87.017 185.662 86.621 185.518 86.261 185.338C85.901 185.146 85.613 184.888 85.397 184.564C85.181 184.228 85.073 183.784 85.073 183.232C85.073 182.656 85.235 182.152 85.559 181.72C85.883 181.288 86.339 180.958 86.927 180.73C87.527 180.49 88.235 180.37 89.051 180.37C89.675 180.37 90.305 180.448 90.941 180.604C91.589 180.748 92.117 180.958 92.525 181.234L91.787 182.602C91.355 182.314 90.905 182.116 90.437 182.008C89.969 181.9 89.501 181.846 89.033 181.846C88.277 181.846 87.713 181.972 87.341 182.224C86.969 182.464 86.783 182.776 86.783 183.16C86.783 183.484 86.891 183.736 87.107 183.916C87.335 184.084 87.623 184.216 87.971 184.312C88.331 184.408 88.727 184.492 89.159 184.564C89.591 184.624 90.023 184.708 90.455 184.816C90.887 184.912 91.277 185.05 91.625 185.23C91.985 185.41 92.273 185.662 92.489 185.986C92.717 186.31 92.831 186.742 92.831 187.282C92.831 187.858 92.663 188.356 92.327 188.776C91.991 189.196 91.517 189.526 90.905 189.766C90.293 189.994 89.561 190.108 88.709 190.108ZM99.2385 190.108C98.2185 190.108 97.3185 189.898 96.5385 189.478C95.7705 189.058 95.1705 188.482 94.7385 187.75C94.3185 187.018 94.1085 186.178 94.1085 185.23C94.1085 184.282 94.3125 183.442 94.7205 182.71C95.1405 181.978 95.7105 181.408 96.4305 181C97.1625 180.58 97.9845 180.37 98.8965 180.37C99.8205 180.37 100.637 180.574 101.345 180.982C102.053 181.39 102.605 181.966 103.001 182.71C103.409 183.442 103.613 184.3 103.613 185.284C103.613 185.356 103.607 185.44 103.595 185.536C103.595 185.632 103.589 185.722 103.577 185.806H95.4585V184.564H102.677L101.975 184.996C101.987 184.384 101.861 183.838 101.597 183.358C101.333 182.878 100.967 182.506 100.499 182.242C100.043 181.966 99.5085 181.828 98.8965 181.828C98.2965 181.828 97.7625 181.966 97.2945 182.242C96.8265 182.506 96.4605 182.884 96.1965 183.376C95.9325 183.856 95.8005 184.408 95.8005 185.032V185.32C95.8005 185.956 95.9445 186.526 96.2325 187.03C96.5325 187.522 96.9465 187.906 97.4745 188.182C98.0025 188.458 98.6085 188.596 99.2925 188.596C99.8565 188.596 100.367 188.5 100.823 188.308C101.291 188.116 101.699 187.828 102.047 187.444L103.001 188.56C102.569 189.064 102.029 189.448 101.381 189.712C100.745 189.976 100.031 190.108 99.2385 190.108ZM106.012 190V180.46H107.668V183.052L107.506 182.404C107.77 181.744 108.214 181.24 108.838 180.892C109.462 180.544 110.23 180.37 111.142 180.37V182.044C111.07 182.032 110.998 182.026 110.926 182.026C110.866 182.026 110.806 182.026 110.746 182.026C109.822 182.026 109.09 182.302 108.55 182.854C108.01 183.406 107.74 184.204 107.74 185.248V190H106.012ZM116.161 190L111.985 180.46H113.785L117.493 189.1H116.629L120.409 180.46H122.101L117.925 190H116.161ZM123.713 190V180.46H125.441V190H123.713ZM124.577 178.624C124.241 178.624 123.959 178.516 123.731 178.3C123.515 178.084 123.407 177.82 123.407 177.508C123.407 177.184 123.515 176.914 123.731 176.698C123.959 176.482 124.241 176.374 124.577 176.374C124.913 176.374 125.189 176.482 125.405 176.698C125.633 176.902 125.747 177.16 125.747 177.472C125.747 177.796 125.639 178.072 125.423 178.3C125.207 178.516 124.925 178.624 124.577 178.624ZM132.899 190.108C131.927 190.108 131.057 189.898 130.289 189.478C129.533 189.058 128.939 188.482 128.507 187.75C128.075 187.018 127.859 186.178 127.859 185.23C127.859 184.282 128.075 183.442 128.507 182.71C128.939 181.978 129.533 181.408 130.289 181C131.057 180.58 131.927 180.37 132.899 180.37C133.763 180.37 134.531 180.544 135.203 180.892C135.887 181.228 136.415 181.732 136.787 182.404L135.473 183.25C135.161 182.782 134.777 182.44 134.321 182.224C133.877 181.996 133.397 181.882 132.881 181.882C132.257 181.882 131.699 182.02 131.207 182.296C130.715 182.572 130.325 182.962 130.037 183.466C129.749 183.958 129.605 184.546 129.605 185.23C129.605 185.914 129.749 186.508 130.037 187.012C130.325 187.516 130.715 187.906 131.207 188.182C131.699 188.458 132.257 188.596 132.881 188.596C133.397 188.596 133.877 188.488 134.321 188.272C134.777 188.044 135.161 187.696 135.473 187.228L136.787 188.056C136.415 188.716 135.887 189.226 135.203 189.586C134.531 189.934 133.763 190.108 132.899 190.108ZM138.901 190V180.46H140.629V190H138.901ZM139.765 178.624C139.429 178.624 139.147 178.516 138.919 178.3C138.703 178.084 138.595 177.82 138.595 177.508C138.595 177.184 138.703 176.914 138.919 176.698C139.147 176.482 139.429 176.374 139.765 176.374C140.101 176.374 140.377 176.482 140.593 176.698C140.821 176.902 140.935 177.16 140.935 177.472C140.935 177.796 140.827 178.072 140.611 178.3C140.395 178.516 140.113 178.624 139.765 178.624ZM148.014 190.108C147.054 190.108 146.202 189.898 145.458 189.478C144.714 189.058 144.126 188.482 143.694 187.75C143.262 187.006 143.046 186.166 143.046 185.23C143.046 184.282 143.262 183.442 143.694 182.71C144.126 181.978 144.714 181.408 145.458 181C146.202 180.58 147.054 180.37 148.014 180.37C148.962 180.37 149.808 180.58 150.552 181C151.308 181.408 151.896 181.978 152.316 182.71C152.748 183.43 152.964 184.27 152.964 185.23C152.964 186.178 152.748 187.018 152.316 187.75C151.896 188.482 151.308 189.058 150.552 189.478C149.808 189.898 148.962 190.108 148.014 190.108ZM148.014 188.596C148.626 188.596 149.172 188.458 149.652 188.182C150.144 187.906 150.528 187.516 150.804 187.012C151.08 186.496 151.218 185.902 151.218 185.23C151.218 184.546 151.08 183.958 150.804 183.466C150.528 182.962 150.144 182.572 149.652 182.296C149.172 182.02 148.626 181.882 148.014 181.882C147.402 181.882 146.856 182.02 146.376 182.296C145.896 182.572 145.512 182.962 145.224 183.466C144.936 183.958 144.792 184.546 144.792 185.23C144.792 185.902 144.936 186.496 145.224 187.012C145.512 187.516 145.896 187.906 146.376 188.182C146.856 188.458 147.402 188.596 148.014 188.596ZM158.09 190.108C157.298 190.108 156.542 190 155.822 189.784C155.114 189.568 154.556 189.304 154.148 188.992L154.868 187.624C155.276 187.9 155.78 188.134 156.38 188.326C156.98 188.518 157.592 188.614 158.216 188.614C159.02 188.614 159.596 188.5 159.944 188.272C160.304 188.044 160.484 187.726 160.484 187.318C160.484 187.018 160.376 186.784 160.16 186.616C159.944 186.448 159.656 186.322 159.296 186.238C158.948 186.154 158.558 186.082 158.126 186.022C157.694 185.95 157.262 185.866 156.83 185.77C156.398 185.662 156.002 185.518 155.642 185.338C155.282 185.146 154.994 184.888 154.778 184.564C154.562 184.228 154.454 183.784 154.454 183.232C154.454 182.656 154.616 182.152 154.94 181.72C155.264 181.288 155.72 180.958 156.308 180.73C156.908 180.49 157.616 180.37 158.432 180.37C159.056 180.37 159.686 180.448 160.322 180.604C160.97 180.748 161.498 180.958 161.906 181.234L161.168 182.602C160.736 182.314 160.286 182.116 159.818 182.008C159.35 181.9 158.882 181.846 158.414 181.846C157.658 181.846 157.094 181.972 156.722 182.224C156.35 182.464 156.164 182.776 156.164 183.16C156.164 183.484 156.272 183.736 156.488 183.916C156.716 184.084 157.004 184.216 157.352 184.312C157.712 184.408 158.108 184.492 158.54 184.564C158.972 184.624 159.404 184.708 159.836 184.816C160.268 184.912 160.658 185.05 161.006 185.23C161.366 185.41 161.654 185.662 161.87 185.986C162.098 186.31 162.212 186.742 162.212 187.282C162.212 187.858 162.044 188.356 161.708 188.776C161.372 189.196 160.898 189.526 160.286 189.766C159.674 189.994 158.942 190.108 158.09 190.108Z" fill="#000033"/>
<g clip-path="url(#clip1_725_1926)">
<path d="M181.781 183.333L178.205 179.757L179.148 178.815L184.333 184L179.148 189.185L178.205 188.243L181.781 184.667H173.667V183.333H181.781Z" fill="#000033"/>
</g>
<path d="M24 209H424C424 212.866 420.866 216 417 216H31C27.134 216 24 212.866 24 209Z" fill="#100FA8"/>
</g>
<defs>
<filter id="filter0_d_725_1926" x="0" y="0" width="448" height="254" filterUnits="userSpaceOnUse" color-interpolation-filters="sRGB">
<feFlood flood-opacity="0" result="BackgroundImageFix"/>
<feColorMatrix in="SourceAlpha" type="matrix" values="0 0 0 0 0 0 0 0 0 0 0 0 0 0 0 0 0 0 127 0" result="hardAlpha"/>
<feOffset dy="14"/>
<feGaussianBlur stdDeviation="12"/>
<feColorMatrix type="matrix" values="0 0 0 0 0 0 0 0 0 0 0 0 0 0 0.2 0 0 0 0.04 0"/>
<feBlend mode="normal" in2="BackgroundImageFix" result="effect1_dropShadow_725_1926"/>
<feBlend mode="normal" in="SourceGraphic" in2="effect1_dropShadow_725_1926" result="shape"/>
</filter>
<clipPath id="clip0_725_1926">
<rect width="32" height="32" fill="white" transform="translate(49 32)"/>
</clipPath>
<clipPath id="clip1_725_1926">
<rect width="16" height="16" fill="white" transform="translate(171 176)"/>
</clipPath>
</defs>
</svg>
