<svg width="448" height="254" viewBox="0 0 448 254" fill="none" xmlns="http://www.w3.org/2000/svg">
<g filter="url(#filter0_d_725_1927)">
<rect x="24" y="10" width="400" height="206" rx="8" fill="white"/>
<rect x="24.25" y="10.25" width="399.5" height="205.5" rx="7.75" stroke="#CCCCD6" stroke-width="0.5"/>
<g clip-path="url(#clip0_725_1927)">
<path d="M76.7099 58.2999L73.4499 54.9999C74.8867 53.3035 75.7757 51.2116 75.9999 48.9999H78.9999C79.2651 48.9999 79.5195 48.8945 79.707 48.707C79.8945 48.5195 79.9999 48.2651 79.9999 47.9999C79.9999 47.7347 79.8945 47.4803 79.707 47.2928C79.5195 47.1052 79.2651 46.9999 78.9999 46.9999H75.9999C75.79 44.7937 74.9186 42.7024 73.4999 40.9999L76.7099 37.6999C77.3484 38.0057 78.0745 38.0758 78.7597 37.8978C79.4449 37.7199 80.0452 37.3053 80.4542 36.7275C80.8633 36.1497 81.0548 35.4458 80.9949 34.7404C80.935 34.0349 80.6276 33.3734 80.127 32.8728C79.6264 32.3722 78.9648 32.0648 78.2594 32.0049C77.554 31.945 76.8501 32.1365 76.2723 32.5456C75.6945 32.9546 75.2799 33.5548 75.102 34.2401C74.924 34.9253 74.9941 35.6514 75.2999 36.2899L71.9999 39.5499C70.2974 38.1312 68.2061 37.2598 65.9999 37.0499V33.9999C65.9999 33.7347 65.8945 33.4803 65.707 33.2928C65.5195 33.1052 65.2651 32.9999 64.9999 32.9999C64.7347 32.9999 64.4803 33.1052 64.2928 33.2928C64.1052 33.4803 63.9999 33.7347 63.9999 33.9999V37.0499C61.7937 37.2598 59.7024 38.1312 57.9999 39.5499L54.6999 36.2899C55.0057 35.6514 55.0758 34.9253 54.8978 34.2401C54.7199 33.5548 54.3053 32.9546 53.7275 32.5456C53.1497 32.1365 52.4458 31.945 51.7404 32.0049C51.0349 32.0648 50.3734 32.3722 49.8728 32.8728C49.3722 33.3734 49.0648 34.0349 49.0049 34.7404C48.945 35.4458 49.1365 36.1497 49.5456 36.7275C49.9546 37.3053 50.5548 37.7199 51.2401 37.8978C51.9253 38.0758 52.6514 38.0057 53.2899 37.6999L56.5499 40.9999C55.1312 42.7024 54.2598 44.7937 54.0499 46.9999H50.9999C50.7347 46.9999 50.4803 47.1052 50.2928 47.2928C50.1052 47.4803 49.9999 47.7347 49.9999 47.9999C49.9999 48.2651 50.1052 48.5195 50.2928 48.707C50.4803 48.8945 50.7347 48.9999 50.9999 48.9999H54.0599C54.2567 51.2057 55.1219 53.2989 56.5399 54.9999L53.2899 58.2999C52.6514 57.9941 51.9253 57.924 51.2401 58.102C50.5548 58.2799 49.9546 58.6945 49.5456 59.2723C49.1365 59.8501 48.945 60.554 49.0049 61.2594C49.0648 61.9648 49.3722 62.6264 49.8728 63.127C50.3734 63.6276 51.0349 63.935 51.7404 63.9949C52.4458 64.0548 53.1497 63.8633 53.7275 63.4542C54.3053 63.0452 54.7199 62.4449 54.8978 61.7597C55.0758 61.0745 55.0057 60.3484 54.6999 59.7099L57.9999 56.4399C58.1499 56.5599 58.2799 56.6899 58.4299 56.7999C58.5349 56.8787 58.6545 56.936 58.7817 56.9686C58.9089 57.0012 59.0413 57.0084 59.1713 56.9898C59.3013 56.9713 59.4264 56.9273 59.5394 56.8604C59.6524 56.7935 59.7511 56.7049 59.8299 56.5999C59.9087 56.4948 59.966 56.3753 59.9986 56.2481C60.0312 56.1209 60.0384 55.9885 60.0198 55.8585C60.0013 55.7285 59.9573 55.6034 59.8904 55.4904C59.8235 55.3774 59.7349 55.2787 59.6299 55.1999C58.502 54.3691 57.5856 53.2843 56.9549 52.0335C56.3242 50.7826 55.9971 49.4008 55.9999 47.9999C56.0003 46.1427 56.5752 44.3311 57.6458 42.8135C58.7164 41.296 60.2303 40.1468 61.9798 39.5236C63.7293 38.9004 65.6288 38.8336 67.4177 39.3326C69.2066 39.8315 70.7974 40.8716 71.9718 42.3103C73.1463 43.749 73.8469 45.5158 73.9776 47.3684C74.1083 49.221 73.6626 51.0687 72.7018 52.658C71.7409 54.2473 70.3119 55.5005 68.6108 56.2456C66.9096 56.9907 65.0196 57.1913 63.1999 56.8199C63.0686 56.7936 62.9334 56.7935 62.802 56.8195C62.6706 56.8455 62.5456 56.8971 62.4342 56.9714C62.3228 57.0456 62.2271 57.1412 62.1525 57.2524C62.078 57.3637 62.0262 57.4886 61.9999 57.6199C61.9736 57.7512 61.9735 57.8864 61.9995 58.0178C62.0255 58.1492 62.0771 58.2741 62.1514 58.3856C62.2256 58.497 62.3212 58.5927 62.4324 58.6672C62.5437 58.7418 62.6686 58.7936 62.7999 58.8199C63.1999 58.8999 63.5999 58.9499 63.9999 58.9899V61.9999C63.9999 62.2651 64.1052 62.5195 64.2928 62.707C64.4803 62.8945 64.7347 62.9999 64.9999 62.9999C65.2651 62.9999 65.5195 62.8945 65.707 62.707C65.8945 62.5195 65.9999 62.2651 65.9999 61.9999V58.9999C68.2061 58.79 70.2974 57.9186 71.9999 56.4999L75.2699 59.7599C74.9641 60.3984 74.894 61.1245 75.072 61.8097C75.2499 62.4949 75.6645 63.0952 76.2423 63.5042C76.8201 63.9133 77.524 64.1048 78.2294 64.0449C78.9348 63.985 79.5963 63.6776 80.097 63.177C80.5976 62.6764 80.905 62.0148 80.9649 61.3094C81.0248 60.604 80.8333 59.9001 80.4242 59.3223C80.0152 58.7445 79.4149 58.3299 78.7297 58.152C78.0445 57.974 77.3184 58.0441 76.6799 58.3499L76.7099 58.2999ZM51.9999 61.9999C51.8354 62.0006 51.6734 61.9607 51.528 61.8838C51.3826 61.8069 51.2585 61.6953 51.1666 61.5589C51.0746 61.4226 51.0177 61.2656 51.0009 61.1021C50.9841 60.9385 51.0079 60.7733 51.0702 60.6211C51.1325 60.4689 51.2314 60.3344 51.3581 60.2295C51.4848 60.1247 51.6354 60.0527 51.7966 60.0199C51.9577 59.9872 52.1245 59.9947 52.282 60.0418C52.4396 60.0889 52.5831 60.1741 52.6999 60.2899C52.8403 60.4292 52.9363 60.6069 52.9757 60.8008C53.0151 60.9946 52.9961 61.1957 52.9212 61.3787C52.8462 61.5618 52.7187 61.7185 52.5547 61.829C52.3907 61.9396 52.1977 61.9991 51.9999 61.9999ZM77.9999 33.9999C78.1643 33.9992 78.3264 34.0391 78.4718 34.116C78.6171 34.1929 78.7413 34.3045 78.8332 34.4408C78.9252 34.5772 78.982 34.7341 78.9988 34.8977C79.0156 35.0613 78.9918 35.2265 78.9295 35.3787C78.8672 35.5309 78.7684 35.6654 78.6417 35.7703C78.515 35.8751 78.3644 35.9471 78.2032 35.9799C78.0421 36.0126 77.8753 36.0051 77.7177 35.958C77.5602 35.9109 77.4167 35.8257 77.2999 35.7099C77.1595 35.5706 77.0635 35.3928 77.0241 35.199C76.9847 35.0052 77.0037 34.8041 77.0786 34.621C77.1535 34.438 77.2811 34.2813 77.445 34.1707C77.609 34.0602 77.8021 34.0007 77.9999 33.9999ZM50.9999 34.9999C50.9992 34.8354 51.0391 34.6734 51.116 34.528C51.1929 34.3826 51.3045 34.2585 51.4408 34.1666C51.5772 34.0746 51.7341 34.0177 51.8977 34.0009C52.0613 33.9841 52.2265 34.0079 52.3787 34.0702C52.5309 34.1325 52.6654 34.2314 52.7703 34.3581C52.8751 34.4848 52.9471 34.6354 52.9799 34.7966C53.0126 34.9577 53.0051 35.1245 52.958 35.282C52.9109 35.4396 52.8257 35.5831 52.7099 35.6999C52.5706 35.8403 52.3928 35.9363 52.199 35.9757C52.0052 36.0151 51.8041 35.9961 51.621 35.9212C51.438 35.8462 51.2813 35.7187 51.1707 35.5547C51.0602 35.3907 51.0007 35.1977 50.9999 34.9999ZM77.9999 61.9999C77.8033 61.9991 77.6113 61.9403 77.448 61.831C77.2846 61.7217 77.157 61.5667 77.0813 61.3853C77.0055 61.2039 76.9849 61.0042 77.022 60.8111C77.0591 60.6181 77.1523 60.4403 77.2899 60.2999C77.4054 60.182 77.5483 60.0946 77.7059 60.0454C77.8634 59.9962 78.0307 59.9867 78.1928 60.0179C78.3549 60.049 78.5067 60.1198 78.6348 60.2239C78.7629 60.328 78.8632 60.4622 78.9268 60.6145C78.9904 60.7668 79.0153 60.9325 78.9993 61.0968C78.9833 61.261 78.9269 61.4188 78.8352 61.556C78.7434 61.6931 78.6191 61.8055 78.4733 61.8829C78.3276 61.9604 78.1649 62.0006 77.9999 61.9999Z" fill="#000033"/>
<path d="M54.725 59.735L58.025 56.475C59.7214 57.9118 61.8133 58.8009 64.025 59.025L64.025 62.025C64.025 62.2903 64.1304 62.5446 64.3179 62.7321C64.5054 62.9197 64.7598 63.025 65.025 63.025C65.2902 63.025 65.5446 62.9197 65.7321 62.7321C65.9197 62.5446 66.025 62.2903 66.025 62.025L66.025 59.025C68.2312 58.8151 70.3225 57.9437 72.025 56.525L75.325 59.735C75.0192 60.3736 74.9491 61.0996 75.1271 61.7849C75.305 62.4701 75.7196 63.0703 76.2974 63.4794C76.8752 63.8884 77.5791 64.0799 78.2845 64.02C78.99 63.9601 79.6515 63.6527 80.1521 63.1521C80.6527 62.6515 80.9601 61.99 81.02 61.2846C81.0799 60.5791 80.8884 59.8753 80.4793 59.2974C80.0703 58.7196 79.4701 58.3051 78.7848 58.1271C78.0996 57.9491 77.3735 58.0193 76.735 58.325L73.475 55.025C74.8937 53.3225 75.7651 51.2312 75.975 49.025L79.025 49.025C79.2902 49.025 79.5446 48.9197 79.7321 48.7321C79.9197 48.5446 80.025 48.2903 80.025 48.025C80.025 47.7598 79.9197 47.5055 79.7321 47.3179C79.5446 47.1304 79.2902 47.025 79.025 47.025L75.975 47.025C75.7651 44.8189 74.8937 42.7275 73.475 41.025L76.735 37.725C77.3735 38.0308 78.0996 38.1009 78.7848 37.923C79.4701 37.745 80.0703 37.3305 80.4793 36.7526C80.8884 36.1748 81.0799 35.4709 81.02 34.7655C80.9601 34.0601 80.6527 33.3986 80.1521 32.898C79.6515 32.3974 78.99 32.0899 78.2845 32.03C77.5791 31.9702 76.8752 32.1617 76.2974 32.5707C75.7196 32.9798 75.305 33.58 75.1271 34.2652C74.9491 34.9504 75.0192 35.6765 75.325 36.315L72.025 39.575C70.3225 38.1563 68.2312 37.2849 66.025 37.075L66.025 34.025C66.025 33.7598 65.9197 33.5055 65.7321 33.3179C65.5446 33.1304 65.2902 33.025 65.025 33.025C64.7598 33.025 64.5054 33.1304 64.3179 33.3179C64.1304 33.5055 64.025 33.7598 64.025 34.025L64.025 37.085C61.8192 37.2818 59.726 38.147 58.025 39.565L54.725 36.315C55.0308 35.6765 55.1009 34.9504 54.9229 34.2652C54.745 33.58 54.3304 32.9798 53.7526 32.5707C53.1748 32.1617 52.4709 31.9702 51.7655 32.03C51.0601 32.0899 50.3985 32.3974 49.8979 32.898C49.3973 33.3986 49.0899 34.0601 49.03 34.7655C48.9701 35.4709 49.1616 36.1748 49.5707 36.7526C49.9797 37.3305 50.58 37.745 51.2652 37.923C51.9504 38.1009 52.6765 38.0308 53.315 37.725L56.585 41.025C56.465 41.175 56.335 41.305 56.225 41.455C56.1462 41.5601 56.0889 41.6796 56.0563 41.8069C56.0237 41.9341 56.0165 42.0665 56.0351 42.1965C56.0536 42.3265 56.0976 42.4515 56.1645 42.5645C56.2314 42.6775 56.32 42.7762 56.425 42.855C56.5301 42.9338 56.6496 42.9912 56.7768 43.0237C56.904 43.0563 57.0364 43.0636 57.1664 43.045C57.2964 43.0264 57.4215 42.9824 57.5345 42.9155C57.6475 42.8486 57.7462 42.7601 57.825 42.655C58.6558 41.5271 59.7405 40.6107 60.9914 39.98C62.2423 39.3494 63.6241 39.0222 65.025 39.025C66.8822 39.0254 68.6938 39.6003 70.2114 40.6709C71.7289 41.7416 72.8781 43.2554 73.5013 45.0049C74.1245 46.7544 74.1913 48.6539 73.6923 50.4428C73.1934 52.2318 72.1533 53.8225 70.7146 54.997C69.2759 56.1714 67.5091 56.872 65.6565 57.0027C63.8039 57.1334 61.9562 56.6878 60.3669 55.7269C58.7776 54.7661 57.5244 53.3371 56.7793 51.6359C56.0342 49.9347 55.8336 48.0447 56.205 46.225C56.2313 46.0937 56.2314 45.9585 56.2054 45.8271C56.1794 45.6958 56.1278 45.5708 56.0535 45.4593C55.9793 45.3479 55.8837 45.2522 55.7725 45.1777C55.6612 45.1032 55.5363 45.0513 55.405 45.025C55.2737 44.9988 55.1385 44.9986 55.0071 45.0246C54.8757 45.0506 54.7508 45.1022 54.6393 45.1765C54.5279 45.2508 54.4322 45.3463 54.3577 45.4576C54.2831 45.5688 54.2313 45.6937 54.205 45.825C54.125 46.225 54.075 46.625 54.035 47.025L51.025 47.025C50.7598 47.025 50.5054 47.1304 50.3179 47.3179C50.1304 47.5055 50.025 47.7598 50.025 48.025C50.025 48.2903 50.1304 48.5446 50.3179 48.7321C50.5054 48.9197 50.7598 49.025 51.025 49.025L54.025 49.025C54.2349 51.2312 55.1063 53.3225 56.525 55.025L53.265 58.295C52.6265 57.9893 51.9004 57.9191 51.2152 58.0971C50.5299 58.2751 49.9297 58.6896 49.5207 59.2674C49.1116 59.8453 48.9201 60.5491 48.98 61.2546C49.0399 61.96 49.3473 62.6215 49.8479 63.1221C50.3485 63.6227 51.0101 63.9301 51.7155 63.99C52.4209 64.0499 53.1248 63.8584 53.7026 63.4494C54.2804 63.0403 54.695 62.4401 54.8729 61.7549C55.0509 61.0696 54.9808 60.3436 54.675 59.705L54.725 59.735ZM51.025 35.025C51.0243 34.8606 51.0642 34.6985 51.1411 34.5531C51.218 34.4078 51.3296 34.2836 51.466 34.1917C51.6023 34.0998 51.7592 34.0429 51.9228 34.0261C52.0864 34.0093 52.2516 34.0331 52.4038 34.0954C52.556 34.1577 52.6905 34.2566 52.7954 34.3833C52.9002 34.5099 52.9722 34.6605 53.005 34.8217C53.0377 34.9829 53.0302 35.1496 52.9831 35.3072C52.936 35.4647 52.8508 35.6083 52.735 35.725C52.5957 35.8655 52.418 35.9614 52.2241 36.0008C52.0303 36.0402 51.8292 36.0212 51.6462 35.9463C51.4631 35.8714 51.3064 35.7439 51.1959 35.5799C51.0853 35.4159 51.0258 35.2228 51.025 35.025ZM79.025 61.025C79.0257 61.1895 78.9858 61.3516 78.9089 61.4969C78.832 61.6423 78.7204 61.7664 78.5841 61.8584C78.4477 61.9503 78.2908 62.0072 78.1272 62.024C77.9636 62.0408 77.7984 62.017 77.6462 61.9547C77.494 61.8924 77.3595 61.7935 77.2546 61.6668C77.1498 61.5401 77.0778 61.3895 77.0451 61.2284C77.0123 61.0672 77.0198 60.9005 77.0669 60.7429C77.114 60.5853 77.1992 60.4418 77.315 60.325C77.4543 60.1846 77.6321 60.0886 77.8259 60.0493C78.0197 60.0099 78.2208 60.0288 78.4039 60.1038C78.5869 60.1787 78.7436 60.3062 78.8542 60.4702C78.9647 60.6342 79.0242 60.8273 79.025 61.025ZM78.025 34.025C78.1895 34.0243 78.3516 34.0642 78.4969 34.1411C78.6423 34.2181 78.7664 34.3296 78.8584 34.466C78.9503 34.6023 79.0072 34.7593 79.024 34.9229C79.0408 35.0865 79.017 35.2517 78.9547 35.4039C78.8924 35.5561 78.7935 35.6905 78.6668 35.7954C78.5401 35.9003 78.3895 35.9722 78.2283 36.005C78.0672 36.0377 77.9004 36.0302 77.7429 35.9832C77.5853 35.9361 77.4418 35.8508 77.325 35.735C77.1846 35.5958 77.0886 35.418 77.0492 35.2242C77.0098 35.0304 77.0288 34.8292 77.1037 34.6462C77.1787 34.4632 77.3062 34.3064 77.4702 34.1959C77.6342 34.0853 77.8272 34.0259 78.025 34.025ZM51.025 61.025C51.0258 60.8285 51.0846 60.6365 51.1939 60.4731C51.3032 60.3097 51.4582 60.1822 51.6396 60.1064C51.821 60.0307 52.0207 60.01 52.2138 60.0471C52.4068 60.0843 52.5846 60.1774 52.725 60.315C52.8429 60.4306 52.9303 60.5735 52.9795 60.731C53.0287 60.8886 53.0382 61.0558 53.007 61.2179C52.9759 61.38 52.9051 61.5319 52.801 61.6599C52.6969 61.788 52.5627 61.8883 52.4104 61.9519C52.2581 62.0155 52.0924 62.0405 51.9281 62.0245C51.7639 62.0085 51.6061 61.9521 51.4689 61.8603C51.3318 61.7685 51.2194 61.6442 51.142 61.4985C51.0645 61.3527 51.0243 61.1901 51.025 61.025Z" fill="#000033"/>
<path d="M67.4083 47.7926C67.8598 47.3078 68.1628 46.6975 68.2796 46.0374C68.3964 45.3773 68.3219 44.6964 68.0654 44.0794C67.8088 43.4624 67.3816 42.9364 66.8366 42.5668C66.2917 42.1971 65.653 42 65 42C64.347 42 63.7083 42.1971 63.1634 42.5668C62.6184 42.9364 62.1912 43.4624 61.9346 44.0794C61.6781 44.6964 61.6036 45.3773 61.7204 46.0374C61.8372 46.6975 62.1402 47.3078 62.5917 47.7926C61.8079 48.2352 61.154 48.8857 60.6981 49.6763C60.2423 50.4669 60.0012 51.3687 60 52.2876V53.1438C60 53.3709 60.0878 53.5887 60.2441 53.7492C60.4004 53.9098 60.6123 54 60.8333 54H69.1667C69.3877 54 69.5996 53.9098 69.7559 53.7492C69.9122 53.5887 70 53.3709 70 53.1438V52.2876C69.9988 51.3687 69.7577 50.4669 69.3019 49.6763C68.846 48.8857 68.1921 48.2352 67.4083 47.7926ZM63.3333 45.438C63.3333 45.0994 63.4311 44.7683 63.6142 44.4867C63.7974 44.2051 64.0577 43.9856 64.3622 43.856C64.6667 43.7264 65.0018 43.6925 65.3252 43.7586C65.6485 43.8246 65.9454 43.9877 66.1785 44.2272C66.4116 44.4667 66.5703 44.7718 66.6346 45.104C66.699 45.4361 66.6659 45.7804 66.5398 46.0933C66.4137 46.4062 66.2 46.6737 65.926 46.8618C65.6519 47.05 65.3296 47.1504 65 47.1504C64.558 47.1504 64.134 46.97 63.8215 46.6489C63.5089 46.3277 63.3333 45.8922 63.3333 45.438ZM61.6667 52.2876C61.6667 51.3793 62.0179 50.5082 62.643 49.8659C63.2681 49.2236 64.1159 48.8628 65 48.8628C65.8841 48.8628 66.7319 49.2236 67.357 49.8659C67.9821 50.5082 68.3333 51.3793 68.3333 52.2876H61.6667Z" fill="#100FA8"/>
</g>
<path d="M108.26 41H111.5V55H108.26V41ZM101.9 55H98.66V41H101.9V55ZM108.5 49.26H101.66V46.52H108.5V49.26ZM119.932 55.16C118.706 55.16 117.626 54.92 116.692 54.44C115.772 53.96 115.059 53.3067 114.552 52.48C114.046 51.64 113.792 50.6867 113.792 49.62C113.792 48.54 114.039 47.5867 114.532 46.76C115.039 45.92 115.726 45.2667 116.592 44.8C117.459 44.32 118.439 44.08 119.532 44.08C120.586 44.08 121.532 44.3067 122.372 44.76C123.226 45.2 123.899 45.84 124.392 46.68C124.886 47.5067 125.132 48.5 125.132 49.66C125.132 49.78 125.126 49.92 125.112 50.08C125.099 50.2267 125.086 50.3667 125.072 50.5H116.332V48.68H123.432L122.232 49.22C122.232 48.66 122.119 48.1733 121.892 47.76C121.666 47.3467 121.352 47.0267 120.952 46.8C120.552 46.56 120.086 46.44 119.552 46.44C119.019 46.44 118.546 46.56 118.132 46.8C117.732 47.0267 117.419 47.3533 117.192 47.78C116.966 48.1933 116.852 48.6867 116.852 49.26V49.74C116.852 50.3267 116.979 50.8467 117.232 51.3C117.499 51.74 117.866 52.08 118.332 52.32C118.812 52.5467 119.372 52.66 120.012 52.66C120.586 52.66 121.086 52.5733 121.512 52.4C121.952 52.2267 122.352 51.9667 122.712 51.62L124.372 53.42C123.879 53.98 123.259 54.4133 122.512 54.72C121.766 55.0133 120.906 55.16 119.932 55.16ZM133.517 55V52.9L133.317 52.44V48.68C133.317 48.0133 133.11 47.4933 132.697 47.12C132.297 46.7467 131.677 46.56 130.837 46.56C130.263 46.56 129.697 46.6533 129.137 46.84C128.59 47.0133 128.123 47.2533 127.737 47.56L126.617 45.38C127.203 44.9667 127.91 44.6467 128.737 44.42C129.563 44.1933 130.403 44.08 131.257 44.08C132.897 44.08 134.17 44.4667 135.077 45.24C135.983 46.0133 136.437 47.22 136.437 48.86V55H133.517ZM130.237 55.16C129.397 55.16 128.677 55.02 128.077 54.74C127.477 54.4467 127.017 54.0533 126.697 53.56C126.377 53.0667 126.217 52.5133 126.217 51.9C126.217 51.26 126.37 50.7 126.677 50.22C126.997 49.74 127.497 49.3667 128.177 49.1C128.857 48.82 129.743 48.68 130.837 48.68H133.697V50.5H131.177C130.443 50.5 129.937 50.62 129.657 50.86C129.39 51.1 129.257 51.4 129.257 51.76C129.257 52.16 129.41 52.48 129.717 52.72C130.037 52.9467 130.47 53.06 131.017 53.06C131.537 53.06 132.003 52.94 132.417 52.7C132.83 52.4467 133.13 52.08 133.317 51.6L133.797 53.04C133.57 53.7333 133.157 54.26 132.557 54.62C131.957 54.98 131.183 55.16 130.237 55.16ZM143.958 55.16C142.945 55.16 142.032 54.9333 141.218 54.48C140.405 54.0133 139.758 53.3667 139.278 52.54C138.812 51.7133 138.578 50.74 138.578 49.62C138.578 48.4867 138.812 47.5067 139.278 46.68C139.758 45.8533 140.405 45.2133 141.218 44.76C142.032 44.3067 142.945 44.08 143.958 44.08C144.865 44.08 145.658 44.28 146.338 44.68C147.018 45.08 147.545 45.6867 147.918 46.5C148.292 47.3133 148.478 48.3533 148.478 49.62C148.478 50.8733 148.298 51.9133 147.938 52.74C147.578 53.5533 147.058 54.16 146.378 54.56C145.712 54.96 144.905 55.16 143.958 55.16ZM144.498 52.6C145.005 52.6 145.465 52.48 145.878 52.24C146.292 52 146.618 51.66 146.858 51.22C147.112 50.7667 147.238 50.2333 147.238 49.62C147.238 48.9933 147.112 48.46 146.858 48.02C146.618 47.58 146.292 47.24 145.878 47C145.465 46.76 145.005 46.64 144.498 46.64C143.978 46.64 143.512 46.76 143.098 47C142.685 47.24 142.352 47.58 142.098 48.02C141.858 48.46 141.738 48.9933 141.738 49.62C141.738 50.2333 141.858 50.7667 142.098 51.22C142.352 51.66 142.685 52 143.098 52.24C143.512 52.48 143.978 52.6 144.498 52.6ZM147.318 55V52.8L147.378 49.6L147.178 46.42V40.16H150.298V55H147.318ZM159.726 44.08C160.579 44.08 161.339 44.2533 162.006 44.6C162.686 44.9333 163.219 45.4533 163.606 46.16C163.993 46.8533 164.186 47.7467 164.186 48.84V55H161.066V49.32C161.066 48.4533 160.873 47.8133 160.486 47.4C160.113 46.9867 159.579 46.78 158.886 46.78C158.393 46.78 157.946 46.8867 157.546 47.1C157.159 47.3 156.853 47.6133 156.626 48.04C156.413 48.4667 156.306 49.0133 156.306 49.68V55H153.186V40.16H156.306V47.22L155.606 46.32C155.993 45.6 156.546 45.0467 157.266 44.66C157.986 44.2733 158.806 44.08 159.726 44.08ZM171.554 55.16C170.661 55.16 169.861 54.9867 169.154 54.64C168.461 54.2933 167.921 53.7667 167.534 53.06C167.148 52.34 166.954 51.4267 166.954 50.32V44.24H170.074V49.86C170.074 50.7533 170.261 51.4133 170.634 51.84C171.021 52.2533 171.561 52.46 172.254 52.46C172.734 52.46 173.161 52.36 173.534 52.16C173.908 51.9467 174.201 51.6267 174.414 51.2C174.628 50.76 174.734 50.2133 174.734 49.56V44.24H177.854V55H174.894V52.04L175.434 52.9C175.074 53.6467 174.541 54.2133 173.834 54.6C173.141 54.9733 172.381 55.16 171.554 55.16ZM187.285 44.08C188.138 44.08 188.898 44.2533 189.565 44.6C190.245 44.9333 190.778 45.4533 191.165 46.16C191.551 46.8533 191.745 47.7467 191.745 48.84V55H188.625V49.32C188.625 48.4533 188.431 47.8133 188.045 47.4C187.671 46.9867 187.138 46.78 186.445 46.78C185.951 46.78 185.505 46.8867 185.105 47.1C184.718 47.3 184.411 47.6133 184.185 48.04C183.971 48.4667 183.865 49.0133 183.865 49.68V55H180.745V44.24H183.725V47.22L183.165 46.32C183.551 45.6 184.105 45.0467 184.825 44.66C185.545 44.2733 186.365 44.08 187.285 44.08ZM198.973 55.16C197.706 55.16 196.719 54.84 196.013 54.2C195.306 53.5467 194.953 52.58 194.953 51.3V41.86H198.073V51.26C198.073 51.7133 198.193 52.0667 198.433 52.32C198.673 52.56 198.999 52.68 199.413 52.68C199.906 52.68 200.326 52.5467 200.673 52.28L201.513 54.48C201.193 54.7067 200.806 54.88 200.353 55C199.913 55.1067 199.453 55.16 198.973 55.16ZM193.293 46.88V44.48H200.753V46.88H193.293ZM203.264 55V44.24H206.384V55H203.264ZM204.824 42.74C204.251 42.74 203.784 42.5733 203.424 42.24C203.064 41.9067 202.884 41.4933 202.884 41C202.884 40.5067 203.064 40.0933 203.424 39.76C203.784 39.4267 204.251 39.26 204.824 39.26C205.398 39.26 205.864 39.42 206.224 39.74C206.584 40.0467 206.764 40.4467 206.764 40.94C206.764 41.46 206.584 41.8933 206.224 42.24C205.878 42.5733 205.411 42.74 204.824 42.74ZM215.82 44.08C216.673 44.08 217.433 44.2533 218.1 44.6C218.78 44.9333 219.313 45.4533 219.7 46.16C220.087 46.8533 220.28 47.7467 220.28 48.84V55H217.16V49.32C217.16 48.4533 216.967 47.8133 216.58 47.4C216.207 46.9867 215.673 46.78 214.98 46.78C214.487 46.78 214.04 46.8867 213.64 47.1C213.253 47.3 212.947 47.6133 212.72 48.04C212.507 48.4667 212.4 49.0133 212.4 49.68V55H209.28V44.24H212.26V47.22L211.7 46.32C212.087 45.6 212.64 45.0467 213.36 44.66C214.08 44.2733 214.9 44.08 215.82 44.08ZM228.246 59.04C227.233 59.04 226.253 58.9133 225.306 58.66C224.373 58.42 223.593 58.0533 222.966 57.56L224.206 55.32C224.659 55.6933 225.233 55.9867 225.926 56.2C226.633 56.4267 227.326 56.54 228.006 56.54C229.113 56.54 229.913 56.2933 230.406 55.8C230.913 55.3067 231.166 54.5733 231.166 53.6V51.98L231.366 49.28L231.326 46.56V44.24H234.286V53.2C234.286 55.2 233.766 56.6733 232.726 57.62C231.686 58.5667 230.193 59.04 228.246 59.04ZM227.766 54.48C226.766 54.48 225.859 54.2667 225.046 53.84C224.246 53.4 223.599 52.7933 223.106 52.02C222.626 51.2333 222.386 50.32 222.386 49.28C222.386 48.2267 222.626 47.3133 223.106 46.54C223.599 45.7533 224.246 45.1467 225.046 44.72C225.859 44.2933 226.766 44.08 227.766 44.08C228.673 44.08 229.473 44.2667 230.166 44.64C230.859 45 231.399 45.5667 231.786 46.34C232.173 47.1 232.366 48.08 232.366 49.28C232.366 50.4667 232.173 51.4467 231.786 52.22C231.399 52.98 230.859 53.5467 230.166 53.92C229.473 54.2933 228.673 54.48 227.766 54.48ZM228.386 51.92C228.933 51.92 229.419 51.8133 229.846 51.6C230.273 51.3733 230.606 51.06 230.846 50.66C231.086 50.26 231.206 49.8 231.206 49.28C231.206 48.7467 231.086 48.2867 230.846 47.9C230.606 47.5 230.273 47.1933 229.846 46.98C229.419 46.7533 228.933 46.64 228.386 46.64C227.839 46.64 227.353 46.7533 226.926 46.98C226.499 47.1933 226.159 47.5 225.906 47.9C225.666 48.2867 225.546 48.7467 225.546 49.28C225.546 49.8 225.666 50.26 225.906 50.66C226.159 51.06 226.499 51.3733 226.926 51.6C227.353 51.8133 227.839 51.92 228.386 51.92ZM244.214 59.04C243.654 59.04 243.101 58.9533 242.554 58.78C242.007 58.6067 241.561 58.3667 241.214 58.06L242.354 55.84C242.594 56.0533 242.867 56.22 243.174 56.34C243.494 56.46 243.807 56.52 244.114 56.52C244.554 56.52 244.901 56.4133 245.154 56.2C245.421 56 245.661 55.66 245.874 55.18L246.434 53.86L246.674 53.52L250.534 44.24H253.534L248.674 55.66C248.327 56.5267 247.927 57.2067 247.474 57.7C247.034 58.1933 246.541 58.54 245.994 58.74C245.461 58.94 244.867 59.04 244.214 59.04ZM246.054 55.42L241.254 44.24H244.474L248.194 53.24L246.054 55.42ZM260.691 55V41H263.371L269.331 50.88H267.911L273.771 41H276.431L276.471 55H273.431L273.411 45.66H273.971L269.291 53.52H267.831L263.051 45.66H263.731V55H260.691ZM284.913 55.16C283.686 55.16 282.606 54.92 281.673 54.44C280.753 53.96 280.039 53.3067 279.533 52.48C279.026 51.64 278.773 50.6867 278.773 49.62C278.773 48.54 279.019 47.5867 279.513 46.76C280.019 45.92 280.706 45.2667 281.573 44.8C282.439 44.32 283.419 44.08 284.513 44.08C285.566 44.08 286.513 44.3067 287.353 44.76C288.206 45.2 288.879 45.84 289.373 46.68C289.866 47.5067 290.113 48.5 290.113 49.66C290.113 49.78 290.106 49.92 290.093 50.08C290.079 50.2267 290.066 50.3667 290.053 50.5H281.313V48.68H288.413L287.213 49.22C287.213 48.66 287.099 48.1733 286.873 47.76C286.646 47.3467 286.333 47.0267 285.933 46.8C285.533 46.56 285.066 46.44 284.533 46.44C283.999 46.44 283.526 46.56 283.113 46.8C282.713 47.0267 282.399 47.3533 282.173 47.78C281.946 48.1933 281.833 48.6867 281.833 49.26V49.74C281.833 50.3267 281.959 50.8467 282.213 51.3C282.479 51.74 282.846 52.08 283.313 52.32C283.793 52.5467 284.353 52.66 284.993 52.66C285.566 52.66 286.066 52.5733 286.493 52.4C286.933 52.2267 287.333 51.9667 287.693 51.62L289.353 53.42C288.859 53.98 288.239 54.4133 287.493 54.72C286.746 55.0133 285.886 55.16 284.913 55.16ZM298.73 44.08C299.583 44.08 300.343 44.2533 301.01 44.6C301.69 44.9333 302.223 45.4533 302.61 46.16C302.997 46.8533 303.19 47.7467 303.19 48.84V55H300.07V49.32C300.07 48.4533 299.877 47.8133 299.49 47.4C299.117 46.9867 298.583 46.78 297.89 46.78C297.397 46.78 296.95 46.8867 296.55 47.1C296.163 47.3 295.857 47.6133 295.63 48.04C295.417 48.4667 295.31 49.0133 295.31 49.68V55H292.19V44.24H295.17V47.22L294.61 46.32C294.997 45.6 295.55 45.0467 296.27 44.66C296.99 44.2733 297.81 44.08 298.73 44.08ZM310.418 55.16C309.151 55.16 308.165 54.84 307.458 54.2C306.751 53.5467 306.398 52.58 306.398 51.3V41.86H309.518V51.26C309.518 51.7133 309.638 52.0667 309.878 52.32C310.118 52.56 310.445 52.68 310.858 52.68C311.351 52.68 311.771 52.5467 312.118 52.28L312.958 54.48C312.638 54.7067 312.251 54.88 311.798 55C311.358 55.1067 310.898 55.16 310.418 55.16ZM304.738 46.88V44.48H312.198V46.88H304.738ZM319.498 55.16C318.351 55.16 317.331 54.92 316.438 54.44C315.558 53.96 314.858 53.3067 314.338 52.48C313.831 51.64 313.578 50.6867 313.578 49.62C313.578 48.54 313.831 47.5867 314.338 46.76C314.858 45.92 315.558 45.2667 316.438 44.8C317.331 44.32 318.351 44.08 319.498 44.08C320.631 44.08 321.644 44.32 322.538 44.8C323.431 45.2667 324.131 45.9133 324.638 46.74C325.144 47.5667 325.398 48.5267 325.398 49.62C325.398 50.6867 325.144 51.64 324.638 52.48C324.131 53.3067 323.431 53.96 322.538 54.44C321.644 54.92 320.631 55.16 319.498 55.16ZM319.498 52.6C320.018 52.6 320.484 52.48 320.898 52.24C321.311 52 321.638 51.66 321.878 51.22C322.118 50.7667 322.238 50.2333 322.238 49.62C322.238 48.9933 322.118 48.46 321.878 48.02C321.638 47.58 321.311 47.24 320.898 47C320.484 46.76 320.018 46.64 319.498 46.64C318.978 46.64 318.511 46.76 318.098 47C317.684 47.24 317.351 47.58 317.098 48.02C316.858 48.46 316.738 48.9933 316.738 49.62C316.738 50.2333 316.858 50.7667 317.098 51.22C317.351 51.66 317.684 52 318.098 52.24C318.511 52.48 318.978 52.6 319.498 52.6ZM327.483 55V44.24H330.463V47.28L330.043 46.4C330.363 45.64 330.876 45.0667 331.583 44.68C332.29 44.28 333.15 44.08 334.163 44.08V46.96C334.03 46.9467 333.91 46.94 333.803 46.94C333.696 46.9267 333.583 46.92 333.463 46.92C332.61 46.92 331.916 47.1667 331.383 47.66C330.863 48.14 330.603 48.8933 330.603 49.92V55H327.483ZM336.038 55V44.24H339.158V55H336.038ZM337.598 42.74C337.024 42.74 336.558 42.5733 336.198 42.24C335.838 41.9067 335.658 41.4933 335.658 41C335.658 40.5067 335.838 40.0933 336.198 39.76C336.558 39.4267 337.024 39.26 337.598 39.26C338.171 39.26 338.638 39.42 338.998 39.74C339.358 40.0467 339.538 40.4467 339.538 40.94C339.538 41.46 339.358 41.8933 338.998 42.24C338.651 42.5733 338.184 42.74 337.598 42.74ZM348.593 44.08C349.447 44.08 350.207 44.2533 350.873 44.6C351.553 44.9333 352.087 45.4533 352.473 46.16C352.86 46.8533 353.053 47.7467 353.053 48.84V55H349.933V49.32C349.933 48.4533 349.74 47.8133 349.353 47.4C348.98 46.9867 348.447 46.78 347.753 46.78C347.26 46.78 346.813 46.8867 346.413 47.1C346.027 47.3 345.72 47.6133 345.493 48.04C345.28 48.4667 345.173 49.0133 345.173 49.68V55H342.053V44.24H345.033V47.22L344.473 46.32C344.86 45.6 345.413 45.0467 346.133 44.66C346.853 44.2733 347.673 44.08 348.593 44.08ZM361.02 59.04C360.006 59.04 359.026 58.9133 358.08 58.66C357.146 58.42 356.366 58.0533 355.74 57.56L356.98 55.32C357.433 55.6933 358.006 55.9867 358.7 56.2C359.406 56.4267 360.1 56.54 360.78 56.54C361.886 56.54 362.686 56.2933 363.18 55.8C363.686 55.3067 363.94 54.5733 363.94 53.6V51.98L364.14 49.28L364.1 46.56V44.24H367.06V53.2C367.06 55.2 366.54 56.6733 365.5 57.62C364.46 58.5667 362.966 59.04 361.02 59.04ZM360.54 54.48C359.54 54.48 358.633 54.2667 357.82 53.84C357.02 53.4 356.373 52.7933 355.88 52.02C355.4 51.2333 355.16 50.32 355.16 49.28C355.16 48.2267 355.4 47.3133 355.88 46.54C356.373 45.7533 357.02 45.1467 357.82 44.72C358.633 44.2933 359.54 44.08 360.54 44.08C361.446 44.08 362.246 44.2667 362.94 44.64C363.633 45 364.173 45.5667 364.56 46.34C364.946 47.1 365.14 48.08 365.14 49.28C365.14 50.4667 364.946 51.4467 364.56 52.22C364.173 52.98 363.633 53.5467 362.94 53.92C362.246 54.2933 361.446 54.48 360.54 54.48ZM361.16 51.92C361.706 51.92 362.193 51.8133 362.62 51.6C363.046 51.3733 363.38 51.06 363.62 50.66C363.86 50.26 363.98 49.8 363.98 49.28C363.98 48.7467 363.86 48.2867 363.62 47.9C363.38 47.5 363.046 47.1933 362.62 46.98C362.193 46.7533 361.706 46.64 361.16 46.64C360.613 46.64 360.126 46.7533 359.7 46.98C359.273 47.1933 358.933 47.5 358.68 47.9C358.44 48.2867 358.32 48.7467 358.32 49.28C358.32 49.8 358.44 50.26 358.68 50.66C358.933 51.06 359.273 51.3733 359.7 51.6C360.126 51.8133 360.613 51.92 361.16 51.92Z" fill="#000033"/>
<path d="M50.89 104V91.4H55.804C56.908 91.4 57.85 91.574 58.63 91.922C59.41 92.27 60.01 92.774 60.43 93.434C60.85 94.094 61.06 94.88 61.06 95.792C61.06 96.704 60.85 97.49 60.43 98.15C60.01 98.798 59.41 99.296 58.63 99.644C57.85 99.992 56.908 100.166 55.804 100.166H51.88L52.69 99.338V104H50.89ZM59.314 104L56.11 99.428H58.036L61.276 104H59.314ZM52.69 99.518L51.88 98.636H55.75C56.902 98.636 57.772 98.39 58.36 97.898C58.96 97.394 59.26 96.692 59.26 95.792C59.26 94.892 58.96 94.196 58.36 93.704C57.772 93.212 56.902 92.966 55.75 92.966H51.88L52.69 92.066V99.518ZM67.9641 104.108C66.9441 104.108 66.0441 103.898 65.2641 103.478C64.4961 103.058 63.8961 102.482 63.4641 101.75C63.0441 101.018 62.8341 100.178 62.8341 99.23C62.8341 98.282 63.0381 97.442 63.4461 96.71C63.8661 95.978 64.4361 95.408 65.1561 95C65.8881 94.58 66.7101 94.37 67.6221 94.37C68.5461 94.37 69.3621 94.574 70.0701 94.982C70.7781 95.39 71.3301 95.966 71.7261 96.71C72.1341 97.442 72.3381 98.3 72.3381 99.284C72.3381 99.356 72.3321 99.44 72.3201 99.536C72.3201 99.632 72.3141 99.722 72.3021 99.806H64.1841V98.564H71.4021L70.7001 98.996C70.7121 98.384 70.5861 97.838 70.3221 97.358C70.0581 96.878 69.6921 96.506 69.2241 96.242C68.7681 95.966 68.2341 95.828 67.6221 95.828C67.0221 95.828 66.4881 95.966 66.0201 96.242C65.5521 96.506 65.1861 96.884 64.9221 97.376C64.6581 97.856 64.5261 98.408 64.5261 99.032V99.32C64.5261 99.956 64.6701 100.526 64.9581 101.03C65.2581 101.522 65.6721 101.906 66.2001 102.182C66.7281 102.458 67.3341 102.596 68.0181 102.596C68.5821 102.596 69.0921 102.5 69.5481 102.308C70.0161 102.116 70.4241 101.828 70.7721 101.444L71.7261 102.56C71.2941 103.064 70.7541 103.448 70.1061 103.712C69.4701 103.976 68.7561 104.108 67.9641 104.108ZM78.8956 104.108C77.9236 104.108 77.0536 103.898 76.2856 103.478C75.5296 103.058 74.9356 102.482 74.5036 101.75C74.0716 101.018 73.8556 100.178 73.8556 99.23C73.8556 98.282 74.0716 97.442 74.5036 96.71C74.9356 95.978 75.5296 95.408 76.2856 95C77.0536 94.58 77.9236 94.37 78.8956 94.37C79.7596 94.37 80.5276 94.544 81.1996 94.892C81.8836 95.228 82.4116 95.732 82.7836 96.404L81.4696 97.25C81.1576 96.782 80.7736 96.44 80.3176 96.224C79.8736 95.996 79.3936 95.882 78.8776 95.882C78.2536 95.882 77.6956 96.02 77.2036 96.296C76.7116 96.572 76.3216 96.962 76.0336 97.466C75.7456 97.958 75.6016 98.546 75.6016 99.23C75.6016 99.914 75.7456 100.508 76.0336 101.012C76.3216 101.516 76.7116 101.906 77.2036 102.182C77.6956 102.458 78.2536 102.596 78.8776 102.596C79.3936 102.596 79.8736 102.488 80.3176 102.272C80.7736 102.044 81.1576 101.696 81.4696 101.228L82.7836 102.056C82.4116 102.716 81.8836 103.226 81.1996 103.586C80.5276 103.934 79.7596 104.108 78.8956 104.108ZM84.8978 104V90.644H86.6258V104H84.8978ZM93.9391 104.108C93.1231 104.108 92.4031 103.958 91.7791 103.658C91.1671 103.358 90.6871 102.902 90.3391 102.29C90.0031 101.666 89.8351 100.886 89.8351 99.95V94.46H91.5631V99.752C91.5631 100.688 91.7851 101.39 92.2291 101.858C92.6851 102.326 93.3211 102.56 94.1371 102.56C94.7371 102.56 95.2591 102.44 95.7031 102.2C96.1471 101.948 96.4891 101.588 96.7291 101.12C96.9691 100.64 97.0891 100.064 97.0891 99.392V94.46H98.8171V104H97.1791V101.426L97.4491 102.11C97.1371 102.746 96.6691 103.238 96.0451 103.586C95.4211 103.934 94.7191 104.108 93.9391 104.108ZM105.383 104.108C104.423 104.108 103.679 103.85 103.151 103.334C102.623 102.818 102.359 102.08 102.359 101.12V92.372H104.087V101.048C104.087 101.564 104.213 101.96 104.465 102.236C104.729 102.512 105.101 102.65 105.581 102.65C106.121 102.65 106.571 102.5 106.931 102.2L107.471 103.442C107.207 103.67 106.889 103.838 106.517 103.946C106.157 104.054 105.779 104.108 105.383 104.108ZM100.739 95.882V94.46H106.823V95.882H100.739ZM115.482 104V101.984L115.392 101.606V98.168C115.392 97.436 115.176 96.872 114.744 96.476C114.324 96.068 113.688 95.864 112.836 95.864C112.272 95.864 111.72 95.96 111.18 96.152C110.64 96.332 110.184 96.578 109.812 96.89L109.092 95.594C109.584 95.198 110.172 94.898 110.856 94.694C111.552 94.478 112.278 94.37 113.034 94.37C114.342 94.37 115.35 94.688 116.058 95.324C116.766 95.96 117.12 96.932 117.12 98.24V104H115.482ZM112.35 104.108C111.642 104.108 111.018 103.988 110.478 103.748C109.95 103.508 109.542 103.178 109.254 102.758C108.966 102.326 108.822 101.84 108.822 101.3C108.822 100.784 108.942 100.316 109.182 99.896C109.434 99.476 109.836 99.14 110.388 98.888C110.952 98.636 111.708 98.51 112.656 98.51H115.68V99.752H112.728C111.864 99.752 111.282 99.896 110.982 100.184C110.682 100.472 110.532 100.82 110.532 101.228C110.532 101.696 110.718 102.074 111.09 102.362C111.462 102.638 111.978 102.776 112.638 102.776C113.286 102.776 113.85 102.632 114.33 102.344C114.822 102.056 115.176 101.636 115.392 101.084L115.734 102.272C115.506 102.836 115.104 103.286 114.528 103.622C113.952 103.946 113.226 104.108 112.35 104.108ZM119.634 106.664L120.534 103.028L120.768 104.072C120.42 104.072 120.126 103.964 119.886 103.748C119.658 103.532 119.544 103.238 119.544 102.866C119.544 102.506 119.658 102.212 119.886 101.984C120.126 101.756 120.414 101.642 120.75 101.642C121.098 101.642 121.38 101.762 121.596 102.002C121.812 102.23 121.92 102.518 121.92 102.866C121.92 102.986 121.908 103.106 121.884 103.226C121.872 103.334 121.842 103.466 121.794 103.622C121.758 103.766 121.698 103.946 121.614 104.162L120.768 106.664H119.634ZM131.966 104.108C131.174 104.108 130.418 104 129.698 103.784C128.99 103.568 128.432 103.304 128.024 102.992L128.744 101.624C129.152 101.9 129.656 102.134 130.256 102.326C130.856 102.518 131.468 102.614 132.092 102.614C132.896 102.614 133.472 102.5 133.82 102.272C134.18 102.044 134.36 101.726 134.36 101.318C134.36 101.018 134.252 100.784 134.036 100.616C133.82 100.448 133.532 100.322 133.172 100.238C132.824 100.154 132.434 100.082 132.002 100.022C131.57 99.95 131.138 99.866 130.706 99.77C130.274 99.662 129.878 99.518 129.518 99.338C129.158 99.146 128.87 98.888 128.654 98.564C128.438 98.228 128.33 97.784 128.33 97.232C128.33 96.656 128.492 96.152 128.816 95.72C129.14 95.288 129.596 94.958 130.184 94.73C130.784 94.49 131.492 94.37 132.308 94.37C132.932 94.37 133.562 94.448 134.198 94.604C134.846 94.748 135.374 94.958 135.782 95.234L135.044 96.602C134.612 96.314 134.162 96.116 133.694 96.008C133.226 95.9 132.758 95.846 132.29 95.846C131.534 95.846 130.97 95.972 130.598 96.224C130.226 96.464 130.04 96.776 130.04 97.16C130.04 97.484 130.148 97.736 130.364 97.916C130.592 98.084 130.88 98.216 131.228 98.312C131.588 98.408 131.984 98.492 132.416 98.564C132.848 98.624 133.28 98.708 133.712 98.816C134.144 98.912 134.534 99.05 134.882 99.23C135.242 99.41 135.53 99.662 135.746 99.986C135.974 100.31 136.088 100.742 136.088 101.282C136.088 101.858 135.92 102.356 135.584 102.776C135.248 103.196 134.774 103.526 134.162 103.766C133.55 103.994 132.818 104.108 131.966 104.108ZM142.495 104.108C141.475 104.108 140.575 103.898 139.795 103.478C139.027 103.058 138.427 102.482 137.995 101.75C137.575 101.018 137.365 100.178 137.365 99.23C137.365 98.282 137.569 97.442 137.977 96.71C138.397 95.978 138.967 95.408 139.687 95C140.419 94.58 141.241 94.37 142.153 94.37C143.077 94.37 143.893 94.574 144.601 94.982C145.309 95.39 145.861 95.966 146.257 96.71C146.665 97.442 146.869 98.3 146.869 99.284C146.869 99.356 146.863 99.44 146.851 99.536C146.851 99.632 146.845 99.722 146.833 99.806H138.715V98.564H145.933L145.231 98.996C145.243 98.384 145.117 97.838 144.853 97.358C144.589 96.878 144.223 96.506 143.755 96.242C143.299 95.966 142.765 95.828 142.153 95.828C141.553 95.828 141.019 95.966 140.551 96.242C140.083 96.506 139.717 96.884 139.453 97.376C139.189 97.856 139.057 98.408 139.057 99.032V99.32C139.057 99.956 139.201 100.526 139.489 101.03C139.789 101.522 140.203 101.906 140.731 102.182C141.259 102.458 141.865 102.596 142.549 102.596C143.113 102.596 143.623 102.5 144.079 102.308C144.547 102.116 144.955 101.828 145.303 101.444L146.257 102.56C145.825 103.064 145.285 103.448 144.637 103.712C144.001 103.976 143.287 104.108 142.495 104.108ZM149.269 104V90.644H150.997V104H149.269ZM158.544 104.108C157.524 104.108 156.624 103.898 155.844 103.478C155.076 103.058 154.476 102.482 154.044 101.75C153.624 101.018 153.414 100.178 153.414 99.23C153.414 98.282 153.618 97.442 154.026 96.71C154.446 95.978 155.016 95.408 155.736 95C156.468 94.58 157.29 94.37 158.202 94.37C159.126 94.37 159.942 94.574 160.65 94.982C161.358 95.39 161.91 95.966 162.306 96.71C162.714 97.442 162.918 98.3 162.918 99.284C162.918 99.356 162.912 99.44 162.9 99.536C162.9 99.632 162.894 99.722 162.882 99.806H154.764V98.564H161.982L161.28 98.996C161.292 98.384 161.166 97.838 160.902 97.358C160.638 96.878 160.272 96.506 159.804 96.242C159.348 95.966 158.814 95.828 158.202 95.828C157.602 95.828 157.068 95.966 156.6 96.242C156.132 96.506 155.766 96.884 155.502 97.376C155.238 97.856 155.106 98.408 155.106 99.032V99.32C155.106 99.956 155.25 100.526 155.538 101.03C155.838 101.522 156.252 101.906 156.78 102.182C157.308 102.458 157.914 102.596 158.598 102.596C159.162 102.596 159.672 102.5 160.128 102.308C160.596 102.116 161.004 101.828 161.352 101.444L162.306 102.56C161.874 103.064 161.334 103.448 160.686 103.712C160.05 103.976 159.336 104.108 158.544 104.108ZM169.476 104.108C168.504 104.108 167.634 103.898 166.866 103.478C166.11 103.058 165.516 102.482 165.084 101.75C164.652 101.018 164.436 100.178 164.436 99.23C164.436 98.282 164.652 97.442 165.084 96.71C165.516 95.978 166.11 95.408 166.866 95C167.634 94.58 168.504 94.37 169.476 94.37C170.34 94.37 171.108 94.544 171.78 94.892C172.464 95.228 172.992 95.732 173.364 96.404L172.05 97.25C171.738 96.782 171.354 96.44 170.898 96.224C170.454 95.996 169.974 95.882 169.458 95.882C168.834 95.882 168.276 96.02 167.784 96.296C167.292 96.572 166.902 96.962 166.614 97.466C166.326 97.958 166.182 98.546 166.182 99.23C166.182 99.914 166.326 100.508 166.614 101.012C166.902 101.516 167.292 101.906 167.784 102.182C168.276 102.458 168.834 102.596 169.458 102.596C169.974 102.596 170.454 102.488 170.898 102.272C171.354 102.044 171.738 101.696 172.05 101.228L173.364 102.056C172.992 102.716 172.464 103.226 171.78 103.586C171.108 103.934 170.34 104.108 169.476 104.108ZM179.618 104.108C178.646 104.108 177.776 103.898 177.008 103.478C176.252 103.058 175.658 102.482 175.226 101.75C174.794 101.018 174.578 100.178 174.578 99.23C174.578 98.282 174.794 97.442 175.226 96.71C175.658 95.978 176.252 95.408 177.008 95C177.776 94.58 178.646 94.37 179.618 94.37C180.482 94.37 181.25 94.544 181.922 94.892C182.606 95.228 183.134 95.732 183.506 96.404L182.192 97.25C181.88 96.782 181.496 96.44 181.04 96.224C180.596 95.996 180.116 95.882 179.6 95.882C178.976 95.882 178.418 96.02 177.926 96.296C177.434 96.572 177.044 96.962 176.756 97.466C176.468 97.958 176.324 98.546 176.324 99.23C176.324 99.914 176.468 100.508 176.756 101.012C177.044 101.516 177.434 101.906 177.926 102.182C178.418 102.458 178.976 102.596 179.6 102.596C180.116 102.596 180.596 102.488 181.04 102.272C181.496 102.044 181.88 101.696 182.192 101.228L183.506 102.056C183.134 102.716 182.606 103.226 181.922 103.586C181.25 103.934 180.482 104.108 179.618 104.108ZM185.62 104V94.46H187.348V104H185.62ZM186.484 92.624C186.148 92.624 185.866 92.516 185.638 92.3C185.422 92.084 185.314 91.82 185.314 91.508C185.314 91.184 185.422 90.914 185.638 90.698C185.866 90.482 186.148 90.374 186.484 90.374C186.82 90.374 187.096 90.482 187.312 90.698C187.54 90.902 187.654 91.16 187.654 91.472C187.654 91.796 187.546 92.072 187.33 92.3C187.114 92.516 186.832 92.624 186.484 92.624ZM194.734 104.108C193.774 104.108 192.922 103.898 192.178 103.478C191.434 103.058 190.846 102.482 190.414 101.75C189.982 101.006 189.766 100.166 189.766 99.23C189.766 98.282 189.982 97.442 190.414 96.71C190.846 95.978 191.434 95.408 192.178 95C192.922 94.58 193.774 94.37 194.734 94.37C195.682 94.37 196.528 94.58 197.272 95C198.028 95.408 198.616 95.978 199.036 96.71C199.468 97.43 199.684 98.27 199.684 99.23C199.684 100.178 199.468 101.018 199.036 101.75C198.616 102.482 198.028 103.058 197.272 103.478C196.528 103.898 195.682 104.108 194.734 104.108ZM194.734 102.596C195.346 102.596 195.892 102.458 196.372 102.182C196.864 101.906 197.248 101.516 197.524 101.012C197.8 100.496 197.938 99.902 197.938 99.23C197.938 98.546 197.8 97.958 197.524 97.466C197.248 96.962 196.864 96.572 196.372 96.296C195.892 96.02 195.346 95.882 194.734 95.882C194.122 95.882 193.576 96.02 193.096 96.296C192.616 96.572 192.232 96.962 191.944 97.466C191.656 97.958 191.512 98.546 191.512 99.23C191.512 99.902 191.656 100.496 191.944 101.012C192.232 101.516 192.616 101.906 193.096 102.182C193.576 102.458 194.122 102.596 194.734 102.596ZM207.168 94.37C207.948 94.37 208.632 94.52 209.22 94.82C209.82 95.12 210.288 95.576 210.624 96.188C210.96 96.8 211.128 97.574 211.128 98.51V104H209.4V98.708C209.4 97.784 209.172 97.088 208.716 96.62C208.272 96.152 207.642 95.918 206.826 95.918C206.214 95.918 205.68 96.038 205.224 96.278C204.768 96.518 204.414 96.872 204.162 97.34C203.922 97.808 203.802 98.39 203.802 99.086V104H202.074V94.46H203.73V97.034L203.46 96.35C203.772 95.726 204.252 95.24 204.9 94.892C205.548 94.544 206.304 94.37 207.168 94.37ZM220.248 104V101.984L220.158 101.606V98.168C220.158 97.436 219.942 96.872 219.51 96.476C219.09 96.068 218.454 95.864 217.602 95.864C217.038 95.864 216.486 95.96 215.946 96.152C215.406 96.332 214.95 96.578 214.578 96.89L213.858 95.594C214.35 95.198 214.938 94.898 215.622 94.694C216.318 94.478 217.044 94.37 217.8 94.37C219.108 94.37 220.116 94.688 220.824 95.324C221.532 95.96 221.886 96.932 221.886 98.24V104H220.248ZM217.116 104.108C216.408 104.108 215.784 103.988 215.244 103.748C214.716 103.508 214.308 103.178 214.02 102.758C213.732 102.326 213.588 101.84 213.588 101.3C213.588 100.784 213.708 100.316 213.948 99.896C214.2 99.476 214.602 99.14 215.154 98.888C215.718 98.636 216.474 98.51 217.422 98.51H220.446V99.752H217.494C216.63 99.752 216.048 99.896 215.748 100.184C215.448 100.472 215.298 100.82 215.298 101.228C215.298 101.696 215.484 102.074 215.856 102.362C216.228 102.638 216.744 102.776 217.404 102.776C218.052 102.776 218.616 102.632 219.096 102.344C219.588 102.056 219.942 101.636 220.158 101.084L220.5 102.272C220.272 102.836 219.87 103.286 219.294 103.622C218.718 103.946 217.992 104.108 217.116 104.108ZM234.975 104.108C234.183 104.108 233.457 103.928 232.797 103.568C232.149 103.196 231.627 102.65 231.231 101.93C230.847 101.21 230.655 100.31 230.655 99.23C230.655 98.15 230.841 97.25 231.213 96.53C231.597 95.81 232.113 95.27 232.761 94.91C233.421 94.55 234.159 94.37 234.975 94.37C235.911 94.37 236.739 94.574 237.459 94.982C238.179 95.39 238.749 95.96 239.169 96.692C239.589 97.412 239.799 98.258 239.799 99.23C239.799 100.202 239.589 101.054 239.169 101.786C238.749 102.518 238.179 103.088 237.459 103.496C236.739 103.904 235.911 104.108 234.975 104.108ZM229.917 107.492V94.46H231.573V97.034L231.465 99.248L231.645 101.462V107.492H229.917ZM234.831 102.596C235.443 102.596 235.989 102.458 236.469 102.182C236.961 101.906 237.345 101.516 237.621 101.012C237.909 100.496 238.053 99.902 238.053 99.23C238.053 98.546 237.909 97.958 237.621 97.466C237.345 96.962 236.961 96.572 236.469 96.296C235.989 96.02 235.443 95.882 234.831 95.882C234.231 95.882 233.685 96.02 233.193 96.296C232.713 96.572 232.329 96.962 232.041 97.466C231.765 97.958 231.627 98.546 231.627 99.23C231.627 99.902 231.765 100.496 232.041 101.012C232.329 101.516 232.713 101.906 233.193 102.182C233.685 102.458 234.231 102.596 234.831 102.596ZM246.435 104.108C245.415 104.108 244.515 103.898 243.735 103.478C242.967 103.058 242.367 102.482 241.935 101.75C241.515 101.018 241.305 100.178 241.305 99.23C241.305 98.282 241.509 97.442 241.917 96.71C242.337 95.978 242.907 95.408 243.627 95C244.359 94.58 245.181 94.37 246.093 94.37C247.017 94.37 247.833 94.574 248.541 94.982C249.249 95.39 249.801 95.966 250.197 96.71C250.605 97.442 250.809 98.3 250.809 99.284C250.809 99.356 250.803 99.44 250.791 99.536C250.791 99.632 250.785 99.722 250.773 99.806H242.655V98.564H249.873L249.171 98.996C249.183 98.384 249.057 97.838 248.793 97.358C248.529 96.878 248.163 96.506 247.695 96.242C247.239 95.966 246.705 95.828 246.093 95.828C245.493 95.828 244.959 95.966 244.491 96.242C244.023 96.506 243.657 96.884 243.393 97.376C243.129 97.856 242.997 98.408 242.997 99.032V99.32C242.997 99.956 243.141 100.526 243.429 101.03C243.729 101.522 244.143 101.906 244.671 102.182C245.199 102.458 245.805 102.596 246.489 102.596C247.053 102.596 247.563 102.5 248.019 102.308C248.487 102.116 248.895 101.828 249.243 101.444L250.197 102.56C249.765 103.064 249.225 103.448 248.577 103.712C247.941 103.976 247.227 104.108 246.435 104.108ZM253.208 104V94.46H254.864V97.052L254.702 96.404C254.966 95.744 255.41 95.24 256.034 94.892C256.658 94.544 257.426 94.37 258.338 94.37V96.044C258.266 96.032 258.194 96.026 258.122 96.026C258.062 96.026 258.002 96.026 257.942 96.026C257.018 96.026 256.286 96.302 255.746 96.854C255.206 97.406 254.936 98.204 254.936 99.248V104H253.208ZM263.31 104.108C262.518 104.108 261.762 104 261.042 103.784C260.334 103.568 259.776 103.304 259.368 102.992L260.088 101.624C260.496 101.9 261 102.134 261.6 102.326C262.2 102.518 262.812 102.614 263.436 102.614C264.24 102.614 264.816 102.5 265.164 102.272C265.524 102.044 265.704 101.726 265.704 101.318C265.704 101.018 265.596 100.784 265.38 100.616C265.164 100.448 264.876 100.322 264.516 100.238C264.168 100.154 263.778 100.082 263.346 100.022C262.914 99.95 262.482 99.866 262.05 99.77C261.618 99.662 261.222 99.518 260.862 99.338C260.502 99.146 260.214 98.888 259.998 98.564C259.782 98.228 259.674 97.784 259.674 97.232C259.674 96.656 259.836 96.152 260.16 95.72C260.484 95.288 260.94 94.958 261.528 94.73C262.128 94.49 262.836 94.37 263.652 94.37C264.276 94.37 264.906 94.448 265.542 94.604C266.19 94.748 266.718 94.958 267.126 95.234L266.388 96.602C265.956 96.314 265.506 96.116 265.038 96.008C264.57 95.9 264.102 95.846 263.634 95.846C262.878 95.846 262.314 95.972 261.942 96.224C261.57 96.464 261.384 96.776 261.384 97.16C261.384 97.484 261.492 97.736 261.708 97.916C261.936 98.084 262.224 98.216 262.572 98.312C262.932 98.408 263.328 98.492 263.76 98.564C264.192 98.624 264.624 98.708 265.056 98.816C265.488 98.912 265.878 99.05 266.226 99.23C266.586 99.41 266.874 99.662 267.09 99.986C267.318 100.31 267.432 100.742 267.432 101.282C267.432 101.858 267.264 102.356 266.928 102.776C266.592 103.196 266.118 103.526 265.506 103.766C264.894 103.994 264.162 104.108 263.31 104.108ZM273.677 104.108C272.717 104.108 271.865 103.898 271.121 103.478C270.377 103.058 269.789 102.482 269.357 101.75C268.925 101.006 268.709 100.166 268.709 99.23C268.709 98.282 268.925 97.442 269.357 96.71C269.789 95.978 270.377 95.408 271.121 95C271.865 94.58 272.717 94.37 273.677 94.37C274.625 94.37 275.471 94.58 276.215 95C276.971 95.408 277.559 95.978 277.979 96.71C278.411 97.43 278.627 98.27 278.627 99.23C278.627 100.178 278.411 101.018 277.979 101.75C277.559 102.482 276.971 103.058 276.215 103.478C275.471 103.898 274.625 104.108 273.677 104.108ZM273.677 102.596C274.289 102.596 274.835 102.458 275.315 102.182C275.807 101.906 276.191 101.516 276.467 101.012C276.743 100.496 276.881 99.902 276.881 99.23C276.881 98.546 276.743 97.958 276.467 97.466C276.191 96.962 275.807 96.572 275.315 96.296C274.835 96.02 274.289 95.882 273.677 95.882C273.065 95.882 272.519 96.02 272.039 96.296C271.559 96.572 271.175 96.962 270.887 97.466C270.599 97.958 270.455 98.546 270.455 99.23C270.455 99.902 270.599 100.496 270.887 101.012C271.175 101.516 271.559 101.906 272.039 102.182C272.519 102.458 273.065 102.596 273.677 102.596ZM286.111 94.37C286.891 94.37 287.575 94.52 288.163 94.82C288.763 95.12 289.231 95.576 289.567 96.188C289.903 96.8 290.071 97.574 290.071 98.51V104H288.343V98.708C288.343 97.784 288.115 97.088 287.659 96.62C287.215 96.152 286.585 95.918 285.769 95.918C285.157 95.918 284.623 96.038 284.167 96.278C283.711 96.518 283.357 96.872 283.105 97.34C282.865 97.808 282.745 98.39 282.745 99.086V104H281.017V94.46H282.673V97.034L282.403 96.35C282.715 95.726 283.195 95.24 283.843 94.892C284.491 94.544 285.247 94.37 286.111 94.37ZM299.191 104V101.984L299.101 101.606V98.168C299.101 97.436 298.885 96.872 298.453 96.476C298.033 96.068 297.397 95.864 296.545 95.864C295.981 95.864 295.429 95.96 294.889 96.152C294.349 96.332 293.893 96.578 293.521 96.89L292.801 95.594C293.293 95.198 293.881 94.898 294.565 94.694C295.261 94.478 295.987 94.37 296.743 94.37C298.051 94.37 299.059 94.688 299.767 95.324C300.475 95.96 300.829 96.932 300.829 98.24V104H299.191ZM296.059 104.108C295.351 104.108 294.727 103.988 294.187 103.748C293.659 103.508 293.251 103.178 292.963 102.758C292.675 102.326 292.531 101.84 292.531 101.3C292.531 100.784 292.651 100.316 292.891 99.896C293.143 99.476 293.545 99.14 294.097 98.888C294.661 98.636 295.417 98.51 296.365 98.51H299.389V99.752H296.437C295.573 99.752 294.991 99.896 294.691 100.184C294.391 100.472 294.241 100.82 294.241 101.228C294.241 101.696 294.427 102.074 294.799 102.362C295.171 102.638 295.687 102.776 296.347 102.776C296.995 102.776 297.559 102.632 298.039 102.344C298.531 102.056 298.885 101.636 299.101 101.084L299.443 102.272C299.215 102.836 298.813 103.286 298.237 103.622C297.661 103.946 296.935 104.108 296.059 104.108ZM304.027 104V90.644H305.755V104H304.027ZM314.302 107.6C313.846 107.6 313.402 107.522 312.97 107.366C312.538 107.222 312.166 107.006 311.854 106.718L312.592 105.422C312.832 105.65 313.096 105.824 313.384 105.944C313.672 106.064 313.978 106.124 314.302 106.124C314.722 106.124 315.07 106.016 315.346 105.8C315.622 105.584 315.88 105.2 316.12 104.648L316.714 103.334L316.894 103.118L320.638 94.46H322.33L317.704 104.954C317.428 105.626 317.116 106.154 316.768 106.538C316.432 106.922 316.06 107.192 315.652 107.348C315.244 107.516 314.794 107.6 314.302 107.6ZM316.57 104.306L312.214 94.46H314.014L317.722 102.956L316.57 104.306ZM329.029 104V93.614C329.029 92.678 329.299 91.934 329.839 91.382C330.391 90.818 331.171 90.536 332.179 90.536C332.551 90.536 332.905 90.584 333.241 90.68C333.589 90.764 333.883 90.902 334.123 91.094L333.601 92.408C333.421 92.264 333.217 92.156 332.989 92.084C332.761 92 332.521 91.958 332.269 91.958C331.765 91.958 331.381 92.102 331.117 92.39C330.853 92.666 330.721 93.08 330.721 93.632V94.91L330.757 95.702V104H329.029ZM327.409 95.882V94.46H333.493V95.882H327.409ZM339.068 104.108C338.108 104.108 337.256 103.898 336.512 103.478C335.768 103.058 335.18 102.482 334.748 101.75C334.316 101.006 334.1 100.166 334.1 99.23C334.1 98.282 334.316 97.442 334.748 96.71C335.18 95.978 335.768 95.408 336.512 95C337.256 94.58 338.108 94.37 339.068 94.37C340.016 94.37 340.862 94.58 341.606 95C342.362 95.408 342.95 95.978 343.37 96.71C343.802 97.43 344.018 98.27 344.018 99.23C344.018 100.178 343.802 101.018 343.37 101.75C342.95 102.482 342.362 103.058 341.606 103.478C340.862 103.898 340.016 104.108 339.068 104.108ZM339.068 102.596C339.68 102.596 340.226 102.458 340.706 102.182C341.198 101.906 341.582 101.516 341.858 101.012C342.134 100.496 342.272 99.902 342.272 99.23C342.272 98.546 342.134 97.958 341.858 97.466C341.582 96.962 341.198 96.572 340.706 96.296C340.226 96.02 339.68 95.882 339.068 95.882C338.456 95.882 337.91 96.02 337.43 96.296C336.95 96.572 336.566 96.962 336.278 97.466C335.99 97.958 335.846 98.546 335.846 99.23C335.846 99.902 335.99 100.496 336.278 101.012C336.566 101.516 336.95 101.906 337.43 102.182C337.91 102.458 338.456 102.596 339.068 102.596ZM346.408 104V94.46H348.064V97.052L347.902 96.404C348.166 95.744 348.61 95.24 349.234 94.892C349.858 94.544 350.626 94.37 351.538 94.37V96.044C351.466 96.032 351.394 96.026 351.322 96.026C351.262 96.026 351.202 96.026 351.142 96.026C350.218 96.026 349.486 96.302 348.946 96.854C348.406 97.406 348.136 98.204 348.136 99.248V104H346.408ZM365.601 94.37C366.369 94.37 367.047 94.52 367.635 94.82C368.223 95.12 368.679 95.576 369.003 96.188C369.339 96.8 369.507 97.574 369.507 98.51V104H367.779V98.708C367.779 97.784 367.563 97.088 367.131 96.62C366.699 96.152 366.093 95.918 365.313 95.918C364.737 95.918 364.233 96.038 363.801 96.278C363.369 96.518 363.033 96.872 362.793 97.34C362.565 97.808 362.451 98.39 362.451 99.086V104H360.723V98.708C360.723 97.784 360.507 97.088 360.075 96.62C359.655 96.152 359.049 95.918 358.257 95.918C357.693 95.918 357.195 96.038 356.763 96.278C356.331 96.518 355.995 96.872 355.755 97.34C355.515 97.808 355.395 98.39 355.395 99.086V104H353.667V94.46H355.323V96.998L355.053 96.35C355.353 95.726 355.815 95.24 356.439 94.892C357.063 94.544 357.789 94.37 358.617 94.37C359.529 94.37 360.315 94.598 360.975 95.054C361.635 95.498 362.067 96.176 362.271 97.088L361.569 96.8C361.857 96.068 362.361 95.48 363.081 95.036C363.801 94.592 364.641 94.37 365.601 94.37ZM378.609 104V101.984L378.519 101.606V98.168C378.519 97.436 378.303 96.872 377.871 96.476C377.451 96.068 376.815 95.864 375.963 95.864C375.399 95.864 374.847 95.96 374.307 96.152C373.767 96.332 373.311 96.578 372.939 96.89L372.219 95.594C372.711 95.198 373.299 94.898 373.983 94.694C374.679 94.478 375.405 94.37 376.161 94.37C377.469 94.37 378.477 94.688 379.185 95.324C379.893 95.96 380.247 96.932 380.247 98.24V104H378.609ZM375.477 104.108C374.769 104.108 374.145 103.988 373.605 103.748C373.077 103.508 372.669 103.178 372.381 102.758C372.093 102.326 371.949 101.84 371.949 101.3C371.949 100.784 372.069 100.316 372.309 99.896C372.561 99.476 372.963 99.14 373.515 98.888C374.079 98.636 374.835 98.51 375.783 98.51H378.807V99.752H375.855C374.991 99.752 374.409 99.896 374.109 100.184C373.809 100.472 373.659 100.82 373.659 101.228C373.659 101.696 373.845 102.074 374.217 102.362C374.589 102.638 375.105 102.776 375.765 102.776C376.413 102.776 376.977 102.632 377.457 102.344C377.949 102.056 378.303 101.636 378.519 101.084L378.861 102.272C378.633 102.836 378.231 103.286 377.655 103.622C377.079 103.946 376.353 104.108 375.477 104.108ZM53.914 128.108C52.954 128.108 52.21 127.85 51.682 127.334C51.154 126.818 50.89 126.08 50.89 125.12V116.372H52.618V125.048C52.618 125.564 52.744 125.96 52.996 126.236C53.26 126.512 53.632 126.65 54.112 126.65C54.652 126.65 55.102 126.5 55.462 126.2L56.002 127.442C55.738 127.67 55.42 127.838 55.048 127.946C54.688 128.054 54.31 128.108 53.914 128.108ZM49.27 119.882V118.46H55.354V119.882H49.27ZM64.0131 128V125.984L63.9231 125.606V122.168C63.9231 121.436 63.7071 120.872 63.2751 120.476C62.8551 120.068 62.2191 119.864 61.3671 119.864C60.8031 119.864 60.2511 119.96 59.7111 120.152C59.1711 120.332 58.7151 120.578 58.3431 120.89L57.6231 119.594C58.1151 119.198 58.7031 118.898 59.3871 118.694C60.0831 118.478 60.8091 118.37 61.5651 118.37C62.8731 118.37 63.8811 118.688 64.5891 119.324C65.2971 119.96 65.6511 120.932 65.6511 122.24V128H64.0131ZM60.8811 128.108C60.1731 128.108 59.5491 127.988 59.0091 127.748C58.4811 127.508 58.0731 127.178 57.7851 126.758C57.4971 126.326 57.3531 125.84 57.3531 125.3C57.3531 124.784 57.4731 124.316 57.7131 123.896C57.9651 123.476 58.3671 123.14 58.9191 122.888C59.4831 122.636 60.2391 122.51 61.1871 122.51H64.2111V123.752H61.2591C60.3951 123.752 59.8131 123.896 59.5131 124.184C59.2131 124.472 59.0631 124.82 59.0631 125.228C59.0631 125.696 59.2491 126.074 59.6211 126.362C59.9931 126.638 60.5091 126.776 61.1691 126.776C61.8171 126.776 62.3811 126.632 62.8611 126.344C63.3531 126.056 63.7071 125.636 63.9231 125.084L64.2651 126.272C64.0371 126.836 63.6351 127.286 63.0591 127.622C62.4831 127.946 61.7571 128.108 60.8811 128.108ZM68.8489 128V114.644H70.5769V128H68.8489ZM78.1243 128.108C77.1043 128.108 76.2043 127.898 75.4243 127.478C74.6563 127.058 74.0563 126.482 73.6243 125.75C73.2043 125.018 72.9943 124.178 72.9943 123.23C72.9943 122.282 73.1983 121.442 73.6063 120.71C74.0263 119.978 74.5963 119.408 75.3163 119C76.0483 118.58 76.8703 118.37 77.7823 118.37C78.7063 118.37 79.5223 118.574 80.2303 118.982C80.9383 119.39 81.4903 119.966 81.8863 120.71C82.2943 121.442 82.4983 122.3 82.4983 123.284C82.4983 123.356 82.4923 123.44 82.4803 123.536C82.4803 123.632 82.4743 123.722 82.4623 123.806H74.3443V122.564H81.5623L80.8603 122.996C80.8723 122.384 80.7463 121.838 80.4823 121.358C80.2183 120.878 79.8523 120.506 79.3843 120.242C78.9283 119.966 78.3943 119.828 77.7823 119.828C77.1823 119.828 76.6483 119.966 76.1803 120.242C75.7123 120.506 75.3463 120.884 75.0823 121.376C74.8183 121.856 74.6863 122.408 74.6863 123.032V123.32C74.6863 123.956 74.8303 124.526 75.1183 125.03C75.4183 125.522 75.8323 125.906 76.3603 126.182C76.8883 126.458 77.4943 126.596 78.1783 126.596C78.7423 126.596 79.2523 126.5 79.7083 126.308C80.1763 126.116 80.5843 125.828 80.9323 125.444L81.8863 126.56C81.4543 127.064 80.9143 127.448 80.2663 127.712C79.6303 127.976 78.9163 128.108 78.1243 128.108ZM89.9918 118.37C90.7718 118.37 91.4558 118.52 92.0438 118.82C92.6438 119.12 93.1118 119.576 93.4478 120.188C93.7838 120.8 93.9518 121.574 93.9518 122.51V128H92.2238V122.708C92.2238 121.784 91.9958 121.088 91.5398 120.62C91.0958 120.152 90.4658 119.918 89.6498 119.918C89.0378 119.918 88.5038 120.038 88.0478 120.278C87.5918 120.518 87.2378 120.872 86.9858 121.34C86.7458 121.808 86.6258 122.39 86.6258 123.086V128H84.8978V118.46H86.5538V121.034L86.2838 120.35C86.5958 119.726 87.0758 119.24 87.7238 118.892C88.3718 118.544 89.1278 118.37 89.9918 118.37ZM100.426 128.108C99.4657 128.108 98.7217 127.85 98.1937 127.334C97.6657 126.818 97.4017 126.08 97.4017 125.12V116.372H99.1297V125.048C99.1297 125.564 99.2557 125.96 99.5077 126.236C99.7717 126.512 100.144 126.65 100.624 126.65C101.164 126.65 101.614 126.5 101.974 126.2L102.514 127.442C102.25 127.67 101.932 127.838 101.56 127.946C101.2 128.054 100.822 128.108 100.426 128.108ZM95.7817 119.882V118.46H101.866V119.882H95.7817ZM108.372 128.108C107.412 128.108 106.56 127.898 105.816 127.478C105.072 127.058 104.484 126.482 104.052 125.75C103.62 125.006 103.404 124.166 103.404 123.23C103.404 122.282 103.62 121.442 104.052 120.71C104.484 119.978 105.072 119.408 105.816 119C106.56 118.58 107.412 118.37 108.372 118.37C109.32 118.37 110.166 118.58 110.91 119C111.666 119.408 112.254 119.978 112.674 120.71C113.106 121.43 113.322 122.27 113.322 123.23C113.322 124.178 113.106 125.018 112.674 125.75C112.254 126.482 111.666 127.058 110.91 127.478C110.166 127.898 109.32 128.108 108.372 128.108ZM108.372 126.596C108.984 126.596 109.53 126.458 110.01 126.182C110.502 125.906 110.886 125.516 111.162 125.012C111.438 124.496 111.576 123.902 111.576 123.23C111.576 122.546 111.438 121.958 111.162 121.466C110.886 120.962 110.502 120.572 110.01 120.296C109.53 120.02 108.984 119.882 108.372 119.882C107.76 119.882 107.214 120.02 106.734 120.296C106.254 120.572 105.87 120.962 105.582 121.466C105.294 121.958 105.15 122.546 105.15 123.23C105.15 123.902 105.294 124.496 105.582 125.012C105.87 125.516 106.254 125.906 106.734 126.182C107.214 126.458 107.76 126.596 108.372 126.596ZM124.488 128.108C123.564 128.108 122.736 127.904 122.004 127.496C121.284 127.088 120.714 126.518 120.294 125.786C119.874 125.054 119.664 124.202 119.664 123.23C119.664 122.258 119.874 121.412 120.294 120.692C120.714 119.96 121.284 119.39 122.004 118.982C122.736 118.574 123.564 118.37 124.488 118.37C125.292 118.37 126.018 118.55 126.666 118.91C127.314 119.27 127.83 119.81 128.214 120.53C128.61 121.25 128.808 122.15 128.808 123.23C128.808 124.31 128.616 125.21 128.232 125.93C127.86 126.65 127.35 127.196 126.702 127.568C126.054 127.928 125.316 128.108 124.488 128.108ZM124.632 126.596C125.232 126.596 125.772 126.458 126.252 126.182C126.744 125.906 127.128 125.516 127.404 125.012C127.692 124.496 127.836 123.902 127.836 123.23C127.836 122.546 127.692 121.958 127.404 121.466C127.128 120.962 126.744 120.572 126.252 120.296C125.772 120.02 125.232 119.882 124.632 119.882C124.02 119.882 123.474 120.02 122.994 120.296C122.514 120.572 122.13 120.962 121.842 121.466C121.554 121.958 121.41 122.546 121.41 123.23C121.41 123.902 121.554 124.496 121.842 125.012C122.13 125.516 122.514 125.906 122.994 126.182C123.474 126.458 124.02 126.596 124.632 126.596ZM127.89 128V125.426L127.998 123.212L127.818 120.998V114.644H129.546V128H127.89ZM132.816 128V118.46H134.544V128H132.816ZM133.68 116.624C133.344 116.624 133.062 116.516 132.834 116.3C132.618 116.084 132.51 115.82 132.51 115.508C132.51 115.184 132.618 114.914 132.834 114.698C133.062 114.482 133.344 114.374 133.68 114.374C134.016 114.374 134.292 114.482 134.508 114.698C134.736 114.902 134.85 115.16 134.85 115.472C134.85 115.796 134.742 116.072 134.526 116.3C134.31 116.516 134.028 116.624 133.68 116.624ZM142.019 131.6C141.143 131.6 140.291 131.474 139.463 131.222C138.647 130.982 137.981 130.634 137.465 130.178L138.293 128.846C138.737 129.23 139.283 129.53 139.931 129.746C140.579 129.974 141.257 130.088 141.965 130.088C143.093 130.088 143.921 129.824 144.449 129.296C144.977 128.768 145.241 127.964 145.241 126.884V124.868L145.421 122.978L145.331 121.07V118.46H146.969V126.704C146.969 128.384 146.549 129.62 145.709 130.412C144.869 131.204 143.639 131.6 142.019 131.6ZM141.803 127.604C140.879 127.604 140.051 127.412 139.319 127.028C138.599 126.632 138.023 126.086 137.591 125.39C137.171 124.694 136.961 123.89 136.961 122.978C136.961 122.054 137.171 121.25 137.591 120.566C138.023 119.87 138.599 119.33 139.319 118.946C140.051 118.562 140.879 118.37 141.803 118.37C142.619 118.37 143.363 118.538 144.035 118.874C144.707 119.198 145.241 119.702 145.637 120.386C146.045 121.07 146.249 121.934 146.249 122.978C146.249 124.01 146.045 124.868 145.637 125.552C145.241 126.236 144.707 126.752 144.035 127.1C143.363 127.436 142.619 127.604 141.803 127.604ZM142.001 126.092C142.637 126.092 143.201 125.96 143.693 125.696C144.185 125.432 144.569 125.066 144.845 124.598C145.133 124.13 145.277 123.59 145.277 122.978C145.277 122.366 145.133 121.826 144.845 121.358C144.569 120.89 144.185 120.53 143.693 120.278C143.201 120.014 142.637 119.882 142.001 119.882C141.365 119.882 140.795 120.014 140.291 120.278C139.799 120.53 139.409 120.89 139.121 121.358C138.845 121.826 138.707 122.366 138.707 122.978C138.707 123.59 138.845 124.13 139.121 124.598C139.409 125.066 139.799 125.432 140.291 125.696C140.795 125.96 141.365 126.092 142.001 126.092ZM150.271 128V118.46H151.999V128H150.271ZM151.135 116.624C150.799 116.624 150.517 116.516 150.289 116.3C150.073 116.084 149.965 115.82 149.965 115.508C149.965 115.184 150.073 114.914 150.289 114.698C150.517 114.482 150.799 114.374 151.135 114.374C151.471 114.374 151.747 114.482 151.963 114.698C152.191 114.902 152.305 115.16 152.305 115.472C152.305 115.796 152.197 116.072 151.981 116.3C151.765 116.516 151.483 116.624 151.135 116.624ZM158.574 128.108C157.614 128.108 156.87 127.85 156.342 127.334C155.814 126.818 155.55 126.08 155.55 125.12V116.372H157.278V125.048C157.278 125.564 157.404 125.96 157.656 126.236C157.92 126.512 158.292 126.65 158.772 126.65C159.312 126.65 159.762 126.5 160.122 126.2L160.662 127.442C160.398 127.67 160.08 127.838 159.708 127.946C159.348 128.054 158.97 128.108 158.574 128.108ZM153.93 119.882V118.46H160.014V119.882H153.93ZM168.673 128V125.984L168.583 125.606V122.168C168.583 121.436 168.367 120.872 167.935 120.476C167.515 120.068 166.879 119.864 166.027 119.864C165.463 119.864 164.911 119.96 164.371 120.152C163.831 120.332 163.375 120.578 163.003 120.89L162.283 119.594C162.775 119.198 163.363 118.898 164.047 118.694C164.743 118.478 165.469 118.37 166.225 118.37C167.533 118.37 168.541 118.688 169.249 119.324C169.957 119.96 170.311 120.932 170.311 122.24V128H168.673ZM165.541 128.108C164.833 128.108 164.209 127.988 163.669 127.748C163.141 127.508 162.733 127.178 162.445 126.758C162.157 126.326 162.013 125.84 162.013 125.3C162.013 124.784 162.133 124.316 162.373 123.896C162.625 123.476 163.027 123.14 163.579 122.888C164.143 122.636 164.899 122.51 165.847 122.51H168.871V123.752H165.919C165.055 123.752 164.473 123.896 164.173 124.184C163.873 124.472 163.723 124.82 163.723 125.228C163.723 125.696 163.909 126.074 164.281 126.362C164.653 126.638 165.169 126.776 165.829 126.776C166.477 126.776 167.041 126.632 167.521 126.344C168.013 126.056 168.367 125.636 168.583 125.084L168.925 126.272C168.697 126.836 168.295 127.286 167.719 127.622C167.143 127.946 166.417 128.108 165.541 128.108ZM173.509 128V114.644H175.237V128H173.509ZM187.312 128.108C186.388 128.108 185.56 127.904 184.828 127.496C184.108 127.088 183.538 126.518 183.118 125.786C182.698 125.054 182.488 124.202 182.488 123.23C182.488 122.258 182.698 121.412 183.118 120.692C183.538 119.96 184.108 119.39 184.828 118.982C185.56 118.574 186.388 118.37 187.312 118.37C188.116 118.37 188.842 118.55 189.49 118.91C190.138 119.27 190.654 119.81 191.038 120.53C191.434 121.25 191.632 122.15 191.632 123.23C191.632 124.31 191.44 125.21 191.056 125.93C190.684 126.65 190.174 127.196 189.526 127.568C188.878 127.928 188.14 128.108 187.312 128.108ZM187.456 126.596C188.056 126.596 188.596 126.458 189.076 126.182C189.568 125.906 189.952 125.516 190.228 125.012C190.516 124.496 190.66 123.902 190.66 123.23C190.66 122.546 190.516 121.958 190.228 121.466C189.952 120.962 189.568 120.572 189.076 120.296C188.596 120.02 188.056 119.882 187.456 119.882C186.844 119.882 186.298 120.02 185.818 120.296C185.338 120.572 184.954 120.962 184.666 121.466C184.378 121.958 184.234 122.546 184.234 123.23C184.234 123.902 184.378 124.496 184.666 125.012C184.954 125.516 185.338 125.906 185.818 126.182C186.298 126.458 186.844 126.596 187.456 126.596ZM190.714 128V125.426L190.822 123.212L190.642 120.998V114.644H192.37V128H190.714ZM199.888 128.108C198.868 128.108 197.968 127.898 197.188 127.478C196.42 127.058 195.82 126.482 195.388 125.75C194.968 125.018 194.758 124.178 194.758 123.23C194.758 122.282 194.962 121.442 195.37 120.71C195.79 119.978 196.36 119.408 197.08 119C197.812 118.58 198.634 118.37 199.546 118.37C200.47 118.37 201.286 118.574 201.994 118.982C202.702 119.39 203.254 119.966 203.65 120.71C204.058 121.442 204.262 122.3 204.262 123.284C204.262 123.356 204.256 123.44 204.244 123.536C204.244 123.632 204.238 123.722 204.226 123.806H196.108V122.564H203.326L202.624 122.996C202.636 122.384 202.51 121.838 202.246 121.358C201.982 120.878 201.616 120.506 201.148 120.242C200.692 119.966 200.158 119.828 199.546 119.828C198.946 119.828 198.412 119.966 197.944 120.242C197.476 120.506 197.11 120.884 196.846 121.376C196.582 121.856 196.45 122.408 196.45 123.032V123.32C196.45 123.956 196.594 124.526 196.882 125.03C197.182 125.522 197.596 125.906 198.124 126.182C198.652 126.458 199.258 126.596 199.942 126.596C200.506 126.596 201.016 126.5 201.472 126.308C201.94 126.116 202.348 125.828 202.696 125.444L203.65 126.56C203.218 127.064 202.678 127.448 202.03 127.712C201.394 127.976 200.68 128.108 199.888 128.108ZM217.417 128V125.984L217.327 125.606V122.168C217.327 121.436 217.111 120.872 216.679 120.476C216.259 120.068 215.623 119.864 214.771 119.864C214.207 119.864 213.655 119.96 213.115 120.152C212.575 120.332 212.119 120.578 211.747 120.89L211.027 119.594C211.519 119.198 212.107 118.898 212.791 118.694C213.487 118.478 214.213 118.37 214.969 118.37C216.277 118.37 217.285 118.688 217.993 119.324C218.701 119.96 219.055 120.932 219.055 122.24V128H217.417ZM214.285 128.108C213.577 128.108 212.953 127.988 212.413 127.748C211.885 127.508 211.477 127.178 211.189 126.758C210.901 126.326 210.757 125.84 210.757 125.3C210.757 124.784 210.877 124.316 211.117 123.896C211.369 123.476 211.771 123.14 212.323 122.888C212.887 122.636 213.643 122.51 214.591 122.51H217.615V123.752H214.663C213.799 123.752 213.217 123.896 212.917 124.184C212.617 124.472 212.467 124.82 212.467 125.228C212.467 125.696 212.653 126.074 213.025 126.362C213.397 126.638 213.913 126.776 214.573 126.776C215.221 126.776 215.785 126.632 216.265 126.344C216.757 126.056 217.111 125.636 217.327 125.084L217.669 126.272C217.441 126.836 217.039 127.286 216.463 127.622C215.887 127.946 215.161 128.108 214.285 128.108ZM222.253 128V114.644H223.981V128H222.253ZM230.803 128.108C229.843 128.108 229.099 127.85 228.571 127.334C228.043 126.818 227.779 126.08 227.779 125.12V116.372H229.507V125.048C229.507 125.564 229.633 125.96 229.885 126.236C230.149 126.512 230.521 126.65 231.001 126.65C231.541 126.65 231.991 126.5 232.351 126.2L232.891 127.442C232.627 127.67 232.309 127.838 231.937 127.946C231.577 128.054 231.199 128.108 230.803 128.108ZM226.159 119.882V118.46H232.243V119.882H226.159ZM238.749 128.108C237.789 128.108 236.937 127.898 236.193 127.478C235.449 127.058 234.861 126.482 234.429 125.75C233.997 125.006 233.781 124.166 233.781 123.23C233.781 122.282 233.997 121.442 234.429 120.71C234.861 119.978 235.449 119.408 236.193 119C236.937 118.58 237.789 118.37 238.749 118.37C239.697 118.37 240.543 118.58 241.287 119C242.043 119.408 242.631 119.978 243.051 120.71C243.483 121.43 243.699 122.27 243.699 123.23C243.699 124.178 243.483 125.018 243.051 125.75C242.631 126.482 242.043 127.058 241.287 127.478C240.543 127.898 239.697 128.108 238.749 128.108ZM238.749 126.596C239.361 126.596 239.907 126.458 240.387 126.182C240.879 125.906 241.263 125.516 241.539 125.012C241.815 124.496 241.953 123.902 241.953 123.23C241.953 122.546 241.815 121.958 241.539 121.466C241.263 120.962 240.879 120.572 240.387 120.296C239.907 120.02 239.361 119.882 238.749 119.882C238.137 119.882 237.591 120.02 237.111 120.296C236.631 120.572 236.247 120.962 235.959 121.466C235.671 121.958 235.527 122.546 235.527 123.23C235.527 123.902 235.671 124.496 235.959 125.012C236.247 125.516 236.631 125.906 237.111 126.182C237.591 126.458 238.137 126.596 238.749 126.596ZM255.981 128.108C255.189 128.108 254.463 127.928 253.803 127.568C253.155 127.196 252.633 126.65 252.237 125.93C251.853 125.21 251.661 124.31 251.661 123.23C251.661 122.15 251.847 121.25 252.219 120.53C252.603 119.81 253.119 119.27 253.767 118.91C254.427 118.55 255.165 118.37 255.981 118.37C256.917 118.37 257.745 118.574 258.465 118.982C259.185 119.39 259.755 119.96 260.175 120.692C260.595 121.412 260.805 122.258 260.805 123.23C260.805 124.202 260.595 125.054 260.175 125.786C259.755 126.518 259.185 127.088 258.465 127.496C257.745 127.904 256.917 128.108 255.981 128.108ZM250.923 131.492V118.46H252.579V121.034L252.471 123.248L252.651 125.462V131.492H250.923ZM255.837 126.596C256.449 126.596 256.995 126.458 257.475 126.182C257.967 125.906 258.351 125.516 258.627 125.012C258.915 124.496 259.059 123.902 259.059 123.23C259.059 122.546 258.915 121.958 258.627 121.466C258.351 120.962 257.967 120.572 257.475 120.296C256.995 120.02 256.449 119.882 255.837 119.882C255.237 119.882 254.691 120.02 254.199 120.296C253.719 120.572 253.335 120.962 253.047 121.466C252.771 121.958 252.633 122.546 252.633 123.23C252.633 123.902 252.771 124.496 253.047 125.012C253.335 125.516 253.719 125.906 254.199 126.182C254.691 126.458 255.237 126.596 255.837 126.596ZM267.441 128.108C266.421 128.108 265.521 127.898 264.741 127.478C263.973 127.058 263.373 126.482 262.941 125.75C262.521 125.018 262.311 124.178 262.311 123.23C262.311 122.282 262.515 121.442 262.923 120.71C263.343 119.978 263.913 119.408 264.633 119C265.365 118.58 266.187 118.37 267.099 118.37C268.023 118.37 268.839 118.574 269.547 118.982C270.255 119.39 270.807 119.966 271.203 120.71C271.611 121.442 271.815 122.3 271.815 123.284C271.815 123.356 271.809 123.44 271.797 123.536C271.797 123.632 271.791 123.722 271.779 123.806H263.661V122.564H270.879L270.177 122.996C270.189 122.384 270.063 121.838 269.799 121.358C269.535 120.878 269.169 120.506 268.701 120.242C268.245 119.966 267.711 119.828 267.099 119.828C266.499 119.828 265.965 119.966 265.497 120.242C265.029 120.506 264.663 120.884 264.399 121.376C264.135 121.856 264.003 122.408 264.003 123.032V123.32C264.003 123.956 264.147 124.526 264.435 125.03C264.735 125.522 265.149 125.906 265.677 126.182C266.205 126.458 266.811 126.596 267.495 126.596C268.059 126.596 268.569 126.5 269.025 126.308C269.493 126.116 269.901 125.828 270.249 125.444L271.203 126.56C270.771 127.064 270.231 127.448 269.583 127.712C268.947 127.976 268.233 128.108 267.441 128.108ZM274.214 128V118.46H275.87V121.052L275.708 120.404C275.972 119.744 276.416 119.24 277.04 118.892C277.664 118.544 278.432 118.37 279.344 118.37V120.044C279.272 120.032 279.2 120.026 279.128 120.026C279.068 120.026 279.008 120.026 278.948 120.026C278.024 120.026 277.292 120.302 276.752 120.854C276.212 121.406 275.942 122.204 275.942 123.248V128H274.214ZM281.849 128V117.614C281.849 116.678 282.119 115.934 282.659 115.382C283.211 114.818 283.991 114.536 284.999 114.536C285.371 114.536 285.725 114.584 286.061 114.68C286.409 114.764 286.703 114.902 286.943 115.094L286.421 116.408C286.241 116.264 286.037 116.156 285.809 116.084C285.581 116 285.341 115.958 285.089 115.958C284.585 115.958 284.201 116.102 283.937 116.39C283.673 116.666 283.541 117.08 283.541 117.632V118.91L283.577 119.702V128H281.849ZM280.229 119.882V118.46H286.313V119.882H280.229ZM291.888 128.108C290.928 128.108 290.076 127.898 289.332 127.478C288.588 127.058 288 126.482 287.568 125.75C287.136 125.006 286.92 124.166 286.92 123.23C286.92 122.282 287.136 121.442 287.568 120.71C288 119.978 288.588 119.408 289.332 119C290.076 118.58 290.928 118.37 291.888 118.37C292.836 118.37 293.682 118.58 294.426 119C295.182 119.408 295.77 119.978 296.19 120.71C296.622 121.43 296.838 122.27 296.838 123.23C296.838 124.178 296.622 125.018 296.19 125.75C295.77 126.482 295.182 127.058 294.426 127.478C293.682 127.898 292.836 128.108 291.888 128.108ZM291.888 126.596C292.5 126.596 293.046 126.458 293.526 126.182C294.018 125.906 294.402 125.516 294.678 125.012C294.954 124.496 295.092 123.902 295.092 123.23C295.092 122.546 294.954 121.958 294.678 121.466C294.402 120.962 294.018 120.572 293.526 120.296C293.046 120.02 292.5 119.882 291.888 119.882C291.276 119.882 290.73 120.02 290.25 120.296C289.77 120.572 289.386 120.962 289.098 121.466C288.81 121.958 288.666 122.546 288.666 123.23C288.666 123.902 288.81 124.496 289.098 125.012C289.386 125.516 289.77 125.906 290.25 126.182C290.73 126.458 291.276 126.596 291.888 126.596ZM299.228 128V118.46H300.884V121.052L300.722 120.404C300.986 119.744 301.43 119.24 302.054 118.892C302.678 118.544 303.446 118.37 304.358 118.37V120.044C304.286 120.032 304.214 120.026 304.142 120.026C304.082 120.026 304.022 120.026 303.962 120.026C303.038 120.026 302.306 120.302 301.766 120.854C301.226 121.406 300.956 122.204 300.956 123.248V128H299.228ZM318.422 118.37C319.19 118.37 319.868 118.52 320.456 118.82C321.044 119.12 321.5 119.576 321.824 120.188C322.16 120.8 322.328 121.574 322.328 122.51V128H320.6V122.708C320.6 121.784 320.384 121.088 319.952 120.62C319.52 120.152 318.914 119.918 318.134 119.918C317.558 119.918 317.054 120.038 316.622 120.278C316.19 120.518 315.854 120.872 315.614 121.34C315.386 121.808 315.272 122.39 315.272 123.086V128H313.544V122.708C313.544 121.784 313.328 121.088 312.896 120.62C312.476 120.152 311.87 119.918 311.078 119.918C310.514 119.918 310.016 120.038 309.584 120.278C309.152 120.518 308.816 120.872 308.576 121.34C308.336 121.808 308.216 122.39 308.216 123.086V128H306.488V118.46H308.144V120.998L307.874 120.35C308.174 119.726 308.636 119.24 309.26 118.892C309.884 118.544 310.61 118.37 311.438 118.37C312.35 118.37 313.136 118.598 313.796 119.054C314.456 119.498 314.888 120.176 315.092 121.088L314.39 120.8C314.678 120.068 315.182 119.48 315.902 119.036C316.622 118.592 317.462 118.37 318.422 118.37ZM331.429 128V125.984L331.339 125.606V122.168C331.339 121.436 331.123 120.872 330.691 120.476C330.271 120.068 329.635 119.864 328.783 119.864C328.219 119.864 327.667 119.96 327.127 120.152C326.587 120.332 326.131 120.578 325.759 120.89L325.039 119.594C325.531 119.198 326.119 118.898 326.803 118.694C327.499 118.478 328.225 118.37 328.981 118.37C330.289 118.37 331.297 118.688 332.005 119.324C332.713 119.96 333.067 120.932 333.067 122.24V128H331.429ZM328.297 128.108C327.589 128.108 326.965 127.988 326.425 127.748C325.897 127.508 325.489 127.178 325.201 126.758C324.913 126.326 324.769 125.84 324.769 125.3C324.769 124.784 324.889 124.316 325.129 123.896C325.381 123.476 325.783 123.14 326.335 122.888C326.899 122.636 327.655 122.51 328.603 122.51H331.627V123.752H328.675C327.811 123.752 327.229 123.896 326.929 124.184C326.629 124.472 326.479 124.82 326.479 125.228C326.479 125.696 326.665 126.074 327.037 126.362C327.409 126.638 327.925 126.776 328.585 126.776C329.233 126.776 329.797 126.632 330.277 126.344C330.769 126.056 331.123 125.636 331.339 125.084L331.681 126.272C331.453 126.836 331.051 127.286 330.475 127.622C329.899 127.946 329.173 128.108 328.297 128.108ZM341.359 118.37C342.139 118.37 342.823 118.52 343.411 118.82C344.011 119.12 344.479 119.576 344.815 120.188C345.151 120.8 345.319 121.574 345.319 122.51V128H343.591V122.708C343.591 121.784 343.363 121.088 342.907 120.62C342.463 120.152 341.833 119.918 341.017 119.918C340.405 119.918 339.871 120.038 339.415 120.278C338.959 120.518 338.605 120.872 338.353 121.34C338.113 121.808 337.993 122.39 337.993 123.086V128H336.265V118.46H337.921V121.034L337.651 120.35C337.963 119.726 338.443 119.24 339.091 118.892C339.739 118.544 340.495 118.37 341.359 118.37ZM352.675 128.108C351.703 128.108 350.833 127.898 350.065 127.478C349.309 127.058 348.715 126.482 348.283 125.75C347.851 125.018 347.635 124.178 347.635 123.23C347.635 122.282 347.851 121.442 348.283 120.71C348.715 119.978 349.309 119.408 350.065 119C350.833 118.58 351.703 118.37 352.675 118.37C353.539 118.37 354.307 118.544 354.979 118.892C355.663 119.228 356.191 119.732 356.563 120.404L355.249 121.25C354.937 120.782 354.553 120.44 354.097 120.224C353.653 119.996 353.173 119.882 352.657 119.882C352.033 119.882 351.475 120.02 350.983 120.296C350.491 120.572 350.101 120.962 349.813 121.466C349.525 121.958 349.381 122.546 349.381 123.23C349.381 123.914 349.525 124.508 349.813 125.012C350.101 125.516 350.491 125.906 350.983 126.182C351.475 126.458 352.033 126.596 352.657 126.596C353.173 126.596 353.653 126.488 354.097 126.272C354.553 126.044 354.937 125.696 355.249 125.228L356.563 126.056C356.191 126.716 355.663 127.226 354.979 127.586C354.307 127.934 353.539 128.108 352.675 128.108ZM362.907 128.108C361.887 128.108 360.987 127.898 360.207 127.478C359.439 127.058 358.839 126.482 358.407 125.75C357.987 125.018 357.777 124.178 357.777 123.23C357.777 122.282 357.981 121.442 358.389 120.71C358.809 119.978 359.379 119.408 360.099 119C360.831 118.58 361.653 118.37 362.565 118.37C363.489 118.37 364.305 118.574 365.013 118.982C365.721 119.39 366.273 119.966 366.669 120.71C367.077 121.442 367.281 122.3 367.281 123.284C367.281 123.356 367.275 123.44 367.263 123.536C367.263 123.632 367.257 123.722 367.245 123.806H359.127V122.564H366.345L365.643 122.996C365.655 122.384 365.529 121.838 365.265 121.358C365.001 120.878 364.635 120.506 364.167 120.242C363.711 119.966 363.177 119.828 362.565 119.828C361.965 119.828 361.431 119.966 360.963 120.242C360.495 120.506 360.129 120.884 359.865 121.376C359.601 121.856 359.469 122.408 359.469 123.032V123.32C359.469 123.956 359.613 124.526 359.901 125.03C360.201 125.522 360.615 125.906 361.143 126.182C361.671 126.458 362.277 126.596 362.961 126.596C363.525 126.596 364.035 126.5 364.491 126.308C364.959 126.116 365.367 125.828 365.715 125.444L366.669 126.56C366.237 127.064 365.697 127.448 365.049 127.712C364.413 127.976 363.699 128.108 362.907 128.108ZM370.095 128.108C369.759 128.108 369.471 127.994 369.231 127.766C368.991 127.526 368.871 127.226 368.871 126.866C368.871 126.506 368.991 126.212 369.231 125.984C369.471 125.756 369.759 125.642 370.095 125.642C370.419 125.642 370.695 125.756 370.923 125.984C371.163 126.212 371.283 126.506 371.283 126.866C371.283 127.226 371.163 127.526 370.923 127.766C370.695 127.994 370.419 128.108 370.095 128.108Z" fill="#4D4D70"/>
<path d="M54.7926 190L49.2486 177.4H51.1926L56.2866 189.028H55.1706L60.3006 177.4H62.1006L56.5746 190H54.7926ZM66.9827 190.108C65.9627 190.108 65.0627 189.898 64.2827 189.478C63.5147 189.058 62.9147 188.482 62.4827 187.75C62.0627 187.018 61.8527 186.178 61.8527 185.23C61.8527 184.282 62.0567 183.442 62.4647 182.71C62.8847 181.978 63.4547 181.408 64.1747 181C64.9067 180.58 65.7287 180.37 66.6407 180.37C67.5647 180.37 68.3807 180.574 69.0887 180.982C69.7967 181.39 70.3487 181.966 70.7447 182.71C71.1527 183.442 71.3567 184.3 71.3567 185.284C71.3567 185.356 71.3507 185.44 71.3387 185.536C71.3387 185.632 71.3327 185.722 71.3207 185.806H63.2027V184.564H70.4207L69.7187 184.996C69.7307 184.384 69.6047 183.838 69.3407 183.358C69.0767 182.878 68.7107 182.506 68.2427 182.242C67.7867 181.966 67.2527 181.828 66.6407 181.828C66.0407 181.828 65.5067 181.966 65.0387 182.242C64.5707 182.506 64.2047 182.884 63.9407 183.376C63.6767 183.856 63.5447 184.408 63.5447 185.032V185.32C63.5447 185.956 63.6887 186.526 63.9767 187.03C64.2767 187.522 64.6907 187.906 65.2187 188.182C65.7467 188.458 66.3527 188.596 67.0367 188.596C67.6007 188.596 68.1107 188.5 68.5667 188.308C69.0347 188.116 69.4427 187.828 69.7907 187.444L70.7447 188.56C70.3127 189.064 69.7727 189.448 69.1247 189.712C68.4887 189.976 67.7747 190.108 66.9827 190.108ZM73.7562 190V180.46H75.4122V183.052L75.2502 182.404C75.5142 181.744 75.9582 181.24 76.5822 180.892C77.2062 180.544 77.9742 180.37 78.8862 180.37V182.044C78.8142 182.032 78.7422 182.026 78.6702 182.026C78.6102 182.026 78.5502 182.026 78.4902 182.026C77.5662 182.026 76.8342 182.302 76.2942 182.854C75.7542 183.406 75.4842 184.204 75.4842 185.248V190H73.7562ZM88.709 190.108C87.917 190.108 87.161 190 86.441 189.784C85.733 189.568 85.175 189.304 84.767 188.992L85.487 187.624C85.895 187.9 86.399 188.134 86.999 188.326C87.599 188.518 88.211 188.614 88.835 188.614C89.639 188.614 90.215 188.5 90.563 188.272C90.923 188.044 91.103 187.726 91.103 187.318C91.103 187.018 90.995 186.784 90.779 186.616C90.563 186.448 90.275 186.322 89.915 186.238C89.567 186.154 89.177 186.082 88.745 186.022C88.313 185.95 87.881 185.866 87.449 185.77C87.017 185.662 86.621 185.518 86.261 185.338C85.901 185.146 85.613 184.888 85.397 184.564C85.181 184.228 85.073 183.784 85.073 183.232C85.073 182.656 85.235 182.152 85.559 181.72C85.883 181.288 86.339 180.958 86.927 180.73C87.527 180.49 88.235 180.37 89.051 180.37C89.675 180.37 90.305 180.448 90.941 180.604C91.589 180.748 92.117 180.958 92.525 181.234L91.787 182.602C91.355 182.314 90.905 182.116 90.437 182.008C89.969 181.9 89.501 181.846 89.033 181.846C88.277 181.846 87.713 181.972 87.341 182.224C86.969 182.464 86.783 182.776 86.783 183.16C86.783 183.484 86.891 183.736 87.107 183.916C87.335 184.084 87.623 184.216 87.971 184.312C88.331 184.408 88.727 184.492 89.159 184.564C89.591 184.624 90.023 184.708 90.455 184.816C90.887 184.912 91.277 185.05 91.625 185.23C91.985 185.41 92.273 185.662 92.489 185.986C92.717 186.31 92.831 186.742 92.831 187.282C92.831 187.858 92.663 188.356 92.327 188.776C91.991 189.196 91.517 189.526 90.905 189.766C90.293 189.994 89.561 190.108 88.709 190.108ZM99.2385 190.108C98.2185 190.108 97.3185 189.898 96.5385 189.478C95.7705 189.058 95.1705 188.482 94.7385 187.75C94.3185 187.018 94.1085 186.178 94.1085 185.23C94.1085 184.282 94.3125 183.442 94.7205 182.71C95.1405 181.978 95.7105 181.408 96.4305 181C97.1625 180.58 97.9845 180.37 98.8965 180.37C99.8205 180.37 100.637 180.574 101.345 180.982C102.053 181.39 102.605 181.966 103.001 182.71C103.409 183.442 103.613 184.3 103.613 185.284C103.613 185.356 103.607 185.44 103.595 185.536C103.595 185.632 103.589 185.722 103.577 185.806H95.4585V184.564H102.677L101.975 184.996C101.987 184.384 101.861 183.838 101.597 183.358C101.333 182.878 100.967 182.506 100.499 182.242C100.043 181.966 99.5085 181.828 98.8965 181.828C98.2965 181.828 97.7625 181.966 97.2945 182.242C96.8265 182.506 96.4605 182.884 96.1965 183.376C95.9325 183.856 95.8005 184.408 95.8005 185.032V185.32C95.8005 185.956 95.9445 186.526 96.2325 187.03C96.5325 187.522 96.9465 187.906 97.4745 188.182C98.0025 188.458 98.6085 188.596 99.2925 188.596C99.8565 188.596 100.367 188.5 100.823 188.308C101.291 188.116 101.699 187.828 102.047 187.444L103.001 188.56C102.569 189.064 102.029 189.448 101.381 189.712C100.745 189.976 100.031 190.108 99.2385 190.108ZM106.012 190V180.46H107.668V183.052L107.506 182.404C107.77 181.744 108.214 181.24 108.838 180.892C109.462 180.544 110.23 180.37 111.142 180.37V182.044C111.07 182.032 110.998 182.026 110.926 182.026C110.866 182.026 110.806 182.026 110.746 182.026C109.822 182.026 109.09 182.302 108.55 182.854C108.01 183.406 107.74 184.204 107.74 185.248V190H106.012ZM116.161 190L111.985 180.46H113.785L117.493 189.1H116.629L120.409 180.46H122.101L117.925 190H116.161ZM123.713 190V180.46H125.441V190H123.713ZM124.577 178.624C124.241 178.624 123.959 178.516 123.731 178.3C123.515 178.084 123.407 177.82 123.407 177.508C123.407 177.184 123.515 176.914 123.731 176.698C123.959 176.482 124.241 176.374 124.577 176.374C124.913 176.374 125.189 176.482 125.405 176.698C125.633 176.902 125.747 177.16 125.747 177.472C125.747 177.796 125.639 178.072 125.423 178.3C125.207 178.516 124.925 178.624 124.577 178.624ZM132.899 190.108C131.927 190.108 131.057 189.898 130.289 189.478C129.533 189.058 128.939 188.482 128.507 187.75C128.075 187.018 127.859 186.178 127.859 185.23C127.859 184.282 128.075 183.442 128.507 182.71C128.939 181.978 129.533 181.408 130.289 181C131.057 180.58 131.927 180.37 132.899 180.37C133.763 180.37 134.531 180.544 135.203 180.892C135.887 181.228 136.415 181.732 136.787 182.404L135.473 183.25C135.161 182.782 134.777 182.44 134.321 182.224C133.877 181.996 133.397 181.882 132.881 181.882C132.257 181.882 131.699 182.02 131.207 182.296C130.715 182.572 130.325 182.962 130.037 183.466C129.749 183.958 129.605 184.546 129.605 185.23C129.605 185.914 129.749 186.508 130.037 187.012C130.325 187.516 130.715 187.906 131.207 188.182C131.699 188.458 132.257 188.596 132.881 188.596C133.397 188.596 133.877 188.488 134.321 188.272C134.777 188.044 135.161 187.696 135.473 187.228L136.787 188.056C136.415 188.716 135.887 189.226 135.203 189.586C134.531 189.934 133.763 190.108 132.899 190.108ZM138.901 190V180.46H140.629V190H138.901ZM139.765 178.624C139.429 178.624 139.147 178.516 138.919 178.3C138.703 178.084 138.595 177.82 138.595 177.508C138.595 177.184 138.703 176.914 138.919 176.698C139.147 176.482 139.429 176.374 139.765 176.374C140.101 176.374 140.377 176.482 140.593 176.698C140.821 176.902 140.935 177.16 140.935 177.472C140.935 177.796 140.827 178.072 140.611 178.3C140.395 178.516 140.113 178.624 139.765 178.624ZM148.014 190.108C147.054 190.108 146.202 189.898 145.458 189.478C144.714 189.058 144.126 188.482 143.694 187.75C143.262 187.006 143.046 186.166 143.046 185.23C143.046 184.282 143.262 183.442 143.694 182.71C144.126 181.978 144.714 181.408 145.458 181C146.202 180.58 147.054 180.37 148.014 180.37C148.962 180.37 149.808 180.58 150.552 181C151.308 181.408 151.896 181.978 152.316 182.71C152.748 183.43 152.964 184.27 152.964 185.23C152.964 186.178 152.748 187.018 152.316 187.75C151.896 188.482 151.308 189.058 150.552 189.478C149.808 189.898 148.962 190.108 148.014 190.108ZM148.014 188.596C148.626 188.596 149.172 188.458 149.652 188.182C150.144 187.906 150.528 187.516 150.804 187.012C151.08 186.496 151.218 185.902 151.218 185.23C151.218 184.546 151.08 183.958 150.804 183.466C150.528 182.962 150.144 182.572 149.652 182.296C149.172 182.02 148.626 181.882 148.014 181.882C147.402 181.882 146.856 182.02 146.376 182.296C145.896 182.572 145.512 182.962 145.224 183.466C144.936 183.958 144.792 184.546 144.792 185.23C144.792 185.902 144.936 186.496 145.224 187.012C145.512 187.516 145.896 187.906 146.376 188.182C146.856 188.458 147.402 188.596 148.014 188.596ZM158.09 190.108C157.298 190.108 156.542 190 155.822 189.784C155.114 189.568 154.556 189.304 154.148 188.992L154.868 187.624C155.276 187.9 155.78 188.134 156.38 188.326C156.98 188.518 157.592 188.614 158.216 188.614C159.02 188.614 159.596 188.5 159.944 188.272C160.304 188.044 160.484 187.726 160.484 187.318C160.484 187.018 160.376 186.784 160.16 186.616C159.944 186.448 159.656 186.322 159.296 186.238C158.948 186.154 158.558 186.082 158.126 186.022C157.694 185.95 157.262 185.866 156.83 185.77C156.398 185.662 156.002 185.518 155.642 185.338C155.282 185.146 154.994 184.888 154.778 184.564C154.562 184.228 154.454 183.784 154.454 183.232C154.454 182.656 154.616 182.152 154.94 181.72C155.264 181.288 155.72 180.958 156.308 180.73C156.908 180.49 157.616 180.37 158.432 180.37C159.056 180.37 159.686 180.448 160.322 180.604C160.97 180.748 161.498 180.958 161.906 181.234L161.168 182.602C160.736 182.314 160.286 182.116 159.818 182.008C159.35 181.9 158.882 181.846 158.414 181.846C157.658 181.846 157.094 181.972 156.722 182.224C156.35 182.464 156.164 182.776 156.164 183.16C156.164 183.484 156.272 183.736 156.488 183.916C156.716 184.084 157.004 184.216 157.352 184.312C157.712 184.408 158.108 184.492 158.54 184.564C158.972 184.624 159.404 184.708 159.836 184.816C160.268 184.912 160.658 185.05 161.006 185.23C161.366 185.41 161.654 185.662 161.87 185.986C162.098 186.31 162.212 186.742 162.212 187.282C162.212 187.858 162.044 188.356 161.708 188.776C161.372 189.196 160.898 189.526 160.286 189.766C159.674 189.994 158.942 190.108 158.09 190.108Z" fill="#000033"/>
<g clip-path="url(#clip1_725_1927)">
<path d="M181.781 183.333L178.205 179.757L179.148 178.815L184.333 184L179.148 189.185L178.205 188.243L181.781 184.667H173.667V183.333H181.781Z" fill="#000033"/>
</g>
<path d="M24 209H424C424 212.866 420.866 216 417 216H31C27.134 216 24 212.866 24 209Z" fill="#100FA8"/>
</g>
<defs>
<filter id="filter0_d_725_1927" x="0" y="0" width="448" height="254" filterUnits="userSpaceOnUse" color-interpolation-filters="sRGB">
<feFlood flood-opacity="0" result="BackgroundImageFix"/>
<feColorMatrix in="SourceAlpha" type="matrix" values="0 0 0 0 0 0 0 0 0 0 0 0 0 0 0 0 0 0 127 0" result="hardAlpha"/>
<feOffset dy="14"/>
<feGaussianBlur stdDeviation="12"/>
<feColorMatrix type="matrix" values="0 0 0 0 0 0 0 0 0 0 0 0 0 0 0.2 0 0 0 0.04 0"/>
<feBlend mode="normal" in2="BackgroundImageFix" result="effect1_dropShadow_725_1927"/>
<feBlend mode="normal" in="SourceGraphic" in2="effect1_dropShadow_725_1927" result="shape"/>
</filter>
<clipPath id="clip0_725_1927">
<rect width="32" height="32" fill="white" transform="translate(49 32)"/>
</clipPath>
<clipPath id="clip1_725_1927">
<rect width="16" height="16" fill="white" transform="translate(171 176)"/>
</clipPath>
</defs>
</svg>
