<svg width="124" height="41" viewBox="0 0 124 41" fill="none" xmlns="http://www.w3.org/2000/svg">
<g clip-path="url(#clip0_725_2407)">
<path fill-rule="evenodd" clip-rule="evenodd" d="M0 0.731934H38.8369V40.7319H0V0.731934ZM2.1576 2.95416V38.5097H36.6793V2.95416H2.1576Z" fill="#000033"/>
<path fill-rule="evenodd" clip-rule="evenodd" d="M0.315974 1.05737C0.737272 0.623455 1.42033 0.623455 1.84163 1.05737L38.5209 38.8351C38.9422 39.2691 38.9422 39.9726 38.5209 40.4065C38.0996 40.8404 37.4165 40.8404 36.9952 40.4065L0.315974 2.62872C-0.105325 2.1948 -0.105325 1.49129 0.315974 1.05737Z" fill="#000033"/>
<path fill-rule="evenodd" clip-rule="evenodd" d="M61.5884 2.95416C52.0555 2.95416 44.3275 10.9135 44.3275 20.7319C44.3275 30.5503 52.0555 38.5097 61.5884 38.5097C71.1213 38.5097 78.8492 30.5503 78.8492 20.7319C78.8492 10.9135 71.1213 2.95416 61.5884 2.95416ZM42.1699 20.7319C42.1699 9.68624 50.8639 0.731934 61.5884 0.731934C72.3129 0.731934 81.0068 9.68624 81.0068 20.7319C81.0068 31.7776 72.3129 40.7319 61.5884 40.7319C50.8639 40.7319 42.1699 31.7776 42.1699 20.7319Z" fill="#000033"/>
<path fill-rule="evenodd" clip-rule="evenodd" d="M43.2471 19.6206H79.9264V21.8428H43.2471V19.6206Z" fill="#000033"/>
<path fill-rule="evenodd" clip-rule="evenodd" d="M103.757 2.95318C94.2244 2.95318 86.4965 10.9126 86.4965 20.731C86.4965 30.5494 94.2244 38.5087 103.757 38.5087C113.29 38.5087 121.018 30.5494 121.018 20.731C121.018 10.9126 113.29 2.95318 103.757 2.95318ZM84.3389 20.731C84.3389 9.68526 93.0328 0.730957 103.757 0.730957C114.482 0.730957 123.176 9.68526 123.176 20.731C123.176 31.7767 114.482 40.731 103.757 40.731C93.0328 40.731 84.3389 31.7767 84.3389 20.731Z" fill="#000033"/>
</g>
<defs>
<clipPath id="clip0_725_2407">
<rect width="123.333" height="40" fill="white" transform="translate(0 0.731934)"/>
</clipPath>
</defs>
</svg>
