<svg width="124" height="40" viewBox="0 0 124 40" fill="none" xmlns="http://www.w3.org/2000/svg">
<g clip-path="url(#clip0_725_2412)">
<path fill-rule="evenodd" clip-rule="evenodd" d="M0 0H38.8369V40H0V0ZM2.1576 2.22222V37.7778H36.6793V2.22222H2.1576Z" fill="#F4F2FA"/>
<path fill-rule="evenodd" clip-rule="evenodd" d="M0.315974 0.325437C0.737272 -0.108479 1.42033 -0.108479 1.84163 0.325437L38.5209 38.1032C38.9422 38.5371 38.9422 39.2406 38.5209 39.6746C38.0996 40.1085 37.4165 40.1085 36.9952 39.6746L0.315974 1.89679C-0.105325 1.46287 -0.105325 0.759353 0.315974 0.325437Z" fill="#F4F2FA"/>
<path fill-rule="evenodd" clip-rule="evenodd" d="M61.5884 2.22222C52.0555 2.22222 44.3275 10.1816 44.3275 20C44.3275 29.8184 52.0555 37.7778 61.5884 37.7778C71.1213 37.7778 78.8492 29.8184 78.8492 20C78.8492 10.1816 71.1213 2.22222 61.5884 2.22222ZM42.1699 20C42.1699 8.9543 50.8639 0 61.5884 0C72.3129 0 81.0068 8.9543 81.0068 20C81.0068 31.0457 72.3129 40 61.5884 40C50.8639 40 42.1699 31.0457 42.1699 20Z" fill="#F4F2FA"/>
<path fill-rule="evenodd" clip-rule="evenodd" d="M43.2471 18.8887H79.9264V21.1109H43.2471V18.8887Z" fill="#F4F2FA"/>
<path fill-rule="evenodd" clip-rule="evenodd" d="M103.757 2.22125C94.2244 2.22125 86.4965 10.1806 86.4965 19.999C86.4965 29.8174 94.2244 37.7768 103.757 37.7768C113.29 37.7768 121.018 29.8174 121.018 19.999C121.018 10.1806 113.29 2.22125 103.757 2.22125ZM84.3389 19.999C84.3389 8.95333 93.0328 -0.000976562 103.757 -0.000976562C114.482 -0.000976562 123.176 8.95333 123.176 19.999C123.176 31.0447 114.482 39.999 103.757 39.999C93.0328 39.999 84.3389 31.0447 84.3389 19.999Z" fill="#F4F2FA"/>
</g>
<defs>
<clipPath id="clip0_725_2412">
<rect width="123.333" height="40" fill="white"/>
</clipPath>
</defs>
</svg>
