<svg width="448" height="254" viewBox="0 0 448 254" fill="none" xmlns="http://www.w3.org/2000/svg">
<g filter="url(#filter0_d_725_1933)">
<rect x="24" y="10" width="400" height="206" rx="8" fill="white"/>
<rect x="24.25" y="10.25" width="399.5" height="205.5" rx="7.75" stroke="#CCCCD6" stroke-width="0.5"/>
<g clip-path="url(#clip0_725_1933)">
<path d="M58 64H56C55.2044 64 54.4413 63.6839 53.8787 63.1213C53.3161 62.5587 53 61.7956 53 61V53C53 52.2044 53.3161 51.4413 53.8787 50.8787C54.4413 50.3161 55.2044 50 56 50H58C58.7956 50 59.5587 50.3161 60.1213 50.8787C60.6839 51.4413 61 52.2044 61 53V61C61 61.7956 60.6839 62.5587 60.1213 63.1213C59.5587 63.6839 58.7956 64 58 64ZM56 52C55.7348 52 55.4804 52.1054 55.2929 52.2929C55.1054 52.4804 55 52.7348 55 53V61C55 61.2652 55.1054 61.5196 55.2929 61.7071C55.4804 61.8946 55.7348 62 56 62H58C58.2652 62 58.5196 61.8946 58.7071 61.7071C58.8946 61.5196 59 61.2652 59 61V53C59 52.7348 58.8946 52.4804 58.7071 52.2929C58.5196 52.1054 58.2652 52 58 52H56Z" fill="#000033"/>
<path d="M68 64H66C65.2044 64 64.4413 63.6839 63.8787 63.1213C63.3161 62.5587 63 61.7956 63 61V49C63 48.2044 63.3161 47.4413 63.8787 46.8787C64.4413 46.3161 65.2044 46 66 46H68C68.7956 46 69.5587 46.3161 70.1213 46.8787C70.6839 47.4413 71 48.2044 71 49V61C71 61.7956 70.6839 62.5587 70.1213 63.1213C69.5587 63.6839 68.7956 64 68 64ZM66 48C65.7348 48 65.4804 48.1054 65.2929 48.2929C65.1054 48.4804 65 48.7348 65 49V61C65 61.2652 65.1054 61.5196 65.2929 61.7071C65.4804 61.8946 65.7348 62 66 62H68C68.2652 62 68.5196 61.8946 68.7071 61.7071C68.8946 61.5196 69 61.2652 69 61V49C69 48.7348 68.8946 48.4804 68.7071 48.2929C68.5196 48.1054 68.2652 48 68 48H66Z" fill="#000033"/>
<path d="M78 64H76C75.2044 64 74.4413 63.6839 73.8787 63.1213C73.3161 62.5587 73 61.7957 73 61V43C73 42.2044 73.3161 41.4413 73.8787 40.8787C74.4413 40.3161 75.2044 40 76 40H78C78.7956 40 79.5587 40.3161 80.1213 40.8787C80.6839 41.4413 81 42.2044 81 43V58.6667C81 58.9319 80.8946 59.1862 80.7071 59.3738C80.5196 59.5613 80.2652 59.6667 80 59.6667C79.7348 59.6667 79.4804 59.5613 79.2929 59.3738C79.1054 59.1862 79 58.9319 79 58.6667V43C79 42.7348 78.8946 42.4804 78.7071 42.2929C78.5196 42.1054 78.2652 42 78 42H76C75.7348 42 75.4804 42.1054 75.2929 42.2929C75.1054 42.4804 75 42.7348 75 43V61C75 61.2652 75.1054 61.5196 75.2929 61.7071C75.4804 61.8946 75.7348 62 76 62H78C78.2652 62 78.5196 61.8946 78.7071 61.7071C78.8946 61.5196 79 61.2652 79 61V58C79 57.7348 79.1054 57.4804 79.2929 57.2929C79.4804 57.1054 79.7348 57 80 57C80.2652 57 80.5196 57.1054 80.7071 57.2929C80.8946 57.4804 81 57.7348 81 58V61C81 61.7957 80.6839 62.5587 80.1213 63.1213C79.5587 63.6839 78.7956 64 78 64Z" fill="#000033"/>
<path d="M60 32C59.7348 32 59.4804 32.1054 59.2929 32.2929C59.1054 32.4804 59 32.7348 59 33V33.38L53.76 36H51C50.4696 36 49.9609 36.2107 49.5858 36.5858C49.2107 36.9609 49 37.4696 49 38V40C49.0011 40.3937 49.1185 40.7783 49.3373 41.1056C49.5561 41.433 49.8666 41.6884 50.23 41.84L51.05 44.32C51.1349 44.5786 51.319 44.7929 51.5618 44.9157C51.8047 45.0385 52.0864 45.0599 52.345 44.975C52.6036 44.8901 52.8179 44.706 52.9407 44.4632C53.0635 44.2203 53.0849 43.9386 53 43.68L52.39 42H53.76L59 44.62V45C59 45.2652 59.1054 45.5196 59.2929 45.7071C59.4804 45.8946 59.7348 46 60 46C60.2652 46 60.5196 45.8946 60.7071 45.7071C60.8946 45.5196 61 45.2652 61 45V33C61 32.7348 60.8946 32.4804 60.7071 32.2929C60.5196 32.1054 60.2652 32 60 32V32ZM51 38H53V40H51V38ZM55 40.38V37.62L59 35.62V42.38L55 40.38Z" fill="#100FA8"/>
<path d="M66 38H64C63.7348 38 63.4804 38.1054 63.2929 38.2929C63.1054 38.4804 63 38.7348 63 39C63 39.2652 63.1054 39.5196 63.2929 39.7071C63.4804 39.8946 63.7348 40 64 40H66C66.2652 40 66.5196 39.8946 66.7071 39.7071C66.8946 39.5196 67 39.2652 67 39C67 38.7348 66.8946 38.4804 66.7071 38.2929C66.5196 38.1054 66.2652 38 66 38Z" fill="#100FA8"/>
<path d="M64 35.9999C64.53 35.9999 64.67 35.7399 65.71 34.7099C65.8983 34.5216 66.004 34.2662 66.004 33.9999C66.004 33.7336 65.8983 33.4782 65.71 33.2899C65.5217 33.1016 65.2663 32.9958 65 32.9958C64.7337 32.9958 64.4783 33.1016 64.29 33.2899L63.29 34.2899C63.1489 34.4298 63.0527 34.6085 63.0137 34.8033C62.9746 34.998 62.9944 35.2 63.0706 35.3834C63.1468 35.5669 63.2758 35.7235 63.4413 35.8333C63.6069 35.9431 63.8013 36.0011 64 35.9999Z" fill="#100FA8"/>
<path d="M64.7102 42.2899C64.5219 42.1016 64.2665 41.9958 64.0002 41.9958C63.7339 41.9958 63.4785 42.1016 63.2902 42.2899C63.1019 42.4782 62.9961 42.7336 62.9961 42.9999C62.9961 43.2662 63.1019 43.5216 63.2902 43.7099C64.3502 44.7699 64.4802 44.9999 65.0002 44.9999C65.1988 45.0011 65.3933 44.9431 65.5588 44.8333C65.7243 44.7235 65.8534 44.5669 65.9296 44.3834C66.0057 44.2 66.0255 43.998 65.9865 43.8033C65.9474 43.6085 65.8512 43.4298 65.7102 43.2899L64.7102 42.2899Z" fill="#100FA8"/>
</g>
<path d="M98.66 55V41H104.72C105.973 41 107.053 41.2067 107.96 41.62C108.867 42.02 109.567 42.6 110.06 43.36C110.553 44.12 110.8 45.0267 110.8 46.08C110.8 47.12 110.553 48.02 110.06 48.78C109.567 49.54 108.867 50.1267 107.96 50.54C107.053 50.94 105.973 51.14 104.72 51.14H100.46L101.9 49.68V55H98.66ZM101.9 50.04L100.46 48.5H104.54C105.54 48.5 106.287 48.2867 106.78 47.86C107.273 47.4333 107.52 46.84 107.52 46.08C107.52 45.3067 107.273 44.7067 106.78 44.28C106.287 43.8533 105.54 43.64 104.54 43.64H100.46L101.9 42.1V50.04ZM117.628 55.16C116.735 55.16 115.935 54.9867 115.228 54.64C114.535 54.2933 113.995 53.7667 113.608 53.06C113.222 52.34 113.028 51.4267 113.028 50.32V44.24H116.148V49.86C116.148 50.7533 116.335 51.4133 116.708 51.84C117.095 52.2533 117.635 52.46 118.328 52.46C118.808 52.46 119.235 52.36 119.608 52.16C119.982 51.9467 120.275 51.6267 120.488 51.2C120.702 50.76 120.808 50.2133 120.808 49.56V44.24H123.928V55H120.968V52.04L121.508 52.9C121.148 53.6467 120.615 54.2133 119.908 54.6C119.215 54.9733 118.455 55.16 117.628 55.16ZM133.179 55.16C132.232 55.16 131.419 54.96 130.739 54.56C130.059 54.16 129.539 53.5533 129.179 52.74C128.819 51.9133 128.639 50.8733 128.639 49.62C128.639 48.3533 128.826 47.3133 129.199 46.5C129.586 45.6867 130.119 45.08 130.799 44.68C131.479 44.28 132.272 44.08 133.179 44.08C134.192 44.08 135.099 44.3067 135.899 44.76C136.712 45.2133 137.352 45.8533 137.819 46.68C138.299 47.5067 138.539 48.4867 138.539 49.62C138.539 50.74 138.299 51.7133 137.819 52.54C137.352 53.3667 136.712 54.0133 135.899 54.48C135.099 54.9333 134.192 55.16 133.179 55.16ZM126.819 55V40.16H129.939V46.42L129.739 49.6L129.799 52.8V55H126.819ZM132.639 52.6C133.159 52.6 133.619 52.48 134.019 52.24C134.432 52 134.759 51.66 134.999 51.22C135.252 50.7667 135.379 50.2333 135.379 49.62C135.379 48.9933 135.252 48.46 134.999 48.02C134.759 47.58 134.432 47.24 134.019 47C133.619 46.76 133.159 46.64 132.639 46.64C132.119 46.64 131.652 46.76 131.239 47C130.826 47.24 130.499 47.58 130.259 48.02C130.019 48.46 129.899 48.9933 129.899 49.62C129.899 50.2333 130.019 50.7667 130.259 51.22C130.499 51.66 130.826 52 131.239 52.24C131.652 52.48 132.119 52.6 132.639 52.6ZM140.628 55V40.16H143.748V55H140.628ZM146.643 55V44.24H149.763V55H146.643ZM148.203 42.74C147.63 42.74 147.163 42.5733 146.803 42.24C146.443 41.9067 146.263 41.4933 146.263 41C146.263 40.5067 146.443 40.0933 146.803 39.76C147.163 39.4267 147.63 39.26 148.203 39.26C148.776 39.26 149.243 39.42 149.603 39.74C149.963 40.0467 150.143 40.4467 150.143 40.94C150.143 41.46 149.963 41.8933 149.603 42.24C149.256 42.5733 148.79 42.74 148.203 42.74ZM157.859 55.16C156.699 55.16 155.665 54.9267 154.759 54.46C153.852 53.98 153.139 53.32 152.619 52.48C152.112 51.64 151.859 50.6867 151.859 49.62C151.859 48.54 152.112 47.5867 152.619 46.76C153.139 45.92 153.852 45.2667 154.759 44.8C155.665 44.32 156.699 44.08 157.859 44.08C158.992 44.08 159.979 44.32 160.819 44.8C161.659 45.2667 162.279 45.94 162.679 46.82L160.259 48.12C159.979 47.6133 159.625 47.24 159.199 47C158.785 46.76 158.332 46.64 157.839 46.64C157.305 46.64 156.825 46.76 156.399 47C155.972 47.24 155.632 47.58 155.379 48.02C155.139 48.46 155.019 48.9933 155.019 49.62C155.019 50.2467 155.139 50.78 155.379 51.22C155.632 51.66 155.972 52 156.399 52.24C156.825 52.48 157.305 52.6 157.839 52.6C158.332 52.6 158.785 52.4867 159.199 52.26C159.625 52.02 159.979 51.64 160.259 51.12L162.679 52.44C162.279 53.3067 161.659 53.98 160.819 54.46C159.979 54.9267 158.992 55.16 157.859 55.16ZM164.417 55V44.24H167.537V55H164.417ZM165.977 42.74C165.403 42.74 164.937 42.5733 164.577 42.24C164.217 41.9067 164.037 41.4933 164.037 41C164.037 40.5067 164.217 40.0933 164.577 39.76C164.937 39.4267 165.403 39.26 165.977 39.26C166.55 39.26 167.017 39.42 167.377 39.74C167.737 40.0467 167.917 40.4467 167.917 40.94C167.917 41.46 167.737 41.8933 167.377 42.24C167.03 42.5733 166.563 42.74 165.977 42.74ZM175.052 55.16C174.039 55.16 173.126 54.9333 172.312 54.48C171.499 54.0133 170.852 53.3667 170.372 52.54C169.906 51.7133 169.672 50.74 169.672 49.62C169.672 48.4867 169.906 47.5067 170.372 46.68C170.852 45.8533 171.499 45.2133 172.312 44.76C173.126 44.3067 174.039 44.08 175.052 44.08C175.959 44.08 176.752 44.28 177.432 44.68C178.112 45.08 178.639 45.6867 179.012 46.5C179.386 47.3133 179.572 48.3533 179.572 49.62C179.572 50.8733 179.392 51.9133 179.032 52.74C178.672 53.5533 178.152 54.16 177.472 54.56C176.806 54.96 175.999 55.16 175.052 55.16ZM175.592 52.6C176.099 52.6 176.559 52.48 176.972 52.24C177.386 52 177.712 51.66 177.952 51.22C178.206 50.7667 178.332 50.2333 178.332 49.62C178.332 48.9933 178.206 48.46 177.952 48.02C177.712 47.58 177.386 47.24 176.972 47C176.559 46.76 176.099 46.64 175.592 46.64C175.072 46.64 174.606 46.76 174.192 47C173.779 47.24 173.446 47.58 173.192 48.02C172.952 48.46 172.832 48.9933 172.832 49.62C172.832 50.2333 172.952 50.7667 173.192 51.22C173.446 51.66 173.779 52 174.192 52.24C174.606 52.48 175.072 52.6 175.592 52.6ZM178.412 55V52.8L178.472 49.6L178.272 46.42V40.16H181.392V55H178.412ZM190.88 55V52.9L190.68 52.44V48.68C190.68 48.0133 190.473 47.4933 190.06 47.12C189.66 46.7467 189.04 46.56 188.2 46.56C187.627 46.56 187.06 46.6533 186.5 46.84C185.953 47.0133 185.487 47.2533 185.1 47.56L183.98 45.38C184.567 44.9667 185.273 44.6467 186.1 44.42C186.927 44.1933 187.767 44.08 188.62 44.08C190.26 44.08 191.533 44.4667 192.44 45.24C193.347 46.0133 193.8 47.22 193.8 48.86V55H190.88ZM187.6 55.16C186.76 55.16 186.04 55.02 185.44 54.74C184.84 54.4467 184.38 54.0533 184.06 53.56C183.74 53.0667 183.58 52.5133 183.58 51.9C183.58 51.26 183.733 50.7 184.04 50.22C184.36 49.74 184.86 49.3667 185.54 49.1C186.22 48.82 187.107 48.68 188.2 48.68H191.06V50.5H188.54C187.807 50.5 187.3 50.62 187.02 50.86C186.753 51.1 186.62 51.4 186.62 51.76C186.62 52.16 186.773 52.48 187.08 52.72C187.4 52.9467 187.833 53.06 188.38 53.06C188.9 53.06 189.367 52.94 189.78 52.7C190.193 52.4467 190.493 52.08 190.68 51.6L191.16 53.04C190.933 53.7333 190.52 54.26 189.92 54.62C189.32 54.98 188.547 55.16 187.6 55.16ZM201.322 55.16C200.308 55.16 199.395 54.9333 198.582 54.48C197.768 54.0133 197.122 53.3667 196.642 52.54C196.175 51.7133 195.942 50.74 195.942 49.62C195.942 48.4867 196.175 47.5067 196.642 46.68C197.122 45.8533 197.768 45.2133 198.582 44.76C199.395 44.3067 200.308 44.08 201.322 44.08C202.228 44.08 203.022 44.28 203.702 44.68C204.382 45.08 204.908 45.6867 205.282 46.5C205.655 47.3133 205.842 48.3533 205.842 49.62C205.842 50.8733 205.662 51.9133 205.302 52.74C204.942 53.5533 204.422 54.16 203.742 54.56C203.075 54.96 202.268 55.16 201.322 55.16ZM201.862 52.6C202.368 52.6 202.828 52.48 203.242 52.24C203.655 52 203.982 51.66 204.222 51.22C204.475 50.7667 204.602 50.2333 204.602 49.62C204.602 48.9933 204.475 48.46 204.222 48.02C203.982 47.58 203.655 47.24 203.242 47C202.828 46.76 202.368 46.64 201.862 46.64C201.342 46.64 200.875 46.76 200.462 47C200.048 47.24 199.715 47.58 199.462 48.02C199.222 48.46 199.102 48.9933 199.102 49.62C199.102 50.2333 199.222 50.7667 199.462 51.22C199.715 51.66 200.048 52 200.462 52.24C200.875 52.48 201.342 52.6 201.862 52.6ZM204.682 55V52.8L204.742 49.6L204.542 46.42V40.16H207.662V55H204.682ZM220.833 55.16C219.82 55.16 218.907 54.9333 218.093 54.48C217.28 54.0133 216.633 53.3667 216.153 52.54C215.687 51.7133 215.453 50.74 215.453 49.62C215.453 48.4867 215.687 47.5067 216.153 46.68C216.633 45.8533 217.28 45.2133 218.093 44.76C218.907 44.3067 219.82 44.08 220.833 44.08C221.74 44.08 222.533 44.28 223.213 44.68C223.893 45.08 224.42 45.6867 224.793 46.5C225.167 47.3133 225.353 48.3533 225.353 49.62C225.353 50.8733 225.173 51.9133 224.813 52.74C224.453 53.5533 223.933 54.16 223.253 54.56C222.587 54.96 221.78 55.16 220.833 55.16ZM221.373 52.6C221.88 52.6 222.34 52.48 222.753 52.24C223.167 52 223.493 51.66 223.733 51.22C223.987 50.7667 224.113 50.2333 224.113 49.62C224.113 48.9933 223.987 48.46 223.733 48.02C223.493 47.58 223.167 47.24 222.753 47C222.34 46.76 221.88 46.64 221.373 46.64C220.853 46.64 220.387 46.76 219.973 47C219.56 47.24 219.227 47.58 218.973 48.02C218.733 48.46 218.613 48.9933 218.613 49.62C218.613 50.2333 218.733 50.7667 218.973 51.22C219.227 51.66 219.56 52 219.973 52.24C220.387 52.48 220.853 52.6 221.373 52.6ZM224.193 55V52.8L224.253 49.6L224.053 46.42V40.16H227.173V55H224.193ZM230.061 55V44.24H233.181V55H230.061ZM231.621 42.74C231.048 42.74 230.581 42.5733 230.221 42.24C229.861 41.9067 229.681 41.4933 229.681 41C229.681 40.5067 229.861 40.0933 230.221 39.76C230.581 39.4267 231.048 39.26 231.621 39.26C232.194 39.26 232.661 39.42 233.021 39.74C233.381 40.0467 233.561 40.4467 233.561 40.94C233.561 41.46 233.381 41.8933 233.021 42.24C232.674 42.5733 232.208 42.74 231.621 42.74ZM241.137 59.04C240.123 59.04 239.143 58.9133 238.197 58.66C237.263 58.42 236.483 58.0533 235.857 57.56L237.097 55.32C237.55 55.6933 238.123 55.9867 238.817 56.2C239.523 56.4267 240.217 56.54 240.897 56.54C242.003 56.54 242.803 56.2933 243.297 55.8C243.803 55.3067 244.057 54.5733 244.057 53.6V51.98L244.257 49.28L244.217 46.56V44.24H247.177V53.2C247.177 55.2 246.657 56.6733 245.617 57.62C244.577 58.5667 243.083 59.04 241.137 59.04ZM240.657 54.48C239.657 54.48 238.75 54.2667 237.937 53.84C237.137 53.4 236.49 52.7933 235.997 52.02C235.517 51.2333 235.277 50.32 235.277 49.28C235.277 48.2267 235.517 47.3133 235.997 46.54C236.49 45.7533 237.137 45.1467 237.937 44.72C238.75 44.2933 239.657 44.08 240.657 44.08C241.563 44.08 242.363 44.2667 243.057 44.64C243.75 45 244.29 45.5667 244.677 46.34C245.063 47.1 245.257 48.08 245.257 49.28C245.257 50.4667 245.063 51.4467 244.677 52.22C244.29 52.98 243.75 53.5467 243.057 53.92C242.363 54.2933 241.563 54.48 240.657 54.48ZM241.277 51.92C241.823 51.92 242.31 51.8133 242.737 51.6C243.163 51.3733 243.497 51.06 243.737 50.66C243.977 50.26 244.097 49.8 244.097 49.28C244.097 48.7467 243.977 48.2867 243.737 47.9C243.497 47.5 243.163 47.1933 242.737 46.98C242.31 46.7533 241.823 46.64 241.277 46.64C240.73 46.64 240.243 46.7533 239.817 46.98C239.39 47.1933 239.05 47.5 238.797 47.9C238.557 48.2867 238.437 48.7467 238.437 49.28C238.437 49.8 238.557 50.26 238.797 50.66C239.05 51.06 239.39 51.3733 239.817 51.6C240.243 51.8133 240.73 51.92 241.277 51.92ZM250.081 55V44.24H253.201V55H250.081ZM251.641 42.74C251.067 42.74 250.601 42.5733 250.241 42.24C249.881 41.9067 249.701 41.4933 249.701 41C249.701 40.5067 249.881 40.0933 250.241 39.76C250.601 39.4267 251.067 39.26 251.641 39.26C252.214 39.26 252.681 39.42 253.041 39.74C253.401 40.0467 253.581 40.4467 253.581 40.94C253.581 41.46 253.401 41.8933 253.041 42.24C252.694 42.5733 252.227 42.74 251.641 42.74ZM260.496 55.16C259.23 55.16 258.243 54.84 257.536 54.2C256.83 53.5467 256.476 52.58 256.476 51.3V41.86H259.596V51.26C259.596 51.7133 259.716 52.0667 259.956 52.32C260.196 52.56 260.523 52.68 260.936 52.68C261.43 52.68 261.85 52.5467 262.196 52.28L263.036 54.48C262.716 54.7067 262.33 54.88 261.876 55C261.436 55.1067 260.976 55.16 260.496 55.16ZM254.816 46.88V44.48H262.276V46.88H254.816ZM271.388 55V52.9L271.188 52.44V48.68C271.188 48.0133 270.981 47.4933 270.568 47.12C270.168 46.7467 269.548 46.56 268.708 46.56C268.134 46.56 267.568 46.6533 267.008 46.84C266.461 47.0133 265.994 47.2533 265.608 47.56L264.488 45.38C265.074 44.9667 265.781 44.6467 266.608 44.42C267.434 44.1933 268.274 44.08 269.128 44.08C270.768 44.08 272.041 44.4667 272.948 45.24C273.854 46.0133 274.308 47.22 274.308 48.86V55H271.388ZM268.108 55.16C267.268 55.16 266.548 55.02 265.948 54.74C265.348 54.4467 264.888 54.0533 264.568 53.56C264.248 53.0667 264.088 52.5133 264.088 51.9C264.088 51.26 264.241 50.7 264.548 50.22C264.868 49.74 265.368 49.3667 266.048 49.1C266.728 48.82 267.614 48.68 268.708 48.68H271.568V50.5H269.048C268.314 50.5 267.808 50.62 267.528 50.86C267.261 51.1 267.128 51.4 267.128 51.76C267.128 52.16 267.281 52.48 267.588 52.72C267.908 52.9467 268.341 53.06 268.888 53.06C269.408 53.06 269.874 52.94 270.288 52.7C270.701 52.4467 271.001 52.08 271.188 51.6L271.668 53.04C271.441 53.7333 271.028 54.26 270.428 54.62C269.828 54.98 269.054 55.16 268.108 55.16ZM277.131 55V40.16H280.251V55H277.131Z" fill="#000033"/>
<path d="M50.89 104V91.4H52.69V102.434H59.512V104H50.89ZM65.2885 104.108C64.3285 104.108 63.4765 103.898 62.7325 103.478C61.9885 103.058 61.4005 102.482 60.9685 101.75C60.5365 101.006 60.3205 100.166 60.3205 99.23C60.3205 98.282 60.5365 97.442 60.9685 96.71C61.4005 95.978 61.9885 95.408 62.7325 95C63.4765 94.58 64.3285 94.37 65.2885 94.37C66.2365 94.37 67.0825 94.58 67.8265 95C68.5825 95.408 69.1705 95.978 69.5905 96.71C70.0225 97.43 70.2385 98.27 70.2385 99.23C70.2385 100.178 70.0225 101.018 69.5905 101.75C69.1705 102.482 68.5825 103.058 67.8265 103.478C67.0825 103.898 66.2365 104.108 65.2885 104.108ZM65.2885 102.596C65.9005 102.596 66.4465 102.458 66.9265 102.182C67.4185 101.906 67.8025 101.516 68.0785 101.012C68.3545 100.496 68.4925 99.902 68.4925 99.23C68.4925 98.546 68.3545 97.958 68.0785 97.466C67.8025 96.962 67.4185 96.572 66.9265 96.296C66.4465 96.02 65.9005 95.882 65.2885 95.882C64.6765 95.882 64.1305 96.02 63.6505 96.296C63.1705 96.572 62.7865 96.962 62.4985 97.466C62.2105 97.958 62.0665 98.546 62.0665 99.23C62.0665 99.902 62.2105 100.496 62.4985 101.012C62.7865 101.516 63.1705 101.906 63.6505 102.182C64.1305 102.458 64.6765 102.596 65.2885 102.596ZM76.8042 107.6C75.9282 107.6 75.0762 107.474 74.2482 107.222C73.4322 106.982 72.7662 106.634 72.2502 106.178L73.0782 104.846C73.5222 105.23 74.0682 105.53 74.7162 105.746C75.3642 105.974 76.0422 106.088 76.7502 106.088C77.8782 106.088 78.7062 105.824 79.2342 105.296C79.7622 104.768 80.0262 103.964 80.0262 102.884V100.868L80.2062 98.978L80.1162 97.07V94.46H81.7542V102.704C81.7542 104.384 81.3342 105.62 80.4942 106.412C79.6542 107.204 78.4242 107.6 76.8042 107.6ZM76.5882 103.604C75.6642 103.604 74.8362 103.412 74.1042 103.028C73.3842 102.632 72.8082 102.086 72.3762 101.39C71.9562 100.694 71.7462 99.89 71.7462 98.978C71.7462 98.054 71.9562 97.25 72.3762 96.566C72.8082 95.87 73.3842 95.33 74.1042 94.946C74.8362 94.562 75.6642 94.37 76.5882 94.37C77.4042 94.37 78.1482 94.538 78.8202 94.874C79.4922 95.198 80.0262 95.702 80.4222 96.386C80.8302 97.07 81.0342 97.934 81.0342 98.978C81.0342 100.01 80.8302 100.868 80.4222 101.552C80.0262 102.236 79.4922 102.752 78.8202 103.1C78.1482 103.436 77.4042 103.604 76.5882 103.604ZM76.7862 102.092C77.4222 102.092 77.9862 101.96 78.4782 101.696C78.9702 101.432 79.3542 101.066 79.6302 100.598C79.9182 100.13 80.0622 99.59 80.0622 98.978C80.0622 98.366 79.9182 97.826 79.6302 97.358C79.3542 96.89 78.9702 96.53 78.4782 96.278C77.9862 96.014 77.4222 95.882 76.7862 95.882C76.1502 95.882 75.5802 96.014 75.0762 96.278C74.5842 96.53 74.1942 96.89 73.9062 97.358C73.6302 97.826 73.4922 98.366 73.4922 98.978C73.4922 99.59 73.6302 100.13 73.9062 100.598C74.1942 101.066 74.5842 101.432 75.0762 101.696C75.5802 101.96 76.1502 102.092 76.7862 102.092ZM85.056 104V94.46H86.712V97.052L86.55 96.404C86.814 95.744 87.258 95.24 87.882 94.892C88.506 94.544 89.274 94.37 90.186 94.37V96.044C90.114 96.032 90.042 96.026 89.97 96.026C89.91 96.026 89.85 96.026 89.79 96.026C88.866 96.026 88.134 96.302 87.594 96.854C87.054 97.406 86.784 98.204 86.784 99.248V104H85.056ZM97.5346 104V101.984L97.4446 101.606V98.168C97.4446 97.436 97.2286 96.872 96.7966 96.476C96.3766 96.068 95.7406 95.864 94.8886 95.864C94.3246 95.864 93.7726 95.96 93.2326 96.152C92.6926 96.332 92.2366 96.578 91.8646 96.89L91.1446 95.594C91.6366 95.198 92.2246 94.898 92.9086 94.694C93.6046 94.478 94.3306 94.37 95.0866 94.37C96.3946 94.37 97.4026 94.688 98.1106 95.324C98.8186 95.96 99.1726 96.932 99.1726 98.24V104H97.5346ZM94.4026 104.108C93.6946 104.108 93.0706 103.988 92.5306 103.748C92.0026 103.508 91.5946 103.178 91.3066 102.758C91.0186 102.326 90.8746 101.84 90.8746 101.3C90.8746 100.784 90.9946 100.316 91.2346 99.896C91.4866 99.476 91.8886 99.14 92.4406 98.888C93.0046 98.636 93.7606 98.51 94.7086 98.51H97.7326V99.752H94.7806C93.9166 99.752 93.3346 99.896 93.0346 100.184C92.7346 100.472 92.5846 100.82 92.5846 101.228C92.5846 101.696 92.7706 102.074 93.1426 102.362C93.5146 102.638 94.0306 102.776 94.6906 102.776C95.3386 102.776 95.9026 102.632 96.3826 102.344C96.8746 102.056 97.2286 101.636 97.4446 101.084L97.7866 102.272C97.5586 102.836 97.1566 103.286 96.5806 103.622C96.0046 103.946 95.2786 104.108 94.4026 104.108ZM110.48 104.108C109.52 104.108 108.776 103.85 108.248 103.334C107.72 102.818 107.456 102.08 107.456 101.12V92.372H109.184V101.048C109.184 101.564 109.31 101.96 109.562 102.236C109.826 102.512 110.198 102.65 110.678 102.65C111.218 102.65 111.668 102.5 112.028 102.2L112.568 103.442C112.304 103.67 111.986 103.838 111.614 103.946C111.254 104.054 110.876 104.108 110.48 104.108ZM105.836 95.882V94.46H111.92V95.882H105.836ZM118.672 104.108C117.856 104.108 117.136 103.958 116.512 103.658C115.9 103.358 115.42 102.902 115.072 102.29C114.736 101.666 114.568 100.886 114.568 99.95V94.46H116.296V99.752C116.296 100.688 116.518 101.39 116.962 101.858C117.418 102.326 118.054 102.56 118.87 102.56C119.47 102.56 119.992 102.44 120.436 102.2C120.88 101.948 121.222 101.588 121.462 101.12C121.702 100.64 121.822 100.064 121.822 99.392V94.46H123.55V104H121.912V101.426L122.182 102.11C121.87 102.746 121.402 103.238 120.778 103.586C120.154 103.934 119.452 104.108 118.672 104.108ZM129.575 104.108C128.783 104.108 128.027 104 127.307 103.784C126.599 103.568 126.041 103.304 125.633 102.992L126.353 101.624C126.761 101.9 127.265 102.134 127.865 102.326C128.465 102.518 129.077 102.614 129.701 102.614C130.505 102.614 131.081 102.5 131.429 102.272C131.789 102.044 131.969 101.726 131.969 101.318C131.969 101.018 131.861 100.784 131.645 100.616C131.429 100.448 131.141 100.322 130.781 100.238C130.433 100.154 130.043 100.082 129.611 100.022C129.179 99.95 128.747 99.866 128.315 99.77C127.883 99.662 127.487 99.518 127.127 99.338C126.767 99.146 126.479 98.888 126.263 98.564C126.047 98.228 125.939 97.784 125.939 97.232C125.939 96.656 126.101 96.152 126.425 95.72C126.749 95.288 127.205 94.958 127.793 94.73C128.393 94.49 129.101 94.37 129.917 94.37C130.541 94.37 131.171 94.448 131.807 94.604C132.455 94.748 132.983 94.958 133.391 95.234L132.653 96.602C132.221 96.314 131.771 96.116 131.303 96.008C130.835 95.9 130.367 95.846 129.899 95.846C129.143 95.846 128.579 95.972 128.207 96.224C127.835 96.464 127.649 96.776 127.649 97.16C127.649 97.484 127.757 97.736 127.973 97.916C128.201 98.084 128.489 98.216 128.837 98.312C129.197 98.408 129.593 98.492 130.025 98.564C130.457 98.624 130.889 98.708 131.321 98.816C131.753 98.912 132.143 99.05 132.491 99.23C132.851 99.41 133.139 99.662 133.355 99.986C133.583 100.31 133.697 100.742 133.697 101.282C133.697 101.858 133.529 102.356 133.193 102.776C132.857 103.196 132.383 103.526 131.771 103.766C131.159 103.994 130.427 104.108 129.575 104.108ZM144.777 104.108C143.817 104.108 142.965 103.898 142.221 103.478C141.477 103.058 140.889 102.482 140.457 101.75C140.025 101.006 139.809 100.166 139.809 99.23C139.809 98.282 140.025 97.442 140.457 96.71C140.889 95.978 141.477 95.408 142.221 95C142.965 94.58 143.817 94.37 144.777 94.37C145.725 94.37 146.571 94.58 147.315 95C148.071 95.408 148.659 95.978 149.079 96.71C149.511 97.43 149.727 98.27 149.727 99.23C149.727 100.178 149.511 101.018 149.079 101.75C148.659 102.482 148.071 103.058 147.315 103.478C146.571 103.898 145.725 104.108 144.777 104.108ZM144.777 102.596C145.389 102.596 145.935 102.458 146.415 102.182C146.907 101.906 147.291 101.516 147.567 101.012C147.843 100.496 147.981 99.902 147.981 99.23C147.981 98.546 147.843 97.958 147.567 97.466C147.291 96.962 146.907 96.572 146.415 96.296C145.935 96.02 145.389 95.882 144.777 95.882C144.165 95.882 143.619 96.02 143.139 96.296C142.659 96.572 142.275 96.962 141.987 97.466C141.699 97.958 141.555 98.546 141.555 99.23C141.555 99.902 141.699 100.496 141.987 101.012C142.275 101.516 142.659 101.906 143.139 102.182C143.619 102.458 144.165 102.596 144.777 102.596ZM157.175 104.108C156.359 104.108 155.621 103.928 154.961 103.568C154.313 103.196 153.797 102.65 153.413 101.93C153.041 101.21 152.855 100.31 152.855 99.23C152.855 98.15 153.047 97.25 153.431 96.53C153.827 95.81 154.349 95.27 154.997 94.91C155.657 94.55 156.383 94.37 157.175 94.37C158.111 94.37 158.939 94.574 159.659 94.982C160.379 95.39 160.949 95.96 161.369 96.692C161.789 97.412 161.999 98.258 161.999 99.23C161.999 100.202 161.789 101.054 161.369 101.786C160.949 102.518 160.379 103.088 159.659 103.496C158.939 103.904 158.111 104.108 157.175 104.108ZM152.117 104V90.644H153.845V96.998L153.665 99.212L153.773 101.426V104H152.117ZM157.031 102.596C157.643 102.596 158.189 102.458 158.669 102.182C159.161 101.906 159.545 101.516 159.821 101.012C160.109 100.496 160.253 99.902 160.253 99.23C160.253 98.546 160.109 97.958 159.821 97.466C159.545 96.962 159.161 96.572 158.669 96.296C158.189 96.02 157.643 95.882 157.031 95.882C156.431 95.882 155.885 96.02 155.393 96.296C154.913 96.572 154.529 96.962 154.241 97.466C153.965 97.958 153.827 98.546 153.827 99.23C153.827 99.902 153.965 100.496 154.241 101.012C154.529 101.516 154.913 101.906 155.393 102.182C155.885 102.458 156.431 102.596 157.031 102.596ZM163.162 107.6C162.766 107.6 162.388 107.552 162.028 107.456C161.656 107.36 161.344 107.216 161.092 107.024L161.65 105.692C162.01 105.992 162.478 106.142 163.054 106.142C163.51 106.142 163.858 105.998 164.098 105.71C164.35 105.434 164.476 105.02 164.476 104.468V94.46H166.204V104.432C166.204 105.404 165.94 106.172 165.412 106.736C164.896 107.312 164.146 107.6 163.162 107.6ZM165.34 92.624C165.004 92.624 164.722 92.516 164.494 92.3C164.278 92.084 164.17 91.82 164.17 91.508C164.17 91.184 164.278 90.914 164.494 90.698C164.722 90.482 165.004 90.374 165.34 90.374C165.676 90.374 165.952 90.482 166.168 90.698C166.396 90.902 166.51 91.16 166.51 91.472C166.51 91.796 166.402 92.072 166.186 92.3C165.97 92.516 165.688 92.624 165.34 92.624ZM173.749 104.108C172.729 104.108 171.829 103.898 171.049 103.478C170.281 103.058 169.681 102.482 169.249 101.75C168.829 101.018 168.619 100.178 168.619 99.23C168.619 98.282 168.823 97.442 169.231 96.71C169.651 95.978 170.221 95.408 170.941 95C171.673 94.58 172.495 94.37 173.407 94.37C174.331 94.37 175.147 94.574 175.855 94.982C176.563 95.39 177.115 95.966 177.511 96.71C177.919 97.442 178.123 98.3 178.123 99.284C178.123 99.356 178.117 99.44 178.105 99.536C178.105 99.632 178.099 99.722 178.087 99.806H169.969V98.564H177.187L176.485 98.996C176.497 98.384 176.371 97.838 176.107 97.358C175.843 96.878 175.477 96.506 175.009 96.242C174.553 95.966 174.019 95.828 173.407 95.828C172.807 95.828 172.273 95.966 171.805 96.242C171.337 96.506 170.971 96.884 170.707 97.376C170.443 97.856 170.311 98.408 170.311 99.032V99.32C170.311 99.956 170.455 100.526 170.743 101.03C171.043 101.522 171.457 101.906 171.985 102.182C172.513 102.458 173.119 102.596 173.803 102.596C174.367 102.596 174.877 102.5 175.333 102.308C175.801 102.116 176.209 101.828 176.557 101.444L177.511 102.56C177.079 103.064 176.539 103.448 175.891 103.712C175.255 103.976 174.541 104.108 173.749 104.108ZM183.799 104.108C182.839 104.108 182.095 103.85 181.567 103.334C181.039 102.818 180.775 102.08 180.775 101.12V92.372H182.503V101.048C182.503 101.564 182.629 101.96 182.881 102.236C183.145 102.512 183.517 102.65 183.997 102.65C184.537 102.65 184.987 102.5 185.347 102.2L185.887 103.442C185.623 103.67 185.305 103.838 184.933 103.946C184.573 104.054 184.195 104.108 183.799 104.108ZM179.155 95.882V94.46H185.239V95.882H179.155ZM187.976 104V94.46H189.704V104H187.976ZM188.84 92.624C188.504 92.624 188.222 92.516 187.994 92.3C187.778 92.084 187.67 91.82 187.67 91.508C187.67 91.184 187.778 90.914 187.994 90.698C188.222 90.482 188.504 90.374 188.84 90.374C189.176 90.374 189.452 90.482 189.668 90.698C189.896 90.902 190.01 91.16 190.01 91.472C190.01 91.796 189.902 92.072 189.686 92.3C189.47 92.516 189.188 92.624 188.84 92.624ZM195.505 104L191.329 94.46H193.129L196.837 103.1H195.973L199.753 94.46H201.445L197.269 104H195.505ZM206.88 104.108C205.92 104.108 205.068 103.898 204.324 103.478C203.58 103.058 202.992 102.482 202.56 101.75C202.128 101.006 201.912 100.166 201.912 99.23C201.912 98.282 202.128 97.442 202.56 96.71C202.992 95.978 203.58 95.408 204.324 95C205.068 94.58 205.92 94.37 206.88 94.37C207.828 94.37 208.674 94.58 209.418 95C210.174 95.408 210.762 95.978 211.182 96.71C211.614 97.43 211.83 98.27 211.83 99.23C211.83 100.178 211.614 101.018 211.182 101.75C210.762 102.482 210.174 103.058 209.418 103.478C208.674 103.898 207.828 104.108 206.88 104.108ZM206.88 102.596C207.492 102.596 208.038 102.458 208.518 102.182C209.01 101.906 209.394 101.516 209.67 101.012C209.946 100.496 210.084 99.902 210.084 99.23C210.084 98.546 209.946 97.958 209.67 97.466C209.394 96.962 209.01 96.572 208.518 96.296C208.038 96.02 207.492 95.882 206.88 95.882C206.268 95.882 205.722 96.02 205.242 96.296C204.762 96.572 204.378 96.962 204.09 97.466C203.802 97.958 203.658 98.546 203.658 99.23C203.658 99.902 203.802 100.496 204.09 101.012C204.378 101.516 204.762 101.906 205.242 102.182C205.722 102.458 206.268 102.596 206.88 102.596ZM216.956 104.108C216.164 104.108 215.408 104 214.688 103.784C213.98 103.568 213.422 103.304 213.014 102.992L213.734 101.624C214.142 101.9 214.646 102.134 215.246 102.326C215.846 102.518 216.458 102.614 217.082 102.614C217.886 102.614 218.462 102.5 218.81 102.272C219.17 102.044 219.35 101.726 219.35 101.318C219.35 101.018 219.242 100.784 219.026 100.616C218.81 100.448 218.522 100.322 218.162 100.238C217.814 100.154 217.424 100.082 216.992 100.022C216.56 99.95 216.128 99.866 215.696 99.77C215.264 99.662 214.868 99.518 214.508 99.338C214.148 99.146 213.86 98.888 213.644 98.564C213.428 98.228 213.32 97.784 213.32 97.232C213.32 96.656 213.482 96.152 213.806 95.72C214.13 95.288 214.586 94.958 215.174 94.73C215.774 94.49 216.482 94.37 217.298 94.37C217.922 94.37 218.552 94.448 219.188 94.604C219.836 94.748 220.364 94.958 220.772 95.234L220.034 96.602C219.602 96.314 219.152 96.116 218.684 96.008C218.216 95.9 217.748 95.846 217.28 95.846C216.524 95.846 215.96 95.972 215.588 96.224C215.216 96.464 215.03 96.776 215.03 97.16C215.03 97.484 215.138 97.736 215.354 97.916C215.582 98.084 215.87 98.216 216.218 98.312C216.578 98.408 216.974 98.492 217.406 98.564C217.838 98.624 218.27 98.708 218.702 98.816C219.134 98.912 219.524 99.05 219.872 99.23C220.232 99.41 220.52 99.662 220.736 99.986C220.964 100.31 221.078 100.742 221.078 101.282C221.078 101.858 220.91 102.356 220.574 102.776C220.238 103.196 219.764 103.526 219.152 103.766C218.54 103.994 217.808 104.108 216.956 104.108ZM232.014 104.108C231.09 104.108 230.262 103.904 229.53 103.496C228.81 103.088 228.24 102.518 227.82 101.786C227.4 101.054 227.19 100.202 227.19 99.23C227.19 98.258 227.4 97.412 227.82 96.692C228.24 95.96 228.81 95.39 229.53 94.982C230.262 94.574 231.09 94.37 232.014 94.37C232.818 94.37 233.544 94.55 234.192 94.91C234.84 95.27 235.356 95.81 235.74 96.53C236.136 97.25 236.334 98.15 236.334 99.23C236.334 100.31 236.142 101.21 235.758 101.93C235.386 102.65 234.876 103.196 234.228 103.568C233.58 103.928 232.842 104.108 232.014 104.108ZM232.158 102.596C232.758 102.596 233.298 102.458 233.778 102.182C234.27 101.906 234.654 101.516 234.93 101.012C235.218 100.496 235.362 99.902 235.362 99.23C235.362 98.546 235.218 97.958 234.93 97.466C234.654 96.962 234.27 96.572 233.778 96.296C233.298 96.02 232.758 95.882 232.158 95.882C231.546 95.882 231 96.02 230.52 96.296C230.04 96.572 229.656 96.962 229.368 97.466C229.08 97.958 228.936 98.546 228.936 99.23C228.936 99.902 229.08 100.496 229.368 101.012C229.656 101.516 230.04 101.906 230.52 102.182C231 102.458 231.546 102.596 232.158 102.596ZM235.416 104V101.426L235.524 99.212L235.344 96.998V90.644H237.072V104H235.416ZM244.589 104.108C243.569 104.108 242.669 103.898 241.889 103.478C241.121 103.058 240.521 102.482 240.089 101.75C239.669 101.018 239.459 100.178 239.459 99.23C239.459 98.282 239.663 97.442 240.071 96.71C240.491 95.978 241.061 95.408 241.781 95C242.513 94.58 243.335 94.37 244.247 94.37C245.171 94.37 245.987 94.574 246.695 94.982C247.403 95.39 247.955 95.966 248.351 96.71C248.759 97.442 248.963 98.3 248.963 99.284C248.963 99.356 248.957 99.44 248.945 99.536C248.945 99.632 248.939 99.722 248.927 99.806H240.809V98.564H248.027L247.325 98.996C247.337 98.384 247.211 97.838 246.947 97.358C246.683 96.878 246.317 96.506 245.849 96.242C245.393 95.966 244.859 95.828 244.247 95.828C243.647 95.828 243.113 95.966 242.645 96.242C242.177 96.506 241.811 96.884 241.547 97.376C241.283 97.856 241.151 98.408 241.151 99.032V99.32C241.151 99.956 241.295 100.526 241.583 101.03C241.883 101.522 242.297 101.906 242.825 102.182C243.353 102.458 243.959 102.596 244.643 102.596C245.207 102.596 245.717 102.5 246.173 102.308C246.641 102.116 247.049 101.828 247.397 101.444L248.351 102.56C247.919 103.064 247.379 103.448 246.731 103.712C246.095 103.976 245.381 104.108 244.589 104.108ZM261.291 94.37C262.071 94.37 262.755 94.52 263.343 94.82C263.943 95.12 264.411 95.576 264.747 96.188C265.083 96.8 265.251 97.574 265.251 98.51V104H263.523V98.708C263.523 97.784 263.295 97.088 262.839 96.62C262.395 96.152 261.765 95.918 260.949 95.918C260.337 95.918 259.803 96.038 259.347 96.278C258.891 96.518 258.537 96.872 258.285 97.34C258.045 97.808 257.925 98.39 257.925 99.086V104H256.197V94.46H257.853V97.034L257.583 96.35C257.895 95.726 258.375 95.24 259.023 94.892C259.671 94.544 260.427 94.37 261.291 94.37ZM272.697 104.108C271.677 104.108 270.777 103.898 269.997 103.478C269.229 103.058 268.629 102.482 268.197 101.75C267.777 101.018 267.567 100.178 267.567 99.23C267.567 98.282 267.771 97.442 268.179 96.71C268.599 95.978 269.169 95.408 269.889 95C270.621 94.58 271.443 94.37 272.355 94.37C273.279 94.37 274.095 94.574 274.803 94.982C275.511 95.39 276.063 95.966 276.459 96.71C276.867 97.442 277.071 98.3 277.071 99.284C277.071 99.356 277.065 99.44 277.053 99.536C277.053 99.632 277.047 99.722 277.035 99.806H268.917V98.564H276.135L275.433 98.996C275.445 98.384 275.319 97.838 275.055 97.358C274.791 96.878 274.425 96.506 273.957 96.242C273.501 95.966 272.967 95.828 272.355 95.828C271.755 95.828 271.221 95.966 270.753 96.242C270.285 96.506 269.919 96.884 269.655 97.376C269.391 97.856 269.259 98.408 269.259 99.032V99.32C269.259 99.956 269.403 100.526 269.691 101.03C269.991 101.522 270.405 101.906 270.933 102.182C271.461 102.458 272.067 102.596 272.751 102.596C273.315 102.596 273.825 102.5 274.281 102.308C274.749 102.116 275.157 101.828 275.505 101.444L276.459 102.56C276.027 103.064 275.487 103.448 274.839 103.712C274.203 103.976 273.489 104.108 272.697 104.108ZM283.646 107.6C282.77 107.6 281.918 107.474 281.09 107.222C280.274 106.982 279.608 106.634 279.092 106.178L279.92 104.846C280.364 105.23 280.91 105.53 281.558 105.746C282.206 105.974 282.884 106.088 283.592 106.088C284.72 106.088 285.548 105.824 286.076 105.296C286.604 104.768 286.868 103.964 286.868 102.884V100.868L287.048 98.978L286.958 97.07V94.46H288.596V102.704C288.596 104.384 288.176 105.62 287.336 106.412C286.496 107.204 285.266 107.6 283.646 107.6ZM283.43 103.604C282.506 103.604 281.678 103.412 280.946 103.028C280.226 102.632 279.65 102.086 279.218 101.39C278.798 100.694 278.588 99.89 278.588 98.978C278.588 98.054 278.798 97.25 279.218 96.566C279.65 95.87 280.226 95.33 280.946 94.946C281.678 94.562 282.506 94.37 283.43 94.37C284.246 94.37 284.99 94.538 285.662 94.874C286.334 95.198 286.868 95.702 287.264 96.386C287.672 97.07 287.876 97.934 287.876 98.978C287.876 100.01 287.672 100.868 287.264 101.552C286.868 102.236 286.334 102.752 285.662 103.1C284.99 103.436 284.246 103.604 283.43 103.604ZM283.628 102.092C284.264 102.092 284.828 101.96 285.32 101.696C285.812 101.432 286.196 101.066 286.472 100.598C286.76 100.13 286.904 99.59 286.904 98.978C286.904 98.366 286.76 97.826 286.472 97.358C286.196 96.89 285.812 96.53 285.32 96.278C284.828 96.014 284.264 95.882 283.628 95.882C282.992 95.882 282.422 96.014 281.918 96.278C281.426 96.53 281.036 96.89 280.748 97.358C280.472 97.826 280.334 98.366 280.334 98.978C280.334 99.59 280.472 100.13 280.748 100.598C281.036 101.066 281.426 101.432 281.918 101.696C282.422 101.96 282.992 102.092 283.628 102.092ZM295.984 104.108C295.024 104.108 294.172 103.898 293.428 103.478C292.684 103.058 292.096 102.482 291.664 101.75C291.232 101.006 291.016 100.166 291.016 99.23C291.016 98.282 291.232 97.442 291.664 96.71C292.096 95.978 292.684 95.408 293.428 95C294.172 94.58 295.024 94.37 295.984 94.37C296.932 94.37 297.778 94.58 298.522 95C299.278 95.408 299.866 95.978 300.286 96.71C300.718 97.43 300.934 98.27 300.934 99.23C300.934 100.178 300.718 101.018 300.286 101.75C299.866 102.482 299.278 103.058 298.522 103.478C297.778 103.898 296.932 104.108 295.984 104.108ZM295.984 102.596C296.596 102.596 297.142 102.458 297.622 102.182C298.114 101.906 298.498 101.516 298.774 101.012C299.05 100.496 299.188 99.902 299.188 99.23C299.188 98.546 299.05 97.958 298.774 97.466C298.498 96.962 298.114 96.572 297.622 96.296C297.142 96.02 296.596 95.882 295.984 95.882C295.372 95.882 294.826 96.02 294.346 96.296C293.866 96.572 293.482 96.962 293.194 97.466C292.906 97.958 292.762 98.546 292.762 99.23C292.762 99.902 292.906 100.496 293.194 101.012C293.482 101.516 293.866 101.906 294.346 102.182C294.826 102.458 295.372 102.596 295.984 102.596ZM307.482 104.108C306.51 104.108 305.64 103.898 304.872 103.478C304.116 103.058 303.522 102.482 303.09 101.75C302.658 101.018 302.442 100.178 302.442 99.23C302.442 98.282 302.658 97.442 303.09 96.71C303.522 95.978 304.116 95.408 304.872 95C305.64 94.58 306.51 94.37 307.482 94.37C308.346 94.37 309.114 94.544 309.786 94.892C310.47 95.228 310.998 95.732 311.37 96.404L310.056 97.25C309.744 96.782 309.36 96.44 308.904 96.224C308.46 95.996 307.98 95.882 307.464 95.882C306.84 95.882 306.282 96.02 305.79 96.296C305.298 96.572 304.908 96.962 304.62 97.466C304.332 97.958 304.188 98.546 304.188 99.23C304.188 99.914 304.332 100.508 304.62 101.012C304.908 101.516 305.298 101.906 305.79 102.182C306.282 102.458 306.84 102.596 307.464 102.596C307.98 102.596 308.46 102.488 308.904 102.272C309.36 102.044 309.744 101.696 310.056 101.228L311.37 102.056C310.998 102.716 310.47 103.226 309.786 103.586C309.114 103.934 308.346 104.108 307.482 104.108ZM313.484 104V94.46H315.212V104H313.484ZM314.348 92.624C314.012 92.624 313.73 92.516 313.502 92.3C313.286 92.084 313.178 91.82 313.178 91.508C313.178 91.184 313.286 90.914 313.502 90.698C313.73 90.482 314.012 90.374 314.348 90.374C314.684 90.374 314.96 90.482 315.176 90.698C315.404 90.902 315.518 91.16 315.518 91.472C315.518 91.796 315.41 92.072 315.194 92.3C314.978 92.516 314.696 92.624 314.348 92.624ZM322.597 104.108C321.637 104.108 320.785 103.898 320.041 103.478C319.297 103.058 318.709 102.482 318.277 101.75C317.845 101.006 317.629 100.166 317.629 99.23C317.629 98.282 317.845 97.442 318.277 96.71C318.709 95.978 319.297 95.408 320.041 95C320.785 94.58 321.637 94.37 322.597 94.37C323.545 94.37 324.391 94.58 325.135 95C325.891 95.408 326.479 95.978 326.899 96.71C327.331 97.43 327.547 98.27 327.547 99.23C327.547 100.178 327.331 101.018 326.899 101.75C326.479 102.482 325.891 103.058 325.135 103.478C324.391 103.898 323.545 104.108 322.597 104.108ZM322.597 102.596C323.209 102.596 323.755 102.458 324.235 102.182C324.727 101.906 325.111 101.516 325.387 101.012C325.663 100.496 325.801 99.902 325.801 99.23C325.801 98.546 325.663 97.958 325.387 97.466C325.111 96.962 324.727 96.572 324.235 96.296C323.755 96.02 323.209 95.882 322.597 95.882C321.985 95.882 321.439 96.02 320.959 96.296C320.479 96.572 320.095 96.962 319.807 97.466C319.519 97.958 319.375 98.546 319.375 99.23C319.375 99.902 319.519 100.496 319.807 101.012C320.095 101.516 320.479 101.906 320.959 102.182C321.439 102.458 321.985 102.596 322.597 102.596ZM54.652 128.108C53.836 128.108 53.116 127.958 52.492 127.658C51.88 127.358 51.4 126.902 51.052 126.29C50.716 125.666 50.548 124.886 50.548 123.95V118.46H52.276V123.752C52.276 124.688 52.498 125.39 52.942 125.858C53.398 126.326 54.034 126.56 54.85 126.56C55.45 126.56 55.972 126.44 56.416 126.2C56.86 125.948 57.202 125.588 57.442 125.12C57.682 124.64 57.802 124.064 57.802 123.392V118.46H59.53V128H57.892V125.426L58.162 126.11C57.85 126.746 57.382 127.238 56.758 127.586C56.134 127.934 55.432 128.108 54.652 128.108ZM65.5556 128.108C64.7636 128.108 64.0076 128 63.2876 127.784C62.5796 127.568 62.0216 127.304 61.6136 126.992L62.3336 125.624C62.7416 125.9 63.2456 126.134 63.8456 126.326C64.4456 126.518 65.0576 126.614 65.6816 126.614C66.4856 126.614 67.0616 126.5 67.4096 126.272C67.7696 126.044 67.9496 125.726 67.9496 125.318C67.9496 125.018 67.8416 124.784 67.6256 124.616C67.4096 124.448 67.1216 124.322 66.7616 124.238C66.4136 124.154 66.0236 124.082 65.5916 124.022C65.1596 123.95 64.7276 123.866 64.2956 123.77C63.8636 123.662 63.4676 123.518 63.1076 123.338C62.7476 123.146 62.4596 122.888 62.2436 122.564C62.0276 122.228 61.9196 121.784 61.9196 121.232C61.9196 120.656 62.0816 120.152 62.4056 119.72C62.7296 119.288 63.1856 118.958 63.7736 118.73C64.3736 118.49 65.0816 118.37 65.8976 118.37C66.5216 118.37 67.1516 118.448 67.7876 118.604C68.4356 118.748 68.9636 118.958 69.3716 119.234L68.6336 120.602C68.2016 120.314 67.7516 120.116 67.2836 120.008C66.8156 119.9 66.3476 119.846 65.8796 119.846C65.1236 119.846 64.5596 119.972 64.1876 120.224C63.8156 120.464 63.6296 120.776 63.6296 121.16C63.6296 121.484 63.7376 121.736 63.9536 121.916C64.1816 122.084 64.4696 122.216 64.8176 122.312C65.1776 122.408 65.5736 122.492 66.0056 122.564C66.4376 122.624 66.8696 122.708 67.3016 122.816C67.7336 122.912 68.1236 123.05 68.4716 123.23C68.8316 123.41 69.1196 123.662 69.3356 123.986C69.5636 124.31 69.6776 124.742 69.6776 125.282C69.6776 125.858 69.5096 126.356 69.1736 126.776C68.8376 127.196 68.3636 127.526 67.7516 127.766C67.1396 127.994 66.4076 128.108 65.5556 128.108ZM77.7592 128V125.984L77.6692 125.606V122.168C77.6692 121.436 77.4532 120.872 77.0212 120.476C76.6012 120.068 75.9652 119.864 75.1132 119.864C74.5492 119.864 73.9972 119.96 73.4572 120.152C72.9172 120.332 72.4612 120.578 72.0892 120.89L71.3692 119.594C71.8612 119.198 72.4492 118.898 73.1332 118.694C73.8292 118.478 74.5552 118.37 75.3112 118.37C76.6192 118.37 77.6272 118.688 78.3352 119.324C79.0432 119.96 79.3972 120.932 79.3972 122.24V128H77.7592ZM74.6272 128.108C73.9192 128.108 73.2952 127.988 72.7552 127.748C72.2272 127.508 71.8192 127.178 71.5312 126.758C71.2432 126.326 71.0992 125.84 71.0992 125.3C71.0992 124.784 71.2192 124.316 71.4592 123.896C71.7112 123.476 72.1132 123.14 72.6652 122.888C73.2292 122.636 73.9852 122.51 74.9332 122.51H77.9572V123.752H75.0052C74.1412 123.752 73.5592 123.896 73.2592 124.184C72.9592 124.472 72.8092 124.82 72.8092 125.228C72.8092 125.696 72.9952 126.074 73.3672 126.362C73.7392 126.638 74.2552 126.776 74.9152 126.776C75.5632 126.776 76.1272 126.632 76.6072 126.344C77.0992 126.056 77.4532 125.636 77.6692 125.084L78.0112 126.272C77.7832 126.836 77.3812 127.286 76.8052 127.622C76.2292 127.946 75.5032 128.108 74.6272 128.108ZM87.689 118.37C88.469 118.37 89.153 118.52 89.741 118.82C90.341 119.12 90.809 119.576 91.145 120.188C91.481 120.8 91.649 121.574 91.649 122.51V128H89.921V122.708C89.921 121.784 89.693 121.088 89.237 120.62C88.793 120.152 88.163 119.918 87.347 119.918C86.735 119.918 86.201 120.038 85.745 120.278C85.289 120.518 84.935 120.872 84.683 121.34C84.443 121.808 84.323 122.39 84.323 123.086V128H82.595V118.46H84.251V121.034L83.981 120.35C84.293 119.726 84.773 119.24 85.421 118.892C86.069 118.544 86.825 118.37 87.689 118.37ZM98.789 128.108C97.865 128.108 97.037 127.904 96.305 127.496C95.585 127.088 95.015 126.518 94.595 125.786C94.175 125.054 93.965 124.202 93.965 123.23C93.965 122.258 94.175 121.412 94.595 120.692C95.015 119.96 95.585 119.39 96.305 118.982C97.037 118.574 97.865 118.37 98.789 118.37C99.593 118.37 100.319 118.55 100.967 118.91C101.615 119.27 102.131 119.81 102.515 120.53C102.911 121.25 103.109 122.15 103.109 123.23C103.109 124.31 102.917 125.21 102.533 125.93C102.161 126.65 101.651 127.196 101.003 127.568C100.355 127.928 99.617 128.108 98.789 128.108ZM98.933 126.596C99.533 126.596 100.073 126.458 100.553 126.182C101.045 125.906 101.429 125.516 101.705 125.012C101.993 124.496 102.137 123.902 102.137 123.23C102.137 122.546 101.993 121.958 101.705 121.466C101.429 120.962 101.045 120.572 100.553 120.296C100.073 120.02 99.533 119.882 98.933 119.882C98.321 119.882 97.775 120.02 97.295 120.296C96.815 120.572 96.431 120.962 96.143 121.466C95.855 121.958 95.711 122.546 95.711 123.23C95.711 123.902 95.855 124.496 96.143 125.012C96.431 125.516 96.815 125.906 97.295 126.182C97.775 126.458 98.321 126.596 98.933 126.596ZM102.191 128V125.426L102.299 123.212L102.119 120.998V114.644H103.847V128H102.191ZM111.203 128.108C110.243 128.108 109.391 127.898 108.647 127.478C107.903 127.058 107.315 126.482 106.883 125.75C106.451 125.006 106.235 124.166 106.235 123.23C106.235 122.282 106.451 121.442 106.883 120.71C107.315 119.978 107.903 119.408 108.647 119C109.391 118.58 110.243 118.37 111.203 118.37C112.151 118.37 112.997 118.58 113.741 119C114.497 119.408 115.085 119.978 115.505 120.71C115.937 121.43 116.153 122.27 116.153 123.23C116.153 124.178 115.937 125.018 115.505 125.75C115.085 126.482 114.497 127.058 113.741 127.478C112.997 127.898 112.151 128.108 111.203 128.108ZM111.203 126.596C111.815 126.596 112.361 126.458 112.841 126.182C113.333 125.906 113.717 125.516 113.993 125.012C114.269 124.496 114.407 123.902 114.407 123.23C114.407 122.546 114.269 121.958 113.993 121.466C113.717 120.962 113.333 120.572 112.841 120.296C112.361 120.02 111.815 119.882 111.203 119.882C110.591 119.882 110.045 120.02 109.565 120.296C109.085 120.572 108.701 120.962 108.413 121.466C108.125 121.958 107.981 122.546 107.981 123.23C107.981 123.902 108.125 124.496 108.413 125.012C108.701 125.516 109.085 125.906 109.565 126.182C110.045 126.458 110.591 126.596 111.203 126.596ZM135.31 118.37C136.078 118.37 136.756 118.52 137.344 118.82C137.932 119.12 138.388 119.576 138.712 120.188C139.048 120.8 139.216 121.574 139.216 122.51V128H137.488V122.708C137.488 121.784 137.272 121.088 136.84 120.62C136.408 120.152 135.802 119.918 135.022 119.918C134.446 119.918 133.942 120.038 133.51 120.278C133.078 120.518 132.742 120.872 132.502 121.34C132.274 121.808 132.16 122.39 132.16 123.086V128H130.432V122.708C130.432 121.784 130.216 121.088 129.784 120.62C129.364 120.152 128.758 119.918 127.966 119.918C127.402 119.918 126.904 120.038 126.472 120.278C126.04 120.518 125.704 120.872 125.464 121.34C125.224 121.808 125.104 122.39 125.104 123.086V128H123.376V118.46H125.032V120.998L124.762 120.35C125.062 119.726 125.524 119.24 126.148 118.892C126.772 118.544 127.498 118.37 128.326 118.37C129.238 118.37 130.024 118.598 130.684 119.054C131.344 119.498 131.776 120.176 131.98 121.088L131.278 120.8C131.566 120.068 132.07 119.48 132.79 119.036C133.51 118.592 134.35 118.37 135.31 118.37ZM146.644 128.108C145.624 128.108 144.724 127.898 143.944 127.478C143.176 127.058 142.576 126.482 142.144 125.75C141.724 125.018 141.514 124.178 141.514 123.23C141.514 122.282 141.718 121.442 142.126 120.71C142.546 119.978 143.116 119.408 143.836 119C144.568 118.58 145.39 118.37 146.302 118.37C147.226 118.37 148.042 118.574 148.75 118.982C149.458 119.39 150.01 119.966 150.406 120.71C150.814 121.442 151.018 122.3 151.018 123.284C151.018 123.356 151.012 123.44 151 123.536C151 123.632 150.994 123.722 150.982 123.806H142.864V122.564H150.082L149.38 122.996C149.392 122.384 149.266 121.838 149.002 121.358C148.738 120.878 148.372 120.506 147.904 120.242C147.448 119.966 146.914 119.828 146.302 119.828C145.702 119.828 145.168 119.966 144.7 120.242C144.232 120.506 143.866 120.884 143.602 121.376C143.338 121.856 143.206 122.408 143.206 123.032V123.32C143.206 123.956 143.35 124.526 143.638 125.03C143.938 125.522 144.352 125.906 144.88 126.182C145.408 126.458 146.014 126.596 146.698 126.596C147.262 126.596 147.772 126.5 148.228 126.308C148.696 126.116 149.104 125.828 149.452 125.444L150.406 126.56C149.974 127.064 149.434 127.448 148.786 127.712C148.15 127.976 147.436 128.108 146.644 128.108ZM157.359 128.108C156.435 128.108 155.607 127.904 154.875 127.496C154.155 127.088 153.585 126.518 153.165 125.786C152.745 125.054 152.535 124.202 152.535 123.23C152.535 122.258 152.745 121.412 153.165 120.692C153.585 119.96 154.155 119.39 154.875 118.982C155.607 118.574 156.435 118.37 157.359 118.37C158.163 118.37 158.889 118.55 159.537 118.91C160.185 119.27 160.701 119.81 161.085 120.53C161.481 121.25 161.679 122.15 161.679 123.23C161.679 124.31 161.487 125.21 161.103 125.93C160.731 126.65 160.221 127.196 159.573 127.568C158.925 127.928 158.187 128.108 157.359 128.108ZM157.503 126.596C158.103 126.596 158.643 126.458 159.123 126.182C159.615 125.906 159.999 125.516 160.275 125.012C160.563 124.496 160.707 123.902 160.707 123.23C160.707 122.546 160.563 121.958 160.275 121.466C159.999 120.962 159.615 120.572 159.123 120.296C158.643 120.02 158.103 119.882 157.503 119.882C156.891 119.882 156.345 120.02 155.865 120.296C155.385 120.572 155.001 120.962 154.713 121.466C154.425 121.958 154.281 122.546 154.281 123.23C154.281 123.902 154.425 124.496 154.713 125.012C155.001 125.516 155.385 125.906 155.865 126.182C156.345 126.458 156.891 126.596 157.503 126.596ZM160.761 128V125.426L160.869 123.212L160.689 120.998V114.644H162.417V128H160.761ZM165.687 128V118.46H167.415V128H165.687ZM166.551 116.624C166.215 116.624 165.933 116.516 165.705 116.3C165.489 116.084 165.381 115.82 165.381 115.508C165.381 115.184 165.489 114.914 165.705 114.698C165.933 114.482 166.215 114.374 166.551 114.374C166.887 114.374 167.163 114.482 167.379 114.698C167.607 114.902 167.721 115.16 167.721 115.472C167.721 115.796 167.613 116.072 167.397 116.3C167.181 116.516 166.899 116.624 166.551 116.624ZM174.8 128.108C173.84 128.108 172.988 127.898 172.244 127.478C171.5 127.058 170.912 126.482 170.48 125.75C170.048 125.006 169.832 124.166 169.832 123.23C169.832 122.282 170.048 121.442 170.48 120.71C170.912 119.978 171.5 119.408 172.244 119C172.988 118.58 173.84 118.37 174.8 118.37C175.748 118.37 176.594 118.58 177.338 119C178.094 119.408 178.682 119.978 179.102 120.71C179.534 121.43 179.75 122.27 179.75 123.23C179.75 124.178 179.534 125.018 179.102 125.75C178.682 126.482 178.094 127.058 177.338 127.478C176.594 127.898 175.748 128.108 174.8 128.108ZM174.8 126.596C175.412 126.596 175.958 126.458 176.438 126.182C176.93 125.906 177.314 125.516 177.59 125.012C177.866 124.496 178.004 123.902 178.004 123.23C178.004 122.546 177.866 121.958 177.59 121.466C177.314 120.962 176.93 120.572 176.438 120.296C175.958 120.02 175.412 119.882 174.8 119.882C174.188 119.882 173.642 120.02 173.162 120.296C172.682 120.572 172.298 120.962 172.01 121.466C171.722 121.958 171.578 122.546 171.578 123.23C171.578 123.902 171.722 124.496 172.01 125.012C172.298 125.516 172.682 125.906 173.162 126.182C173.642 126.458 174.188 126.596 174.8 126.596ZM184.876 128.108C184.084 128.108 183.328 128 182.608 127.784C181.9 127.568 181.342 127.304 180.934 126.992L181.654 125.624C182.062 125.9 182.566 126.134 183.166 126.326C183.766 126.518 184.378 126.614 185.002 126.614C185.806 126.614 186.382 126.5 186.73 126.272C187.09 126.044 187.27 125.726 187.27 125.318C187.27 125.018 187.162 124.784 186.946 124.616C186.73 124.448 186.442 124.322 186.082 124.238C185.734 124.154 185.344 124.082 184.912 124.022C184.48 123.95 184.048 123.866 183.616 123.77C183.184 123.662 182.788 123.518 182.428 123.338C182.068 123.146 181.78 122.888 181.564 122.564C181.348 122.228 181.24 121.784 181.24 121.232C181.24 120.656 181.402 120.152 181.726 119.72C182.05 119.288 182.506 118.958 183.094 118.73C183.694 118.49 184.402 118.37 185.218 118.37C185.842 118.37 186.472 118.448 187.108 118.604C187.756 118.748 188.284 118.958 188.692 119.234L187.954 120.602C187.522 120.314 187.072 120.116 186.604 120.008C186.136 119.9 185.668 119.846 185.2 119.846C184.444 119.846 183.88 119.972 183.508 120.224C183.136 120.464 182.95 120.776 182.95 121.16C182.95 121.484 183.058 121.736 183.274 121.916C183.502 122.084 183.79 122.216 184.138 122.312C184.498 122.408 184.894 122.492 185.326 122.564C185.758 122.624 186.19 122.708 186.622 122.816C187.054 122.912 187.444 123.05 187.792 123.23C188.152 123.41 188.44 123.662 188.656 123.986C188.884 124.31 188.998 124.742 188.998 125.282C188.998 125.858 188.83 126.356 188.494 126.776C188.158 127.196 187.684 127.526 187.072 127.766C186.46 127.994 185.728 128.108 184.876 128.108ZM199.934 128.108C199.01 128.108 198.182 127.904 197.45 127.496C196.73 127.088 196.16 126.518 195.74 125.786C195.32 125.054 195.11 124.202 195.11 123.23C195.11 122.258 195.32 121.412 195.74 120.692C196.16 119.96 196.73 119.39 197.45 118.982C198.182 118.574 199.01 118.37 199.934 118.37C200.738 118.37 201.464 118.55 202.112 118.91C202.76 119.27 203.276 119.81 203.66 120.53C204.056 121.25 204.254 122.15 204.254 123.23C204.254 124.31 204.062 125.21 203.678 125.93C203.306 126.65 202.796 127.196 202.148 127.568C201.5 127.928 200.762 128.108 199.934 128.108ZM200.078 126.596C200.678 126.596 201.218 126.458 201.698 126.182C202.19 125.906 202.574 125.516 202.85 125.012C203.138 124.496 203.282 123.902 203.282 123.23C203.282 122.546 203.138 121.958 202.85 121.466C202.574 120.962 202.19 120.572 201.698 120.296C201.218 120.02 200.678 119.882 200.078 119.882C199.466 119.882 198.92 120.02 198.44 120.296C197.96 120.572 197.576 120.962 197.288 121.466C197 121.958 196.856 122.546 196.856 123.23C196.856 123.902 197 124.496 197.288 125.012C197.576 125.516 197.96 125.906 198.44 126.182C198.92 126.458 199.466 126.596 200.078 126.596ZM203.336 128V125.426L203.444 123.212L203.264 120.998V114.644H204.992V128H203.336ZM208.261 128V118.46H209.989V128H208.261ZM209.125 116.624C208.789 116.624 208.507 116.516 208.279 116.3C208.063 116.084 207.955 115.82 207.955 115.508C207.955 115.184 208.063 114.914 208.279 114.698C208.507 114.482 208.789 114.374 209.125 114.374C209.461 114.374 209.737 114.482 209.953 114.698C210.181 114.902 210.295 115.16 210.295 115.472C210.295 115.796 210.187 116.072 209.971 116.3C209.755 116.516 209.473 116.624 209.125 116.624ZM217.464 131.6C216.588 131.6 215.736 131.474 214.908 131.222C214.092 130.982 213.426 130.634 212.91 130.178L213.738 128.846C214.182 129.23 214.728 129.53 215.376 129.746C216.024 129.974 216.702 130.088 217.41 130.088C218.538 130.088 219.366 129.824 219.894 129.296C220.422 128.768 220.686 127.964 220.686 126.884V124.868L220.866 122.978L220.776 121.07V118.46H222.414V126.704C222.414 128.384 221.994 129.62 221.154 130.412C220.314 131.204 219.084 131.6 217.464 131.6ZM217.248 127.604C216.324 127.604 215.496 127.412 214.764 127.028C214.044 126.632 213.468 126.086 213.036 125.39C212.616 124.694 212.406 123.89 212.406 122.978C212.406 122.054 212.616 121.25 213.036 120.566C213.468 119.87 214.044 119.33 214.764 118.946C215.496 118.562 216.324 118.37 217.248 118.37C218.064 118.37 218.808 118.538 219.48 118.874C220.152 119.198 220.686 119.702 221.082 120.386C221.49 121.07 221.694 121.934 221.694 122.978C221.694 124.01 221.49 124.868 221.082 125.552C220.686 126.236 220.152 126.752 219.48 127.1C218.808 127.436 218.064 127.604 217.248 127.604ZM217.446 126.092C218.082 126.092 218.646 125.96 219.138 125.696C219.63 125.432 220.014 125.066 220.29 124.598C220.578 124.13 220.722 123.59 220.722 122.978C220.722 122.366 220.578 121.826 220.29 121.358C220.014 120.89 219.63 120.53 219.138 120.278C218.646 120.014 218.082 119.882 217.446 119.882C216.81 119.882 216.24 120.014 215.736 120.278C215.244 120.53 214.854 120.89 214.566 121.358C214.29 121.826 214.152 122.366 214.152 122.978C214.152 123.59 214.29 124.13 214.566 124.598C214.854 125.066 215.244 125.432 215.736 125.696C216.24 125.96 216.81 126.092 217.446 126.092ZM225.716 128V118.46H227.444V128H225.716ZM226.58 116.624C226.244 116.624 225.962 116.516 225.734 116.3C225.518 116.084 225.41 115.82 225.41 115.508C225.41 115.184 225.518 114.914 225.734 114.698C225.962 114.482 226.244 114.374 226.58 114.374C226.916 114.374 227.192 114.482 227.408 114.698C227.636 114.902 227.75 115.16 227.75 115.472C227.75 115.796 227.642 116.072 227.426 116.3C227.21 116.516 226.928 116.624 226.58 116.624ZM234.019 128.108C233.059 128.108 232.315 127.85 231.787 127.334C231.259 126.818 230.995 126.08 230.995 125.12V116.372H232.723V125.048C232.723 125.564 232.849 125.96 233.101 126.236C233.365 126.512 233.737 126.65 234.217 126.65C234.757 126.65 235.207 126.5 235.567 126.2L236.107 127.442C235.843 127.67 235.525 127.838 235.153 127.946C234.793 128.054 234.415 128.108 234.019 128.108ZM229.375 119.882V118.46H235.459V119.882H229.375ZM244.119 128V125.984L244.029 125.606V122.168C244.029 121.436 243.813 120.872 243.381 120.476C242.961 120.068 242.325 119.864 241.473 119.864C240.909 119.864 240.357 119.96 239.817 120.152C239.277 120.332 238.821 120.578 238.449 120.89L237.729 119.594C238.221 119.198 238.809 118.898 239.493 118.694C240.189 118.478 240.915 118.37 241.671 118.37C242.979 118.37 243.987 118.688 244.695 119.324C245.403 119.96 245.757 120.932 245.757 122.24V128H244.119ZM240.987 128.108C240.279 128.108 239.655 127.988 239.115 127.748C238.587 127.508 238.179 127.178 237.891 126.758C237.603 126.326 237.459 125.84 237.459 125.3C237.459 124.784 237.579 124.316 237.819 123.896C238.071 123.476 238.473 123.14 239.025 122.888C239.589 122.636 240.345 122.51 241.293 122.51H244.317V123.752H241.365C240.501 123.752 239.919 123.896 239.619 124.184C239.319 124.472 239.169 124.82 239.169 125.228C239.169 125.696 239.355 126.074 239.727 126.362C240.099 126.638 240.615 126.776 241.275 126.776C241.923 126.776 242.487 126.632 242.967 126.344C243.459 126.056 243.813 125.636 244.029 125.084L244.371 126.272C244.143 126.836 243.741 127.286 243.165 127.622C242.589 127.946 241.863 128.108 240.987 128.108ZM248.954 128V114.644H250.682V128H248.954ZM258.23 128.108C257.21 128.108 256.31 127.898 255.53 127.478C254.762 127.058 254.162 126.482 253.73 125.75C253.31 125.018 253.1 124.178 253.1 123.23C253.1 122.282 253.304 121.442 253.712 120.71C254.132 119.978 254.702 119.408 255.422 119C256.154 118.58 256.976 118.37 257.888 118.37C258.812 118.37 259.628 118.574 260.336 118.982C261.044 119.39 261.596 119.966 261.992 120.71C262.4 121.442 262.604 122.3 262.604 123.284C262.604 123.356 262.598 123.44 262.586 123.536C262.586 123.632 262.58 123.722 262.568 123.806H254.45V122.564H261.668L260.966 122.996C260.978 122.384 260.852 121.838 260.588 121.358C260.324 120.878 259.958 120.506 259.49 120.242C259.034 119.966 258.5 119.828 257.888 119.828C257.288 119.828 256.754 119.966 256.286 120.242C255.818 120.506 255.452 120.884 255.188 121.376C254.924 121.856 254.792 122.408 254.792 123.032V123.32C254.792 123.956 254.936 124.526 255.224 125.03C255.524 125.522 255.938 125.906 256.466 126.182C256.994 126.458 257.6 126.596 258.284 126.596C258.848 126.596 259.358 126.5 259.814 126.308C260.282 126.116 260.69 125.828 261.038 125.444L261.992 126.56C261.56 127.064 261.02 127.448 260.372 127.712C259.736 127.976 259.022 128.108 258.23 128.108ZM267.739 128.108C266.947 128.108 266.191 128 265.471 127.784C264.763 127.568 264.205 127.304 263.797 126.992L264.517 125.624C264.925 125.9 265.429 126.134 266.029 126.326C266.629 126.518 267.241 126.614 267.865 126.614C268.669 126.614 269.245 126.5 269.593 126.272C269.953 126.044 270.133 125.726 270.133 125.318C270.133 125.018 270.025 124.784 269.809 124.616C269.593 124.448 269.305 124.322 268.945 124.238C268.597 124.154 268.207 124.082 267.775 124.022C267.343 123.95 266.911 123.866 266.479 123.77C266.047 123.662 265.651 123.518 265.291 123.338C264.931 123.146 264.643 122.888 264.427 122.564C264.211 122.228 264.103 121.784 264.103 121.232C264.103 120.656 264.265 120.152 264.589 119.72C264.913 119.288 265.369 118.958 265.957 118.73C266.557 118.49 267.265 118.37 268.081 118.37C268.705 118.37 269.335 118.448 269.971 118.604C270.619 118.748 271.147 118.958 271.555 119.234L270.817 120.602C270.385 120.314 269.935 120.116 269.467 120.008C268.999 119.9 268.531 119.846 268.063 119.846C267.307 119.846 266.743 119.972 266.371 120.224C265.999 120.464 265.813 120.776 265.813 121.16C265.813 121.484 265.921 121.736 266.137 121.916C266.365 122.084 266.653 122.216 267.001 122.312C267.361 122.408 267.757 122.492 268.189 122.564C268.621 122.624 269.053 122.708 269.485 122.816C269.917 122.912 270.307 123.05 270.655 123.23C271.015 123.41 271.303 123.662 271.519 123.986C271.747 124.31 271.861 124.742 271.861 125.282C271.861 125.858 271.693 126.356 271.357 126.776C271.021 127.196 270.547 127.526 269.935 127.766C269.323 127.994 268.591 128.108 267.739 128.108ZM283.913 128.108C283.121 128.108 282.395 127.928 281.735 127.568C281.087 127.196 280.565 126.65 280.169 125.93C279.785 125.21 279.593 124.31 279.593 123.23C279.593 122.15 279.779 121.25 280.151 120.53C280.535 119.81 281.051 119.27 281.699 118.91C282.359 118.55 283.097 118.37 283.913 118.37C284.849 118.37 285.677 118.574 286.397 118.982C287.117 119.39 287.687 119.96 288.107 120.692C288.527 121.412 288.737 122.258 288.737 123.23C288.737 124.202 288.527 125.054 288.107 125.786C287.687 126.518 287.117 127.088 286.397 127.496C285.677 127.904 284.849 128.108 283.913 128.108ZM278.855 131.492V118.46H280.511V121.034L280.403 123.248L280.583 125.462V131.492H278.855ZM283.769 126.596C284.381 126.596 284.927 126.458 285.407 126.182C285.899 125.906 286.283 125.516 286.559 125.012C286.847 124.496 286.991 123.902 286.991 123.23C286.991 122.546 286.847 121.958 286.559 121.466C286.283 120.962 285.899 120.572 285.407 120.296C284.927 120.02 284.381 119.882 283.769 119.882C283.169 119.882 282.623 120.02 282.131 120.296C281.651 120.572 281.267 120.962 280.979 121.466C280.703 121.958 280.565 122.546 280.565 123.23C280.565 123.902 280.703 124.496 280.979 125.012C281.267 125.516 281.651 125.906 282.131 126.182C282.623 126.458 283.169 126.596 283.769 126.596ZM296.958 128V125.984L296.868 125.606V122.168C296.868 121.436 296.652 120.872 296.22 120.476C295.8 120.068 295.164 119.864 294.312 119.864C293.748 119.864 293.196 119.96 292.656 120.152C292.116 120.332 291.66 120.578 291.288 120.89L290.568 119.594C291.06 119.198 291.648 118.898 292.332 118.694C293.028 118.478 293.754 118.37 294.51 118.37C295.818 118.37 296.826 118.688 297.534 119.324C298.242 119.96 298.596 120.932 298.596 122.24V128H296.958ZM293.826 128.108C293.118 128.108 292.494 127.988 291.954 127.748C291.426 127.508 291.018 127.178 290.73 126.758C290.442 126.326 290.298 125.84 290.298 125.3C290.298 124.784 290.418 124.316 290.658 123.896C290.91 123.476 291.312 123.14 291.864 122.888C292.428 122.636 293.184 122.51 294.132 122.51H297.156V123.752H294.204C293.34 123.752 292.758 123.896 292.458 124.184C292.158 124.472 292.008 124.82 292.008 125.228C292.008 125.696 292.194 126.074 292.566 126.362C292.938 126.638 293.454 126.776 294.114 126.776C294.762 126.776 295.326 126.632 295.806 126.344C296.298 126.056 296.652 125.636 296.868 125.084L297.21 126.272C296.982 126.836 296.58 127.286 296.004 127.622C295.428 127.946 294.702 128.108 293.826 128.108ZM305.97 131.6C305.094 131.6 304.242 131.474 303.414 131.222C302.598 130.982 301.932 130.634 301.416 130.178L302.244 128.846C302.688 129.23 303.234 129.53 303.882 129.746C304.53 129.974 305.208 130.088 305.916 130.088C307.044 130.088 307.872 129.824 308.4 129.296C308.928 128.768 309.192 127.964 309.192 126.884V124.868L309.372 122.978L309.282 121.07V118.46H310.92V126.704C310.92 128.384 310.5 129.62 309.66 130.412C308.82 131.204 307.59 131.6 305.97 131.6ZM305.754 127.604C304.83 127.604 304.002 127.412 303.27 127.028C302.55 126.632 301.974 126.086 301.542 125.39C301.122 124.694 300.912 123.89 300.912 122.978C300.912 122.054 301.122 121.25 301.542 120.566C301.974 119.87 302.55 119.33 303.27 118.946C304.002 118.562 304.83 118.37 305.754 118.37C306.57 118.37 307.314 118.538 307.986 118.874C308.658 119.198 309.192 119.702 309.588 120.386C309.996 121.07 310.2 121.934 310.2 122.978C310.2 124.01 309.996 124.868 309.588 125.552C309.192 126.236 308.658 126.752 307.986 127.1C307.314 127.436 306.57 127.604 305.754 127.604ZM305.952 126.092C306.588 126.092 307.152 125.96 307.644 125.696C308.136 125.432 308.52 125.066 308.796 124.598C309.084 124.13 309.228 123.59 309.228 122.978C309.228 122.366 309.084 121.826 308.796 121.358C308.52 120.89 308.136 120.53 307.644 120.278C307.152 120.014 306.588 119.882 305.952 119.882C305.316 119.882 304.746 120.014 304.242 120.278C303.75 120.53 303.36 120.89 303.072 121.358C302.796 121.826 302.658 122.366 302.658 122.978C302.658 123.59 302.796 124.13 303.072 124.598C303.36 125.066 303.75 125.432 304.242 125.696C304.746 125.96 305.316 126.092 305.952 126.092ZM320.144 128V125.984L320.054 125.606V122.168C320.054 121.436 319.838 120.872 319.406 120.476C318.986 120.068 318.35 119.864 317.498 119.864C316.934 119.864 316.382 119.96 315.842 120.152C315.302 120.332 314.846 120.578 314.474 120.89L313.754 119.594C314.246 119.198 314.834 118.898 315.518 118.694C316.214 118.478 316.94 118.37 317.696 118.37C319.004 118.37 320.012 118.688 320.72 119.324C321.428 119.96 321.782 120.932 321.782 122.24V128H320.144ZM317.012 128.108C316.304 128.108 315.68 127.988 315.14 127.748C314.612 127.508 314.204 127.178 313.916 126.758C313.628 126.326 313.484 125.84 313.484 125.3C313.484 124.784 313.604 124.316 313.844 123.896C314.096 123.476 314.498 123.14 315.05 122.888C315.614 122.636 316.37 122.51 317.318 122.51H320.342V123.752H317.39C316.526 123.752 315.944 123.896 315.644 124.184C315.344 124.472 315.194 124.82 315.194 125.228C315.194 125.696 315.38 126.074 315.752 126.362C316.124 126.638 316.64 126.776 317.3 126.776C317.948 126.776 318.512 126.632 318.992 126.344C319.484 126.056 319.838 125.636 320.054 125.084L320.396 126.272C320.168 126.836 319.766 127.286 319.19 127.622C318.614 127.946 317.888 128.108 317.012 128.108ZM328.922 128.108C327.998 128.108 327.17 127.904 326.438 127.496C325.718 127.088 325.148 126.518 324.728 125.786C324.308 125.054 324.098 124.202 324.098 123.23C324.098 122.258 324.308 121.412 324.728 120.692C325.148 119.96 325.718 119.39 326.438 118.982C327.17 118.574 327.998 118.37 328.922 118.37C329.726 118.37 330.452 118.55 331.1 118.91C331.748 119.27 332.264 119.81 332.648 120.53C333.044 121.25 333.242 122.15 333.242 123.23C333.242 124.31 333.05 125.21 332.666 125.93C332.294 126.65 331.784 127.196 331.136 127.568C330.488 127.928 329.75 128.108 328.922 128.108ZM329.066 126.596C329.666 126.596 330.206 126.458 330.686 126.182C331.178 125.906 331.562 125.516 331.838 125.012C332.126 124.496 332.27 123.902 332.27 123.23C332.27 122.546 332.126 121.958 331.838 121.466C331.562 120.962 331.178 120.572 330.686 120.296C330.206 120.02 329.666 119.882 329.066 119.882C328.454 119.882 327.908 120.02 327.428 120.296C326.948 120.572 326.564 120.962 326.276 121.466C325.988 121.958 325.844 122.546 325.844 123.23C325.844 123.902 325.988 124.496 326.276 125.012C326.564 125.516 326.948 125.906 327.428 126.182C327.908 126.458 328.454 126.596 329.066 126.596ZM332.324 128V125.426L332.432 123.212L332.252 120.998V114.644H333.98V128H332.324ZM341.335 128.108C340.375 128.108 339.523 127.898 338.779 127.478C338.035 127.058 337.447 126.482 337.015 125.75C336.583 125.006 336.367 124.166 336.367 123.23C336.367 122.282 336.583 121.442 337.015 120.71C337.447 119.978 338.035 119.408 338.779 119C339.523 118.58 340.375 118.37 341.335 118.37C342.283 118.37 343.129 118.58 343.873 119C344.629 119.408 345.217 119.978 345.637 120.71C346.069 121.43 346.285 122.27 346.285 123.23C346.285 124.178 346.069 125.018 345.637 125.75C345.217 126.482 344.629 127.058 343.873 127.478C343.129 127.898 342.283 128.108 341.335 128.108ZM341.335 126.596C341.947 126.596 342.493 126.458 342.973 126.182C343.465 125.906 343.849 125.516 344.125 125.012C344.401 124.496 344.539 123.902 344.539 123.23C344.539 122.546 344.401 121.958 344.125 121.466C343.849 120.962 343.465 120.572 342.973 120.296C342.493 120.02 341.947 119.882 341.335 119.882C340.723 119.882 340.177 120.02 339.697 120.296C339.217 120.572 338.833 120.962 338.545 121.466C338.257 121.958 338.113 122.546 338.113 123.23C338.113 123.902 338.257 124.496 338.545 125.012C338.833 125.516 339.217 125.906 339.697 126.182C340.177 126.458 340.723 126.596 341.335 126.596ZM351.411 128.108C350.619 128.108 349.863 128 349.143 127.784C348.435 127.568 347.877 127.304 347.469 126.992L348.189 125.624C348.597 125.9 349.101 126.134 349.701 126.326C350.301 126.518 350.913 126.614 351.537 126.614C352.341 126.614 352.917 126.5 353.265 126.272C353.625 126.044 353.805 125.726 353.805 125.318C353.805 125.018 353.697 124.784 353.481 124.616C353.265 124.448 352.977 124.322 352.617 124.238C352.269 124.154 351.879 124.082 351.447 124.022C351.015 123.95 350.583 123.866 350.151 123.77C349.719 123.662 349.323 123.518 348.963 123.338C348.603 123.146 348.315 122.888 348.099 122.564C347.883 122.228 347.775 121.784 347.775 121.232C347.775 120.656 347.937 120.152 348.261 119.72C348.585 119.288 349.041 118.958 349.629 118.73C350.229 118.49 350.937 118.37 351.753 118.37C352.377 118.37 353.007 118.448 353.643 118.604C354.291 118.748 354.819 118.958 355.227 119.234L354.489 120.602C354.057 120.314 353.607 120.116 353.139 120.008C352.671 119.9 352.203 119.846 351.735 119.846C350.979 119.846 350.415 119.972 350.043 120.224C349.671 120.464 349.485 120.776 349.485 121.16C349.485 121.484 349.593 121.736 349.809 121.916C350.037 122.084 350.325 122.216 350.673 122.312C351.033 122.408 351.429 122.492 351.861 122.564C352.293 122.624 352.725 122.708 353.157 122.816C353.589 122.912 353.979 123.05 354.327 123.23C354.687 123.41 354.975 123.662 355.191 123.986C355.419 124.31 355.533 124.742 355.533 125.282C355.533 125.858 355.365 126.356 355.029 126.776C354.693 127.196 354.219 127.526 353.607 127.766C352.995 127.994 352.263 128.108 351.411 128.108ZM362.941 131.6C362.485 131.6 362.041 131.522 361.609 131.366C361.177 131.222 360.805 131.006 360.493 130.718L361.231 129.422C361.471 129.65 361.735 129.824 362.023 129.944C362.311 130.064 362.617 130.124 362.941 130.124C363.361 130.124 363.709 130.016 363.985 129.8C364.261 129.584 364.519 129.2 364.759 128.648L365.353 127.334L365.533 127.118L369.277 118.46H370.969L366.343 128.954C366.067 129.626 365.755 130.154 365.407 130.538C365.071 130.922 364.699 131.192 364.291 131.348C363.883 131.516 363.433 131.6 362.941 131.6ZM365.209 128.306L360.853 118.46H362.653L366.361 126.956L365.209 128.306ZM54.562 152.144C53.602 152.144 52.684 152 51.808 151.712C50.932 151.412 50.242 151.028 49.738 150.56L50.404 149.156C50.884 149.576 51.496 149.924 52.24 150.2C52.984 150.476 53.758 150.614 54.562 150.614C55.294 150.614 55.888 150.53 56.344 150.362C56.8 150.194 57.136 149.966 57.352 149.678C57.568 149.378 57.676 149.042 57.676 148.67C57.676 148.238 57.532 147.89 57.244 147.626C56.968 147.362 56.602 147.152 56.146 146.996C55.702 146.828 55.21 146.684 54.67 146.564C54.13 146.444 53.584 146.306 53.032 146.15C52.492 145.982 51.994 145.772 51.538 145.52C51.094 145.268 50.734 144.932 50.458 144.512C50.182 144.08 50.044 143.528 50.044 142.856C50.044 142.208 50.212 141.614 50.548 141.074C50.896 140.522 51.424 140.084 52.132 139.76C52.852 139.424 53.764 139.256 54.868 139.256C55.6 139.256 56.326 139.352 57.046 139.544C57.766 139.736 58.39 140.012 58.918 140.372L58.324 141.812C57.784 141.452 57.214 141.194 56.614 141.038C56.014 140.87 55.432 140.786 54.868 140.786C54.16 140.786 53.578 140.876 53.122 141.056C52.666 141.236 52.33 141.476 52.114 141.776C51.91 142.076 51.808 142.412 51.808 142.784C51.808 143.228 51.946 143.582 52.222 143.846C52.51 144.11 52.876 144.32 53.32 144.476C53.776 144.632 54.274 144.776 54.814 144.908C55.354 145.028 55.894 145.166 56.434 145.322C56.986 145.478 57.484 145.682 57.928 145.934C58.384 146.186 58.75 146.522 59.026 146.942C59.302 147.362 59.44 147.902 59.44 148.562C59.44 149.198 59.266 149.792 58.918 150.344C58.57 150.884 58.03 151.322 57.298 151.658C56.578 151.982 55.666 152.144 54.562 152.144ZM63.7077 144.836H70.1877V146.366H63.7077V144.836ZM63.8697 150.434H71.2137V152H62.0697V139.4H70.9617V140.966H63.8697V150.434ZM74.1283 152V139.4H75.6043L81.2563 148.922H80.4643L86.0443 139.4H87.5203L87.5383 152H85.8103L85.7923 142.118H86.2063L81.2383 150.47H80.4103L75.4063 142.118H75.8563V152H74.1283ZM91.4817 152.108C91.1457 152.108 90.8577 151.994 90.6177 151.766C90.3777 151.526 90.2577 151.226 90.2577 150.866C90.2577 150.506 90.3777 150.212 90.6177 149.984C90.8577 149.756 91.1457 149.642 91.4817 149.642C91.8057 149.642 92.0817 149.756 92.3097 149.984C92.5497 150.212 92.6697 150.506 92.6697 150.866C92.6697 151.226 92.5497 151.526 92.3097 151.766C92.0817 151.994 91.8057 152.108 91.4817 152.108Z" fill="#4D4D70"/>
<path d="M54.7926 190L49.2486 177.4H51.1926L56.2866 189.028H55.1706L60.3006 177.4H62.1006L56.5746 190H54.7926ZM66.9827 190.108C65.9627 190.108 65.0627 189.898 64.2827 189.478C63.5147 189.058 62.9147 188.482 62.4827 187.75C62.0627 187.018 61.8527 186.178 61.8527 185.23C61.8527 184.282 62.0567 183.442 62.4647 182.71C62.8847 181.978 63.4547 181.408 64.1747 181C64.9067 180.58 65.7287 180.37 66.6407 180.37C67.5647 180.37 68.3807 180.574 69.0887 180.982C69.7967 181.39 70.3487 181.966 70.7447 182.71C71.1527 183.442 71.3567 184.3 71.3567 185.284C71.3567 185.356 71.3507 185.44 71.3387 185.536C71.3387 185.632 71.3327 185.722 71.3207 185.806H63.2027V184.564H70.4207L69.7187 184.996C69.7307 184.384 69.6047 183.838 69.3407 183.358C69.0767 182.878 68.7107 182.506 68.2427 182.242C67.7867 181.966 67.2527 181.828 66.6407 181.828C66.0407 181.828 65.5067 181.966 65.0387 182.242C64.5707 182.506 64.2047 182.884 63.9407 183.376C63.6767 183.856 63.5447 184.408 63.5447 185.032V185.32C63.5447 185.956 63.6887 186.526 63.9767 187.03C64.2767 187.522 64.6907 187.906 65.2187 188.182C65.7467 188.458 66.3527 188.596 67.0367 188.596C67.6007 188.596 68.1107 188.5 68.5667 188.308C69.0347 188.116 69.4427 187.828 69.7907 187.444L70.7447 188.56C70.3127 189.064 69.7727 189.448 69.1247 189.712C68.4887 189.976 67.7747 190.108 66.9827 190.108ZM73.7562 190V180.46H75.4122V183.052L75.2502 182.404C75.5142 181.744 75.9582 181.24 76.5822 180.892C77.2062 180.544 77.9742 180.37 78.8862 180.37V182.044C78.8142 182.032 78.7422 182.026 78.6702 182.026C78.6102 182.026 78.5502 182.026 78.4902 182.026C77.5662 182.026 76.8342 182.302 76.2942 182.854C75.7542 183.406 75.4842 184.204 75.4842 185.248V190H73.7562ZM88.709 190.108C87.917 190.108 87.161 190 86.441 189.784C85.733 189.568 85.175 189.304 84.767 188.992L85.487 187.624C85.895 187.9 86.399 188.134 86.999 188.326C87.599 188.518 88.211 188.614 88.835 188.614C89.639 188.614 90.215 188.5 90.563 188.272C90.923 188.044 91.103 187.726 91.103 187.318C91.103 187.018 90.995 186.784 90.779 186.616C90.563 186.448 90.275 186.322 89.915 186.238C89.567 186.154 89.177 186.082 88.745 186.022C88.313 185.95 87.881 185.866 87.449 185.77C87.017 185.662 86.621 185.518 86.261 185.338C85.901 185.146 85.613 184.888 85.397 184.564C85.181 184.228 85.073 183.784 85.073 183.232C85.073 182.656 85.235 182.152 85.559 181.72C85.883 181.288 86.339 180.958 86.927 180.73C87.527 180.49 88.235 180.37 89.051 180.37C89.675 180.37 90.305 180.448 90.941 180.604C91.589 180.748 92.117 180.958 92.525 181.234L91.787 182.602C91.355 182.314 90.905 182.116 90.437 182.008C89.969 181.9 89.501 181.846 89.033 181.846C88.277 181.846 87.713 181.972 87.341 182.224C86.969 182.464 86.783 182.776 86.783 183.16C86.783 183.484 86.891 183.736 87.107 183.916C87.335 184.084 87.623 184.216 87.971 184.312C88.331 184.408 88.727 184.492 89.159 184.564C89.591 184.624 90.023 184.708 90.455 184.816C90.887 184.912 91.277 185.05 91.625 185.23C91.985 185.41 92.273 185.662 92.489 185.986C92.717 186.31 92.831 186.742 92.831 187.282C92.831 187.858 92.663 188.356 92.327 188.776C91.991 189.196 91.517 189.526 90.905 189.766C90.293 189.994 89.561 190.108 88.709 190.108ZM99.2385 190.108C98.2185 190.108 97.3185 189.898 96.5385 189.478C95.7705 189.058 95.1705 188.482 94.7385 187.75C94.3185 187.018 94.1085 186.178 94.1085 185.23C94.1085 184.282 94.3125 183.442 94.7205 182.71C95.1405 181.978 95.7105 181.408 96.4305 181C97.1625 180.58 97.9845 180.37 98.8965 180.37C99.8205 180.37 100.637 180.574 101.345 180.982C102.053 181.39 102.605 181.966 103.001 182.71C103.409 183.442 103.613 184.3 103.613 185.284C103.613 185.356 103.607 185.44 103.595 185.536C103.595 185.632 103.589 185.722 103.577 185.806H95.4585V184.564H102.677L101.975 184.996C101.987 184.384 101.861 183.838 101.597 183.358C101.333 182.878 100.967 182.506 100.499 182.242C100.043 181.966 99.5085 181.828 98.8965 181.828C98.2965 181.828 97.7625 181.966 97.2945 182.242C96.8265 182.506 96.4605 182.884 96.1965 183.376C95.9325 183.856 95.8005 184.408 95.8005 185.032V185.32C95.8005 185.956 95.9445 186.526 96.2325 187.03C96.5325 187.522 96.9465 187.906 97.4745 188.182C98.0025 188.458 98.6085 188.596 99.2925 188.596C99.8565 188.596 100.367 188.5 100.823 188.308C101.291 188.116 101.699 187.828 102.047 187.444L103.001 188.56C102.569 189.064 102.029 189.448 101.381 189.712C100.745 189.976 100.031 190.108 99.2385 190.108ZM106.012 190V180.46H107.668V183.052L107.506 182.404C107.77 181.744 108.214 181.24 108.838 180.892C109.462 180.544 110.23 180.37 111.142 180.37V182.044C111.07 182.032 110.998 182.026 110.926 182.026C110.866 182.026 110.806 182.026 110.746 182.026C109.822 182.026 109.09 182.302 108.55 182.854C108.01 183.406 107.74 184.204 107.74 185.248V190H106.012ZM116.161 190L111.985 180.46H113.785L117.493 189.1H116.629L120.409 180.46H122.101L117.925 190H116.161ZM123.713 190V180.46H125.441V190H123.713ZM124.577 178.624C124.241 178.624 123.959 178.516 123.731 178.3C123.515 178.084 123.407 177.82 123.407 177.508C123.407 177.184 123.515 176.914 123.731 176.698C123.959 176.482 124.241 176.374 124.577 176.374C124.913 176.374 125.189 176.482 125.405 176.698C125.633 176.902 125.747 177.16 125.747 177.472C125.747 177.796 125.639 178.072 125.423 178.3C125.207 178.516 124.925 178.624 124.577 178.624ZM132.899 190.108C131.927 190.108 131.057 189.898 130.289 189.478C129.533 189.058 128.939 188.482 128.507 187.75C128.075 187.018 127.859 186.178 127.859 185.23C127.859 184.282 128.075 183.442 128.507 182.71C128.939 181.978 129.533 181.408 130.289 181C131.057 180.58 131.927 180.37 132.899 180.37C133.763 180.37 134.531 180.544 135.203 180.892C135.887 181.228 136.415 181.732 136.787 182.404L135.473 183.25C135.161 182.782 134.777 182.44 134.321 182.224C133.877 181.996 133.397 181.882 132.881 181.882C132.257 181.882 131.699 182.02 131.207 182.296C130.715 182.572 130.325 182.962 130.037 183.466C129.749 183.958 129.605 184.546 129.605 185.23C129.605 185.914 129.749 186.508 130.037 187.012C130.325 187.516 130.715 187.906 131.207 188.182C131.699 188.458 132.257 188.596 132.881 188.596C133.397 188.596 133.877 188.488 134.321 188.272C134.777 188.044 135.161 187.696 135.473 187.228L136.787 188.056C136.415 188.716 135.887 189.226 135.203 189.586C134.531 189.934 133.763 190.108 132.899 190.108ZM138.901 190V180.46H140.629V190H138.901ZM139.765 178.624C139.429 178.624 139.147 178.516 138.919 178.3C138.703 178.084 138.595 177.82 138.595 177.508C138.595 177.184 138.703 176.914 138.919 176.698C139.147 176.482 139.429 176.374 139.765 176.374C140.101 176.374 140.377 176.482 140.593 176.698C140.821 176.902 140.935 177.16 140.935 177.472C140.935 177.796 140.827 178.072 140.611 178.3C140.395 178.516 140.113 178.624 139.765 178.624ZM148.014 190.108C147.054 190.108 146.202 189.898 145.458 189.478C144.714 189.058 144.126 188.482 143.694 187.75C143.262 187.006 143.046 186.166 143.046 185.23C143.046 184.282 143.262 183.442 143.694 182.71C144.126 181.978 144.714 181.408 145.458 181C146.202 180.58 147.054 180.37 148.014 180.37C148.962 180.37 149.808 180.58 150.552 181C151.308 181.408 151.896 181.978 152.316 182.71C152.748 183.43 152.964 184.27 152.964 185.23C152.964 186.178 152.748 187.018 152.316 187.75C151.896 188.482 151.308 189.058 150.552 189.478C149.808 189.898 148.962 190.108 148.014 190.108ZM148.014 188.596C148.626 188.596 149.172 188.458 149.652 188.182C150.144 187.906 150.528 187.516 150.804 187.012C151.08 186.496 151.218 185.902 151.218 185.23C151.218 184.546 151.08 183.958 150.804 183.466C150.528 182.962 150.144 182.572 149.652 182.296C149.172 182.02 148.626 181.882 148.014 181.882C147.402 181.882 146.856 182.02 146.376 182.296C145.896 182.572 145.512 182.962 145.224 183.466C144.936 183.958 144.792 184.546 144.792 185.23C144.792 185.902 144.936 186.496 145.224 187.012C145.512 187.516 145.896 187.906 146.376 188.182C146.856 188.458 147.402 188.596 148.014 188.596ZM158.09 190.108C157.298 190.108 156.542 190 155.822 189.784C155.114 189.568 154.556 189.304 154.148 188.992L154.868 187.624C155.276 187.9 155.78 188.134 156.38 188.326C156.98 188.518 157.592 188.614 158.216 188.614C159.02 188.614 159.596 188.5 159.944 188.272C160.304 188.044 160.484 187.726 160.484 187.318C160.484 187.018 160.376 186.784 160.16 186.616C159.944 186.448 159.656 186.322 159.296 186.238C158.948 186.154 158.558 186.082 158.126 186.022C157.694 185.95 157.262 185.866 156.83 185.77C156.398 185.662 156.002 185.518 155.642 185.338C155.282 185.146 154.994 184.888 154.778 184.564C154.562 184.228 154.454 183.784 154.454 183.232C154.454 182.656 154.616 182.152 154.94 181.72C155.264 181.288 155.72 180.958 156.308 180.73C156.908 180.49 157.616 180.37 158.432 180.37C159.056 180.37 159.686 180.448 160.322 180.604C160.97 180.748 161.498 180.958 161.906 181.234L161.168 182.602C160.736 182.314 160.286 182.116 159.818 182.008C159.35 181.9 158.882 181.846 158.414 181.846C157.658 181.846 157.094 181.972 156.722 182.224C156.35 182.464 156.164 182.776 156.164 183.16C156.164 183.484 156.272 183.736 156.488 183.916C156.716 184.084 157.004 184.216 157.352 184.312C157.712 184.408 158.108 184.492 158.54 184.564C158.972 184.624 159.404 184.708 159.836 184.816C160.268 184.912 160.658 185.05 161.006 185.23C161.366 185.41 161.654 185.662 161.87 185.986C162.098 186.31 162.212 186.742 162.212 187.282C162.212 187.858 162.044 188.356 161.708 188.776C161.372 189.196 160.898 189.526 160.286 189.766C159.674 189.994 158.942 190.108 158.09 190.108Z" fill="#000033"/>
<g clip-path="url(#clip1_725_1933)">
<path d="M181.781 183.333L178.205 179.757L179.148 178.815L184.333 184L179.148 189.185L178.205 188.243L181.781 184.667H173.667V183.333H181.781Z" fill="#000033"/>
</g>
<path d="M24 209H424C424 212.866 420.866 216 417 216H31C27.134 216 24 212.866 24 209Z" fill="#100FA8"/>
</g>
<defs>
<filter id="filter0_d_725_1933" x="0" y="0" width="448" height="254" filterUnits="userSpaceOnUse" color-interpolation-filters="sRGB">
<feFlood flood-opacity="0" result="BackgroundImageFix"/>
<feColorMatrix in="SourceAlpha" type="matrix" values="0 0 0 0 0 0 0 0 0 0 0 0 0 0 0 0 0 0 127 0" result="hardAlpha"/>
<feOffset dy="14"/>
<feGaussianBlur stdDeviation="12"/>
<feColorMatrix type="matrix" values="0 0 0 0 0 0 0 0 0 0 0 0 0 0 0.2 0 0 0 0.04 0"/>
<feBlend mode="normal" in2="BackgroundImageFix" result="effect1_dropShadow_725_1933"/>
<feBlend mode="normal" in="SourceGraphic" in2="effect1_dropShadow_725_1933" result="shape"/>
</filter>
<clipPath id="clip0_725_1933">
<rect width="32" height="32" fill="white" transform="translate(49 32)"/>
</clipPath>
<clipPath id="clip1_725_1933">
<rect width="16" height="16" fill="white" transform="translate(171 176)"/>
</clipPath>
</defs>
</svg>
